# .PCD v0.7 - Point Cloud Data file format
VERSION 0.7
FIELDS x y z intensity
SIZE 4 4 4 4
TYPE F F F F
COUNT 1 1 1 1
WIDTH 731
HEIGHT 1
VIEWPOINT 0 0 0 1 0 0 0
POINTS 731
DATA ascii
-31.652992 82.817726 3.786061 0
-31.525036 82.827446 3.7930391 0
2.5671315 53.55442 3.8924415 0
1.7591733 53.865898 3.8800352 0
0.91062599 54.07272 3.8692701 0
0.27928019 54.319321 3.8616931 0
-0.57709914 54.472801 3.8520126 0
-1.4047642 54.688026 3.8414602 0
-3.1400743 54.881248 3.8343148 0
-2.2571235 54.831394 3.8370996 0
-7.6923237 54.993828 3.8210056 0
-6.2921228 54.987831 3.8274982 0
-3.9763863 54.990108 3.8260541 0
-9.6973591 55.008179 3.8129613 0
-8.571413 55.040909 3.8183861 0
-7.1103344 55.020084 3.8213546 0
-5.4309893 55.017914 3.8280199 0
-12.948393 55.985786 3.871074 0
-12.311782 60.089928 3.8679297 0
-9.6717386 61.12851 3.8840294 0
-8.8718624 61.392422 3.8940549 0
-7.1182375 62.145351 3.8961248 0
-5.661962 62.668438 3.8996351 0
-34.548752 82.372437 3.875632 0
-31.391436 82.845421 3.8000703 0
-33.460484 82.934547 3.8899019 0
-31.290102 82.939995 3.8031378 0
-32.216591 83.007637 3.870575 0
11.513255 50.116158 3.9940546 0
11.108292 50.352924 3.9855733 0
10.594592 50.49929 3.9871142 0
-4.0273557 50.797401 3.9102929 0
8.9022465 51.343822 3.9592001 0
-2.0159469 51.576023 3.9734735 0
7.9383445 51.855503 3.9433212 0
7.1442881 52.301781 3.9276438 0
-4.1129894 52.705505 3.9196634 0
5.842514 52.78857 3.911869 0
4.9551792 53.056786 3.9039495 0
-11.719594 55.039799 3.9191391 0
-12.188702 55.28381 3.9905007 0
-12.954478 55.638927 3.9429862 0
-9.9149513 55.784122 3.9649537 0
-10.610726 56.798199 3.960062 0
-10.122605 56.804119 3.9776244 0
-8.5759563 60.110069 3.9499109 0
-11.740075 60.871178 3.9578452 0
-7.0301895 61.015942 3.9446366 0
-11.412872 61.357376 3.9392078 0
-5.8401966 61.583221 3.9534023 0
-4.6272354 62.104256 3.964922 0
-3.3545394 62.632641 3.9797301 0
-4.5432281 62.976963 3.9125845 0
-3.4232848 63.20435 3.9272239 0
-2.2720294 63.444351 3.9378855 0
-1.8973883 63.559258 3.9419725 0
-19.343336 63.820251 3.9832776 0
-22.021902 67.763748 3.935977 0
-31.481897 83.969841 3.9030876 0
-31.065613 84.001869 3.928592 0
-32.853851 84.40834 3.9971673 0
-30.934723 84.504623 3.9164248 0
-30.491617 84.627914 3.9495611 0
-29.223385 85.550293 3.9241543 0
6.498662 50.248344 4.0097089 0
7.0788946 50.376266 4.0152006 0
12.911318 51.482929 4.0874424 0
-0.23475116 52.109085 4.0534053 0
0.82219797 52.667084 4.0886741 0
-2.8538167 52.960472 4.0125904 0
-2.3376245 53.347603 4.0385003 0
-1.7616383 54.240089 4.0486612 0
-11.185049 55.401699 4.020617 0
-10.728843 56.897282 4.086977 0
-11.257453 57.259331 4.0403533 0
-11.693422 57.394173 4.0107851 0
-14.634423 62.026142 4.0385389 0
-17.177427 62.13076 4.0715804 0
-15.709992 62.386112 4.0466866 0
-14.860992 62.389805 4.0854921 0
-13.217701 62.646904 4.074923 0
-15.68791 62.761997 4.0551529 0
-13.52601 62.783772 4.0451608 0
-14.795094 62.886761 4.0848227 0
-15.890794 62.949245 4.0336113 0
-2.138891 62.963436 4.0020185 0
-1.7357417 63.123608 4.0062099 0
-17.626247 63.460266 4.072269 0
-18.622749 63.548717 4.0264659 0
-20.477592 66.963295 4.074451 0
-19.731144 67.443275 4.0365028 0
-20.4676 67.597267 4.0532265 0
-19.830418 67.61631 4.0856714 0
-19.985655 67.898865 4.0696368 0
-20.156754 68.37365 4.0469565 0
-20.312906 68.64209 4.0313106 0
-32.322224 84.222145 4.0555854 0
-34.870663 85.11187 4.0662932 0
-31.18672 86.138885 4.0765338 0
-26.146702 86.20076 4.0017872 0
-27.64909 86.702972 4.0107279 0
-26.660027 88.249657 4.0324712 0
-26.098568 88.67556 4.0631247 0
-23.625238 88.715858 4.0737319 0
-6.5704589 50.759174 4.1759677 0
14.699286 51.728436 4.1108727 0
16.82604 51.784679 4.1524992 0
-0.78062576 54.889355 4.101059 0
-12.719855 62.387756 4.1197596 0
-14.80951 62.491783 4.170342 0
-12.354197 62.564869 4.1274796 0
-15.636731 62.648365 4.117166 0
-12.776778 62.729065 4.1687455 0
-16.725592 62.886448 4.1811333 0
-13.83214 62.870872 4.1149859 0
-13.253862 63.063805 4.1389084 0
-15.630452 63.14806 4.1730609 0
-13.848343 63.153923 4.1082563 0
-12.609247 63.158916 4.1582317 0
-14.638502 63.487148 4.1963587 0
-16.628387 63.537796 4.11411 0
-13.343523 63.685089 4.193851 0
-11.036581 64.02449 4.1617126 0
2.9386826 64.112785 4.1090822 0
-17.595207 64.279305 4.1724448 0
-18.030884 64.334587 4.1454835 0
-16.297018 65.590813 4.1592746 0
-15.038319 65.534615 4.1910124 0
-17.565804 65.707314 4.125638 0
-10.011278 66.072449 4.1346006 0
-19.513592 66.497635 4.1867042 0
-19.040842 66.462502 4.184813 0
-18.245621 66.587723 4.1930838 0
-19.163408 66.673386 4.1803679 0
-13.415784 66.626945 4.1980639 0
-8.4727039 67.604065 4.1870232 0
-6.2348561 69.790184 4.1316504 0
-5.7065544 71.035545 4.1880879 0
-8.747674 72.355972 4.1528063 0
-31.376352 85.217171 4.1037135 0
-33.869785 85.819641 4.1207147 0
-30.398191 86.246796 4.149168 0
-28.620678 88.802803 4.1941261 0
-24.732037 88.962601 4.164331 0
-8.8649206 52.68082 4.2633533 0
-15.829579 62.926994 4.2284107 0
-14.929469 62.964005 4.2710342 0
-13.562424 62.92334 4.2046852 0
-12.483831 62.965004 4.2552466 0
-11.684114 63.22282 4.2800632 0
-11.277304 63.495735 4.2094483 0
-13.638612 63.510826 4.237977 0
-12.625615 63.608234 4.2705498 0
-12.227022 63.734333 4.2827973 0
-12.095954 63.882805 4.2018728 0
-17.168659 64.060509 4.2035666 0
-16.724045 64.053574 4.2296562 0
-16.284027 64.013397 4.2564754 0
-15.814528 64.08638 4.2766771 0
-10.575314 64.329338 4.2648473 0
-11.005698 64.720345 4.2888222 0
-9.8903084 65.224861 4.2421832 0
-9.8766966 65.470123 4.2010708 0
-13.796669 65.552895 4.220283 0
-14.906167 65.67289 4.2862315 0
-16.13995 65.863281 4.2548194 0
-18.132988 66.339691 4.2443972 0
-18.275709 66.617783 4.2350202 0
-17.32329 66.794304 4.2814145 0
-12.675448 66.819832 4.2120347 0
-9.0586529 67.69754 4.2369647 0
-16.168797 67.724373 4.2513146 0
-19.389755 68.222 4.2843089 0
-12.302883 68.312836 4.2053795 0
-20.067377 68.7883 4.203167 0
-7.9688544 69.033791 4.219769 0
-7.2667303 69.787292 4.2130404 0
-6.68223 70.533684 4.2065668 0
-3.7339995 73.875122 4.279027 0
-3.8423777 74.92028 4.2898932 0
-30.809534 87.70295 4.2266421 0
-28.365538 88.306732 4.2512193 0
-29.520395 88.824348 4.2639165 0
-27.811815 88.814423 4.2814775 0
-28.361893 89.012604 4.2070889 0
-24.18067 89.201508 4.2556105 0
-27.264488 89.488113 4.2728505 0
-25.553921 89.61631 4.2041497 0
-20.762083 95.304848 4.239006 0
-6.6759253 50.775818 4.3067365 0
-6.5556974 50.751232 4.3366566 0
-8.4921255 52.629395 4.3043699 0
-13.980721 63.249119 4.305346 0
-13.062621 63.329494 4.3487649 0
-15.360705 64.145798 4.3014755 0
-16.182858 64.840439 4.3735032 0
-10.54093 65.059082 4.3903656 0
-12.475047 65.508308 4.3428941 0
-13.695734 65.606522 4.3140302 0
-14.428256 65.8629 4.3995185 0
-9.9515915 65.841118 4.3770895 0
-11.304133 66.018654 4.355195 0
-17.237453 66.164268 4.3082819 0
-16.313555 66.151871 4.3634739 0
-15.53256 66.565941 4.392849 0
-16.396957 66.841972 4.3273754 0
-15.593675 66.921272 4.3131909 0
-14.607919 67.105728 4.3664274 0
-14.054191 67.265587 4.3936195 0
-10.097642 67.507767 4.3431911 0
-18.127905 67.961784 4.3842826 0
-19.043442 68.096886 4.3170872 0
-6.6348338 70.079803 4.3267879 0
-20.09341 70.122025 4.3486834 0
-6.6698918 71.892807 4.3055029 0
-5.0278573 73.604919 4.3573709 0
-4.1893377 74.637154 4.3516893 0
-25.910044 89.680298 4.3683453 0
-33.030136 94.038994 4.3882222 0
-33.210835 94.194794 4.375041 0
-8.5722628 52.491199 4.4264407 0
-11.445359 63.966022 4.4012632 0
-12.478134 64.731918 4.4280276 0
-15.171277 64.827087 4.4131188 0
-14.166765 64.813972 4.4525666 0
-13.141954 64.952606 4.4875174 0
-11.716494 65.501938 4.4252467 0
-14.532951 65.740913 4.4855137 0
-13.340206 65.747375 4.4559484 0
-11.920913 66.031746 4.4969683 0
-12.220613 66.171593 4.4975781 0
-15.358097 66.324631 4.4100723 0
-10.870599 66.553673 4.4193048 0
-11.745578 66.93985 4.4950943 0
-10.715115 67.450546 4.4939251 0
-17.16729 68.014214 4.4489179 0
-12.008194 68.390533 4.4827189 0
-9.9124346 68.596779 4.4847898 0
-15.981058 68.656189 4.4977827 0
-11.418063 68.894836 4.4989977 0
-9.5838375 69.181679 4.4798355 0
-9.0935736 69.66153 4.4792228 0
-8.8310995 70.023102 4.4758358 0
-8.0468254 70.93705 4.4616103 0
-7.6860013 71.331909 4.4754066 0
-16.687408 72.590019 4.4942536 0
-6.1750326 73.067963 4.4734054 0
-5.8381763 73.787598 4.4253097 0
-5.1984224 74.28598 4.4687886 0
-2.7582071 77.152863 4.4636168 0
-32.868469 93.84211 4.4010334 0
-6.5000081 50.854698 4.5025568 0
-8.5505857 52.771416 4.5774951 0
48.19286 52.72501 4.577558 0
-13.627368 65.631363 4.5396595 0
-12.488585 66.041885 4.5819712 0
-12.057054 66.223991 4.5942492 0
-11.243654 67.103729 4.5940533 0
-11.050995 67.364578 4.5184345 0
-10.933136 67.541183 4.5188446 0
-15.250772 68.674904 4.5669413 0
-15.051311 68.66394 4.5790977 0
-15.548031 68.8479 4.5204864 0
-9.7374964 68.812683 4.5910654 0
-9.2991991 69.215202 4.5981326 0
-10.796251 69.524193 4.5161095 0
-10.27268 70.1688 4.5271444 0
-8.4842939 70.166962 4.5927458 0
-7.5822167 71.253067 4.5876489 0
-7.7394333 71.727951 4.5481777 0
-16.416718 72.340439 4.5197988 0
-15.353308 72.412292 4.5698495 0
-15.811227 72.816711 4.5284996 0
-5.7342224 73.663017 4.5645061 0
-5.1568618 74.273743 4.5648823 0
-4.4579258 76.231094 4.5730476 0
-23.359169 76.890388 4.5534978 0
-22.724722 77.454498 4.5839772 0
-3.5575097 77.59343 4.5760903 0
-3.1276963 78.927368 4.5678892 0
-2.9592314 79.126602 4.5727043 0
-30.738861 97.718864 4.5373278 0
-30.965487 97.874924 4.5282764 0
-31.17697 98.087288 4.517766 0
-8.064846 53.312241 4.6268549 0
-9.0125322 55.169445 4.6902137 0
-13.936174 68.578552 4.6375027 0
-14.416748 68.626938 4.6049018 0
-13.424816 68.636703 4.6719027 0
-12.976534 68.7995 4.6907711 0
-14.860665 72.276894 4.6042657 0
-14.247425 72.62722 4.6179609 0
-12.476213 73.272217 4.6780291 0
-42.290527 77.103333 4.6049652 0
-22.021929 77.722328 4.6205649 0
-0.96985763 80.91555 4.6031747 0
0.01781174 82.148247 4.6146789 0
-0.24563745 82.809349 4.6378832 0
1.7581639 85.744469 4.6846619 0
-12.270214 62.003925 4.7879872 0
-12.247268 69.427521 4.769331 0
-11.774745 69.400139 4.7356572 0
-12.834721 69.512947 4.7521768 0
-13.405933 69.640106 4.7344022 0
-13.97679 69.774406 4.7164564 0
-11.110598 70.156685 4.7428803 0
-10.783362 70.76799 4.7737226 0
-10.899683 70.837357 4.7690339 0
-9.172781 72.696899 4.7387981 0
-11.123431 74.17131 4.7086039 0
-9.3286409 74.837296 4.7699022 0
-7.3381362 75.371407 4.7482209 0
-6.6038933 75.980133 4.7519612 0
-6.3836131 76.090553 4.740881 0
-5.8351655 76.714676 4.7537622 0
-5.0489674 77.444908 4.7562523 0
-9.2304468 78.736465 4.7558985 0
-3.7217751 78.789894 4.7576795 0
-3.0720825 79.541115 4.7733846 0
-2.0603571 80.770256 4.7521191 0
-1.0966351 81.959465 4.7479029 0
0.69541228 83.899635 4.7859793 0
6.6059489 91.268433 4.7727623 0
6.9584169 92.47094 4.7791047 0
-6.4041619 50.670162 4.8459959 0
-6.6616416 50.84029 4.8612528 0
-6.397006 50.93375 4.825695 0
-6.7792754 52.42524 4.802135 0
-8.4598064 52.669327 4.820817 0
-8.4609823 53.162266 4.8351746 0
-10.083817 75.824905 4.8287554 0
-4.5460711 79.348518 4.8021126 0
-3.5579877 80.21611 4.8152142 0
-36.173122 80.511017 4.8190031 0
-5.6876888 81.743324 4.865056 0
-32.636864 93.628159 4.8857493 0
-19.848335 70.335381 4.9249382 0
-32.388546 93.222656 4.9445601 0
-31.903978 93.364265 4.957346 0
-33.036922 94.06881 4.9782071 0
-32.784767 93.245834 5.0626359 0
-32.585705 93.710182 5.0260658 0
-30.173981 97.924751 5.0338006 0
-19.694807 70.343758 5.1126909 0
-19.59659 70.597336 5.1117864 0
-42.307251 77.001091 5.1593475 0
-36.340683 79.989212 5.1198368 0
-28.774187 96.781013 5.1813202 0
-29.5224 97.417336 5.1051064 0
-30.632544 98.395187 5.1256952 0
-30.832211 98.755653 5.1941195 0
-42.304199 76.087776 5.2997718 0
-42.788391 76.166992 5.2805381 0
-42.863785 76.745163 5.2282333 0
-42.348019 76.791176 5.2478671 0
-42.009121 76.710136 5.2843637 0
-43.379341 76.815369 5.2674537 0
-29.618269 96.860588 5.2131114 0
-29.470549 97.347878 5.2466145 0
-30.084173 97.872131 5.2627587 0
-19.705441 70.378876 5.3479705 0
-42.186935 76.149368 5.3264942 0
-43.368027 76.663658 5.3619361 0
-43.403965 76.771461 5.3152971 0
-41.615784 76.962883 5.3709426 0
-41.574375 77.208069 5.3765731 0
-35.19875 79.878525 5.3662224 0
-28.615877 96.55249 5.3874993 0
-28.693205 96.721802 5.3161469 0
-29.349566 97.217789 5.3278489 0
-29.530628 97.612289 5.3447137 0
-30.203836 98.284241 5.3504872 0
-41.684826 76.919456 5.449543 0
-36.775253 79.728409 5.4396672 0
-36.979195 79.880775 5.4356852 0
-35.959915 80.136879 5.4682446 0
-37.434326 80.698509 5.4962058 0
-42.462234 76.306 5.5703521 0
-28.962557 96.672195 5.5308461 0
-34.743839 50.2076 5.6999111 0
-20.395279 64.175362 5.626379 0
-20.302881 64.230568 5.6310697 0
-42.001457 76.213364 5.6125231 0
-41.890385 76.22142 5.6224542 0
-41.589943 76.306602 5.6329184 0
-43.747295 76.736832 5.6808472 0
-42.340984 76.951225 5.6781912 0
-41.319752 77.340042 5.6879921 0
-36.610729 79.125 5.6675491 0
-37.451488 80.644409 5.6889796 0
-37.174778 51.004295 5.784966 0
-41.898178 76.011681 5.7696395 0
-42.168327 76.244499 5.7629957 0
-41.746933 76.246796 5.782846 0
-42.91275 76.455185 5.7609377 0
-42.9473 76.543823 5.7294278 0
-43.839352 76.623291 5.7500772 0
-42.380791 76.633926 5.7586651 0
-43.436935 76.77916 5.7002368 0
-35.137131 78.800766 5.747375 0
-36.253784 79.296814 5.7459993 0
-36.637985 79.388 5.7270117 0
-36.515388 79.447617 5.7039981 0
-35.833576 79.949348 5.744401 0
-34.089565 94.768951 5.7521501 0
-30.25419 97.936203 5.799171 0
-30.44595 98.081093 5.7920332 0
-22.893534 98.191322 5.7780085 0
-30.625603 98.2621 5.7847786 0
-22.661028 98.532372 5.7896361 0
-19.595381 70.321991 5.8072233 0
-42.875046 76.049805 5.8167171 0
-42.737362 76.398956 5.8662786 0
-43.459373 76.43 5.8157735 0
-43.335854 76.437798 5.8251858 0
-42.980206 76.433456 5.847465 0
-42.876667 76.470375 5.8552227 0
-43.363632 76.921005 5.8305526 0
-43.261909 76.94809 5.8382401 0
-34.633751 79.822906 5.8374143 0
-33.389633 96.066193 5.8626466 0
-28.655148 96.490677 5.8697829 0
-28.814074 96.679932 5.8634176 0
-28.986046 96.854149 5.8516865 0
-29.173683 96.988632 5.8449945 0
-29.349232 97.159233 5.8381629 0
-29.546509 97.336998 5.8732166 0
-29.712416 97.464325 5.8246245 0
-29.887693 97.634827 5.8128023 0
-30.079458 97.779709 5.8056679 0
-30.605322 98.28334 5.8422785 0
-23.047325 98.409294 5.8764944 0
-42.964073 75.905525 5.9347906 0
-41.39209 76.729294 5.9684205 0
-44.091919 77.133018 5.9543982 0
-41.782043 77.189552 5.9454827 0
-25.984304 90.423645 5.9712558 0
-26.914593 90.809418 5.9555302 0
-34.437019 94.707916 5.9423571 0
-28.553989 96.800522 5.9341884 0
-29.384962 97.217941 5.9031773 0
-30.324696 97.679482 5.9068785 0
-30.514072 97.864861 5.9042029 0
-12.485302 61.954079 6.0543456 0
-20.290792 64.061623 6.0946665 0
-20.118225 64.206604 6.0900784 0
-20.31505 64.32589 6.0638099 0
-8.4248295 68.462875 6.0269175 0
-19.747164 70.358223 6.070581 0
-41.520824 77.027069 6.0199294 0
-36.151222 78.601418 6.0843191 0
-35.644054 78.612297 6.0741878 0
-36.404381 78.737473 6.0706224 0
-36.819622 78.997261 6.049458 0
-37.3783 79.523491 6.0023761 0
-37.409481 80.091133 6.0502462 0
-33.082474 96.13665 6.0291743 0
-27.314028 97.861504 6.0050974 0
-16.998068 103.34297 6.0617576 0
-12.533652 61.92886 6.142777 0
-20.045799 64.352356 6.1198797 0
-41.902679 76.202972 6.100348 0
-36.201729 78.484337 6.1093369 0
-35.962013 78.599602 6.1224761 0
-34.786663 79.333122 6.1846886 0
-28.299807 96.692528 6.1212878 0
-27.891979 97.155022 6.190815 0
-27.57023 97.546631 6.169929 0
-20.811504 64.005684 6.271143 0
-20.509747 64.215141 6.2992907 0
-10.351498 65.18058 6.2702875 0
-24.801651 72.627274 6.2573118 0
-36.340927 78.34272 6.2972136 0
-35.238045 78.306374 6.2640295 0
-36.940529 79.013832 6.2762232 0
-37.180595 79.380905 6.2714381 0
-37.352531 79.565475 6.2661395 0
-37.242893 79.770943 6.2778606 0
-27.022091 98.171638 6.2354803 0
-43.212318 50.67841 6.3293796 0
-12.287556 62.14711 6.3668613 0
-21.005857 63.955105 6.3724523 0
-20.712631 64.062843 6.3765397 0
-20.530407 64.072792 6.3794394 0
-42.672028 76.059036 6.3895259 0
-36.434887 78.253342 6.3513222 0
-35.597881 78.286873 6.3455744 0
-35.911022 78.609177 6.3948717 0
-36.415043 79.070984 6.3578458 0
-36.190315 79.053169 6.3745399 0
-36.088593 79.062935 6.3823633 0
-36.002243 79.409546 6.346396 0
-24.615976 91.629326 6.3929105 0
-12.541523 62.224808 6.416111 0
-20.543486 64.006973 6.4740329 0
-20.572351 64.144295 6.4229708 0
-20.70002 64.225647 6.4634409 0
-20.249264 64.277184 6.4819913 0
-42.733315 76.043343 6.4867005 0
-42.951809 77.547325 6.412993 0
-42.705151 77.554909 6.4288511 0
-42.877991 77.695221 6.4183617 0
-35.535156 78.41864 6.4136581 0
-35.259293 78.829498 6.4440317 0
-41.302135 79.680283 6.4928598 0
-35.786293 81.357689 6.4794426 0
-24.429703 91.921112 6.4024515 0
-22.563713 98.214485 6.4952822 0
-20.455685 64.006004 6.5872803 0
-20.240688 64.404091 6.5637789 0
-20.066772 64.493202 6.5051184 0
-20.153145 64.509041 6.5674167 0
-20.1863 65.671936 6.5155878 0
-16.242872 74.406593 6.5691643 0
-41.997349 76.399704 6.5443244 0
-41.391918 77.196594 6.5981431 0
-43.358505 77.265152 6.5534496 0
-43.182655 77.329201 6.5849848 0
-35.161385 79.600052 6.5905972 0
-34.576138 79.745651 6.5121274 0
-34.422417 81.097298 6.5437484 0
-33.609406 82.216927 6.5640101 0
-20.414396 64.255066 6.6942215 0
-21.069345 66.612473 6.662683 0
-43.313786 76.351364 6.6019607 0
-34.37355 79.124077 6.6873136 0
-37.046265 79.447121 6.6689854 0
-38.13644 80.18293 6.6706271 0
-31.579092 99.03447 6.6309495 0
-43.499939 76.606346 6.7754931 0
-14.16165 77.693954 6.764626 0
-42.212799 78.575165 6.7790451 0
-36.931232 78.941635 6.7927251 0
-8.3008738 80.68174 6.7936015 0
-24.07185 91.191399 6.7249632 0
-30.110655 97.704445 6.7094321 0
-37.621655 50.98859 6.8751831 0
-35.827492 78.333183 6.8451276 0
-36.210602 78.439148 6.8213105 0
-35.280575 78.530968 6.8804455 0
-37.088509 79.140678 6.8981791 0
-37.869907 79.601013 6.8790259 0
-7.4826632 80.787941 6.8331175 0
-28.540241 96.58181 6.8024197 0
-43.015251 50.643326 6.9038897 0
-43.308147 76.347618 6.9107919 0
-42.510815 76.886795 6.9894123 0
-33.726364 77.793243 6.9347453 0
-36.549683 78.396141 6.9218869 0
-36.427238 78.365227 6.9511561 0
-36.226334 78.509941 6.9659209 0
-34.98196 78.848938 6.9055901 0
-35.543282 79.394394 6.9404445 0
-33.279499 80.186584 6.9859524 0
-25.628716 89.451836 6.9110289 0
-11.550469 70.606033 7.0665226 0
-43.121773 76.158226 7.0893397 0
-42.875034 76.115082 7.0214801 0
-44.029293 76.566063 7.0888629 0
-41.430447 77.688133 7.0738249 0
-36.556438 78.434471 7.0486822 0
-35.251442 78.45369 7.0112514 0
-35.066257 78.407974 7.0399508 0
-7.7739758 81.188606 7.0464039 0
-8.2369194 81.403809 7.0126319 0
-34.341305 81.514969 7.0180249 0
-26.918438 90.368767 7.0201111 0
-12.054629 70.86187 7.1384411 0
-42.448643 76.66655 7.1558409 0
-43.164021 76.792107 7.1492295 0
-34.144848 79.361153 7.1203699 0
-34.369671 79.863823 7.1616678 0
-25.266758 90.19149 7.1052561 0
-26.539274 90.564781 7.1682982 0
-32.061092 51.707657 7.2513642 0
-42.977886 76.11216 7.2278872 0
-11.036719 77.297462 7.24617 0
-35.495899 78.263901 7.2965741 0
-35.620113 78.315865 7.2872429 0
-36.026772 78.485435 7.2097387 0
-8.412097 81.023445 7.2200618 0
-43.637573 77.000481 7.3301892 0
-36.7318 78.525177 7.3357668 0
-35.908897 78.712715 7.399065 0
-35.460476 78.732811 7.3420329 0
-42.486382 75.805412 7.4307714 0
-35.529408 78.985855 7.4552712 0
-36.215023 79.170067 7.4014835 0
-37.996937 80.060257 7.438962 0
-33.705799 80.557404 7.4382329 0
-2.904984 85.413094 7.4618115 0
-0.70486969 85.734924 7.4784327 0
-0.92034167 85.956436 7.461617 0
-29.450613 50.021011 7.515213 0
-31.868328 50.247818 7.5501261 0
-41.385441 78.075867 7.5861979 0
-37.21236 78.397171 7.5612092 0
-36.721546 78.677971 7.5792723 0
-37.818626 78.883423 7.5666132 0
-37.518951 78.881165 7.5727048 0
-37.680294 78.933815 7.5698948 0
-37.314419 79.031036 7.5277977 0
-36.431637 79.335007 7.5351896 0
-34.29874 79.397026 7.5756474 0
-42.187397 76.02729 7.632587 0
-35.7873 78.795761 7.6294913 0
-35.904236 78.837677 7.6263576 0
-35.941677 78.965363 7.6646762 0
-37.031277 79.200005 7.6319709 0
-35.1586 79.296242 7.6315341 0
-34.466835 79.307472 7.6849604 0
-34.166245 80.243027 7.6679268 0
-34.361446 80.395508 7.6702933 0
-34.509174 80.419609 7.6689696 0
-36.965794 78.639877 7.7225885 0
-35.184853 79.5513 7.720057 0
-35.245647 78.988319 7.8511448 0
-0.88310969 85.729065 7.8930502 0
5.9520431 94.382553 7.8340302 0
-42.708176 75.992348 7.9645314 0
-42.374012 76.388306 7.9832373 0
-43.667023 76.809601 7.9619675 0
-43.544498 76.82489 7.9317493 0
-41.528755 76.812263 7.9879303 0
-43.380573 77.475983 7.9483223 0
-11.096157 77.476547 7.940834 0
-36.205875 78.973297 7.9693494 0
-42.147419 77.030685 8.0263395 0
-34.547657 80.047844 8.0173979 0
-42.881142 75.996658 8.1210432 0
-37.750053 79.963539 8.1701746 0
-23.749462 99.680557 8.1533852 0
-30.661001 50.135204 8.21766 0
-29.542877 50.333523 8.2266722 0
-34.183701 55.191959 8.2986364 0
-42.021698 76.369675 8.2467432 0
-41.861855 76.594963 8.2286568 0
-42.995235 76.603889 8.2542067 0
-41.515038 77.114258 8.2822342 0
-35.836166 79.096077 8.2545166 0
-36.024925 79.240143 8.2456932 0
-33.379025 51.15897 8.3901815 0
-35.448517 55.678619 8.326149 0
-33.335587 56.118683 8.3449669 0
-42.644161 76.620369 8.3290453 0
-41.996811 76.961617 8.3873568 0
-35.703495 79.104057 8.3810778 0
-34.143372 79.976898 8.3409834 0
-37.972809 80.107033 8.3051777 0
-42.658077 76.487144 8.4760256 0
-41.83799 76.627823 8.4554338 0
-43.07452 77.093666 8.4976959 0
-37.060291 79.338989 8.4382372 0
-36.516163 79.568207 8.4933014 0
-34.679638 80.070534 8.475523 0
-1.4786247 85.880394 8.4694004 0
-43.104412 77.024292 8.5398655 0
-35.551914 79.011894 8.5456171 0
-37.133076 79.310432 8.5428333 0
-34.995499 79.709999 8.5676918 0
-35.095684 80.934692 8.502079 0
-42.13369 76.410706 8.6727867 0
-36.245689 79.702759 8.6712971 0
-43.122917 76.982079 8.7308807 0
-36.979023 79.311317 8.7417688 0
-34.948166 79.346397 8.7577763 0
-41.259708 79.666916 8.7303658 0
-41.121174 79.746475 8.7311649 0
-37.59074 79.807632 8.7211685 0
-35.590881 80.228302 8.7552433 0
-36.857025 83.237152 8.7559376 0
-36.697552 83.324043 8.7573566 0
-2.2105143 85.977989 8.7347727 0
-2.5723319 86.16777 8.7110195 0
-43.04126 76.97731 8.9651241 0
-36.273422 79.287994 8.9896088 0
-36.444393 79.508354 8.9926577 0
-36.996208 79.644279 8.9756012 0
-34.816822 79.632523 8.9117498 0
-35.179821 80.462944 8.9425259 0
-37.327042 79.110909 9.0835428 0
-37.036823 79.377792 9.0787907 0
-35.326389 79.361664 9.04527 0
-36.240204 79.409882 9.0177374 0
-36.370277 79.519447 9.0670967 0
-37.009766 79.742081 9.0989141 0
-1.5573192 85.726662 9.0988264 0
-42.109921 76.776443 9.1640615 0
-42.019493 77.0896 9.187542 0
-42.883339 77.384071 9.1663065 0
0.14800471 86.880745 9.265048 0
-42.088924 77.057388 9.3140211 0
-42.380604 77.149345 9.3348274 0
-42.714989 76.997803 9.4010487 0
-42.523773 77.062729 9.4718866 0
-36.492664 79.360085 9.4828625 0
-42.434994 77.024765 9.5250683 0
-41.958553 77.054031 9.5780544 0
-35.102444 79.411461 9.5738983 0
-34.699829 80.343224 9.5896387 0
-2.1475039 86.251671 9.5900974 0
-42.231232 77.102364 9.6172667 0
-36.252167 79.399918 9.6365051 0
-35.22298 79.362427 9.6387186 0
-34.651089 79.392838 9.6019192 0
-36.274086 79.413361 9.6118879 0
-1.3104112 86.593048 9.6380234 0
1.0235164 87.485359 9.695528 0
-36.874535 79.492538 9.7358742 0
-35.05407 79.836426 9.7646885 0
0.088641599 87.201286 9.7204075 0
-42.032364 77.14756 9.8932743 0
-34.676044 80.414665 9.8225718 0
-3.9548817 87.655403 9.9293509 0
-42.554733 77.131271 10.167214 0
-37.12859 79.465401 10.1079 0
-36.415054 79.440285 10.152975 0
-37.102715 79.642776 10.116385 0
-36.226109 79.853683 10.178199 0
-3.1972873 87.167076 10.189807 0
-37.414711 79.773788 10.364197 0
-36.800041 80.1036 10.365386 0
-42.223694 77.145668 10.400915 0
-36.350761 79.658409 10.689664 0
-37.3424 79.958565 10.649817 0
-36.136063 79.97242 10.626287 0
-36.54789 80.141968 10.689301 0
-35.818962 80.46302 10.662354 0
-35.915279 80.13443 11.057598 0
-35.567261 80.137032 11.074238 0
-35.746742 80.159744 11.130843 0
