# .PCD v0.7 - Point Cloud Data file format
VERSION 0.7
FIELDS x y z intensity
SIZE 4 4 4 4
TYPE F F F F
COUNT 1 1 1 1
WIDTH 549
HEIGHT 1
VIEWPOINT 0 0 0 1 0 0 0
POINTS 549
DATA ascii
-127.74576 -172.23827 -12.846645 0
-130.81473 -168.44473 -12.645905 0
-129.78271 -170.38223 -12.580376 0
-130.67323 -169.92509 -12.574735 0
-130.91667 -169.76701 -12.554833 0
-137.41289 -164.76509 -12.110077 0
-137.04553 -164.75575 -12.179698 0
-138.57716 -163.32512 -12.17119 0
-138.75777 -163.19724 -12.159725 0
-136.74464 -165.38943 -12.031117 0
-136.94402 -165.23837 -12.013085 0
-138.17419 -164.03885 -12.080724 0
-139.86163 -162.26395 -12.004892 0
-140.30785 -161.60626 -12.009852 0
-140.47087 -161.57109 -12.007793 0
-135.0433 -167.39333 -11.916778 0
-141.1781 -160.70222 -11.927427 0
-141.31261 -160.65805 -11.930695 0
-102.48376 -158.53476 -11.983082 0
-118.24215 -154.42056 -11.92767 0
-136.87428 -165.4953 -11.856327 0
-138.03818 -164.77071 -11.871457 0
-139.90552 -162.68553 -11.849799 0
-140.32773 -162.16672 -11.804836 0
-102.62878 -157.9249 -11.849651 0
-143.12627 -159.27577 -11.795756 0
-143.61832 -159.00113 -11.772104 0
-143.95042 -158.8923 -11.710621 0
-144.10526 -158.67946 -11.701447 0
-144.52379 -156.95139 -11.704094 0
-118.15172 -154.47174 -11.709663 0
-140.18941 -162.23819 -11.659891 0
-143.52353 -160.01195 -11.630022 0
-142.92593 -159.94273 -11.618612 0
-144.39958 -158.35782 -11.692954 0
-144.61963 -157.75414 -11.64612 0
-103.39241 -155.40669 -11.614027 0
-147.00998 -153.5954 -11.605517 0
-144.0813 -159.14545 -11.556457 0
-147.58453 -152.97028 -11.588271 0
-146.69662 -155.9088 -11.481524 0
-148.47949 -155.30487 -11.436484 0
-140.24419 -155.38507 -11.482617 0
-148.8606 -155.15662 -11.424864 0
-146.68167 -154.73647 -11.490448 0
-140.32254 -154.71774 -11.40741 0
-147.78391 -154.43289 -11.490759 0
-147.57973 -153.6832 -11.450397 0
-148.07413 -153.13594 -11.435493 0
-131.18289 -150.63686 -11.431753 0
-146.60388 -156.6425 -11.355154 0
-146.90588 -156.32021 -11.328875 0
-146.78032 -156.37814 -11.318165 0
-149.48016 -154.58224 -11.371362 0
-149.30492 -154.3808 -11.394702 0
-149.41768 -154.17375 -11.369845 0
-149.60048 -152.27084 -11.389176 0
-149.02515 -151.20683 -11.379171 0
-149.95428 -151.1971 -11.371882 0
-148.14374 -150.07611 -11.371886 0
-147.92352 -155.74034 -11.26997 0
-149.64351 -154.79066 -11.224696 0
-118.27297 -154.35585 -11.270605 0
-143.79199 -160.50615 -11.14324 0
-110.33068 -163.85791 -11.098307 0
-110.31844 -164.17801 -10.997355 0
-143.26804 -160.51607 -10.982831 0
-143.74298 -160.28433 -10.982133 0
-147.85858 -156.60457 -10.995982 0
-147.14908 -155.82967 -10.956886 0
-95.178993 -155.59393 -10.945281 0
-118.42258 -154.53419 -10.953332 0
-138.78825 -163.66119 -10.808437 0
-129.12032 -168.27153 -10.71168 0
-95.482361 -161.22658 -10.772113 0
-143.26051 -160.47475 -10.713194 0
-149.81012 -154.64854 -10.781357 0
-129.08415 -168.25101 -10.600448 0
-110.28247 -164.3026 -10.681712 0
-95.413353 -160.79257 -10.646395 0
-148.29968 -156.31935 -10.615786 0
-136.34056 -164.37718 -10.526963 0
-143.65822 -160.05403 -10.589824 0
-147.1537 -155.317 -10.568104 0
-137.39169 -162.77197 -10.452329 0
-147.45735 -155.32988 -10.478698 0
-103.11763 -154.88754 -10.481568 0
-95.045746 -150.47017 -10.413976 0
-125.9266 -172.3912 -10.351848 0
-139.44386 -161.86555 -10.305455 0
-141.80396 -161.22 -10.384081 0
-95.162392 -160.93549 -10.315155 0
-148.86143 -156.08987 -10.360462 0
-146.26198 -155.9834 -10.303598 0
-146.53351 -155.84875 -10.377218 0
-149.40843 -155.73624 -10.339228 0
-147.41139 -155.0425 -10.385294 0
-129.04288 -168.53607 -10.245715 0
-134.59721 -165.14273 -10.233838 0
-110.27179 -164.0914 -10.297519 0
-141.78342 -161.17293 -10.213996 0
-141.06667 -159.54504 -10.260381 0
-146.55359 -156.05768 -10.268989 0
-147.32254 -155.69241 -10.270452 0
-147.11168 -155.20888 -10.220861 0
-142.52774 -160.81779 -10.173084 0
-141.57202 -160.21013 -10.164645 0
-140.93571 -159.4845 -10.137049 0
-149.9624 -155.10771 -10.109818 0
-139.32091 -160.96844 -10.004456 0
-146.58044 -155.87946 -10.07914 0
-145.83003 -155.76349 -10.057076 0
-147.38623 -155.24371 -10.042706 0
-131.03662 -168.27226 -9.9424868 0
-134.15918 -165.19885 -9.949935 0
-143.25249 -159.16312 -9.9197006 0
-137.73064 -162.81734 -9.8272762 0
-137.44319 -162.82487 -9.8284664 0
-145.11603 -156.65906 -9.8758011 0
-142.43199 -159.05792 -9.726449 0
-141.64908 -159.05621 -9.7100134 0
-141.55673 -158.96301 -9.700778 0
-141.10289 -158.83801 -9.7528505 0
-147.05669 -155.7186 -9.7496881 0
-128.42876 -168.96078 -9.6720104 0
-130.18504 -168.07495 -9.6419077 0
-131.64862 -167.75044 -9.6434193 0
-142.34027 -159.30156 -9.6826487 0
-141.95605 -159.29541 -9.6511297 0
-143.33734 -159.07176 -9.601387 0
-141.19415 -158.84598 -9.6894989 0
-141.08513 -158.81888 -9.6193781 0
-145.39474 -156.53856 -9.6101379 0
-148.75381 -153.70035 -9.6537352 0
-134.17117 -165.7282 -9.5730028 0
-140.17049 -159.93024 -9.5082026 0
-143.50066 -158.82655 -9.5825434 0
-141.85371 -158.83412 -9.5017204 0
-147.07451 -156.46408 -9.5519438 0
-146.23317 -156.2225 -9.596715 0
-145.88875 -156.20644 -9.5908461 0
-145.98692 -156.17804 -9.5086937 0
-147.61662 -155.44748 -9.5264816 0
-149.84724 -152.32808 -9.5823889 0
-138.96548 -160.394 -9.4289541 0
-142.01079 -158.9538 -9.4551525 0
-141.11229 -158.97778 -9.4520655 0
-145.34691 -155.74649 -9.425539 0
-145.22916 -155.72487 -9.4179811 0
-147.72311 -154.0173 -9.4216681 0
-148.42386 -153.84558 -9.447485 0
-149.59555 -152.4267 -9.4033613 0
-130.9671 -167.68407 -9.3750448 0
-134.18605 -165.70795 -9.3228388 0
-139.21275 -161.06902 -9.389267 0
-144.73662 -156.26437 -9.3228064 0
-144.55359 -156.17494 -9.3948908 0
-141.12164 -158.75223 -9.2958384 0
-145.51436 -156.08401 -9.2289782 0
-147.67763 -155.21112 -9.2860994 0
-148.89168 -153.97432 -9.2271662 0
-140.3456 -159.90292 -9.1426544 0
-148.0322 -154.25966 -9.1243057 0
-148.05048 -154.19759 -9.1751165 0
-149.50974 -152.94087 -9.1783915 0
-149.38855 -152.78893 -9.1326227 0
-129.93549 -168.44926 -9.0242901 0
-130.70438 -167.86032 -9.0266275 0
-131.91866 -166.918 -9.0674801 0
-144.8884 -156.446 -9.06285 0
-145.2617 -156.20174 -9.0809193 0
-148.73599 -154.35622 -9.0821266 0
-149.57184 -152.62877 -9.0168123 0
-132.26227 -166.86234 -8.9800863 0
-139.49915 -160.97176 -8.9061794 0
-140.22867 -158.32277 -8.9150877 0
-140.09962 -158.30255 -8.903019 0
-144.94891 -156.16344 -8.907093 0
-149.20044 -153.54762 -8.9740658 0
-139.15869 -161.345 -8.8040752 0
-139.43884 -161.09288 -8.8595228 0
-149.49684 -153.82216 -8.7425575 0
-149.30705 -153.34581 -8.7273245 0
-147.47183 -154.08922 -8.640295 0
-130.41467 -168.71983 -8.5479155 0
-140.44528 -160.34892 -8.5177498 0
-140.6662 -160.13087 -8.5331202 0
-141.42384 -159.82132 -8.4395018 0
-140.60527 -160.00688 -8.3477621 0
-142.5372 -159.13448 -8.3352623 0
-146.10474 -155.19055 -8.3996582 0
-95.265022 -150.73184 -8.3481483 0
-143.2934 -160.61371 -8.283742 0
-140.83969 -160.15216 -8.2624025 0
-141.82706 -159.99969 -8.2830257 0
-149.70886 -151.32628 -8.2358313 0
-142.46722 -159.02322 -8.1538343 0
-148.26953 -154.31488 -8.1503887 0
-148.90215 -153.17424 -8.1372862 0
-149.47754 -152.1785 -8.1232853 0
-95.118568 -152.01346 -8.1825037 0
-144.91811 -156.40239 -8.0305529 0
-144.4496 -156.43286 -8.0220051 0
-144.20465 -156.4998 -8.0121288 0
-144.59833 -156.33461 -8.0083971 0
-147.6842 -154.05602 -8.0992737 0
-146.8474 -153.96112 -8.040782 0
-148.42899 -153.85022 -8.0647383 0
-147.21623 -153.81479 -8.0604887 0
-135.88855 -164.63348 -7.9018798 0
-140.00534 -160.84822 -7.9511042 0
-141.65092 -160.08766 -7.993597 0
-95.270645 -155.18027 -7.9851298 0
-147.79803 -154.17241 -7.9289069 0
-95.24736 -151.07863 -7.9906216 0
-135.78925 -164.62619 -7.8028779 0
-141.0867 -160.22652 -7.8519225 0
-141.00288 -160.02084 -7.8366928 0
-144.66557 -156.45447 -7.8170791 0
-144.56306 -156.41498 -7.8107901 0
-144.35629 -156.25433 -7.8922968 0
-132.88184 -167.63724 -7.7440286 0
-143.40109 -158.85843 -7.7889614 0
-144.4745 -156.30139 -7.7962813 0
-140.56882 -161.23364 -7.6154747 0
-140.35703 -160.80951 -7.6531487 0
-140.28761 -160.75536 -7.6501126 0
-142.41643 -160.04364 -7.6916475 0
-146.29706 -154.47794 -7.6755729 0
-146.90544 -154.19531 -7.6880732 0
-149.85486 -150.95551 -7.6466165 0
-135.7939 -162.99687 -7.5219908 0
-141.07631 -161.40509 -7.5595012 0
-142.57918 -160.28917 -7.5305867 0
-142.27722 -160.05644 -7.5315838 0
-95.224617 -151.0845 -7.5498738 0
-95.245132 -150.0569 -7.4542208 0
-149.25192 -152.26237 -7.359098 0
-118.37912 -179.98602 -7.2975202 0
-142.1487 -161.36006 -7.2429047 0
-142.17632 -160.42163 -7.2290759 0
-143.89488 -158.87434 -7.243897 0
-145.65283 -157.29292 -7.2557216 0
-146.733 -154.94041 -7.2323804 0
-148.62892 -152.36191 -7.2234716 0
-141.20052 -160.52533 -7.18434 0
-141.61011 -159.95581 -7.1808619 0
-142.04771 -159.89336 -7.1987386 0
-141.94446 -159.8231 -7.1915088 0
-141.88101 -159.7074 -7.1854739 0
-146.87189 -155.89818 -7.1673346 0
-143.28835 -160.71307 -7.0701923 0
-143.1507 -160.68295 -7.0135627 0
-143.0047 -160.55899 -7.0622773 0
-141.1393 -160.52428 -7.0347466 0
-144.11475 -158.78752 -7.065907 0
-125.80683 -172.28514 -6.8787322 0
-147.57077 -157.89507 -6.8003559 0
-147.73405 -155.21709 -6.8251581 0
-146.98859 -155.08691 -6.8048825 0
-102.3007 -164.36101 -6.7238021 0
-147.48405 -157.74066 -6.793756 0
-147.31102 -154.9967 -6.7360044 0
-102.30262 -164.1895 -6.5051665 0
-143.22917 -160.8101 -6.5789671 0
-95.602547 -159.94756 -6.5651164 0
-146.59354 -155.89609 -6.5051856 0
-143.2076 -160.71239 -6.434072 0
-128.03963 -175.09145 -6.2497129 0
-143.15672 -160.75105 -5.975328 0
-148.69209 -155.49458 -5.9095364 0
-148.47069 -153.0011 -5.9434528 0
-137.93245 -164.79637 -5.8686748 0
-143.18642 -160.74727 -5.6833096 0
-144.96329 -160.3101 -5.6535587 0
-144.54176 -160.29721 -5.6996818 0
-146.58665 -155.44173 -5.6255884 0
-147.72945 -154.54155 -5.6493926 0
-144.84288 -160.32718 -5.5966425 0
-146.49075 -158.93259 -5.5189257 0
-147.27255 -157.43837 -5.5895414 0
-146.80994 -155.82132 -5.5781598 0
-146.74013 -155.47725 -5.5768123 0
-146.53564 -155.39847 -5.5593958 0
-148.59061 -154.58945 -5.5369139 0
-148.06671 -154.48897 -5.5731249 0
-144.85861 -160.22281 -5.4567766 0
-95.632645 -160.18692 -5.4527807 0
-146.32034 -155.78827 -5.4408884 0
-143.33569 -160.78793 -5.3558664 0
-142.93849 -160.62442 -5.3572521 0
-145.20625 -160.20584 -5.3907828 0
-143.09224 -160.73512 -5.2651453 0
-142.96381 -160.6817 -5.241333 0
-148.87219 -151.65141 -5.225256 0
-95.700424 -161.19879 -5.1747818 0
-143.04132 -160.67067 -5.1000943 0
-144.86823 -160.03534 -5.1801066 0
-95.379723 -156.36429 -5.195601 0
-142.73407 -160.62927 -5.0978155 0
-95.573257 -159.6685 -5.0863748 0
-146.71864 -157.01651 -5.0473371 0
-144.84441 -159.66183 -4.9574928 0
-137.93265 -170.35631 -4.8440776 0
-143.065 -160.72656 -4.6744413 0
-143.24231 -161.1366 -4.4490328 0
-95.074074 -159.34314 -4.3986869 0
-144.32843 -163.08727 -4.1036201 0
-143.20055 -161.08301 -4.1828861 0
-142.68793 -160.32379 -4.0469112 0
-148.10909 -157.31134 -3.9023831 0
-143.20869 -161.40488 -3.8257699 0
-142.65987 -160.35237 -3.8299098 0
-144.68163 -157.7083 -3.7849004 0
-118.46065 -178.19531 -3.4189975 0
-143.01698 -161.68791 -3.4159517 0
-147.7507 -158.2774 -3.4116299 0
-148.20767 -157.76175 -3.3617945 0
-148.0313 -157.47536 -3.3387699 0
-147.45241 -157.45143 -3.3254187 0
-144.79921 -157.33275 -3.309808 0
-147.68996 -157.22826 -3.3836904 0
-148.03459 -157.60347 -3.2753415 0
-144.60767 -163.23233 -3.1977801 0
-143.67033 -155.58707 -3.1189659 0
-142.40347 -160.26439 -3.0701194 0
-148.08707 -157.22676 -3.0863953 0
-145.06136 -157.14111 -3.0953939 0
-147.2514 -156.82016 -3.0907977 0
-147.23116 -158.01898 -2.8918436 0
-147.24849 -157.64542 -2.8281732 0
-147.00668 -157.58655 -2.825532 0
-148.11951 -157.36723 -2.8603985 0
-147.07756 -157.39212 -2.8583949 0
-144.95662 -156.99243 -2.8326375 0
-132.82516 -177.02536 -2.7637484 0
-141.27673 -160.16014 -2.7693806 0
-145.09186 -163.29878 -2.678977 0
-142.66629 -160.11456 -2.6916742 0
-145.01527 -156.76054 -2.6195574 0
-144.91875 -163.23343 -2.5606499 0
-142.49103 -159.99844 -2.599956 0
-145.32841 -163.34427 -2.4267378 0
-143.09422 -162.12376 -2.4255099 0
-142.74179 -160.10384 -2.4954562 0
-142.53661 -160.12823 -2.4440112 0
-140.91907 -160.112 -2.4404607 0
-142.61951 -160.07385 -2.4828992 0
-145.95786 -159.77498 -2.4520049 0
-149.09987 -152.16685 -2.4643948 0
-94.684174 -151.10419 -2.4545858 0
-142.66632 -160.14204 -2.3281353 0
-94.953857 -155.02019 -2.3953426 0
-142.42488 -160.01709 -2.2955453 0
-142.58902 -159.99133 -2.209125 0
-149.77463 -151.21883 -2.2968569 0
-143.95998 -164.25549 -2.120646 0
-145.3494 -163.39325 -2.1964107 0
-145.07465 -163.30176 -2.1976216 0
-147.12933 -157.33742 -2.1205921 0
-146.78273 -157.29874 -2.1148252 0
-125.58384 -183.91193 -2.0946958 0
-142.43423 -160.04869 -2.0677299 0
-145.4138 -155.96164 -2.0768156 0
-143.16014 -162.3045 -1.9695621 0
-140.57462 -160.0921 -1.9338142 0
-140.47807 -160.00099 -1.9361639 0
-149.89691 -151.26164 -1.9466906 0
-142.60146 -159.97813 -1.7702905 0
-146.08205 -159.57617 -1.7698301 0
-147.65889 -157.72368 -1.7471802 0
-146.03745 -159.63989 -1.6550757 0
-148.06628 -158.34128 -1.662742 0
-146.90472 -158.08168 -1.6850327 0
-146.20729 -159.55246 -1.5944904 0
-145.40294 -155.24571 -1.5973083 0
-145.2664 -155.27428 -1.5627031 0
-149.21542 -151.06834 -1.5971934 0
-149.07814 -151.02502 -1.5673311 0
-143.34323 -162.52702 -1.4542428 0
-142.41977 -159.83589 -1.4718405 0
-146.21889 -159.62256 -1.4579364 0
-143.10782 -162.47287 -1.3595014 0
-147.23183 -158.231 -1.3023201 0
-147.74471 -157.85521 -1.3382052 0
-147.70334 -157.39337 -1.3140464 0
-147.89124 -157.26129 -1.385933 0
-145.41336 -155.1098 -1.3974526 0
-139.86224 -159.8084 -1.2668569 0
-142.45638 -159.70265 -1.2056091 0
-142.3801 -159.75317 -1.2490802 0
-139.76578 -159.79573 -1.2471424 0
-142.528 -159.70798 -1.1779057 0
-146.27708 -159.59462 -1.1683781 0
-147.9814 -158.37593 -1.1799067 0
-147.5881 -157.35092 -1.1802467 0
-139.33179 -159.70985 -1.0357295 0
-146.27071 -159.51875 -1.0872883 0
-147.68893 -157.6091 -1.0925972 0
-149.90729 -153.01306 -1.0252106 0
-143.23283 -162.62341 -0.931409 0
-143.13307 -162.61794 -0.95753413 0
-139.33669 -159.67616 -0.97329277 0
-139.2618 -159.67357 -0.95532638 0
-142.55737 -159.48254 -0.9120149 0
-147.87218 -157.91072 -0.97357053 0
-145.35837 -154.65025 -0.97993058 0
-139.10855 -159.54668 -0.82860202 0
-146.2682 -159.46947 -0.80304229 0
-147.21919 -157.76492 -0.82563853 0
-143.0531 -151.55754 -0.84958094 0
-147.04234 -160.09888 -0.76636219 0
-142.48969 -159.79857 -0.79119378 0
-147.51012 -157.92104 -0.78136873 0
-148.2681 -157.86223 -0.73580992 0
-147.73624 -157.48567 -0.7262727 0
-145.45015 -154.31155 -0.73933226 0
-145.35339 -154.2457 -0.7955901 0
-143.38158 -162.74532 -0.64911157 0
-142.61703 -159.85541 -0.681247 0
-138.59567 -159.40024 -0.69412941 0
-147.13718 -157.64305 -0.63614798 0
-145.36032 -154.23074 -0.61683905 0
-145.29211 -154.205 -0.67623526 0
-145.21582 -154.19429 -0.63996446 0
-138.86491 -159.37045 -0.59642941 0
-145.54433 -153.95738 -0.5471155 0
-139.01772 -159.48444 -0.48460996 0
-147.34106 -158.04308 -0.40831921 0
-147.68095 -157.98895 -0.45665541 0
-145.73576 -153.6848 -0.40619618 0
-138.75279 -159.36986 -0.30059764 0
-142.35014 -159.01382 -0.35594997 0
-143.14684 -162.73776 -0.16759931 0
-144.92749 -153.85768 -0.16504705 0
-143.12576 -162.8472 -0.074446179 0
-142.12708 -158.79964 -0.054963063 0
-145.45929 -150.24008 -0.05037697 0
-138.8306 -171.98822 0.0041554966 0
-137.59264 -171.26724 0.030322675 0
-142.20941 -158.75777 0.019563356 0
-144.92226 -153.701 0.035182819 0
-144.83772 -153.60884 0.060009956 0
-145.76758 -153.08005 0.026653351 0
-138.47813 -159.20541 0.1803472 0
-145.91563 -152.91425 0.14201085 0
-144.59451 -153.46748 0.20739357 0
-144.48242 -153.38249 0.21487175 0
-94.85923 -150.40613 0.28938976 0
-143.11002 -162.9294 0.3479479 0
-143.65625 -162.69823 0.32678849 0
-144.18407 -152.92514 0.33391199 0
-145.86607 -152.79103 0.32938692 0
-143.10486 -162.95337 0.41531795 0
-143.84822 -162.57791 0.43614295 0
-94.866982 -150.93243 0.42868379 0
-143.78099 -162.61476 0.52798188 0
-142.73698 -159.83514 0.59603953 0
-138.17604 -158.92332 0.64676279 0
-94.916435 -152.41887 0.60611963 0
-143.00124 -163.13225 0.79285794 0
-142.82176 -159.81058 0.82713753 0
-142.11024 -157.53981 0.91183984 0
-142.02209 -157.57919 0.90376759 0
-146.31966 -151.77872 0.93346077 0
-146.52287 -151.82684 1.0073464 0
-141.96494 -157.27428 1.2016265 0
-94.90876 -150.5491 1.2925246 0
-142.09842 -157.1169 1.3803145 0
-94.901321 -150.91417 1.4819558 0
-94.885567 -150.71187 1.4892989 0
-144.23267 -162.21054 1.6677569 0
-147.47183 -159.6738 1.6332951 0
-94.811806 -150.30467 1.6863362 0
-142.94437 -159.63599 1.7397242 0
-147.02257 -151.49178 1.7981685 0
-142.89877 -159.56491 1.9845059 0
-137.13849 -158.41331 2.0838768 0
-137.64563 -157.30069 2.0921218 0
-147.5567 -164.22908 2.2996581 0
-147.35107 -157.44283 2.2262759 0
-149.02588 -166.49863 2.3044412 0
-146.79066 -159.56029 2.3321047 0
-136.90112 -158.3239 2.3715086 0
-142.25851 -155.77693 2.3480585 0
-142.11029 -155.72615 2.3168354 0
-147.55634 -157.23616 2.4167767 0
-142.13771 -155.63687 2.4088054 0
-148.74561 -160.19719 2.5343659 0
-148.62682 -160.10928 2.5762124 0
-142.2513 -155.40283 2.5529964 0
-147.46205 -157.03709 2.6984656 0
-141.7527 -155.69 2.7261372 0
-147.71812 -157.03098 2.816083 0
-147.5793 -156.86452 2.8983884 0
-147.48354 -156.76019 2.8710949 0
-147.65265 -156.80519 2.931761 0
-142.94165 -159.24983 3.1977391 0
-142.40091 -154.58813 3.1428792 0
-148.03661 -164.39771 3.2156971 0
-149.39632 -160.47412 3.2753336 0
-146.01816 -159.16502 3.2505894 0
-143.77739 -167.0289 3.4636862 0
-149.43915 -160.39362 3.4202569 0
-147.04703 -159.68393 3.4243302 0
-146.95673 -159.58299 3.4057462 0
-142.55246 -154.2049 3.4371359 0
-147.45091 -156.12537 3.5088146 0
-148.3744 -164.50101 3.6471498 0
-139.67068 -154.62177 3.6498642 0
-140.20726 -154.86626 3.720094 0
-139.89641 -154.73346 3.7459223 0
-139.62877 -154.47092 3.7455363 0
-149.63831 -160.24898 3.8058283 0
-149.33667 -166.04703 3.9114144 0
-148.39229 -164.58311 3.9558589 0
-142.76259 -153.46062 3.982692 0
-142.81288 -159.12152 4.2840805 0
-142.55817 -159.00639 4.2769003 0
-145.60176 -158.29614 4.2770238 0
-142.38863 -153.20497 4.2292032 0
-138.42865 -153.26854 4.2892151 0
-147.42868 -155.5641 4.3321729 0
-145.77704 -158.327 4.4346619 0
-145.69885 -158.20059 4.5915351 0
-139.16275 -154.1368 4.554204 0
-148.82825 -164.46568 4.6132975 0
-146.9305 -153.24532 4.661006 0
-145.64235 -158.05257 4.7161698 0
-143.27818 -161.2448 4.9098687 0
-148.52954 -156.50345 4.9487138 0
-142.48642 -158.93495 5.1205077 0
-145.51523 -157.81267 5.1591864 0
-145.44279 -157.74017 5.2090259 0
-149.37878 -164.53387 5.3163934 0
-143.90649 -151.73488 5.4039435 0
-147.77716 -159.96149 5.5651655 0
-142.37759 -159.01736 5.5326757 0
-147.72643 -154.70898 5.5062094 0
-149.35532 -164.50375 5.6097903 0
-142.61902 -159.04359 5.7539811 0
-149.33948 -157.12189 5.7049704 0
-148.20375 -154.45804 5.8232489 0
-142.4203 -158.90112 5.9423585 0
-148.41933 -153.88876 6.2373171 0
-141.32814 -157.07176 6.3633957 0
-148.88263 -153.82158 6.4852662 0
-147.94897 -159.97353 6.5528975 0
-142.30783 -158.46625 8.1303349 0
