# .PCD v0.7 - Point Cloud Data file format
VERSION 0.7
FIELDS x y z intensity
SIZE 4 4 4 4
TYPE F F F F
COUNT 1 1 1 1
WIDTH 291
HEIGHT 1
VIEWPOINT 0 0 0 1 0 0 0
POINTS 291
DATA ascii
-92.220367 50.692753 2.7394068 0
-70.68457 55.825306 2.7772911 0
-92.516983 50.603024 2.82145 0
-88.01503 53.127563 2.8832328 0
-69.366066 56.703712 2.9203987 0
-65.344193 57.875126 2.9995239 0
-65.607773 59.93269 2.9722311 0
-66.674324 57.511379 3.0366645 0
-68.265503 57.618206 3.0408797 0
-64.860428 58.355701 3.0482848 0
-60.54393 61.57782 3.0108082 0
-59.853554 62.089878 3.0797346 0
-57.381943 62.772781 3.0766075 0
-63.563065 58.175255 3.1738572 0
-66.824394 59.043785 3.1954336 0
-66.883148 59.378071 3.1962531 0
-59.556816 62.341591 3.1054087 0
-59.278816 62.629021 3.1358433 0
-59.285435 63.488823 3.1281524 0
-56.531246 63.759872 3.1443524 0
-77.896065 75.834106 3.1639433 0
-66.703789 57.971081 3.2685316 0
-66.682106 58.0947 3.2690113 0
-62.962578 58.187466 3.2344422 0
-62.283878 58.694256 3.2971766 0
-62.933765 60.255009 3.2321303 0
-58.161755 63.753956 3.2421377 0
-57.319366 64.241333 3.326961 0
-70.536194 50.654716 3.4096422 0
-66.420982 56.93594 3.4594395 0
-66.558678 58.152699 3.4682283 0
-62.401459 58.56142 3.4992709 0
-68.740181 51.344177 3.6068382 0
-67.092804 56.920773 3.6362991 0
-66.582092 56.922871 3.6614158 0
-66.324432 57.240593 3.6871128 0
-68.420135 57.865639 3.6698937 0
-66.311005 58.183777 3.6840172 0
-66.498573 58.360859 3.6933334 0
-66.499985 58.497055 3.6956148 0
-62.205208 59.459476 3.6401503 0
-70.396172 50.955395 3.7931833 0
-71.086258 51.594185 3.7955685 0
-68.835327 57.396969 3.7536025 0
-67.707405 57.928421 3.7249651 0
-63.189133 58.469898 3.7836351 0
-71.078011 52.120686 3.8713415 0
-68.110916 57.532528 3.8163407 0
-68.791122 57.780987 3.8907492 0
-68.269272 57.828411 3.8108513 0
-67.147453 57.959248 3.8379149 0
-66.296158 58.400051 3.8292105 0
-66.684898 58.615147 3.8901842 0
-62.508152 59.447075 3.861758 0
-50.103775 70.072884 3.8713293 0
-71.596222 51.034946 3.9414232 0
-69.963089 52.59565 3.9036684 0
-69.002998 56.968178 3.9825287 0
-66.496361 57.447742 3.9509125 0
-66.469337 57.546669 3.9561079 0
-66.34803 57.568634 3.9649522 0
-66.229591 57.572033 3.9950781 0
-68.048431 58.149315 3.9128535 0
-66.850922 58.245243 3.9345052 0
-66.843872 58.367088 3.9391537 0
-63.09716 58.383686 3.9585547 0
-66.096565 58.440254 3.9794161 0
-63.195946 58.599846 3.9546318 0
-63.068123 58.622688 3.9649789 0
-63.086441 58.790661 3.9665041 0
-67.781639 58.915623 3.9226341 0
-67.623062 58.952694 3.9245493 0
-61.991627 59.427601 3.9052472 0
-61.885441 59.49155 3.958622 0
-68.045547 56.951534 4.0335164 0
-66.297943 57.457993 4.0330801 0
-67.469162 57.737568 4.070714 0
-67.155479 57.905628 4.0656776 0
-63.205967 58.555897 4.0473084 0
-71.349831 50.658875 4.1464653 0
-71.337067 51.148712 4.1565938 0
-70.392578 51.765808 4.1820388 0
-67.307236 56.759338 4.1981549 0
-66.393227 57.84185 4.1347995 0
-66.173782 58.093079 4.1184182 0
-62.190128 58.170589 4.117661 0
-62.086788 58.176857 4.1226711 0
-61.765182 59.804436 4.1516314 0
-61.607323 59.937561 4.1057658 0
-95.452866 64.381241 4.1550875 0
-69.899506 50.405197 4.2279234 0
-69.79306 50.55719 4.2684383 0
-69.390587 51.093887 4.2883744 0
-62.493889 57.814053 4.2858343 0
-66.397728 58.086437 4.2767839 0
-62.331871 58.099743 4.2561526 0
-62.876797 58.298923 4.2967424 0
-62.225346 58.205112 4.2532043 0
-62.451172 59.262066 4.2485533 0
-62.144306 59.361954 4.274549 0
-62.18605 59.555088 4.274931 0
-62.203011 59.704845 4.2775068 0
-66.3769 57.895973 4.3023729 0
-66.086243 57.895802 4.325995 0
-62.672508 57.845673 4.3461175 0
-66.942413 58.067226 4.328825 0
-66.671906 58.368477 4.3395443 0
-62.237137 58.320396 4.3239217 0
-62.407665 58.437012 4.302948 0
-67.033592 58.511333 4.3904243 0
-62.744106 59.0042 4.3531151 0
-99.05072 62.279274 4.3711638 0
-59.235905 63.612103 4.3211193 0
-70.945572 50.9156 4.4872379 0
-68.199898 56.746098 4.468358 0
-63.041313 57.651604 4.4076405 0
-68.12867 57.891594 4.460907 0
-67.572311 58.182457 4.476151 0
-67.265732 58.171757 4.4990015 0
-63.674927 58.202301 4.4709063 0
-62.570648 58.801949 4.4192462 0
-66.582138 58.977081 4.4236965 0
-95.499916 64.304863 4.4028597 0
-69.788834 50.759682 4.5586452 0
-69.356812 50.859173 4.5015998 0
-69.605408 51.929081 4.503933 0
-62.311859 58.190586 4.5304942 0
-67.194214 58.384117 4.5112686 0
-67.05117 58.808838 4.5358028 0
-66.764671 59.153549 4.5806842 0
-66.720917 59.20063 4.5734458 0
-62.361767 59.229065 4.5016532 0
-59.312828 62.928658 4.5941777 0
-59.439869 63.231796 4.5877895 0
-59.963791 63.368164 4.5576997 0
-59.408012 63.37862 4.594243 0
-59.289188 63.387497 4.5980978 0
-59.967171 63.516388 4.5615582 0
-59.35078 63.632851 4.5969558 0
-95.368416 64.516884 4.5874548 0
-62.321194 58.225708 4.6774497 0
-62.300003 58.299141 4.6415005 0
-63.421719 58.356052 4.6114397 0
-62.265953 58.350761 4.684495 0
-61.76873 58.525055 4.690474 0
-62.474537 58.941551 4.6789765 0
-59.32832 62.198303 4.6131277 0
-59.180691 63.591595 4.6099634 0
-59.132965 63.684689 4.6129827 0
-59.007191 63.87038 4.6212521 0
-59.289673 64.049187 4.6089859 0
-59.34845 64.446739 4.607142 0
-70.905823 51.065952 4.7818365 0
-66.865089 57.479355 4.79285 0
-68.068741 59.892139 4.7967963 0
-78.300034 75.776291 4.7918429 0
-67.494072 57.079971 4.8636017 0
-67.357506 57.508862 4.8871818 0
-62.5331 57.804264 4.845273 0
-63.100029 57.926437 4.801558 0
-62.426212 59.088581 4.8948731 0
-52.649841 70.197365 4.8333936 0
-52.565376 70.242401 4.8230181 0
-69.901642 53.4758 4.9675112 0
-69.748917 53.588947 4.9661832 0
-67.53405 57.138142 4.9242716 0
-67.015099 57.599243 4.9744349 0
-66.860703 57.576996 4.9839764 0
-61.828602 57.853302 4.9001832 0
-67.387718 58.244175 4.9070811 0
-63.367344 58.304348 4.9129472 0
-62.342354 59.427803 4.912189 0
-63.621948 59.845585 4.9167519 0
-52.773899 69.752869 4.9518528 0
-53.300186 70.463821 4.923316 0
-71.539406 51.380405 5.0304451 0
-67.29451 57.419151 5.0235939 0
-52.174866 70.600189 5.0137186 0
-69.690178 51.495857 5.1655879 0
-70.931145 51.579311 5.1070151 0
-70.017082 51.536461 5.1254892 0
-70.465508 51.795261 5.1372075 0
-67.606712 57.942764 5.1675248 0
-63.382816 58.171894 5.1093683 0
-62.904552 58.29068 5.1202536 0
-61.797043 58.513927 5.1430268 0
-60.358902 63.837574 5.1422987 0
-59.845837 63.957211 5.1699243 0
-58.04903 64.040436 5.1927404 0
-69.791748 51.156536 5.225821 0
-71.110649 51.584682 5.2696562 0
-71.01738 51.532528 5.2011571 0
-67.569992 57.04134 5.2568002 0
-63.543934 57.807743 5.2132759 0
-62.818092 58.406616 5.2292137 0
-62.442596 59.296318 5.2784266 0
-62.418488 59.43959 5.2868223 0
-59.128014 63.15237 5.2764568 0
-58.511776 63.413483 5.2113457 0
-58.936344 63.963421 5.2159824 0
-52.38979 69.800194 5.2639432 0
-51.92255 69.852966 5.2392101 0
-52.570068 70.217911 5.2476797 0
-70.412003 53.025978 5.3139372 0
-70.369843 53.495438 5.328588 0
-63.26799 58.097008 5.3013372 0
-63.184948 58.177189 5.3059988 0
-66.917465 58.206699 5.3494749 0
-63.032185 58.2066 5.3139596 0
-62.972771 58.347321 5.3177028 0
-62.879444 58.409637 5.3228011 0
-67.012581 58.578609 5.3596249 0
-62.834148 58.550613 5.3258276 0
-62.622063 58.525917 5.3315353 0
-62.580994 58.642189 5.3392367 0
-62.45211 58.703873 5.3411241 0
-62.494244 58.906525 5.3450065 0
-62.466656 59.044281 5.3471155 0
-62.557442 59.304375 5.3538027 0
-62.467068 59.384438 5.3538198 0
-69.818123 51.410347 5.497087 0
-71.747963 51.58535 5.4302983 0
-68.080498 57.50486 5.4463854 0
-66.937088 57.852524 5.4008789 0
-67.649559 58.357292 5.4970994 0
-62.561611 59.413151 5.4645019 0
-52.240952 69.510605 5.4297805 0
-63.349037 58.110752 5.5740089 0
-68.507118 58.235428 5.5259004 0
-63.249931 58.283218 5.587903 0
-62.549973 58.329865 5.5406003 0
-70.335991 52.415211 5.6211915 0
-62.944637 58.502689 5.6170759 0
-52.516479 69.873108 5.6659269 0
-52.732075 70.576195 5.6965995 0
-68.126663 57.846851 5.7523637 0
-67.842087 57.909561 5.7697573 0
-63.739365 58.491169 5.7212009 0
-63.619579 58.578236 5.7165627 0
-62.426804 58.938244 5.7783079 0
-62.346603 59.008278 5.7847352 0
-67.521667 58.122047 5.8023195 0
-63.092186 58.436398 5.8568668 0
-62.765179 58.502312 5.8787336 0
-68.25116 57.901878 5.9905753 0
-68.163589 57.950016 5.9980268 0
-67.30275 58.204369 5.9874768 0
-52.355946 69.92395 5.9566379 0
-67.717468 57.655289 6.0076275 0
-67.573181 57.870323 6.083138 0
-67.471794 57.818531 6.0244789 0
-62.526134 58.710293 6.0029583 0
-62.534981 58.905029 6.005219 0
-52.622631 69.958847 6.0912919 0
-52.462097 69.878769 6.1315284 0
-51.955692 69.96241 6.1210775 0
-67.718628 58.331749 6.2117786 0
-62.423622 58.717224 6.2192669 0
-63.248371 58.801998 6.2900009 0
-52.062145 69.746971 6.2470856 0
-67.817398 57.773842 6.4311986 0
-63.021076 57.860107 6.4818816 0
-67.821068 58.403362 6.4509721 0
-67.644676 58.426449 6.4692369 0
-67.66761 58.652599 6.4662395 0
-63.078239 57.943733 6.5364385 0
-62.78965 58.252174 6.5426974 0
-62.504524 58.521152 6.575285 0
-63.129307 58.998688 6.5789967 0
-62.007832 58.985645 6.5837412 0
-63.318966 59.056076 6.575345 0
-62.881924 58.036289 6.6137424 0
-67.52269 58.410564 6.616941 0
-63.172417 58.723232 6.6040897 0
-67.508163 58.68985 6.8652883 0
-67.59687 58.92939 6.8099523 0
-67.628731 58.327461 6.9942031 0
-62.772617 59.316616 6.9639716 0
-68.049995 58.247879 7.0593052 0
-67.386169 58.338158 7.0675168 0
-68.020714 58.475857 7.0536246 0
-67.161407 58.715076 7.0667825 0
-62.890911 59.03228 7.055285 0
-68.059204 58.186638 7.1160498 0
-67.57798 58.443142 7.1268716 0
-67.312965 58.629314 7.1457777 0
-67.918289 58.39592 7.2921991 0
-67.673386 59.097141 7.2069893 0
-67.75914 58.461975 7.5799837 0
-67.560066 58.498669 7.5175934 0
-67.655121 58.501423 7.5793905 0
