# .PCD v0.7 - Point Cloud Data file format
VERSION 0.7
FIELDS x y z intensity
SIZE 4 4 4 4
TYPE F F F F
COUNT 1 1 1 1
WIDTH 2892
HEIGHT 1
VIEWPOINT 0 0 0 1 0 0 0
POINTS 2892
DATA ascii
-150.2914 -153.96643 -11.297937 0
-150.73041 -153.62747 -11.244544 0
-150.28465 -153.67741 -11.285397 0
-150.51489 -153.59383 -11.279009 0
-150.95219 -153.4865 -11.216396 0
-150.99916 -153.39429 -11.263076 0
-150.7442 -154.04474 -11.170314 0
-151.17249 -153.35515 -11.193741 0
-153.26717 -150.48259 -11.110776 0
-160.71574 -155.05756 -11.009896 0
-163.0652 -154.87744 -11.046327 0
-163.27077 -154.7314 -11.033756 0
-151.465 -152.71739 -11.053952 0
-152.65155 -150.25603 -10.834791 0
-162.56856 -156.28842 -10.752992 0
-153.37077 -150.21327 -10.79101 0
-164.46335 -156.05569 -10.691092 0
-166.90047 -156.31258 -10.532062 0
-151.70058 -152.83557 -10.579812 0
-151.16214 -153.50015 -10.497848 0
-152.94955 -150.24121 -10.42691 0
-153.09642 -150.02512 -10.412588 0
-150.17345 -155.29703 -10.356883 0
-151.32652 -152.20613 -10.144796 0
-151.67256 -152.20169 -10.090241 0
-151.19945 -152.04324 -10.069125 0
-179.20621 -154.96339 -9.9831553 0
-151.24034 -152.80048 -9.9233532 0
-152.899 -152.61876 -9.9336967 0
-152.49828 -152.4136 -9.9134102 0
-151.99661 -152.46236 -9.9095592 0
-154.07822 -154.9584 -9.8009205 0
-153.43149 -151.30429 -9.8460331 0
-152.48581 -156.39232 -9.7598629 0
-154.20729 -154.86166 -9.7670603 0
-182.21573 -152.4753 -9.7507944 0
-152.17775 -156.41643 -9.6778784 0
-150.97208 -153.98906 -9.6987867 0
-176.90659 -152.76938 -9.6529264 0
-152.58089 -152.5428 -9.6493702 0
-153.53059 -150.25766 -9.5153141 0
-152.24773 -152.86681 -9.4839344 0
-153.2856 -151.37306 -9.4832201 0
-152.1445 -156.79964 -9.3920221 0
-154.44859 -154.5645 -9.3259258 0
-178.42812 -152.88744 -9.3635015 0
-153.38016 -151.29562 -9.3407402 0
-151.74626 -154.77109 -9.2487631 0
-153.1452 -151.34381 -9.1040964 0
-177.86333 -150.43233 -9.1942949 0
-151.01837 -155.42836 -8.9282589 0
-183.40718 -153.31819 -8.9051552 0
-186.0432 -152.69475 -8.9880028 0
-207.70334 -165.12581 -8.7910109 0
-153.15248 -151.30821 -8.7787485 0
-200.55089 -172.96938 -8.5242691 0
-154.56085 -152.54472 -8.45333 0
-169.61685 -150.89449 -8.4722948 0
-156.05203 -154.12502 -8.2143116 0
-153.08907 -151.26279 -8.2994232 0
-152.5267 -151.10155 -8.255662 0
-190.0415 -150.8139 -8.2629499 0
-191.82578 -150.43596 -8.294117 0
-154.77988 -153.36954 -8.1775999 0
-153.24451 -151.6104 -8.1009054 0
-151.39471 -150.94446 -8.1819324 0
-213.3006 -156.63252 -8.0865736 0
-183.22639 -151.22743 -8.0816374 0
-153.00491 -151.23323 -8.0826454 0
-228.4903 -150.40016 -8.0289555 0
-151.5016 -162.23178 -7.9536643 0
-193.82561 -159.57549 -7.9703994 0
-192.9063 -159.11119 -7.9703279 0
-152.74257 -158.68089 -7.9710536 0
-176.40173 -153.31561 -7.9477577 0
-228.2686 -151.7966 -7.9996557 0
-228.18427 -151.33907 -7.9193015 0
-230.25378 -150.52762 -7.9284692 0
-225.64276 -150.15259 -7.9356637 0
-226.71196 -150.0446 -7.9828019 0
-153.52058 -155.68677 -7.8325863 0
-224.90509 -152.55399 -7.8776941 0
-224.54848 -152.48402 -7.8634329 0
-224.98573 -152.24094 -7.8770328 0
-229.34738 -152.09401 -7.8996506 0
-224.73399 -151.96609 -7.8581281 0
-229.90315 -151.74483 -7.8766909 0
-211.43771 -151.35608 -7.8738093 0
-224.256 -151.10545 -7.8172674 0
-246.95358 -155.61765 -7.7516165 0
-246.28236 -155.67197 -7.7211938 0
-246.89142 -155.43147 -7.7450819 0
-225.19936 -151.78268 -7.7106333 0
-222.96312 -151.53282 -7.7598181 0
-153.31888 -151.55315 -7.7826471 0
-226.21909 -151.35947 -7.7545199 0
-152.97643 -151.22261 -7.7790833 0
-151.07097 -150.30389 -7.7295499 0
-214.68912 -158.39151 -7.6703005 0
-248.476 -157.9576 -7.6177359 0
-248.57243 -157.8687 -7.6223989 0
-249.00247 -157.22154 -7.6275477 0
-245.44206 -156.71245 -7.6004181 0
-214.41386 -156.45268 -7.6495123 0
-153.05893 -151.09482 -7.6688714 0
-248.53981 -158.49852 -7.5188375 0
-244.24054 -157.81082 -7.5996394 0
-249.1973 -157.55402 -7.5542355 0
-248.98141 -157.53293 -7.5497265 0
-247.49971 -157.48502 -7.5807858 0
-244.28314 -157.30962 -7.5833144 0
-236.49602 -157.18683 -7.5218458 0
-231.54861 -155.67317 -7.5941286 0
-245.87144 -154.06525 -7.5713358 0
-245.10463 -153.63106 -7.534668 0
-246.42824 -153.56555 -7.5779696 0
-153.11304 -150.99194 -7.5240359 0
-245.93878 -159.67357 -7.4052505 0
-246.33128 -159.46471 -7.4244852 0
-244.81657 -159.11723 -7.4584661 0
-247.18108 -159.00653 -7.4592657 0
-247.14944 -158.82175 -7.4565706 0
-236.40996 -157.88966 -7.4948859 0
-213.7739 -157.13327 -7.463851 0
-223.22545 -154.11897 -7.4839869 0
-245.14876 -154.03847 -7.468329 0
-227.97215 -154.04294 -7.4552755 0
-222.42841 -151.99608 -7.4586058 0
-244.36668 -161.67432 -7.3211975 0
-241.47351 -160.99905 -7.3053832 0
-243.90628 -160.76318 -7.3176923 0
-243.76282 -160.05063 -7.3874941 0
-233.38522 -159.12332 -7.306468 0
-235.37814 -159.09506 -7.3127685 0
-230.16869 -158.77151 -7.3552041 0
-242.04961 -154.0666 -7.3914738 0
-241.81905 -153.68323 -7.3251429 0
-216.01501 -153.58147 -7.3926549 0
-241.29684 -150.3363 -7.3198533 0
-240.21007 -150.11993 -7.3897247 0
-242.31398 -161.56421 -7.2436485 0
-238.88501 -161.06807 -7.2058206 0
-229.14745 -160.88266 -7.2284093 0
-229.32625 -160.3726 -7.239305 0
-229.26387 -160.32576 -7.2353644 0
-233.78145 -160.08351 -7.2094474 0
-152.26579 -159.81795 -7.2333407 0
-235.96097 -159.63243 -7.2874546 0
-235.96213 -159.36086 -7.2931218 0
-240.96709 -158.09232 -7.2543769 0
-229.32191 -157.25797 -7.234663 0
-240.85136 -157.1967 -7.2601366 0
-237.84038 -156.60286 -7.2366371 0
-241.65349 -155.02979 -7.2408462 0
-223.22989 -154.68895 -7.2210159 0
-155.06763 -154.48112 -7.2093267 0
-226.68826 -153.63052 -7.2731862 0
-244.74719 -153.00296 -7.2600408 0
-239.10597 -152.75134 -7.2107902 0
-238.27229 -152.78267 -7.2097917 0
-239.01721 -152.58466 -7.2514009 0
-238.93164 -152.51837 -7.2857389 0
-238.83232 -152.43187 -7.265368 0
-238.0316 -152.4868 -7.2160478 0
-238.46494 -152.39482 -7.2202311 0
-153.40729 -151.53824 -7.2874613 0
-153.34731 -151.54626 -7.2758002 0
-179.23544 -150.24597 -7.2269192 0
-234.62067 -160.93076 -7.1122899 0
-237.61327 -160.85403 -7.1768203 0
-233.98302 -160.25018 -7.1864982 0
-239.03111 -159.97733 -7.1124363 0
-246.50491 -153.64784 -7.1034336 0
-238.38231 -152.9326 -7.1843262 0
-238.59964 -152.37227 -7.1970634 0
-183.13942 -151.56096 -7.1345801 0
-248.07196 -163.09937 -7.0511551 0
-234.71516 -161.72896 -7.0404119 0
-237.00117 -161.64066 -7.0540738 0
-235.12198 -161.59662 -7.0582075 0
-233.90524 -161.3515 -7.008739 0
-226.28223 -157.59004 -7.0976701 0
-217.99397 -155.6752 -7.0232358 0
-219.67551 -153.83377 -7.0162854 0
-219.08107 -153.24796 -7.0352802 0
-246.32767 -152.91357 -7.0355139 0
-244.46155 -152.65448 -7.0972672 0
-214.12839 -151.70619 -7.0007386 0
-191.62814 -151.4537 -7.0296636 0
-180.10324 -150.4558 -7.0955739 0
-245.59868 -164.44315 -6.9051299 0
-230.3782 -164.2692 -6.9092541 0
-246.80069 -164.15411 -6.9643598 0
-247.06154 -164.0863 -6.9776926 0
-246.73898 -164.01166 -6.9664288 0
-245.72632 -164.09106 -6.9171519 0
-232.34013 -162.84126 -6.940906 0
-233.03424 -162.22539 -6.9706521 0
-227.91599 -155.55225 -6.9989705 0
-245.28427 -153.41129 -6.9137588 0
-245.07909 -153.37079 -6.9705672 0
-244.08328 -153.37517 -6.914042 0
-245.82831 -153.2634 -6.9487939 0
-244.84943 -152.97826 -6.9118772 0
-246.22984 -152.88277 -6.998435 0
-238.1543 -152.49237 -6.957171 0
-244.71814 -165.0903 -6.8251939 0
-245.1201 -164.8369 -6.8547783 0
-245.71153 -164.43016 -6.8929815 0
-241.26465 -164.02492 -6.8094645 0
-229.24118 -162.78574 -6.8722482 0
-224.99838 -157.07198 -6.8537846 0
-163.2421 -156.04517 -6.8652415 0
-154.96619 -156.00177 -6.8070221 0
-245.10918 -154.48734 -6.8662586 0
-244.42828 -153.07961 -6.856132 0
-243.96573 -152.83194 -6.8502269 0
-246.02399 -152.65663 -6.8104963 0
-235.91066 -152.1371 -6.8238864 0
-170.61157 -150.93237 -6.8400621 0
-183.30576 -150.76401 -6.8048687 0
-183.53862 -150.65717 -6.8129454 0
-178.90494 -150.47745 -6.8695283 0
-179.55623 -150.29272 -6.8863707 0
-165.46745 -150.1586 -6.8765864 0
-185.14769 -150.02107 -6.8129153 0
-244.06032 -165.25601 -6.7835717 0
-237.63268 -164.09563 -6.7687898 0
-237.78929 -163.94502 -6.7734933 0
-248.96179 -161.34702 -6.7258248 0
-226.70883 -159.47507 -6.7688627 0
-242.96184 -153.45554 -6.7918611 0
-242.5049 -153.43298 -6.7328534 0
-219.23448 -153.1653 -6.7767119 0
-167.11105 -152.95166 -6.723454 0
-244.39789 -152.5484 -6.794807 0
-244.31581 -152.45026 -6.7350059 0
-244.01268 -152.1972 -6.7668695 0
-244.48232 -151.4066 -6.7838039 0
-243.04398 -165.48177 -6.6300778 0
-234.03767 -164.98627 -6.6323767 0
-236.83548 -164.38065 -6.6536179 0
-235.83203 -164.26862 -6.6105289 0
-236.02072 -164.09201 -6.6232944 0
-242.5056 -162.86655 -6.631804 0
-239.85208 -162.10571 -6.6993475 0
-224.61751 -158.38164 -6.6266246 0
-242.63075 -153.45627 -6.6599283 0
-238.44876 -153.38684 -6.604167 0
-238.75337 -153.05605 -6.62609 0
-244.73384 -152.95586 -6.6112943 0
-246.06241 -152.41365 -6.6438279 0
-238.81134 -152.40327 -6.6449285 0
-170.96796 -150.6275 -6.6122632 0
-246.80173 -167.84335 -6.5485744 0
-246.5592 -167.03421 -6.5290484 0
-244.91165 -167.00537 -6.5107322 0
-244.34982 -166.60291 -6.5042543 0
-243.30489 -166.30995 -6.5443807 0
-241.74878 -165.44652 -6.5912709 0
-239.31702 -165.32933 -6.5112209 0
-240.97922 -165.21855 -6.5662122 0
-234.15332 -164.99928 -6.5264735 0
-240.68759 -164.55356 -6.5605001 0
-235.44368 -164.03773 -6.5990481 0
-234.0013 -162.24854 -6.5669508 0
-226.73534 -159.31525 -6.5789514 0
-224.53825 -156.90994 -6.5491524 0
-245.60878 -154.63266 -6.5300765 0
-238.13992 -153.61134 -6.5091071 0
-245.6373 -152.90411 -6.5401864 0
-244.19193 -152.98889 -6.5873461 0
-238.40578 -152.03615 -6.5668831 0
-244.36845 -151.97136 -6.5383139 0
-245.50356 -151.88683 -6.5356107 0
-244.4445 -151.76866 -6.5537438 0
-176.43401 -151.20493 -6.5927868 0
-176.38083 -151.11064 -6.5895033 0
-173.3026 -150.7964 -6.5906601 0
-176.40823 -150.51241 -6.5870709 0
-176.42529 -150.18951 -6.5892429 0
-176.25671 -150.09152 -6.5515881 0
-228.85622 -168.19171 -6.4032493 0
-232.25267 -166.67828 -6.4087744 0
-237.63441 -165.76787 -6.4830241 0
-224.50996 -157.71832 -6.4196448 0
-222.52745 -154.70847 -6.4523478 0
-246.87643 -154.13252 -6.4777613 0
-247.01257 -153.63792 -6.4104133 0
-167.86765 -153.55675 -6.4646883 0
-246.70886 -153.33182 -6.4062181 0
-243.36742 -153.0744 -6.4229612 0
-243.92618 -152.98181 -6.4602957 0
-247.05011 -152.89119 -6.4927053 0
-245.61548 -152.81165 -6.42695 0
-246.6826 -152.78658 -6.4195557 0
-171.22755 -150.83321 -6.4053407 0
-245.25519 -150.70158 -6.4193606 0
-164.33235 -150.20731 -6.4848938 0
-164.4836 -150.1384 -6.4925337 0
-175.90088 -150.04285 -6.486362 0
-232.14441 -168.30095 -6.3474774 0
-241.93201 -158.96985 -6.3444567 0
-153.75624 -157.31625 -6.3409495 0
-221.24174 -155.88345 -6.3627505 0
-243.03691 -152.86771 -6.3071561 0
-243.01099 -152.78334 -6.3052907 0
-239.38843 -152.79756 -6.3166656 0
-246.14253 -152.4238 -6.3309565 0
-244.25334 -152.192 -6.3666959 0
-152.67566 -151.871 -6.384058 0
-176.36023 -151.35193 -6.3950334 0
-152.85867 -150.85152 -6.3296313 0
-166.16422 -150.40399 -6.3410206 0
-206.55327 -178.16934 -6.2652078 0
-230.59451 -169.03368 -6.229331 0
-243.21228 -163.21495 -6.2516241 0
-153.02103 -160.8389 -6.2939506 0
-239.9431 -152.7356 -6.2424579 0
-153.17038 -151.45154 -6.2195492 0
-245.83597 -150.7099 -6.2445111 0
-178.83975 -150.04109 -6.2043839 0
-204.98305 -167.5446 -6.1650248 0
-151.0656 -154.8775 -6.1526184 0
-244.9503 -153.04858 -6.159719 0
-240.22946 -152.44644 -6.1923771 0
-152.22624 -151.90419 -6.1687112 0
-245.96809 -151.73611 -6.1251349 0
-245.82797 -151.00319 -6.1173282 0
-152.99995 -150.8532 -6.1963744 0
-181.63408 -150.25189 -6.1819029 0
-181.85124 -150.01761 -6.1565752 0
-226.95987 -179.21492 -6.0681581 0
-227.3024 -179.17567 -6.0818005 0
-246.66954 -154.17188 -6.0377254 0
-245.14693 -153.42526 -6.0701094 0
-239.11504 -152.90868 -6.0519533 0
-240.5537 -152.74472 -6.0031161 0
-245.31708 -152.62135 -6.0834656 0
-246.26224 -152.18819 -6.0427556 0
-246.4169 -152.07262 -6.0513968 0
-152.33531 -151.88795 -6.0272689 0
-181.60832 -151.53036 -6.0197778 0
-246.22937 -151.44843 -6.0115185 0
-245.01807 -151.34636 -6.0669298 0
-245.79901 -151.28712 -6.0280609 0
-241.90695 -150.88162 -6.0522194 0
-168.68788 -150.50923 -6.0153451 0
-246.46852 -172.08794 -5.9208679 0
-245.8004 -154.45004 -5.9793453 0
-238.77435 -152.6987 -5.9928918 0
-238.83832 -152.34035 -5.969852 0
-179.98987 -152.06203 -5.9289012 0
-245.32018 -151.6093 -5.9907055 0
-173.23378 -150.91747 -5.9754329 0
-167.37184 -150.8394 -5.9629703 0
-171.5529 -150.38087 -5.9755888 0
-172.09189 -150.11336 -5.9778676 0
-246.08704 -172.53845 -5.8903956 0
-234.10817 -172.04991 -5.8831553 0
-233.91026 -171.84271 -5.8191071 0
-236.83846 -152.91359 -5.8904757 0
-160.02255 -152.02684 -5.8189621 0
-244.57474 -151.92674 -5.8594117 0
-151.41035 -150.33707 -5.8141222 0
-169.4554 -150.10341 -5.8032441 0
-226.02443 -180.09778 -5.7203207 0
-243.92041 -175.05728 -5.7274766 0
-242.74345 -171.56955 -5.7837496 0
-224.16545 -157.4606 -5.7994356 0
-224.20726 -157.39114 -5.7776518 0
-245.62611 -153.24565 -5.7394252 0
-168.61349 -152.68336 -5.716023 0
-239.39252 -151.05704 -5.7035236 0
-170.90414 -151.01753 -5.7577806 0
-238.23079 -150.98642 -5.7623391 0
-167.98477 -150.5451 -5.7297435 0
-169.4124 -150.47585 -5.7934828 0
-169.07237 -150.44121 -5.7816863 0
-168.4209 -150.22101 -5.7269492 0
-174.49048 -150.15102 -5.7543349 0
-169.32614 -150.07388 -5.794517 0
-169.22087 -150.05869 -5.7807307 0
-241.55922 -173.63857 -5.6046944 0
-241.13741 -172.71727 -5.6549592 0
-240.95836 -172.54584 -5.6434226 0
-240.87373 -172.46002 -5.6403689 0
-240.75865 -172.47939 -5.6312213 0
-237.65501 -153.08327 -5.6004515 0
-238.76994 -152.91211 -5.6578732 0
-237.61998 -152.47083 -5.6421843 0
-245.75163 -151.56343 -5.6229544 0
-153.21049 -151.47626 -5.6871896 0
-169.52986 -150.81706 -5.6010985 0
-176.01233 -150.30785 -5.6584454 0
-240.96559 -173.88541 -5.561635 0
-197.56732 -164.6115 -5.5550327 0
-153.41226 -157.20805 -5.5841937 0
-222.31989 -154.03107 -5.5232735 0
-240.60782 -153.27126 -5.5863223 0
-168.42735 -151.00015 -5.514668 0
-168.16618 -150.36517 -5.5154386 0
-230.89127 -182.94429 -5.4474263 0
-230.51634 -182.92253 -5.4306264 0
-164.30721 -155.16402 -5.4130793 0
-182.42633 -153.55655 -5.4601355 0
-182.63342 -153.47383 -5.4087148 0
-244.34019 -153.32111 -5.4432292 0
-246.46825 -153.27423 -5.4535341 0
-180.84282 -152.46347 -5.4674554 0
-181.05016 -152.05838 -5.4877429 0
-180.97522 -152.0779 -5.4806843 0
-168.37807 -151.99669 -5.4871268 0
-180.45535 -151.8564 -5.4702864 0
-240.35289 -151.39662 -5.4212117 0
-167.06567 -151.30919 -5.4305558 0
-244.45988 -151.13681 -5.438539 0
-245.17365 -151.01064 -5.4079809 0
-150.68977 -150.55972 -5.4785981 0
-177.66216 -150.23416 -5.429225 0
-156.72734 -164.12659 -5.3865685 0
-246.64877 -154.59383 -5.3110566 0
-246.55656 -153.47102 -5.3226719 0
-180.68291 -153.17691 -5.3680453 0
-181.19301 -152.13564 -5.3959651 0
-153.08717 -151.53769 -5.3430533 0
-245.2541 -151.0043 -5.3141732 0
-169.37634 -150.14055 -5.3217607 0
-169.01701 -150.19131 -5.3021674 0
-223.75597 -157.34331 -5.262095 0
-186.9422 -155.8997 -5.2384148 0
-240.76822 -153.58424 -5.289742 0
-180.17792 -152.07047 -5.2729125 0
-245.51543 -151.52876 -5.2871571 0
-244.61548 -151.2599 -5.2888045 0
-178.17218 -150.67816 -5.244205 0
-151.17482 -150.05232 -5.2443595 0
-247.11893 -181.517 -5.184556 0
-222.93469 -154.78732 -5.1183586 0
-182.14771 -154.40869 -5.1634831 0
-182.0717 -154.42508 -5.1637039 0
-182.22101 -154.3965 -5.1635242 0
-178.74336 -153.27263 -5.1623955 0
-178.55515 -152.48097 -5.180573 0
-179.76126 -152.18507 -5.1088767 0
-153.19316 -151.59383 -5.1155086 0
-151.36853 -150.90215 -5.1203241 0
-239.10278 -153.77534 -5.0614719 0
-243.31877 -153.40338 -5.0576987 0
-182.59146 -152.4184 -5.0082994 0
-246.76173 -152.30554 -5.0035391 0
-182.5209 -152.19733 -5.0358272 0
-246.57185 -152.08272 -5.0675597 0
-181.51492 -151.84085 -5.0961933 0
-245.82726 -151.7868 -5.023735 0
-182.55006 -151.54111 -5.0332026 0
-182.47305 -151.43472 -5.0720959 0
-224.22533 -157.42714 -4.9820628 0
-153.56165 -157.10492 -4.9599056 0
-155.67868 -155.95874 -4.9714241 0
-239.11734 -153.84988 -4.9441619 0
-182.70503 -152.45621 -4.9497213 0
-183.71201 -152.00447 -4.9328442 0
-183.66348 -151.72714 -4.9475842 0
-183.61478 -151.51961 -4.9608855 0
-183.28818 -151.4968 -4.9534788 0
-170.02138 -150.95293 -4.9127464 0
-169.94284 -150.93535 -4.9093575 0
-184.48041 -150.4742 -4.9135981 0
-185.38936 -150.21606 -4.913857 0
-221.39467 -157.37682 -4.8673944 0
-160.14117 -154.24068 -4.8023086 0
-184.07417 -152.52252 -4.891892 0
-184.07129 -152.37845 -4.8123875 0
-181.00957 -152.04309 -4.8084126 0
-178.73151 -152.04521 -4.8414664 0
-245.4202 -151.95224 -4.8142214 0
-181.3011 -151.96686 -4.8780246 0
-171.07906 -150.22585 -4.8643365 0
-161.48705 -153.8521 -4.7267284 0
-152.50513 -152.91322 -4.7853408 0
-152.49394 -152.90457 -4.7586746 0
-160.63298 -152.88054 -4.7152462 0
-245.14279 -152.76135 -4.7606411 0
-180.13535 -152.28993 -4.7725153 0
-180.04062 -152.22083 -4.7742848 0
-179.991 -152.17525 -4.7686982 0
-239.47842 -152.05128 -4.7693386 0
-239.68294 -151.91049 -4.7345476 0
-178.35197 -151.96161 -4.7672739 0
-165.06415 -151.99217 -4.7799435 0
-245.84897 -151.53046 -4.7740245 0
-150.09201 -151.39133 -4.734673 0
-182.78627 -150.52357 -4.7857938 0
-150.80466 -150.59044 -4.7342057 0
-162.07791 -155.32698 -4.6417837 0
-179.47533 -153.43968 -4.6871672 0
-181.91318 -152.36995 -4.6815004 0
-151.76593 -152.00548 -4.645792 0
-183.31404 -151.53841 -4.680892 0
-246.7932 -154.26213 -4.5097661 0
-246.81911 -154.15947 -4.526814 0
-246.57687 -154.07564 -4.5074039 0
-245.12918 -154.05727 -4.5519505 0
-182.3373 -153.74791 -4.5305037 0
-181.45438 -153.36055 -4.5452046 0
-178.87277 -153.34889 -4.5159445 0
-240.33734 -152.8434 -4.5142655 0
-243.49745 -152.24657 -4.558135 0
-243.44199 -152.06107 -4.5562353 0
-184.42389 -151.58783 -4.5190439 0
-183.56143 -151.4783 -4.5610847 0
-153.15637 -150.76764 -4.5400462 0
-170.02461 -150.68341 -4.5870914 0
-207.58214 -150.5845 -4.5975399 0
-209.56088 -150.26353 -4.5996861 0
-178.06541 -155.85593 -4.418108 0
-246.78207 -154.25473 -4.4770455 0
-246.14285 -154.27556 -4.4774876 0
-245.62543 -154.15927 -4.412499 0
-238.2843 -152.31026 -4.4303513 0
-238.48875 -151.97958 -4.4712143 0
-183.69586 -151.5636 -4.4984498 0
-181.11145 -151.40733 -4.4594183 0
-181.52461 -150.16418 -4.418354 0
-175.95596 -150.10249 -4.4674034 0
-156.99942 -164.48096 -4.3270783 0
-245.74478 -154.18216 -4.3889003 0
-245.67429 -154.14211 -4.3858719 0
-244.86795 -152.91975 -4.3883901 0
-178.98003 -152.74348 -4.3253622 0
-245.29861 -152.4817 -4.3434749 0
-179.97598 -152.17514 -4.3851056 0
-245.28903 -152.02844 -4.3712802 0
-183.6134 -151.9463 -4.3783693 0
-244.33931 -151.76665 -4.3600569 0
-181.71002 -150.98813 -4.3490438 0
-170.52493 -150.84337 -4.3383884 0
-181.25734 -150.68137 -4.3392391 0
-239.0219 -199.13644 -4.2343993 0
-220.30611 -185.98941 -4.2664886 0
-244.07343 -154.55019 -4.247088 0
-242.95847 -153.2121 -4.2700844 0
-243.91934 -152.88438 -4.2932072 0
-179.91434 -152.24481 -4.2578096 0
-182.96994 -151.72186 -4.2637539 0
-182.29066 -151.21062 -4.2795277 0
-181.89449 -151.00473 -4.2804556 0
-225.54298 -189.93791 -4.1829348 0
-226.00266 -159.23999 -4.1000485 0
-182.65186 -153.94019 -4.1827302 0
-242.85887 -152.52248 -4.1376128 0
-180.4142 -152.31963 -4.1420431 0
-180.64108 -152.20212 -4.1384048 0
-179.96693 -152.26308 -4.1038132 0
-180.05586 -152.1443 -4.1730366 0
-237.66335 -151.94299 -4.1192408 0
-181.00562 -151.87279 -4.1334782 0
-181.58186 -150.45326 -4.1917381 0
-180.65138 -150.27849 -4.1119146 0
-239.19212 -199.44621 -4.0205708 0
-184.59175 -157.57335 -4.0433526 0
-181.48309 -154.88039 -4.0237842 0
-244.90956 -153.21417 -4.09445 0
-240.33118 -153.21936 -4.0043993 0
-244.74112 -153.18564 -4.078495 0
-180.27066 -152.63611 -4.0455766 0
-183.80952 -152.53578 -4.0314865 0
-243.96597 -152.48923 -4.0526891 0
-181.36131 -152.248 -4.0584531 0
-180.96988 -152.10625 -4.0247507 0
-179.85768 -152.16914 -4.0022216 0
-154.87024 -151.78307 -4.0044484 0
-183.43999 -151.5773 -4.0014958 0
-183.3459 -151.53169 -4.0064454 0
-183.2728 -151.55283 -4.0060701 0
-183.99139 -151.44449 -4.0921869 0
-182.21294 -151.32719 -4.0728049 0
-182.76239 -150.40512 -4.0017347 0
-182.68762 -150.29498 -4.0852466 0
-180.70424 -150.2919 -4.0128665 0
-180.42902 -150.2123 -4.0185976 0
-180.36517 -150.25641 -4.014811 0
-180.54694 -150.08907 -4.0283403 0
-170.10318 -156.31332 -3.9557526 0
-176.7719 -154.0314 -3.9080758 0
-244.80412 -153.4808 -3.9594603 0
-178.99318 -153.43701 -3.9698825 0
-179.03278 -153.32352 -3.9308355 0
-179.2066 -153.22664 -3.9574318 0
-179.37201 -152.97302 -3.9913635 0
-179.24612 -152.96933 -3.9127851 0
-245.65456 -152.88704 -3.9705153 0
-184.83929 -152.84319 -3.9585023 0
-179.13852 -152.88249 -3.9665103 0
-239.88794 -152.77509 -3.9703557 0
-239.53723 -152.79021 -3.9645982 0
-239.54279 -152.63805 -3.9892354 0
-244.78548 -152.23758 -3.9083622 0
-180.02507 -152.23445 -3.9437201 0
-179.78587 -152.22096 -3.9981387 0
-244.34918 -152.17743 -3.930557 0
-151.28757 -152.03827 -3.9754741 0
-237.81621 -151.96756 -3.9282959 0
-183.4516 -151.55589 -3.9642987 0
-153.01753 -151.55638 -3.9665365 0
-184.31973 -151.44142 -3.9935064 0
-183.44241 -151.47604 -3.9174814 0
-153.70364 -151.30133 -3.9232271 0
-238.61729 -151.11359 -3.9452381 0
-238.40329 -151.15509 -3.9393725 0
-152.79745 -150.369 -3.9237852 0
-182.68153 -150.08662 -3.9676769 0
-180.25978 -150.08617 -3.9833381 0
-221.95665 -155.16634 -3.8340049 0
-178.89177 -153.60837 -3.8463042 0
-177.93944 -153.52309 -3.8245959 0
-245.2753 -153.11731 -3.8724649 0
-177.9958 -153.19196 -3.8645751 0
-184.6366 -152.91241 -3.8881278 0
-245.92966 -152.89351 -3.8480966 0
-245.50499 -152.72839 -3.8090096 0
-176.55902 -152.77669 -3.8430588 0
-176.36574 -152.70004 -3.8256292 0
-245.77065 -152.64229 -3.8519547 0
-179.14285 -152.45923 -3.8950157 0
-245.53485 -152.22571 -3.8313463 0
-243.97479 -152.06432 -3.8699982 0
-244.07465 -151.9976 -3.805028 0
-243.433 -151.79697 -3.8432708 0
-239.14929 -151.70483 -3.8603985 0
-181.94913 -151.7374 -3.8957684 0
-183.5562 -151.53094 -3.8098333 0
-183.80931 -151.37822 -3.8429403 0
-186.75392 -150.50189 -3.8724771 0
-185.819 -150.25325 -3.8263741 0
-180.99336 -150.11928 -3.8746507 0
-187.01068 -150.02628 -3.8217728 0
-223.63374 -157.62675 -3.7803826 0
-224.94925 -156.07478 -3.7637956 0
-163.11415 -155.96281 -3.7451482 0
-181.28517 -155.82628 -3.7026432 0
-245.41483 -154.91241 -3.7156391 0
-176.35507 -154.84523 -3.7780108 0
-244.10999 -154.16896 -3.7844942 0
-183.1476 -153.8246 -3.7780874 0
-183.07494 -153.83862 -3.7783532 0
-183.21323 -153.78627 -3.7808971 0
-246.5929 -153.2729 -3.7405417 0
-246.18011 -153.02582 -3.7141438 0
-179.0737 -152.66202 -3.7365026 0
-223.97948 -152.52014 -3.7600188 0
-180.39601 -152.25026 -3.7873561 0
-246.20018 -151.98508 -3.7025595 0
-239.22424 -151.99454 -3.741672 0
-245.62952 -151.78693 -3.7194312 0
-245.5795 -151.72675 -3.7153075 0
-181.59775 -151.05614 -3.7581716 0
-181.47243 -151.07549 -3.7829912 0
-155.55397 -150.59549 -3.7054293 0
-185.90417 -150.27428 -3.7028527 0
-170.09445 -160.94667 -3.6554565 0
-227.68903 -158.70012 -3.6577406 0
-162.81396 -155.72984 -3.6957116 0
-245.91599 -153.16263 -3.678822 0
-178.00647 -153.12012 -3.6963427 0
-177.38911 -152.83694 -3.6202304 0
-181.08476 -152.66449 -3.6221817 0
-180.33383 -152.20982 -3.612771 0
-179.85988 -152.22102 -3.6817181 0
-180.26985 -152.18237 -3.6082699 0
-178.08029 -152.01111 -3.6432815 0
-183.52049 -151.66362 -3.63853 0
-183.4651 -151.60648 -3.6437361 0
-211.56563 -151.32686 -3.6026552 0
-181.00136 -151.19286 -3.6893046 0
-181.48676 -151.01657 -3.6607351 0
-155.36259 -150.62219 -3.6999402 0
-154.82149 -150.20494 -3.6001678 0
-155.48149 -150.13501 -3.6157115 0
-180.01564 -150.08223 -3.654546 0
-181.34668 -154.70721 -3.5375092 0
-246.23347 -154.68379 -3.5966752 0
-181.3055 -154.19156 -3.5058551 0
-238.01614 -152.80956 -3.5958035 0
-180.29741 -152.41441 -3.5930021 0
-152.58252 -151.54259 -3.5485091 0
-181.04424 -150.88126 -3.5523238 0
-182.10475 -150.65738 -3.5029097 0
-182.67842 -150.40781 -3.5963254 0
-182.69261 -150.3548 -3.5463085 0
-151.65056 -150.34665 -3.5048068 0
-217.52156 -176.80656 -3.4639368 0
-165.9669 -158.36214 -3.4912314 0
-223.74004 -157.48485 -3.4348569 0
-181.04169 -156.51205 -3.4625578 0
-181.55974 -153.27092 -3.4799266 0
-237.94734 -152.64569 -3.4079051 0
-180.06754 -152.42583 -3.4579222 0
-179.93668 -152.43018 -3.4238949 0
-179.11629 -152.39622 -3.4032886 0
-239.29472 -151.7187 -3.4589992 0
-181.90791 -151.50343 -3.4055257 0
-182.28893 -151.25798 -3.4821432 0
-182.25406 -150.91499 -3.4791644 0
-182.75972 -150.30432 -3.4167569 0
-183.3837 -150.12759 -3.4568155 0
-179.86697 -150.16982 -3.4722648 0
-180.72206 -155.34665 -3.3077388 0
-181.93011 -154.46269 -3.3692837 0
-245.62677 -153.23991 -3.3893027 0
-237.23056 -152.90723 -3.3347661 0
-239.21773 -152.71573 -3.3483915 0
-238.05333 -152.75197 -3.3926101 0
-179.01036 -152.71945 -3.300175 0
-238.79803 -152.68187 -3.3485005 0
-224.42336 -152.68599 -3.3746274 0
-180.89516 -152.26295 -3.3911583 0
-244.55487 -152.10385 -3.3171327 0
-178.03142 -151.54817 -3.3974156 0
-239.52475 -151.41365 -3.3484237 0
-183.62862 -151.45782 -3.3033462 0
-177.98311 -151.49611 -3.397938 0
-177.91682 -151.33006 -3.3286879 0
-177.52612 -151.14299 -3.3654122 0
-155.90102 -150.91234 -3.3605962 0
-212.16821 -150.62727 -3.3046019 0
-209.12903 -150.53108 -3.3093174 0
-182.7722 -150.33124 -3.386601 0
-182.69434 -150.30151 -3.353092 0
-182.72701 -150.23441 -3.3740819 0
-152.90437 -150.28168 -3.3819277 0
-183.56467 -150.07822 -3.3611877 0
-230.79332 -186.49545 -3.2885454 0
-244.86916 -153.58061 -3.2530658 0
-244.35071 -153.50688 -3.2130446 0
-181.62227 -153.52728 -3.2681665 0
-178.27127 -153.52522 -3.2953229 0
-177.6572 -153.23657 -3.2463124 0
-244.93199 -153.14711 -3.2766793 0
-245.6727 -153.09436 -3.2636256 0
-183.65558 -152.34279 -3.2003968 0
-245.58261 -151.79404 -3.2085752 0
-183.75417 -151.73723 -3.2265866 0
-245.59283 -151.68893 -3.2210398 0
-183.40761 -151.62971 -3.2449346 0
-183.62488 -151.56635 -3.2435606 0
-183.53912 -151.54016 -3.2507098 0
-183.44829 -151.55331 -3.2587643 0
-183.38757 -151.57022 -3.2073011 0
-210.59454 -151.46118 -3.2678633 0
-210.67168 -151.31853 -3.2726367 0
-182.29698 -151.1813 -3.2708697 0
-210.46822 -150.75842 -3.2305486 0
-210.43246 -150.66412 -3.2421069 0
-183.88193 -150.61588 -3.2885892 0
-151.21196 -150.23407 -3.2921791 0
-178.5182 -150.05711 -3.2656927 0
-150.54059 -150.07869 -3.2735746 0
-154.44742 -157.46608 -3.1609955 0
-183.41908 -153.70628 -3.1698298 0
-182.38289 -153.31122 -3.1230581 0
-182.45125 -153.23779 -3.1290865 0
-183.30064 -153.15939 -3.159852 0
-244.34491 -152.76582 -3.1366994 0
-179.88225 -152.62761 -3.1643155 0
-238.6548 -152.49039 -3.1413608 0
-244.66551 -152.26227 -3.1486092 0
-246.13588 -152.15645 -3.1956172 0
-183.28934 -151.61772 -3.1311743 0
-183.42442 -151.57518 -3.1731677 0
-182.68568 -151.43861 -3.1638286 0
-187.23044 -151.1394 -3.1926672 0
-182.22182 -151.18782 -3.1822405 0
-181.36336 -151.19147 -3.1108544 0
-182.56277 -151.06285 -3.1519082 0
-182.48862 -151.0204 -3.1580937 0
-182.15727 -151.05495 -3.152828 0
-182.15674 -150.87349 -3.136462 0
-182.06085 -150.89384 -3.1598668 0
-183.25603 -150.61766 -3.1208949 0
-209.37419 -150.57399 -3.1837783 0
-213.16083 -150.42943 -3.1314471 0
-184.93851 -150.46191 -3.166193 0
-183.27519 -150.33127 -3.1580987 0
-185.56218 -150.25587 -3.1306489 0
-182.62819 -150.19177 -3.1788275 0
-150.09933 -150.10945 -3.1902826 0
-219.80908 -156.39653 -3.0982547 0
-183.63762 -155.05231 -3.0592587 0
-182.52486 -154.20595 -3.039253 0
-243.17839 -154.03351 -3.0913467 0
-179.89891 -154.02103 -3.0711207 0
-245.76236 -153.9205 -3.0834773 0
-246.75081 -153.40929 -3.0046127 0
-182.5629 -153.33234 -3.0368576 0
-243.69005 -152.60312 -3.0339515 0
-244.26103 -152.43884 -3.0798085 0
-179.41533 -152.31348 -3.0198774 0
-181.33276 -151.93217 -3.0617275 0
-181.12338 -151.93469 -3.0352087 0
-213.01167 -151.83273 -3.0845356 0
-183.26523 -151.72595 -3.0660608 0
-150.63316 -151.75568 -3.0468805 0
-181.3692 -151.63953 -3.0933881 0
-177.73164 -151.6425 -3.0828154 0
-244.48427 -151.5652 -3.0008528 0
-183.51668 -151.47678 -3.0531514 0
-245.83539 -151.3046 -3.0157423 0
-187.20229 -151.1492 -3.012125 0
-185.71558 -151.02644 -3.062609 0
-182.21237 -151.0363 -3.075511 0
-155.43396 -150.81927 -3.0437145 0
-184.46902 -150.53279 -3.080941 0
-187.86195 -150.22035 -3.0615275 0
-182.67355 -150.14207 -3.0145876 0
-217.86783 -177.28076 -2.9082851 0
-188.19597 -171.88217 -2.9929812 0
-170.80713 -158.28766 -2.9131243 0
-181.22426 -155.60706 -2.9291041 0
-180.06856 -155.35725 -2.9041674 0
-182.3933 -154.08936 -2.9178748 0
-246.84427 -153.37996 -2.9534471 0
-239.99298 -153.375 -2.9186068 0
-238.17227 -153.36908 -2.9841728 0
-181.7317 -153.30568 -2.9979732 0
-224.0701 -153.1062 -2.9579873 0
-182.35701 -153.11838 -2.9237411 0
-245.76137 -153.02859 -2.9072056 0
-245.21547 -152.68239 -2.9772594 0
-179.81656 -152.67484 -2.9799974 0
-181.42674 -152.27522 -2.9584405 0
-181.24889 -152.27623 -2.95785 0
-180.33519 -152.1163 -2.9388001 0
-181.37958 -151.93256 -2.9621325 0
-181.17903 -151.86171 -2.9732802 0
-180.2005 -151.88683 -2.9671652 0
-179.95277 -151.82272 -2.936631 0
-181.6107 -151.74515 -2.9730599 0
-181.09044 -151.59737 -2.975014 0
-180.76947 -151.31367 -2.9737325 0
-181.25485 -151.04007 -2.983362 0
-239.79771 -150.97302 -2.9521093 0
-181.0775 -150.93042 -2.9763234 0
-182.61945 -150.6255 -2.9619651 0
-185.16576 -150.55431 -2.9901099 0
-185.07785 -150.03429 -2.9573569 0
-185.24255 -171.94775 -2.8092718 0
-196.62814 -165.46219 -2.8594427 0
-156.3981 -163.82784 -2.8427525 0
-170.5522 -158.29074 -2.8892288 0
-179.12337 -155.804 -2.8599467 0
-179.05063 -155.61931 -2.8790507 0
-178.88129 -155.62952 -2.8184288 0
-220.22983 -155.48576 -2.8259926 0
-179.19466 -155.40439 -2.8351848 0
-222.07169 -155.19904 -2.8698628 0
-179.57188 -155.1241 -2.8972785 0
-180.39032 -154.84666 -2.8933139 0
-165.9984 -154.52179 -2.8457575 0
-182.31258 -154.34306 -2.8327496 0
-182.6436 -154.18773 -2.8750784 0
-154.06976 -154.05637 -2.8514168 0
-182.90536 -153.86867 -2.8207536 0
-182.99216 -153.52458 -2.8935211 0
-182.20607 -153.53151 -2.8947754 0
-179.66933 -153.54866 -2.8781612 0
-211.14038 -153.3539 -2.8988945 0
-245.55618 -153.14954 -2.812294 0
-184.01126 -152.6476 -2.8664141 0
-180.03798 -152.0274 -2.8260727 0
-179.87538 -152.09071 -2.8933549 0
-238.87241 -151.91516 -2.8585808 0
-179.82486 -151.88872 -2.8105068 0
-182.81244 -151.73796 -2.8149846 0
-210.82608 -151.616 -2.8471029 0
-182.02545 -151.57108 -2.8468015 0
-183.32683 -151.43039 -2.8967376 0
-181.97636 -151.42159 -2.8651047 0
-182.0343 -151.15216 -2.8361819 0
-187.12669 -151.09805 -2.8466835 0
-182.49159 -150.65314 -2.8205914 0
-184.39885 -150.10277 -2.8318682 0
-184.13104 -150.02547 -2.8249207 0
-185.09322 -172.02393 -2.7947888 0
-152.95836 -160.74277 -2.7812581 0
-171.90314 -160.45309 -2.7193949 0
-170.89903 -158.68581 -2.7773681 0
-164.43094 -157.18797 -2.7308359 0
-181.11884 -156.1573 -2.7454798 0
-178.27177 -155.96931 -2.7712636 0
-179.34579 -155.07928 -2.7630265 0
-179.37976 -154.83055 -2.7882411 0
-180.68771 -154.70532 -2.7786374 0
-221.82617 -154.65231 -2.7131689 0
-179.65588 -154.69972 -2.7423396 0
-165.86316 -154.57104 -2.7417219 0
-183.5675 -154.48329 -2.7398367 0
-243.19398 -154.35017 -2.7228801 0
-183.60898 -154.30588 -2.7631092 0
-182.32195 -154.24683 -2.74824 0
-246.16591 -153.40469 -2.7701163 0
-245.93471 -153.31998 -2.7524641 0
-239.79729 -152.85356 -2.7049363 0
-181.20099 -152.81926 -2.7257304 0
-179.75513 -152.7126 -2.7003126 0
-245.16238 -152.56763 -2.7141056 0
-238.6386 -152.58537 -2.7421949 0
-179.96204 -152.32271 -2.7720406 0
-155.17149 -151.62581 -2.7102718 0
-243.95982 -151.40483 -2.758872 0
-177.8244 -151.11646 -2.7043707 0
-211.61967 -150.28154 -2.7688313 0
-182.88013 -150.18678 -2.7018578 0
-182.67885 -150.04559 -2.7035561 0
-199.18594 -171.40675 -2.6858449 0
-168.21373 -161.61401 -2.6248925 0
-169.05037 -161.14993 -2.645638 0
-168.82396 -160.93715 -2.6530282 0
-172.23747 -160.36977 -2.6696949 0
-170.75511 -157.94875 -2.6837986 0
-223.86095 -157.39941 -2.6884422 0
-166.423 -156.70517 -2.6222324 0
-178.24617 -155.80103 -2.6169438 0
-220.2122 -155.68434 -2.6361051 0
-245.02429 -154.75749 -2.6209311 0
-184.76288 -154.0304 -2.6910145 0
-239.72966 -153.40984 -2.6070242 0
-184.90782 -153.38403 -2.6296711 0
-246.26123 -152.81621 -2.6618159 0
-179.66817 -152.73837 -2.6867816 0
-180.51163 -152.69714 -2.6371064 0
-240.01051 -152.57433 -2.677742 0
-239.42804 -152.59712 -2.6699848 0
-238.51157 -152.51088 -2.6826775 0
-181.3857 -152.53629 -2.6906016 0
-180.4581 -152.54539 -2.6551197 0
-244.52956 -152.35869 -2.654424 0
-180.04924 -152.2977 -2.6732833 0
-178.43617 -152.02122 -2.6323106 0
-179.84639 -151.85742 -2.6820126 0
-239.18304 -151.75255 -2.6562929 0
-239.27092 -151.67004 -2.6034048 0
-238.17989 -151.69514 -2.6261003 0
-238.07048 -151.68629 -2.6107767 0
-177.09337 -151.56767 -2.6394618 0
-245.40138 -151.49191 -2.6346905 0
-150.99939 -150.66124 -2.6751313 0
-182.63504 -150.10185 -2.6586988 0
-156.17561 -150.15027 -2.6683569 0
-171.71626 -162.19028 -2.5697665 0
-226.8456 -161.0912 -2.511399 0
-172.39386 -160.13101 -2.5610995 0
-172.34456 -159.69435 -2.5686967 0
-170.73874 -159.29601 -2.5196769 0
-164.51628 -156.82742 -2.577065 0
-164.69138 -156.75699 -2.5451818 0
-164.56772 -156.63806 -2.5837927 0
-178.92853 -155.28384 -2.5268469 0
-164.58292 -154.77962 -2.5635009 0
-178.84586 -154.31073 -2.5417218 0
-184.5464 -153.66908 -2.5778039 0
-182.59906 -153.68077 -2.5694892 0
-223.6573 -153.38426 -2.5516107 0
-245.91467 -152.85742 -2.5046732 0
-245.31703 -152.85397 -2.597403 0
-163.98349 -152.69328 -2.5540504 0
-239.5961 -152.51938 -2.531461 0
-238.88959 -152.55095 -2.5982735 0
-180.06729 -152.57718 -2.5061948 0
-183.88388 -152.38152 -2.5933535 0
-245.84427 -152.02782 -2.5319753 0
-179.09071 -151.87576 -2.5115912 0
-178.96893 -151.75262 -2.5454249 0
-244.28459 -151.60168 -2.5511222 0
-183.6859 -151.62544 -2.5472813 0
-183.61931 -151.51695 -2.5205772 0
-183.52182 -151.54868 -2.5458782 0
-182.19572 -151.38077 -2.5076933 0
-182.41617 -150.62079 -2.5947292 0
-184.67796 -150.26286 -2.5216429 0
-150.47112 -150.26465 -2.5571799 0
-172.12852 -159.52524 -2.4859388 0
-171.37326 -159.403 -2.4766533 0
-166.34508 -157.75928 -2.4101653 0
-179.61208 -156.61797 -2.4321299 0
-180.01097 -155.59987 -2.4169574 0
-179.56863 -155.42178 -2.4635086 0
-178.8385 -153.56055 -2.4856017 0
-243.29781 -153.39574 -2.4694581 0
-178.47997 -153.37949 -2.4495208 0
-178.33022 -153.39835 -2.4276938 0
-181.02373 -153.15959 -2.4615421 0
-239.80281 -152.65115 -2.4136064 0
-237.86089 -152.52846 -2.4626691 0
-238.83728 -152.386 -2.4798989 0
-180.38391 -152.21176 -2.4211559 0
-180.23929 -152.14566 -2.4346154 0
-183.33292 -151.62282 -2.448467 0
-183.26527 -151.64719 -2.4445529 0
-182.28394 -151.63443 -2.428726 0
-244.73021 -151.59915 -2.4640353 0
-244.47893 -151.52516 -2.496367 0
-181.40086 -151.56337 -2.4673793 0
-245.55708 -151.46629 -2.4460824 0
-244.15758 -151.47551 -2.469197 0
-182.07025 -151.38455 -2.4358315 0
-181.44113 -151.38713 -2.4862318 0
-181.23244 -151.28105 -2.4098756 0
-188.43825 -150.70285 -2.476331 0
-186.30496 -150.52417 -2.4051468 0
-187.33354 -150.28485 -2.4314733 0
-182.73817 -150.07344 -2.4113784 0
-231.08208 -160.68007 -2.3726296 0
-172.70639 -160.60187 -2.3991156 0
-172.50424 -159.92314 -2.3971157 0
-222.30664 -157.22542 -2.3182278 0
-164.60347 -156.61392 -2.3785379 0
-181.14247 -155.76987 -2.3394008 0
-220.30785 -155.30025 -2.396162 0
-222.72641 -154.40869 -2.3170505 0
-177.37178 -154.0235 -2.3291821 0
-162.53673 -153.76218 -2.3016381 0
-178.75978 -153.5807 -2.3497846 0
-211.31772 -152.76688 -2.3273702 0
-180.69249 -152.5034 -2.3815601 0
-182.01831 -152.49615 -2.337327 0
-180.41006 -152.4216 -2.3910081 0
-182.71158 -152.38667 -2.329201 0
-182.2438 -152.04832 -2.3075917 0
-163.35954 -151.83394 -2.3933587 0
-183.68498 -151.6006 -2.3488383 0
-182.18903 -151.69302 -2.3141866 0
-181.26689 -151.65807 -2.3245013 0
-183.70898 -151.53404 -2.3362749 0
-183.54802 -151.56262 -2.3600941 0
-181.09273 -151.5387 -2.3981326 0
-186.03467 -151.11586 -2.3134339 0
-196.38101 -175.3839 -2.2372296 0
-168.95886 -160.67445 -2.2042687 0
-225.28169 -156.62979 -2.2474682 0
-179.04451 -154.24362 -2.2643197 0
-178.76643 -154.17601 -2.2036951 0
-245.44662 -153.9325 -2.214529 0
-178.48683 -153.52789 -2.2592723 0
-184.45024 -152.98029 -2.285181 0
-184.77888 -152.72673 -2.2580924 0
-184.25742 -152.6035 -2.243669 0
-182.52708 -152.40807 -2.2572548 0
-184.34595 -152.33034 -2.2087092 0
-180.84093 -152.31718 -2.2707176 0
-181.14268 -152.27391 -2.2798493 0
-180.25488 -152.22496 -2.2159505 0
-182.54066 -152.17992 -2.2015202 0
-181.66667 -151.90115 -2.2093921 0
-238.00024 -151.705 -2.2962718 0
-187.01466 -151.72672 -2.2217774 0
-180.60974 -151.58276 -2.2485714 0
-239.44124 -151.31682 -2.2583349 0
-180.3922 -151.39238 -2.2336581 0
-180.23293 -151.36983 -2.2221613 0
-239.43532 -151.25508 -2.2678361 0
-223.37527 -151.24225 -2.2159607 0
-185.75064 -150.56755 -2.2486906 0
-172.26617 -150.14056 -2.2014189 0
-195.55875 -175.79196 -2.1522365 0
-186.57069 -171.53017 -2.1014006 0
-171.68983 -160.08264 -2.114321 0
-171.61742 -159.40216 -2.1464498 0
-171.25076 -159.17776 -2.1185007 0
-171.08832 -158.81026 -2.1217263 0
-179.85049 -155.21422 -2.1576853 0
-179.5802 -154.84444 -2.1861403 0
-181.778 -154.50169 -2.1005509 0
-179.28502 -154.26671 -2.1979878 0
-178.74791 -154.11984 -2.1735408 0
-177.30812 -154.04964 -2.1733091 0
-181.60048 -153.21422 -2.13715 0
-179.78807 -152.86873 -2.1958487 0
-179.49989 -152.85388 -2.1857667 0
-179.76132 -152.57181 -2.1108727 0
-180.06026 -152.40147 -2.1714091 0
-225.47903 -152.32864 -2.1931016 0
-224.44661 -152.38914 -2.1076932 0
-184.5872 -152.26518 -2.1177156 0
-238.59657 -152.13004 -2.101238 0
-238.45592 -152.10057 -2.175138 0
-184.83113 -152.18396 -2.1688781 0
-238.12541 -152.05264 -2.1160223 0
-180.7963 -151.77194 -2.1795714 0
-181.17252 -151.40181 -2.1785069 0
-239.31049 -151.36809 -2.1047513 0
-239.13225 -151.36803 -2.1898196 0
-181.09822 -151.30482 -2.1041403 0
-185.84889 -151.06522 -2.1663191 0
-153.59698 -150.40309 -2.1866295 0
-186.99799 -150.25967 -2.1133647 0
-182.83507 -150.0705 -2.1935127 0
-161.5394 -163.46111 -2.0479918 0
-172.26067 -161.75992 -2.0267339 0
-172.50557 -161.55185 -2.0510459 0
-172.53891 -160.94055 -2.046797 0
-172.14024 -160.67931 -2.0061829 0
-171.50819 -159.8049 -2.0665476 0
-170.98882 -158.65514 -2.0411093 0
-220.49319 -157.93489 -2.0588481 0
-181.89856 -155.11319 -2.0379155 0
-222.86787 -154.22768 -2.0860875 0
-177.54073 -154.22592 -2.0891848 0
-245.89346 -153.98679 -2.0067542 0
-178.8472 -153.90936 -2.0409491 0
-179.24139 -153.87041 -2.0896809 0
-178.91629 -153.81007 -2.0549603 0
-179.33574 -153.77705 -2.0628586 0
-185.78389 -153.63933 -2.0620024 0
-179.2607 -153.59557 -2.0894351 0
-224.42659 -153.1651 -2.0579503 0
-185.25688 -153.16238 -2.020093 0
-238.78716 -153.07198 -2.0640111 0
-179.73039 -152.93773 -2.0670609 0
-179.57779 -152.93004 -2.0196552 0
-179.42546 -152.96689 -2.0262272 0
-179.5065 -152.84967 -2.0904632 0
-179.43269 -152.8922 -2.0819604 0
-240.29866 -152.53893 -2.0853336 0
-238.93811 -151.68407 -2.0273499 0
-151.88432 -150.60977 -2.0908086 0
-186.82266 -150.48218 -2.0441484 0
-182.36464 -150.49182 -2.0600495 0
-177.78906 -150.35605 -2.0751393 0
-171.82999 -161.22176 -1.9649316 0
-172.48953 -160.85539 -1.9890938 0
-153.00302 -160.61649 -1.995533 0
-171.86049 -160.50151 -1.9157177 0
-230.12144 -160.12941 -1.9767865 0
-171.92632 -160.1187 -1.9627974 0
-170.04008 -160.132 -1.9291475 0
-169.97192 -160.17023 -1.9032917 0
-228.77475 -160.0311 -1.9868139 0
-171.2617 -158.91298 -1.9108034 0
-224.22337 -157.51128 -1.930431 0
-223.9584 -157.50832 -1.9449178 0
-181.27858 -154.93227 -1.9011867 0
-181.75897 -154.38995 -1.9592966 0
-222.86591 -154.08997 -1.9781506 0
-224.90352 -153.81764 -1.9820631 0
-180.08487 -153.28702 -1.9902313 0
-244.96492 -153.14207 -1.9064616 0
-223.93529 -153.14081 -1.9316466 0
-151.83694 -153.03656 -1.9114659 0
-179.51416 -152.93039 -1.9992518 0
-179.40218 -152.99461 -1.90051 0
-180.24214 -152.55701 -1.9014469 0
-163.948 -152.47963 -1.9778292 0
-180.87473 -151.78972 -1.9338319 0
-183.77927 -151.63895 -1.9781728 0
-183.29842 -151.50066 -1.9725541 0
-152.79199 -151.32953 -1.9151536 0
-154.32039 -150.75932 -1.9588459 0
-182.05692 -150.63942 -1.9296266 0
-161.88826 -163.49071 -1.8162752 0
-169.45459 -160.59314 -1.8148234 0
-168.91742 -160.54024 -1.8032032 0
-171.83887 -159.73987 -1.8364532 0
-171.77272 -159.69476 -1.8376244 0
-170.51283 -159.65779 -1.8852682 0
-170.42574 -159.65207 -1.8768998 0
-170.74878 -159.54352 -1.8118175 0
-171.78029 -159.21854 -1.8819026 0
-170.84549 -159.18071 -1.8592669 0
-170.61778 -158.71295 -1.8239166 0
-179.46559 -155.25229 -1.8575931 0
-181.06947 -154.68303 -1.870345 0
-179.05003 -154.4704 -1.8428971 0
-179.39127 -154.25117 -1.863571 0
-179.44147 -154.10339 -1.8731529 0
-245.80298 -153.65906 -1.8461117 0
-180.36877 -153.2363 -1.8343107 0
-179.86745 -153.22021 -1.8326279 0
-183.63304 -153.08054 -1.8640909 0
-239.597 -152.99385 -1.895404 0
-179.5321 -152.95308 -1.8322928 0
-182.56282 -152.87128 -1.8724571 0
-244.04745 -152.67648 -1.8497474 0
-243.86424 -152.57849 -1.8931084 0
-239.08997 -152.58127 -1.8151983 0
-184.18991 -152.5771 -1.8289044 0
-180.06735 -152.46902 -1.8232414 0
-244.90491 -152.1665 -1.8388261 0
-182.07689 -150.71068 -1.8789889 0
-198.49564 -162.86719 -1.7001125 0
-170.87265 -160.82484 -1.7970749 0
-169.80756 -160.76868 -1.710417 0
-171.93623 -160.41263 -1.7097216 0
-172.17891 -160.33113 -1.7766291 0
-171.33432 -160.28894 -1.7424486 0
-171.04504 -160.21704 -1.7424215 0
-171.46053 -160.13351 -1.7693871 0
-227.92262 -160.0583 -1.7658079 0
-169.34695 -160.04759 -1.7313534 0
-169.4758 -159.84032 -1.7603887 0
-169.59267 -159.77296 -1.7834032 0
-178.44104 -155.37273 -1.7030904 0
-222.90727 -153.93256 -1.7501185 0
-160.63617 -153.92455 -1.7690543 0
-160.436 -153.86169 -1.7600734 0
-178.54926 -153.55891 -1.7068081 0
-244.83192 -153.12961 -1.7605437 0
-184.69847 -152.80579 -1.7917593 0
-238.64249 -152.6725 -1.7661948 0
-184.3232 -152.44148 -1.7280469 0
-243.94333 -152.36266 -1.7937899 0
-244.51788 -152.25699 -1.7810163 0
-182.1389 -152.15216 -1.7765212 0
-183.08118 -151.55695 -1.7717606 0
-239.17271 -151.49213 -1.7247474 0
-183.11224 -151.1633 -1.764025 0
-150.23322 -150.54016 -1.7449627 0
-186.31725 -150.15652 -1.7440505 0
-171.98917 -161.33421 -1.6425166 0
-226.60254 -160.05304 -1.6299039 0
-172.08948 -159.01962 -1.6596174 0
-220.2014 -155.21005 -1.6905711 0
-219.95859 -155.23463 -1.6557647 0
-178.67474 -155.17079 -1.6558528 0
-224.24767 -154.28575 -1.6417121 0
-179.30226 -154.26503 -1.6337949 0
-179.12567 -154.05605 -1.6599829 0
-243.83916 -153.92067 -1.6722924 0
-160.57661 -153.92499 -1.6170026 0
-243.94493 -153.87898 -1.6590995 0
-183.33064 -153.89145 -1.624809 0
-161.86057 -153.88792 -1.6196972 0
-160.40494 -153.86598 -1.6985919 0
-245.21095 -153.47223 -1.6566052 0
-182.5513 -153.46967 -1.6525462 0
-179.95222 -153.3717 -1.6073049 0
-158.74809 -153.24454 -1.6220093 0
-239.9328 -153.05853 -1.660794 0
-238.15375 -153.07619 -1.6855009 0
-239.93602 -152.99141 -1.6078532 0
-239.88487 -152.96759 -1.610468 0
-182.1747 -152.75845 -1.6068989 0
-182.42737 -152.54419 -1.6814009 0
-238.74049 -152.10394 -1.6313505 0
-180.59167 -152.1364 -1.6704237 0
-183.76703 -151.56383 -1.6168566 0
-238.89552 -151.49593 -1.6472299 0
-239.19493 -151.35722 -1.6099584 0
-176.05357 -151.03587 -1.6735771 0
-186.7679 -150.57695 -1.6227599 0
-186.44093 -150.33076 -1.6768371 0
-169.79759 -159.4951 -1.5212002 0
-164.36194 -157.86266 -1.5632648 0
-224.41705 -155.42552 -1.5649786 0
-178.79819 -155.2961 -1.5424207 0
-223.9178 -155.14195 -1.571292 0
-224.21983 -155.04094 -1.5560317 0
-224.16147 -154.90224 -1.5359164 0
-179.00148 -154.78934 -1.5055487 0
-164.62654 -154.79532 -1.5328581 0
-164.65094 -154.6913 -1.5597743 0
-164.59702 -154.68385 -1.5272633 0
-184.24927 -154.58409 -1.5101302 0
-179.007 -154.07326 -1.5237869 0
-177.3542 -154.07935 -1.5506091 0
-177.29402 -154.03188 -1.5505197 0
-178.25105 -153.93794 -1.5192537 0
-179.62254 -152.94174 -1.5511314 0
-244.487 -152.84253 -1.5425206 0
-179.47998 -152.89001 -1.5607165 0
-150.64806 -152.87108 -1.5897155 0
-244.6163 -152.66054 -1.5696818 0
-239.20593 -152.62827 -1.5258393 0
-238.88528 -152.19234 -1.5951716 0
-224.78517 -152.16769 -1.5242689 0
-181.20918 -151.93008 -1.51372 0
-224.18112 -151.88539 -1.5225588 0
-239.31818 -151.5882 -1.5537382 0
-183.5919 -151.50455 -1.5592798 0
-183.45802 -151.59113 -1.5903713 0
-183.30881 -151.54901 -1.5460142 0
-186.32124 -150.22096 -1.5598093 0
-228.50812 -184.11304 -1.4871582 0
-199.44197 -172.72127 -1.4782091 0
-210.17233 -163.63858 -1.4993143 0
-229.81761 -160.47197 -1.4169662 0
-169.81602 -159.55424 -1.4538875 0
-171.21217 -159.37514 -1.4326906 0
-170.93047 -159.04829 -1.4634829 0
-163.15802 -155.98836 -1.4076335 0
-220.35245 -155.41878 -1.430608 0
-220.06033 -155.09688 -1.4246007 0
-182.78697 -154.82936 -1.469048 0
-178.4483 -154.20815 -1.4823397 0
-177.27592 -154.17953 -1.4381436 0
-178.35422 -154.00212 -1.4438403 0
-177.06799 -154.07968 -1.4482458 0
-182.59573 -153.93706 -1.4189132 0
-222.86757 -153.87416 -1.4632663 0
-178.88199 -153.60535 -1.4486065 0
-181.70201 -153.28101 -1.4739649 0
-181.05087 -153.26546 -1.4802829 0
-180.00322 -152.84076 -1.4346606 0
-179.7907 -152.71231 -1.4171177 0
-179.85974 -152.64584 -1.4294695 0
-244.59106 -152.35849 -1.4844532 0
-179.7193 -152.31287 -1.4333447 0
-224.10005 -152.27483 -1.4124873 0
-179.62839 -152.23309 -1.4670949 0
-239.58099 -152.19644 -1.4243093 0
-244.39496 -152.07375 -1.411832 0
-182.29637 -152.03703 -1.4272491 0
-180.60472 -151.97324 -1.4480855 0
-183.51195 -151.62361 -1.4222103 0
-187.07787 -150.21666 -1.4629827 0
-186.20689 -150.25894 -1.4775651 0
-186.25488 -150.18822 -1.4901063 0
-187.73817 -150.05472 -1.4813702 0
-195.71754 -165.81023 -1.3059038 0
-171.12155 -159.76926 -1.3814837 0
-225.59457 -159.12503 -1.3926135 0
-164.49268 -158.0985 -1.3210242 0
-164.0407 -157.42795 -1.3563824 0
-163.97385 -156.71182 -1.3316554 0
-164.24966 -156.54608 -1.3431866 0
-163.26567 -156.01566 -1.3197148 0
-179.78732 -155.60478 -1.3715146 0
-178.27249 -154.32799 -1.3857599 0
-182.81808 -154.26112 -1.3409029 0
-178.6888 -154.19235 -1.3560359 0
-177.49139 -154.19089 -1.3402503 0
-177.12836 -153.89252 -1.3052994 0
-180.76669 -153.37373 -1.3412042 0
-179.96358 -153.06268 -1.3627143 0
-238.69023 -152.93182 -1.3640697 0
-179.48938 -152.94356 -1.3040891 0
-179.24139 -152.92668 -1.3755109 0
-179.31836 -152.85225 -1.3360447 0
-182.77762 -152.69704 -1.3200123 0
-181.60318 -152.03079 -1.3516169 0
-179.30568 -152.05045 -1.3448501 0
-179.44562 -151.97047 -1.3363749 0
-180.88811 -151.71652 -1.335024 0
-183.73549 -151.63416 -1.3560337 0
-183.15414 -151.64464 -1.360745 0
-181.23465 -151.60835 -1.3405483 0
-223.5385 -151.54088 -1.3081034 0
-223.32166 -151.54089 -1.3070041 0
-222.07513 -176.36838 -1.2193916 0
-171.51564 -159.74155 -1.256241 0
-170.49536 -159.77568 -1.2476796 0
-171.14491 -159.25928 -1.2181973 0
-225.25052 -158.52769 -1.2141678 0
-164.31505 -157.80443 -1.2792728 0
-224.24559 -157.53958 -1.2548192 0
-164.09663 -157.57808 -1.2919762 0
-152.4211 -156.10054 -1.243468 0
-179.84039 -153.29237 -1.2474666 0
-179.19139 -153.25586 -1.2645471 0
-180.57245 -153.18985 -1.2139336 0
-238.53763 -153.06744 -1.2369561 0
-245.10655 -152.80298 -1.2414305 0
-181.61505 -152.64893 -1.2899716 0
-179.54518 -151.88821 -1.2680153 0
-179.48102 -151.87294 -1.2556421 0
-183.85068 -151.56348 -1.2347468 0
-183.49693 -151.58174 -1.2775879 0
-225.6089 -150.92863 -1.2967525 0
-154.2971 -150.60724 -1.2164652 0
-152.65967 -150.6996 -1.2295719 0
-151.4393 -150.18167 -1.2203008 0
-168.33739 -150.08957 -1.2508529 0
-214.7049 -167.41144 -1.1894234 0
-196.10983 -166.00002 -1.1910968 0
-197.77469 -163.77316 -1.11397 0
-208.02483 -163.59488 -1.1225241 0
-160.31274 -162.88866 -1.1796292 0
-171.12856 -159.79204 -1.1063306 0
-225.02071 -158.37073 -1.1676704 0
-224.36888 -157.77432 -1.1989666 0
-223.80521 -157.64867 -1.137539 0
-164.21645 -156.71878 -1.1565694 0
-179.24159 -154.81955 -1.1064981 0
-184.81934 -153.77113 -1.1770958 0
-184.29779 -153.77281 -1.166593 0
-184.71716 -153.67175 -1.1828492 0
-179.85278 -153.62708 -1.1897352 0
-178.54376 -153.53833 -1.1581331 0
-159.19829 -153.51242 -1.1219959 0
-221.73724 -153.4445 -1.1037232 0
-161.72673 -153.44896 -1.1135172 0
-180.74084 -152.99614 -1.1042928 0
-154.7525 -151.61266 -1.1896344 0
-183.69801 -151.50143 -1.1850115 0
-153.48975 -150.88295 -1.1340698 0
-153.58188 -150.74174 -1.1431315 0
-151.63634 -150.11134 -1.1795112 0
-171.86958 -160.65987 -1.0773685 0
-172.06313 -160.07121 -1.0805116 0
-217.50807 -159.74982 -1.0423673 0
-170.80588 -159.68779 -1.0059812 0
-170.96217 -159.18451 -1.0807983 0
-179.69762 -155.11903 -1.0506183 0
-184.82494 -154.60594 -1.0948422 0
-178.76469 -154.68272 -1.0129046 0
-184.7766 -154.54021 -1.0991476 0
-183.66985 -153.76888 -1.0722023 0
-158.56653 -153.47379 -1.0930409 0
-238.61089 -153.29062 -1.0072335 0
-183.07971 -153.2541 -1.042179 0
-182.83093 -153.14124 -1.0702468 0
-244.28195 -153.00954 -1.0581577 0
-180.57381 -152.95554 -1.0633725 0
-245.31386 -152.85834 -1.0183086 0
-244.17207 -152.88658 -1.031777 0
-176.66827 -151.93651 -1.016647 0
-183.05583 -151.60909 -1.071612 0
-183.53963 -151.55641 -1.0964035 0
-181.25557 -151.52448 -1.0597985 0
-181.12793 -151.59412 -1.0427175 0
-150.92577 -151.44666 -1.0487907 0
-181.99982 -150.47183 -1.0134687 0
-186.1212 -150.24498 -1.0064341 0
-169.27231 -150.14034 -1.0790908 0
-179.52396 -150.00766 -1.0263273 0
-195.60982 -165.81371 -0.91880459 0
-197.68831 -165.13332 -0.92034942 0
-170.91945 -160.13515 -0.91994542 0
-215.34096 -160.00813 -0.9005276 0
-215.2567 -160.02464 -0.90850908 0
-171.38049 -159.94148 -0.97251892 0
-169.57651 -159.89633 -0.99353343 0
-227.36723 -159.22609 -0.98234266 0
-163.97809 -156.8914 -0.95668024 0
-178.69479 -154.65172 -0.97469604 0
-223.78265 -154.54283 -0.98678201 0
-164.55011 -154.54295 -0.95072925 0
-222.29176 -154.4866 -0.97519016 0
-179.42102 -154.31879 -0.99677056 0
-179.17441 -154.27682 -0.99641359 0
-212.69972 -154.07947 -0.92781723 0
-244.02699 -153.81279 -0.954503 0
-222.49957 -153.87195 -0.96499169 0
-245.25999 -153.27364 -0.97275734 0
-179.52917 -153.18097 -0.93050963 0
-179.45996 -153.13919 -0.93681693 0
-179.20486 -153.00685 -0.99397427 0
-179.27693 -152.94003 -0.99019599 0
-245.19893 -152.86105 -0.99941897 0
-179.26756 -152.89983 -0.97331619 0
-245.14201 -152.64578 -0.95320231 0
-181.24225 -152.09528 -0.95134789 0
-184.14001 -151.17477 -0.95830244 0
-152.01064 -151.11635 -0.91961873 0
-186.09895 -150.85507 -0.96976352 0
-187.50479 -150.08902 -0.99625212 0
-186.73613 -150.04253 -0.93942064 0
-169.47978 -159.95992 -0.83259678 0
-171.21005 -159.24455 -0.89961547 0
-170.97408 -159.06572 -0.85521191 0
-163.04408 -155.92192 -0.82800418 0
-177.06802 -154.16206 -0.8059113 0
-177.23959 -154.01994 -0.84108859 0
-184.02802 -153.7029 -0.88536984 0
-179.47054 -153.05519 -0.8260572 0
-181.72162 -152.72557 -0.87379372 0
-181.27979 -152.70821 -0.88178957 0
-244.17401 -152.67648 -0.86313105 0
-245.33708 -152.46608 -0.81328303 0
-245.27213 -152.49515 -0.81014884 0
-182.15964 -152.44279 -0.80814981 0
-181.71399 -152.4859 -0.83333397 0
-180.75893 -152.47922 -0.83476818 0
-181.21933 -152.10234 -0.86343515 0
-182.99818 -151.72203 -0.86609584 0
-183.6454 -151.4848 -0.84339893 0
-186.74791 -150.881 -0.80172515 0
-183.82629 -150.81137 -0.89857525 0
-186.63628 -150.7701 -0.82533747 0
-154.73145 -150.57468 -0.86654025 0
-189.06236 -173.88885 -0.70455825 0
-162.80573 -164.52667 -0.75964051 0
-169.69949 -160.99492 -0.74086213 0
-178.63062 -154.96451 -0.79890168 0
-178.89197 -154.83073 -0.77784872 0
-183.98161 -154.35429 -0.74150348 0
-183.62221 -153.23318 -0.76672363 0
-161.63644 -153.18491 -0.7650134 0
-179.22064 -152.95476 -0.75556278 0
-179.89281 -152.70697 -0.79888237 0
-180.38544 -152.61966 -0.74815232 0
-182.09972 -152.4706 -0.77044588 0
-181.13055 -152.49269 -0.70790988 0
-181.88098 -152.34128 -0.73119342 0
-180.28418 -152.38101 -0.77377367 0
-181.78151 -152.1131 -0.77430242 0
-181.65758 -152.13264 -0.72065306 0
-183.48314 -151.62001 -0.78499061 0
-183.60796 -151.54227 -0.79824001 0
-177.43224 -151.41827 -0.72131199 0
-177.37395 -151.41721 -0.71994805 0
-225.15306 -151.39418 -0.72436249 0
-186.45357 -151.05615 -0.70895469 0
-176.6188 -150.97089 -0.74845499 0
-185.95985 -150.39705 -0.71078503 0
-152.07109 -150.21429 -0.78165239 0
-186.95268 -150.13745 -0.77192122 0
-151.96291 -150.19965 -0.77156496 0
-186.72591 -150.01816 -0.7044149 0
-189.95308 -178.44623 -0.66660029 0
-195.63455 -165.75504 -0.69934249 0
-197.83865 -164.90408 -0.65691316 0
-197.6628 -164.69617 -0.69034898 0
-164.42149 -158.15274 -0.62954789 0
-221.67455 -155.48418 -0.68314487 0
-182.76068 -155.11604 -0.62649536 0
-212.2043 -154.0293 -0.62805045 0
-176.54526 -154.03212 -0.65721834 0
-244.11784 -153.84808 -0.64142895 0
-181.23102 -153.69879 -0.63670754 0
-181.64442 -153.47157 -0.63171577 0
-183.31126 -152.98204 -0.67645836 0
-180.2722 -152.85306 -0.61214966 0
-223.92484 -152.73212 -0.67522842 0
-245.39594 -152.63081 -0.64956552 0
-210.68582 -151.73401 -0.63320094 0
-183.84312 -151.53223 -0.6571883 0
-223.45021 -151.46944 -0.6954844 0
-177.31029 -151.34238 -0.6090222 0
-177.24783 -151.3447 -0.6024431 0
-168.4817 -150.39383 -0.68075103 0
-195.87451 -165.80115 -0.57219321 0
-194.98576 -165.86591 -0.54278737 0
-163.69083 -165.06488 -0.52981037 0
-221.3878 -156.24861 -0.57259297 0
-221.50854 -156.17682 -0.58877081 0
-219.84366 -154.9353 -0.52558458 0
-219.79623 -154.96771 -0.52917719 0
-224.53374 -154.84114 -0.57055557 0
-211.92102 -153.77046 -0.56514186 0
-211.73331 -153.75414 -0.59499848 0
-212.60927 -153.69804 -0.55730772 0
-211.8555 -153.65692 -0.52779108 0
-158.92601 -153.52257 -0.5982728 0
-158.8017 -153.5061 -0.54452002 0
-245.28029 -153.4052 -0.56315732 0
-221.82332 -153.40974 -0.51435965 0
-179.32825 -153.28476 -0.52458948 0
-245.29301 -153.04817 -0.56815952 0
-212.4496 -152.92076 -0.59656429 0
-182.24283 -152.90494 -0.57430649 0
-180.23849 -152.9545 -0.56260753 0
-179.16534 -152.9147 -0.56050336 0
-182.55856 -152.87029 -0.57530773 0
-180.68848 -152.87193 -0.58240187 0
-179.2905 -152.81021 -0.59756047 0
-182.4377 -152.75182 -0.59415555 0
-238.93416 -152.53607 -0.53372806 0
-209.45126 -151.52718 -0.52512503 0
-177.70476 -151.35292 -0.53163284 0
-168.99222 -150.63982 -0.53597111 0
-168.79614 -150.6416 -0.54815459 0
-186.10069 -150.04147 -0.54528499 0
-186.85811 -176.14104 -0.42476058 0
-163.4131 -165.03337 -0.49936676 0
-220.28146 -155.03 -0.45054612 0
-211.48941 -154.44254 -0.45154652 0
-212.67847 -153.9473 -0.49649408 0
-182.57513 -153.51422 -0.44804633 0
-181.2336 -153.40453 -0.41775534 0
-184.82834 -153.31241 -0.46816725 0
-183.13069 -153.32912 -0.41299671 0
-183.05342 -153.34567 -0.41307893 0
-179.2206 -152.93771 -0.48858964 0
-245.44731 -152.79306 -0.45314217 0
-245.24677 -152.75778 -0.41897941 0
-244.71729 -152.77443 -0.48331159 0
-238.8275 -152.61075 -0.43360853 0
-239.17635 -152.58882 -0.49848217 0
-209.85049 -151.96742 -0.46774146 0
-209.63539 -151.77147 -0.487708 0
-177.18639 -151.34616 -0.45785129 0
-176.94728 -151.19604 -0.479693 0
-169.1257 -150.70326 -0.45629087 0
-177.02168 -150.51039 -0.41007122 0
-151.48808 -150.53624 -0.42506081 0
-176.99582 -150.43793 -0.43322855 0
-181.70976 -150.21506 -0.48266611 0
-152.4424 -150.1394 -0.43838209 0
-183.07391 -177.06734 -0.39447913 0
-186.457 -175.93671 -0.31147423 0
-164.46233 -158.21686 -0.37784657 0
-224.40663 -157.633 -0.34152672 0
-163.94797 -157.16888 -0.33719501 0
-159.98822 -157.13712 -0.38632935 0
-221.84662 -153.89322 -0.32256749 0
-225.16336 -153.50333 -0.39888212 0
-184.84 -153.23042 -0.35062391 0
-244.73485 -153.11142 -0.37853795 0
-244.33813 -153.15503 -0.34194857 0
-210.23705 -152.37895 -0.35667458 0
-210.59532 -152.09915 -0.38953504 0
-225.40114 -151.90167 -0.39986742 0
-212.4191 -151.95583 -0.32226655 0
-210.68071 -151.82455 -0.31047466 0
-210.72943 -151.66858 -0.33699575 0
-210.40213 -151.69244 -0.39182588 0
-183.91394 -151.59187 -0.30883646 0
-183.03468 -151.53555 -0.30649236 0
-181.43939 -151.55469 -0.32135984 0
-181.35072 -151.4637 -0.30894557 0
-209.83778 -151.37172 -0.35901719 0
-209.70531 -151.35394 -0.3790929 0
-176.8219 -151.32031 -0.39059576 0
-224.03221 -151.25208 -0.38000736 0
-210.78418 -150.78993 -0.33248469 0
-222.51981 -160.09433 -0.20488766 0
-220.47972 -156.80334 -0.24886392 0
-164.65346 -154.68851 -0.28598768 0
-181.77341 -154.09509 -0.29387656 0
-180.8856 -153.73766 -0.26886317 0
-244.77118 -153.21791 -0.25621995 0
-223.33023 -153.28197 -0.22976898 0
-183.03294 -153.20441 -0.20876727 0
-212.92757 -152.74228 -0.24258648 0
-213.16069 -152.67773 -0.29043132 0
-181.70898 -152.62587 -0.25631517 0
-209.72278 -152.36893 -0.26334989 0
-212.7229 -152.26193 -0.23731802 0
-212.52667 -152.04103 -0.29715237 0
-209.96251 -151.82861 -0.243313 0
-176.60107 -151.73428 -0.20664819 0
-209.83708 -151.60402 -0.28138447 0
-224.04004 -151.52654 -0.20005596 0
-184.06725 -151.58087 -0.26835352 0
-182.99797 -151.59283 -0.22272423 0
-223.77098 -151.41655 -0.28694844 0
-181.18773 -151.48387 -0.25298068 0
-210.64633 -151.25943 -0.25901735 0
-213.46599 -151.04723 -0.20169167 0
-211.55971 -150.8457 -0.23692349 0
-151.85251 -150.39366 -0.23749398 0
-224.10429 -150.1826 -0.21030864 0
-152.11938 -150.12305 -0.21248758 0
-226.05948 -190.47968 -0.13141094 0
-210.5101 -166.24754 -0.10267499 0
-165.45473 -166.16301 -0.1203165 0
-196.28902 -165.8353 -0.13443401 0
-195.66524 -165.7894 -0.19888735 0
-164.07237 -158.1763 -0.16123168 0
-217.61052 -157.68159 -0.16896492 0
-182.87251 -155.1653 -0.18236266 0
-220.13487 -154.90117 -0.15900679 0
-217.01042 -154.56609 -0.12472489 0
-211.14696 -153.70848 -0.1284384 0
-211.0885 -153.59674 -0.14903691 0
-244.56299 -153.3606 -0.16570592 0
-179.41895 -153.38033 -0.18169791 0
-223.25598 -153.28391 -0.17156905 0
-244.65742 -153.02324 -0.18436067 0
-244.56734 -152.99051 -0.19954501 0
-181.18007 -152.9776 -0.12965776 0
-209.79738 -152.12183 -0.12311448 0
-224.79791 -151.86606 -0.1710678 0
-212.40683 -151.58243 -0.15155883 0
-183.81702 -151.49252 -0.1290489 0
-183.77972 -151.45883 -0.11523381 0
-175.93588 -151.00002 -0.19060606 0
-153.8056 -150.98885 -0.18747827 0
-153.17511 -150.72905 -0.14476581 0
-177.22475 -150.47313 -0.16195056 0
-151.21449 -150.43723 -0.1477067 0
-200.85159 -175.17018 -0.0087083159 0
-160.03606 -167.49284 -0.018949291 0
-195.18602 -165.5396 -0.098521523 0
-224.15576 -157.50488 -0.037190303 0
-224.0164 -157.52417 -0.066369571 0
-164.83955 -154.62122 -0.0081340196 0
-183.06747 -153.90863 -0.055148281 0
-181.55824 -153.64362 -0.048794929 0
-181.79738 -153.25027 -0.079732575 0
-181.05127 -152.98456 -0.060861498 0
-244.81207 -152.64275 -0.060039051 0
-210.05643 -152.22475 -0.048212402 0
-182.92429 -151.60786 -0.086404651 0
-183.9313 -151.5517 -0.064518787 0
-183.82079 -151.52452 -0.071112148 0
-183.68402 -151.49638 -0.082125284 0
-223.98154 -151.36743 -0.064511523 0
-153.09514 -150.60652 -0.086521909 0
-154.03906 -150.45724 -0.053004239 0
-151.84578 -150.35559 -0.013976191 0
-151.19926 -150.36845 -0.077978961 0
-169.16833 -150.1106 -0.016002178 0
-151.69785 -150.18723 -0.043915879 0
-244.83127 -153.48976 0.034256123 0
-244.83961 -153.02946 0.023966026 0
-244.77809 -153.06102 0.045055848 0
-244.46635 -152.95627 0.025686562 0
-179.16006 -152.94283 0.03331032 0
-180.07057 -152.23975 0.093191676 0
-180.07903 -152.19057 0.041864622 0
-182.90266 -151.62239 0.069110669 0
-182.85704 -151.61058 0.087021545 0
-183.64806 -151.48253 0.0048477203 0
-154.19687 -151.07829 0.013152875 0
-211.94011 -150.83575 0.043661818 0
-151.76123 -150.26187 0.095042944 0
-169.086 -150.16101 0.0035420277 0
-204.19788 -178.7252 0.18438812 0
-195.42961 -166.02423 0.14957194 0
-195.11525 -166.069 0.14478289 0
-194.3273 -165.37973 0.13050485 0
-163.383 -160.6926 0.11619536 0
-185.38295 -159.57854 0.19275832 0
-164.19205 -157.59546 0.19515039 0
-220.42999 -157.38841 0.17680819 0
-220.14232 -154.97841 0.17401242 0
-220.02875 -154.87117 0.14571625 0
-182.03059 -154.77351 0.1634265 0
-164.6068 -154.55525 0.14052518 0
-244.84584 -153.09686 0.13301773 0
-179.14012 -152.92278 0.1441716 0
-180.34218 -152.34853 0.10412468 0
-182.92606 -151.72299 0.12983726 0
-183.98975 -151.66023 0.18775269 0
-182.85434 -151.66168 0.19473791 0
-182.88889 -151.59749 0.17766856 0
-223.90543 -151.47955 0.12404364 0
-183.7345 -151.42976 0.1919248 0
-154.379 -150.74405 0.17297241 0
-177.08188 -150.41861 0.17725526 0
-163.32213 -163.11157 0.25332451 0
-224.30235 -157.51266 0.29610863 0
-224.12248 -157.51294 0.2924239 0
-181.07486 -153.84219 0.24008739 0
-221.83113 -153.79712 0.27929348 0
-181.12292 -153.65683 0.20358938 0
-179.44464 -153.61646 0.25630593 0
-179.28172 -153.6013 0.28662121 0
-181.4133 -153.34184 0.28805834 0
-181.43852 -153.25981 0.2279532 0
-181.33565 -153.23796 0.26585305 0
-181.85942 -153.16656 0.23818302 0
-179.2056 -152.99944 0.23201485 0
-179.0827 -152.94124 0.23438635 0
-153.82727 -152.80083 0.21076754 0
-181.02545 -152.74104 0.23386268 0
-225.18889 -152.1895 0.22358574 0
-184.13521 -151.67345 0.25563785 0
-154.22891 -151.20692 0.21480663 0
-177.19682 -150.3354 0.24141043 0
-198.38853 -167.7153 0.38384309 0
-216.3342 -161.85033 0.32889745 0
-215.42923 -159.83206 0.30745453 0
-163.31735 -156.34981 0.34736714 0
-219.95009 -154.73869 0.36849296 0
-164.89897 -154.54958 0.37004754 0
-222.61212 -153.94444 0.32051319 0
-244.80609 -153.10141 0.35512418 0
-161.35799 -152.83151 0.30680653 0
-182.16461 -152.04019 0.34333459 0
-180.74748 -152.0461 0.32710314 0
-213.34898 -151.56709 0.37300852 0
-183.66959 -151.4713 0.34726542 0
-177.3457 -150.91769 0.30396843 0
-223.73587 -150.50026 0.360006 0
-177.56454 -150.54329 0.3170076 0
-177.28441 -150.18437 0.32052407 0
-234.37195 -190.25648 0.44166061 0
-163.88437 -164.49908 0.46268117 0
-163.4579 -163.62883 0.41129795 0
-165.02768 -159.17365 0.44170296 0
-184.28163 -157.81079 0.45307276 0
-179.35406 -153.53419 0.44746691 0
-244.90775 -153.08145 0.47562474 0
-181.28712 -152.81473 0.4690637 0
-211.46687 -152.78648 0.49748433 0
-181.86314 -152.36447 0.44243366 0
-181.05139 -152.24841 0.49508554 0
-180.57333 -152.06161 0.49344382 0
-180.84486 -151.94858 0.46707153 0
-182.78969 -151.7236 0.40432274 0
-184.02234 -151.46974 0.47346202 0
-183.90364 -151.44865 0.46769553 0
-183.69691 -151.46814 0.47082525 0
-195.78824 -165.8045 0.51799983 0
-160.2485 -163.26524 0.59632903 0
-192.67467 -162.33446 0.52676159 0
-225.02402 -157.5997 0.50931203 0
-164.13681 -157.58911 0.59771121 0
-224.23631 -157.46571 0.53918064 0
-181.09851 -153.89217 0.57087135 0
-180.69438 -153.8344 0.53150743 0
-182.86783 -153.59393 0.51009262 0
-180.67136 -153.50793 0.59153062 0
-182.28804 -153.44115 0.53904963 0
-180.58368 -153.45407 0.57750136 0
-182.24669 -153.26587 0.56456989 0
-244.85175 -152.95052 0.5262562 0
-181.08044 -152.93149 0.58473283 0
-181.17258 -152.83592 0.54632139 0
-161.43141 -152.80548 0.57667649 0
-181.52956 -152.33076 0.50380206 0
-181.45366 -152.14803 0.58077723 0
-182.43736 -151.75748 0.57997888 0
-180.57037 -151.65999 0.58107579 0
-207.78008 -150.97241 0.5874083 0
-185.88052 -169.52115 0.65551215 0
-224.74478 -158.82845 0.64582956 0
-182.86252 -156.27797 0.68121362 0
-220.34996 -156.103 0.62078708 0
-218.53154 -155.88438 0.61337894 0
-219.65517 -154.71753 0.67996603 0
-179.24338 -153.65446 0.63913143 0
-179.19386 -153.60909 0.63586891 0
-158.56172 -153.69836 0.66747129 0
-182.13152 -153.5076 0.62022322 0
-179.11441 -153.12424 0.67755246 0
-181.4119 -152.99269 0.60107017 0
-182.06343 -152.16409 0.69019228 0
-183.87538 -151.53481 0.64632446 0
-183.74574 -151.47736 0.65116656 0
-153.4552 -151.41206 0.65779501 0
-208.71556 -151.36305 0.69058704 0
-183.90735 -151.31093 0.63960177 0
-211.67599 -150.29745 0.66953999 0
-225.08179 -150.00893 0.69550109 0
-153.50444 -160.39992 0.78445655 0
-164.27609 -158.2211 0.78157109 0
-164.19672 -158.17586 0.78883892 0
-218.5891 -156.76379 0.79235238 0
-179.45959 -155.53137 0.7069602 0
-181.40825 -153.96304 0.74511725 0
-182.05705 -153.68582 0.73815519 0
-222.91071 -153.12633 0.76417971 0
-161.06209 -152.81412 0.72198564 0
-182.31155 -152.31454 0.72855008 0
-223.25171 -151.4373 0.7275008 0
-183.7829 -151.44234 0.71455747 0
-183.66652 -151.49385 0.7366581 0
-184.91299 -151.31458 0.79763913 0
-153.27727 -150.82709 0.72012222 0
-213.66357 -150.26959 0.74123442 0
-211.83424 -150.11086 0.78863484 0
-211.72977 -150.10724 0.77090305 0
-211.48878 -150.10172 0.73126209 0
-211.85593 -150.07063 0.74494469 0
-211.79541 -150.08917 0.76035357 0
-198.89801 -174.22881 0.8094663 0
-195.81879 -165.8051 0.85857719 0
-195.61874 -165.82581 0.88415742 0
-195.43059 -165.56633 0.84757239 0
-195.41512 -165.49585 0.82133138 0
-186.40833 -161.05685 0.88044202 0
-164.93871 -160.34 0.8544116 0
-162.96004 -156.55867 0.87543058 0
-163.10432 -155.65759 0.85581559 0
-219.8185 -154.65794 0.89053369 0
-182.68518 -153.46069 0.85257983 0
-221.14546 -153.22203 0.83401829 0
-223.03342 -153.13538 0.80397427 0
-222.98863 -152.97643 0.88209605 0
-179.07176 -152.97096 0.8684231 0
-223.79587 -152.72461 0.85127586 0
-180.72307 -152.54015 0.85762548 0
-180.58073 -152.18327 0.8839758 0
-180.83916 -152.00832 0.84353983 0
-184.81512 -151.9142 0.84496868 0
-180.74237 -151.96828 0.86385435 0
-160.09074 -151.94928 0.8533529 0
-154.1881 -151.65837 0.82637417 0
-153.50046 -151.50552 0.89664602 0
-183.8512 -151.49997 0.89675248 0
-211.69441 -150.28806 0.88804054 0
-224.38397 -150.18657 0.84855551 0
-224.25252 -150.16573 0.87944704 0
-196.5849 -166.53064 0.92898625 0
-195.74385 -165.84514 0.90624356 0
-195.48732 -165.83043 0.92220181 0
-162.90446 -156.04814 0.99605924 0
-178.79813 -153.86456 0.9957571 0
-180.57864 -153.01962 0.92036849 0
-179.18759 -153.02054 0.97130495 0
-179.01697 -153.03691 0.95981026 0
-178.9136 -153.00948 0.92567617 0
-179.13428 -152.96828 0.97108036 0
-180.50874 -152.83099 0.95134139 0
-181.40344 -152.54877 0.97230631 0
-224.73056 -152.39015 0.90437007 0
-225.18152 -152.10347 0.99454784 0
-184.51093 -151.83556 0.95623153 0
-183.87906 -151.53777 0.99462062 0
-185.13835 -151.37915 0.92479259 0
-184.30582 -151.09779 0.93073171 0
-186.91312 -176.50885 1.0752231 0
-195.20834 -165.67757 1.0781938 0
-222.26338 -159.74443 1.0106992 0
-218.05583 -158.61018 1.0467451 0
-178.7256 -153.95569 1.0122054 0
-179.00179 -153.7684 1.0822741 0
-223.84465 -152.7052 1.0705154 0
-222.64438 -152.6844 1.0984412 0
-225.72269 -152.44275 1.0372155 0
-181.46844 -152.03419 1.0910628 0
-181.30927 -152.05618 1.0493557 0
-180.63268 -152.04065 1.0437723 0
-224.53134 -151.95908 1.0981482 0
-181.09517 -151.95012 1.0545146 0
-180.57472 -151.97562 1.0283568 0
-184.27394 -151.84068 1.0652916 0
-181.06966 -151.89673 1.053791 0
-183.80797 -151.46825 1.000903 0
-183.64316 -151.41293 1.0562254 0
-152.87604 -151.24657 1.0972306 0
-223.71983 -150.54155 1.0940826 0
-223.77679 -150.23639 1.0177629 0
-224.12155 -157.45622 1.1744653 0
-162.82867 -155.88223 1.1350479 0
-182.70027 -155.64703 1.1159955 0
-179.30368 -154.40718 1.1939301 0
-179.13165 -153.86075 1.1449406 0
-180.44574 -152.94882 1.1710701 0
-223.53348 -151.96513 1.1754507 0
-223.41779 -151.97289 1.1741149 0
-223.02985 -151.90524 1.1587838 0
-184.46817 -151.87933 1.1957127 0
-184.25694 -151.86717 1.1476321 0
-183.6638 -151.41628 1.1785493 0
-183.85327 -151.37512 1.1632288 0
-183.74448 -151.34761 1.1986443 0
-151.41278 -151.2634 1.1625155 0
-224.8774 -151.11363 1.1535252 0
-224.18564 -150.40987 1.1859677 0
-212.74579 -150.30217 1.143484 0
-184.86673 -175.91122 1.203844 0
-189.22514 -175.62486 1.2896823 0
-201.27357 -174.51254 1.2324438 0
-201.35402 -174.3978 1.2143834 0
-185.15607 -169.70335 1.2923816 0
-195.55228 -165.70589 1.2473843 0
-213.3091 -164.85092 1.2203617 0
-213.73926 -164.77196 1.2142842 0
-193.15147 -161.96748 1.2638216 0
-186.54366 -159.7541 1.279004 0
-223.9525 -157.64137 1.2597425 0
-224.47957 -157.4558 1.2703514 0
-162.79172 -155.91356 1.2512244 0
-219.42596 -154.83545 1.2442932 0
-219.89047 -154.59099 1.2531992 0
-179.11063 -154.46408 1.2675309 0
-181.4066 -153.15814 1.2927067 0
-220.06052 -152.66855 1.2660885 0
-222.76804 -152.37947 1.2615094 0
-181.42809 -152.04012 1.2583988 0
-180.61707 -152.08694 1.2566949 0
-183.82248 -151.44249 1.2420695 0
-213.65877 -150.78276 1.2543918 0
-193.6725 -167.62604 1.3773801 0
-224.03569 -157.67577 1.3942564 0
-226.44724 -157.57065 1.3891629 0
-163.90016 -157.51324 1.3788493 0
-162.58443 -156.53944 1.3235257 0
-222.98485 -154.64191 1.3429192 0
-179.15556 -153.89565 1.3142858 0
-180.68987 -152.7831 1.3574601 0
-161.3848 -152.67216 1.3935633 0
-182.38327 -152.51254 1.3144339 0
-182.30193 -152.47334 1.3943027 0
-182.33885 -152.36365 1.3706117 0
-181.98112 -152.34593 1.391065 0
-181.65224 -152.30226 1.3280975 0
-181.17395 -152.33769 1.3404284 0
-181.0997 -152.39206 1.3583061 0
-184.49219 -151.90904 1.3828628 0
-184.37485 -151.89157 1.3193077 0
-212.82948 -151.43828 1.3667839 0
-223.54645 -187.82675 1.4851314 0
-212.93149 -164.9028 1.4278605 0
-196.94415 -164.98003 1.4959677 0
-226.56204 -157.64606 1.4178519 0
-162.59793 -156.52164 1.4607272 0
-164.83727 -154.47328 1.4548378 0
-179.0343 -152.97879 1.4181473 0
-180.83342 -152.79803 1.4586421 0
-182.64346 -152.50252 1.418224 0
-182.7168 -152.48151 1.4176625 0
-182.57761 -152.27557 1.4221624 0
-181.59926 -152.27728 1.4263504 0
-212.92987 -152.18469 1.4016886 0
-184.65863 -151.98271 1.4716649 0
-212.44342 -151.58124 1.4888879 0
-183.70549 -151.40359 1.4321454 0
-208.46634 -150.7747 1.4823127 0
-212.60713 -150.41983 1.4495856 0
-223.58557 -188.15718 1.5115576 0
-201.39494 -174.38138 1.5356505 0
-184.54404 -171.69043 1.5475601 0
-178.9682 -153.99922 1.5095145 0
-182.12534 -152.81633 1.5612199 0
-180.62277 -152.85167 1.5041347 0
-222.38933 -152.26828 1.5396299 0
-222.29018 -152.18057 1.5768921 0
-211.90973 -152.12408 1.5419786 0
-212.82126 -151.96255 1.5822635 0
-183.77684 -151.43877 1.5814899 0
-183.9234 -151.38269 1.5290425 0
-183.74202 -151.35951 1.5028057 0
-208.36121 -150.6123 1.5312588 0
-215.88367 -158.85149 1.6202677 0
-221.13617 -158.40883 1.65069 0
-164.02545 -157.56197 1.6767406 0
-183.02788 -155.65532 1.6046317 0
-219.36864 -154.81607 1.6875994 0
-219.98148 -154.38058 1.6925765 0
-179.03302 -153.00414 1.6060191 0
-179.11627 -152.98643 1.6552252 0
-161.2426 -152.68953 1.6424512 0
-180.94057 -152.52144 1.6472077 0
-180.76256 -152.50429 1.648445 0
-224.69014 -151.76973 1.6074531 0
-181.79945 -151.77853 1.6129197 0
-183.88675 -151.46518 1.6702679 0
-208.32349 -151.21867 1.6245834 0
-208.11339 -151.01981 1.609648 0
-185.61589 -169.27231 1.7803686 0
-185.88873 -169.16362 1.7324744 0
-197.16455 -166.40813 1.7499856 0
-225.42265 -159.85332 1.7360355 0
-220.52295 -158.03424 1.7493763 0
-163.82869 -157.59067 1.7259341 0
-183.05086 -155.87012 1.7290341 0
-219.9493 -154.47198 1.7092426 0
-183.18538 -153.29559 1.7013382 0
-182.96487 -153.27898 1.7503228 0
-180.84331 -153.02634 1.7088995 0
-179.10046 -153.09895 1.7417076 0
-179.07466 -153.02008 1.7177683 0
-179.23421 -152.98035 1.7886422 0
-179.04054 -152.96109 1.7119336 0
-178.99265 -152.93282 1.7467867 0
-182.29062 -152.58646 1.7923683 0
-212.63562 -152.43272 1.7552686 0
-184.74533 -152.05008 1.7726429 0
-221.58911 -151.85555 1.7482636 0
-183.88947 -151.48952 1.7778741 0
-183.63242 -151.47247 1.7092636 0
-221.77548 -151.38147 1.7389301 0
-213.65573 -150.94394 1.7969456 0
-212.83522 -150.47638 1.7477342 0
-189.42482 -174.69308 1.851203 0
-221.06465 -163.34433 1.8666204 0
-219.13188 -154.88222 1.8485018 0
-184.71986 -152.03426 1.8117936 0
-223.10423 -151.50542 1.8556614 0
-213.86345 -151.3569 1.8556808 0
-224.94029 -151.18475 1.8930191 0
-208.28868 -150.68373 1.81881 0
-222.08794 -150.22845 1.8853317 0
-212.005 -174.47168 1.9610556 0
-186.30344 -173.47154 1.9710557 0
-164.8215 -159.10744 1.9473104 0
-162.92691 -155.92738 1.9154203 0
-219.24565 -154.95056 1.9453088 0
-219.19579 -154.90033 1.939412 0
-220.0007 -154.32568 1.9169959 0
-178.89066 -153.1349 1.9294389 0
-160.99944 -152.49632 1.9838721 0
-222.16341 -152.15933 1.9892503 0
-184.77298 -152.05974 1.9436691 0
-185.81834 -151.41208 1.9337877 0
-222.22971 -151.32141 1.9863102 0
-183.78043 -151.33144 1.9295379 0
-222.82497 -150.11237 1.94372 0
-208.66078 -150.02113 1.928489 0
-184.56456 -159.96935 2.0208364 0
-221.46094 -158.98964 2.0772274 0
-224.21671 -156.92696 2.0320053 0
-162.95428 -156.02296 2.0235486 0
-219.12993 -154.83707 2.0632002 0
-219.04756 -154.87108 2.058661 0
-165.00713 -154.76382 2.0596361 0
-178.9633 -153.05278 2.0619016 0
-184.86522 -152.07343 2.088732 0
-222.14822 -151.42337 2.0024824 0
-184.02974 -151.40378 2.0278144 0
-208.27461 -150.58339 2.0821416 0
-184.84769 -173.32562 2.1217945 0
-206.11073 -172.23761 2.1985815 0
-204.19893 -169.03423 2.1010833 0
-197.41217 -167.85394 2.1777575 0
-222.28757 -161.67235 2.1011059 0
-153.59062 -160.13879 2.1437638 0
-221.729 -159.21611 2.1280582 0
-224.18062 -157.52507 2.11321 0
-178.83612 -154.09053 2.134444 0
-178.96199 -152.94321 2.1043105 0
-160.97908 -152.46727 2.1073542 0
-184.84372 -151.97105 2.169241 0
-183.63361 -151.40147 2.164516 0
-183.93631 -151.33615 2.1695724 0
-208.24045 -150.74506 2.123672 0
-238.39218 -192.13005 2.2750428 0
-187.05057 -177.33264 2.2952044 0
-195.24284 -165.75352 2.2660246 0
-190.94475 -165.52736 2.2644145 0
-213.18947 -157.41566 2.2658587 0
-165.02571 -154.72473 2.2733665 0
-220.01379 -154.25533 2.2100642 0
-184.95456 -152.09186 2.2029839 0
-213.79655 -151.79285 2.2655087 0
-208.54051 -151.74297 2.282181 0
-222.36569 -150.68207 2.222887 0
-208.38214 -150.42728 2.2059081 0
-208.81117 -150.26476 2.2375388 0
-238.43283 -192.53156 2.3195527 0
-189.74335 -175.84145 2.3710775 0
-184.98869 -173.08365 2.3210926 0
-196.67053 -167.68752 2.3641686 0
-195.57982 -165.84671 2.3501022 0
-163.94072 -158.77481 2.3086128 0
-219.86974 -158.31093 2.3288727 0
-163.8826 -157.74709 2.3355625 0
-164.98659 -154.65601 2.3963671 0
-223.31592 -153.40739 2.3288801 0
-223.23999 -153.31743 2.3235629 0
-178.98549 -152.81918 2.3090904 0
-208.09604 -151.66708 2.3672128 0
-183.69113 -151.41348 2.3995998 0
-184.00102 -151.33653 2.3072376 0
-210.16527 -151.16322 2.3771558 0
-209.87628 -150.36391 2.3531017 0
-228.02177 -183.32703 2.4938941 0
-206.89857 -171.47386 2.4158664 0
-199.52208 -164.00612 2.4013116 0
-156.44714 -164.00911 2.4524183 0
-222.35596 -160.82762 2.4182479 0
-222.30453 -160.73595 2.4178824 0
-225.69774 -160.11012 2.4743981 0
-227.40083 -157.79839 2.479872 0
-179.00536 -153.06766 2.4882767 0
-207.91576 -151.90866 2.492856 0
-183.71657 -151.4471 2.4795711 0
-183.88622 -151.31815 2.4136155 0
-223.07571 -151.2731 2.4147849 0
-184.08994 -151.28401 2.4763217 0
-187.1927 -176.62868 2.52672 0
-220.20305 -171.69691 2.5173137 0
-156.30981 -164.03801 2.5994191 0
-162.33542 -161.01044 2.5326142 0
-219.2361 -159.30203 2.5620689 0
-183.11804 -156.20035 2.5652359 0
-162.85039 -155.94807 2.5425065 0
-220.02452 -154.24556 2.5893044 0
-220.04015 -154.0553 2.5688066 0
-219.96638 -154.07004 2.5315468 0
-220.56787 -152.95528 2.589257 0
-178.94618 -152.78075 2.5325594 0
-178.98773 -152.63676 2.5861382 0
-178.98181 -152.5405 2.5283504 0
-185.23088 -152.21597 2.5304344 0
-185.14062 -152.13188 2.5022573 0
-208.83809 -151.51106 2.5142081 0
-184.20122 -151.35738 2.5234807 0
-222.4557 -150.65927 2.590508 0
-222.75089 -150.11279 2.5757647 0
-206.90826 -171.49654 2.6212749 0
-186.02599 -170.81273 2.6916614 0
-156.41003 -164.03645 2.6314712 0
-163.94687 -157.39931 2.6977143 0
-162.94592 -155.87785 2.6417329 0
-218.77686 -154.86774 2.6785235 0
-220.0322 -154.19705 2.6221128 0
-219.97871 -154.13962 2.6345255 0
-213.60423 -154.16438 2.6190538 0
-212.91225 -153.91142 2.6282573 0
-185.39777 -152.38857 2.6486053 0
-185.42978 -152.23888 2.6669006 0
-183.75763 -151.44504 2.6418216 0
-208.79053 -151.08395 2.6803315 0
-209.20647 -150.9736 2.6154304 0
-208.63786 -150.62468 2.6635923 0
-222.36923 -150.47424 2.6501534 0
-220.11115 -186.00166 2.7611952 0
-186.25684 -171.32796 2.743356 0
-186.19826 -170.95607 2.7812779 0
-195.5992 -165.83766 2.7704096 0
-217.72946 -160.92639 2.7149572 0
-229.164 -158.2955 2.7889314 0
-160.4576 -157.35637 2.7657695 0
-218.81763 -154.87843 2.7182724 0
-218.73495 -154.8591 2.7258861 0
-205.71272 -179.30922 2.8084459 0
-201.4901 -173.1368 2.8395183 0
-207.24673 -168.06316 2.8915112 0
-195.87709 -165.07751 2.8852842 0
-162.88301 -155.90329 2.8384271 0
-187.38118 -154.40773 2.8444386 0
-178.74783 -154.43243 2.8902812 0
-219.72365 -154.02299 2.8996708 0
-164.77513 -154.0482 2.8329916 0
-179.05841 -152.82086 2.8493073 0
-202.11214 -173.69763 2.9980867 0
-194.7599 -166.43242 2.9194858 0
-195.4481 -165.5616 2.9368637 0
-156.37065 -164.09036 2.9087965 0
-190.96645 -163.94592 2.9896488 0
-178.07031 -157.45328 2.9095681 0
-178.45015 -157.2043 2.9413519 0
-165.05078 -154.59213 2.9532819 0
-220.07281 -154.33464 2.9492161 0
-219.82866 -153.96094 2.9068422 0
-179.13536 -153.04857 2.9729846 0
-214.35686 -150.08266 2.9032791 0
-184.7971 -170.40657 3.0738878 0
-184.6826 -170.35709 3.0835176 0
-193.2231 -164.17941 3.0691752 0
-153.94534 -160.30276 3.0639069 0
-164.12849 -160.01254 3.0515182 0
-163.72795 -157.74774 3.0100455 0
-224.22307 -157.6051 3.0795381 0
-213.70877 -157.45775 3.0394337 0
-183.16565 -156.28886 3.0642774 0
-178.51135 -154.45885 3.033895 0
-220.04393 -154.34085 3.0284522 0
-219.96947 -154.3345 3.060545 0
-187.19995 -154.03558 3.0137451 0
-160.2355 -153.0141 3.0978389 0
-183.76016 -151.43086 3.0723627 0
-183.69534 -151.42537 3.0748217 0
-184.32381 -151.13902 3.0714314 0
-184.07152 -151.05354 3.0249813 0
-208.04602 -150.43715 3.0407887 0
-197.5717 -172.32312 3.189054 0
-184.88693 -170.29462 3.1876135 0
-164.79375 -162.99034 3.1097534 0
-225.77922 -160.28644 3.1659498 0
-228.72581 -158.16933 3.1734951 0
-182.91479 -156.36302 3.1858797 0
-165.14824 -154.6967 3.1064551 0
-165.03874 -154.62257 3.1445744 0
-179.20468 -153.05714 3.1006143 0
-178.99069 -152.87881 3.161 0
-208.46838 -151.95108 3.1797054 0
-208.63623 -151.88173 3.1564655 0
-208.57501 -151.81021 3.1058974 0
-183.85039 -151.61902 3.1874707 0
-183.64636 -151.36328 3.1909907 0
-184.21689 -151.11095 3.1612153 0
-208.60338 -150.40428 3.1164536 0
-208.77827 -150.09068 3.1930823 0
-206.7426 -171.45769 3.2466879 0
-183.823 -170.80937 3.2585216 0
-183.42757 -170.74611 3.2995172 0
-183.89041 -160.59077 3.2152619 0
-226.02388 -160.35002 3.2804441 0
-212.93486 -157.31477 3.2255282 0
-183.11861 -156.36778 3.2114453 0
-189.16609 -154.62016 3.2068927 0
-164.66757 -153.81296 3.250102 0
-187.25507 -153.45622 3.2994664 0
-212.57042 -153.134 3.2069252 0
-179.07114 -153.11339 3.2692146 0
-185.65794 -152.70258 3.2511756 0
-185.75142 -152.67148 3.2595861 0
-179.2083 -152.66772 3.2054145 0
-208.19612 -152.16141 3.2117476 0
-222.7756 -151.59692 3.2640946 0
-184.19101 -151.10118 3.2009554 0
-208.54768 -150.84531 3.2759459 0
-208.13553 -150.22011 3.2251997 0
-208.70395 -150.05238 3.2178814 0
-230.6624 -186.56067 3.3630202 0
-187.16878 -172.75595 3.3415513 0
-165.59074 -160.2795 3.3238053 0
-163.84422 -159.18855 3.3698847 0
-213.20784 -158.72995 3.3511741 0
-214.90674 -156.87518 3.3109491 0
-219.10416 -156.36247 3.3777928 0
-165.29053 -154.81714 3.3523653 0
-164.98776 -154.37434 3.3627126 0
-179.00647 -153.06531 3.3302979 0
-178.97002 -153.06909 3.3366089 0
-222.06975 -152.00713 3.3696063 0
-208.38673 -152.07605 3.3280208 0
-183.66756 -151.34589 3.3503027 0
-208.44893 -150.49309 3.372577 0
-194.91135 -167.51666 3.4478297 0
-196.05617 -166.0706 3.4836025 0
-195.46306 -165.13704 3.4447312 0
-156.28426 -164.06256 3.4625254 0
-219.20436 -159.75017 3.4879088 0
-213.05721 -158.79443 3.4327011 0
-163.55208 -157.85661 3.4379463 0
-214.91617 -157.10056 3.4781876 0
-162.94632 -155.72514 3.4473608 0
-162.89589 -155.66162 3.4480536 0
-178.29907 -154.63898 3.4371963 0
-179.18884 -153.18604 3.4422324 0
-186.92584 -153.0686 3.4693158 0
-186.74397 -153.08401 3.4779634 0
-211.0107 -152.57753 3.4029787 0
-179.04703 -152.48201 3.4013855 0
-183.76552 -151.36967 3.4900391 0
-184.39748 -151.02669 3.4739797 0
-208.40903 -150.10573 3.4350677 0
-212.89149 -150.00487 3.427722 0
-183.87143 -170.42001 3.5720458 0
-154.09999 -160.03911 3.5061572 0
-224.4678 -157.50294 3.5137777 0
-183.08937 -156.45631 3.5439415 0
-219.90477 -154.17204 3.5286975 0
-185.90224 -152.76831 3.5490348 0
-183.80663 -151.42381 3.5011189 0
-184.57115 -150.80997 3.5319338 0
-156.27365 -164.13158 3.6764565 0
-156.16879 -164.15338 3.6518843 0
-163.95596 -158.18625 3.6327708 0
-224.50735 -157.53635 3.6353297 0
-224.4046 -157.40086 3.6369185 0
-212.99626 -156.91356 3.6257699 0
-218.72589 -156.84227 3.6304312 0
-183.40747 -156.56009 3.634202 0
-183.23334 -156.54494 3.6472397 0
-182.40208 -156.02664 3.607651 0
-218.71237 -155.40892 3.6171594 0
-188.22278 -153.67337 3.6329129 0
-185.83852 -152.93512 3.6842084 0
-223.06673 -151.88184 3.6547568 0
-183.55299 -151.45702 3.6575093 0
-184.16368 -151.17218 3.6376007 0
-184.19003 -151.07086 3.6395788 0
-211.90154 -150.69221 3.6573427 0
-164.08279 -158.18022 3.7440717 0
-185.93614 -157.45793 3.7553577 0
-178.18042 -154.82155 3.7092466 0
-178.42554 -154.66411 3.702615 0
-178.35394 -154.68533 3.7182002 0
-219.91078 -154.29308 3.7941418 0
-219.88881 -154.28401 3.7786005 0
-218.17128 -154.27367 3.7619274 0
-188.59979 -153.80788 3.7612185 0
-219.23515 -153.54688 3.7463176 0
-187.92838 -153.5071 3.7136219 0
-187.61411 -153.21809 3.7458344 0
-187.56558 -153.20171 3.7340493 0
-159.61734 -152.70447 3.7315416 0
-211.1967 -152.2258 3.7211864 0
-211.55185 -151.86057 3.7930841 0
-211.50163 -151.7012 3.7391553 0
-211.46022 -151.64198 3.7231531 0
-183.80098 -151.3606 3.7495775 0
-183.71947 -151.36359 3.7188289 0
-184.3429 -151.03781 3.7704535 0
-183.97147 -170.73726 3.8106358 0
-213.72508 -167.53471 3.8778143 0
-213.53024 -159.05664 3.8304117 0
-185.13731 -159.0495 3.835588 0
-183.24629 -156.69168 3.8339214 0
-163.37589 -155.4335 3.8583324 0
-165.44284 -154.94293 3.845396 0
-178.14705 -154.76994 3.8693786 0
-188.80394 -153.92148 3.8054686 0
-219.27177 -153.54538 3.8215353 0
-164.57141 -153.57419 3.8751893 0
-179.07173 -153.12682 3.8868172 0
-220.57433 -153.07608 3.8065565 0
-178.95779 -153.09209 3.8940754 0
-224.02551 -151.78859 3.8867733 0
-183.79436 -151.3627 3.8096261 0
-184.42746 -151.05161 3.8005445 0
-184.35822 -151.02322 3.8511403 0
-174.32487 -150.29498 3.8171711 0
-194.80498 -167.56494 3.9492371 0
-156.11038 -164.14597 3.9400914 0
-197.7471 -162.51407 3.9462717 0
-228.76151 -157.78899 3.9351442 0
-224.52786 -157.24864 3.9794073 0
-214.96252 -157.19667 3.981894 0
-158.75301 -157.09053 3.9155564 0
-183.05255 -156.62077 3.9585657 0
-165.66254 -154.96222 3.9581466 0
-179.08139 -153.19289 3.935322 0
-223.66832 -152.05237 3.9909935 0
-183.84323 -151.42889 3.9200618 0
-174.33363 -150.43553 3.9447465 0
-174.15569 -150.42606 3.9674351 0
-174.25516 -150.34802 3.9963748 0
-195.9565 -164.80775 4.0979261 0
-226.14886 -158.19247 4.097599 0
-165.52809 -154.95218 4.0572505 0
-219.91769 -154.3102 4.0427885 0
-164.92006 -154.11652 4.0115685 0
-189.03946 -154.05078 4.0061693 0
-183.55565 -151.55087 4.0949283 0
-184.01649 -151.4001 4.0284057 0
-183.75113 -151.47282 4.036911 0
-183.54401 -151.46849 4.0642328 0
-184.33763 -151.11243 4.0485091 0
-220.84961 -150.60628 4.0198212 0
-174.41675 -150.4324 4.0839028 0
-165.64427 -154.91962 4.1888394 0
-178.27846 -154.80875 4.1071377 0
-164.78986 -154.00717 4.1642251 0
-179.23985 -153.27406 4.1841521 0
-179.08414 -153.24586 4.155827 0
-186.22107 -152.90733 4.1656337 0
-186.15984 -152.89949 4.1625118 0
-183.89888 -151.41119 4.1648192 0
-183.64977 -151.46037 4.1173062 0
-183.84334 -151.3725 4.1542645 0
-220.10049 -151.06931 4.1986108 0
-198.98544 -174.30707 4.2284064 0
-205.90024 -170.40048 4.2105494 0
-164.55273 -158.64268 4.2740498 0
-163.20416 -158.257 4.2754402 0
-228.9239 -157.72375 4.2945724 0
-164.27766 -157.68071 4.2661858 0
-211.26006 -157.22502 4.2364779 0
-215.41182 -157.18384 4.2937999 0
-224.4619 -157.05779 4.2125354 0
-184.22137 -157.09734 4.2320695 0
-183.1682 -156.72765 4.271523 0
-217.79262 -153.75191 4.2050972 0
-179.27547 -153.17221 4.2754884 0
-215.55147 -152.62019 4.2494903 0
-215.48755 -152.61446 4.2224016 0
-215.49065 -152.52016 4.2120118 0
-220.15097 -151.65736 4.2859931 0
-183.86234 -151.44708 4.248786 0
-183.67369 -151.44945 4.2308369 0
-184.41083 -150.96886 4.2742515 0
-212.45773 -150.58221 4.2173119 0
-199.93181 -166.55644 4.3936191 0
-196.01154 -166.03191 4.3980465 0
-226.15208 -160.47624 4.3410563 0
-228.82509 -157.57701 4.3919702 0
-224.55283 -156.94249 4.3841662 0
-161.32271 -156.47368 4.3395104 0
-218.88652 -155.16998 4.3847399 0
-178.10207 -154.90892 4.3798022 0
-165.74654 -154.97394 4.3398972 0
-186.24162 -153.05797 4.3433886 0
-186.17451 -153.07968 4.3843303 0
-183.62817 -151.47653 4.3242812 0
-184.72124 -151.1216 4.3776588 0
-184.61061 -150.91675 4.3667665 0
-184.42828 -150.94958 4.3112006 0
-184.64575 -150.81677 4.3675652 0
-184.57674 -150.84944 4.3711848 0
-173.18607 -150.35748 4.3667412 0
-219.98904 -150.04614 4.3137517 0
-184.79131 -170.70468 4.4306521 0
-184.37595 -170.35323 4.4851222 0
-226.12933 -160.53416 4.4944577 0
-224.44662 -157.19142 4.4678106 0
-218.57175 -153.28493 4.4926901 0
-179.05084 -153.27873 4.4372349 0
-164.41577 -153.12224 4.4050937 0
-186.41939 -153.02997 4.4874411 0
-215.54321 -152.07999 4.4317722 0
-183.92197 -151.43681 4.4943886 0
-183.82552 -151.40639 4.4381642 0
-184.63533 -150.90541 4.481884 0
-184.47313 -150.86339 4.4879832 0
-174.11678 -150.5602 4.4959064 0
-163.27263 -158.33676 4.5691638 0
-225.61957 -158.03514 4.5903463 0
-183.50903 -157.63681 4.5852814 0
-160.85242 -156.90076 4.5527701 0
-164.86903 -153.73665 4.5243063 0
-183.51613 -151.52678 4.5836787 0
-183.80545 -151.40668 4.5364323 0
-185.01822 -151.16887 4.5276222 0
-174.10277 -150.70316 4.5429244 0
-221.71973 -150.23778 4.5304775 0
-223.67552 -157.67989 4.6302524 0
-229.00894 -157.55156 4.6349578 0
-183.19576 -156.72437 4.6176825 0
-226.35237 -153.49803 4.6672015 0
-179.65494 -153.33966 4.693336 0
-164.27045 -153.09872 4.6741004 0
-186.72586 -152.96863 4.6755133 0
-183.53259 -151.45892 4.6527362 0
-183.85815 -151.37196 4.6456919 0
-185.45262 -151.04222 4.6375256 0
-184.66824 -150.91481 4.6021857 0
-174.01428 -150.73195 4.6921487 0
-173.98146 -150.63245 4.6073556 0
-219.73247 -150.3849 4.6374402 0
-222.21736 -150.19414 4.6148252 0
-187.53407 -169.83026 4.713882 0
-229.04785 -164.50865 4.7901087 0
-221.84547 -158.39536 4.7927551 0
-223.60916 -157.73006 4.7695184 0
-224.97047 -156.82166 4.7176242 0
-183.39348 -156.8215 4.7708454 0
-178.03726 -155.06264 4.7384725 0
-177.9794 -155.07745 4.7753625 0
-219.72867 -154.18341 4.716742 0
-218.17697 -154.11206 4.776371 0
-179.03128 -153.27943 4.7297306 0
-219.00659 -152.81718 4.705946 0
-183.88249 -151.63928 4.7852607 0
-183.97672 -151.30257 4.7382503 0
-186.26117 -151.05701 4.7389379 0
-184.53218 -150.83675 4.7567987 0
-184.46352 -150.86349 4.7619767 0
-184.73 -150.76222 4.7865548 0
-227.98557 -162.67024 4.8491836 0
-230.00369 -158.07054 4.8821888 0
-217.59691 -155.9431 4.8325887 0
-179.01865 -153.32478 4.8814092 0
-178.86092 -153.35829 4.8659806 0
-211.68001 -151.53485 4.8985944 0
-183.48187 -151.51707 4.8463173 0
-184.68822 -150.8035 4.8611088 0
-174.24324 -150.88335 4.8275332 0
-184.79306 -150.72827 4.8744159 0
-184.60269 -150.77737 4.8344345 0
-158.19197 -163.9025 4.9462929 0
-230.11488 -158.07466 4.9143782 0
-183.47287 -156.86302 4.9056191 0
-225.03981 -156.76965 4.9987898 0
-217.47943 -155.74744 4.9771819 0
-162.93317 -155.5024 4.9353695 0
-186.90207 -152.90138 4.9256606 0
-183.44673 -151.49864 4.9189582 0
-173.86765 -150.93765 4.9754987 0
-184.83727 -150.76041 4.93959 0
-185.96918 -150.04785 4.900434 0
-199.1147 -164.85167 5.0318661 0
-195.82428 -164.47156 5.0393105 0
-230.85161 -158.1561 5.037354 0
-183.1485 -157.1226 5.0498819 0
-165.83134 -154.91191 5.0417037 0
-185.22922 -153.40987 5.0860062 0
-214.23441 -151.94603 5.0662642 0
-183.38188 -151.47318 5.0172415 0
-184.78731 -150.76639 5.0760269 0
-204.22328 -169.05283 5.151628 0
-224.49243 -157.43468 5.1212854 0
-159.59099 -156.72931 5.1394486 0
-159.22015 -156.72948 5.1305504 0
-224.99614 -156.69469 5.1179752 0
-217.43439 -155.73578 5.1345124 0
-183.88249 -151.52209 5.1534381 0
-155.90839 -163.93837 5.2275729 0
-226.70326 -161.24385 5.2961035 0
-223.49452 -157.67072 5.2021737 0
-164.54396 -157.62225 5.2098899 0
-160.85675 -157.20049 5.2660599 0
-179.98364 -153.45831 5.2343678 0
-185.72832 -153.34764 5.2775354 0
-178.92194 -153.33791 5.2666359 0
-187.50661 -152.85014 5.2524977 0
-218.7603 -152.00548 5.237134 0
-183.9045 -151.53328 5.2596893 0
-183.92084 -151.26764 5.2635922 0
-174.05084 -151.25713 5.2014046 0
-218.11429 -151.00922 5.2943864 0
-184.78252 -150.70982 5.2944484 0
-184.68236 -150.68947 5.2454314 0
-213.27118 -150.28859 5.2038364 0
-215.94267 -159.31967 5.3358989 0
-223.61121 -157.73763 5.393342 0
-223.50038 -157.7684 5.3446031 0
-223.41235 -157.65059 5.382935 0
-163.80501 -157.5547 5.391058 0
-224.49844 -157.35814 5.3867822 0
-215.22021 -157.14233 5.3719573 0
-183.59015 -157.02202 5.3315215 0
-186.76303 -153.38216 5.3785515 0
-185.97542 -153.33156 5.3706326 0
-164.7438 -153.34671 5.3997817 0
-188.15292 -152.57639 5.3848009 0
-163.29449 -152.17651 5.3860116 0
-183.37404 -151.53055 5.3327131 0
-184.0443 -151.21773 5.326303 0
-183.90871 -151.16736 5.3988967 0
-184.92 -150.64456 5.3361006 0
-184.85187 -150.68457 5.3229208 0
-177.66844 -150.04311 5.3876948 0
-187.85614 -170.75929 5.4462199 0
-161.90819 -158.72507 5.4116449 0
-223.26111 -157.60852 5.4926176 0
-229.64369 -157.2408 5.4873013 0
-210.6722 -157.23784 5.4314699 0
-163.15071 -154.99208 5.4155679 0
-180.12524 -153.51474 5.4258523 0
-187.89642 -152.71049 5.4335017 0
-218.29648 -152.0352 5.475872 0
-183.31322 -151.53139 5.4805055 0
-183.40407 -151.47212 5.4609909 0
-183.95682 -151.16772 5.4599094 0
-217.83163 -150.59819 5.4965281 0
-223.05048 -157.66516 5.537344 0
-223.34831 -157.53043 5.5536995 0
-225.43887 -156.63655 5.5416422 0
-159.59967 -156.51407 5.5050573 0
-159.49762 -156.49399 5.5263324 0
-160.97966 -156.24774 5.5350232 0
-166.03709 -154.76094 5.5302773 0
-179.1062 -153.37019 5.5272574 0
-164.72311 -153.12877 5.5314794 0
-218.02431 -153.06448 5.5848727 0
-188.42807 -152.4615 5.5467687 0
-189.58755 -151.98619 5.5981536 0
-183.92232 -151.73799 5.5964909 0
-183.48943 -151.44098 5.5722013 0
-184.01926 -151.11946 5.5921855 0
-183.90002 -151.18922 5.5235105 0
-185.04599 -150.72975 5.5757179 0
-184.75589 -150.76419 5.5408869 0
-184.70599 -150.68227 5.5651598 0
-195.08009 -163.09251 5.6444802 0
-223.08371 -157.66685 5.6001983 0
-224.43686 -157.36954 5.612968 0
-225.37346 -156.49841 5.6839929 0
-177.763 -155.34978 5.6962452 0
-187.05244 -153.41447 5.6688337 0
-164.96255 -153.08792 5.6908932 0
-183.33871 -151.4962 5.626965 0
-184.8528 -150.80804 5.6005611 0
-185.08315 -150.6573 5.656219 0
-151.11911 -159.04579 5.7492805 0
-225.4165 -156.55122 5.798111 0
-177.98621 -155.51587 5.7073226 0
-177.81779 -155.50246 5.7242093 0
-219.70647 -154.07524 5.7282944 0
-183.6476 -151.90172 5.7965355 0
-173.84094 -151.65015 5.778089 0
-184.9169 -150.57564 5.7561684 0
-184.83 -150.55283 5.7923236 0
-177.70238 -150.15031 5.7165308 0
-187.04042 -153.5038 5.8848433 0
-179.01051 -153.50037 5.8995919 0
-186.94769 -153.45547 5.8611174 0
-217.69456 -152.51962 5.8434978 0
-214.40715 -152.03404 5.8431959 0
-163.25235 -152.04391 5.8517632 0
-217.9308 -151.74866 5.8102746 0
-184.00797 -150.87901 5.8998747 0
-188.13748 -150.69597 5.8482451 0
-185.0639 -150.61615 5.8698359 0
-184.96367 -150.60243 5.8317385 0
-177.87411 -150.05478 5.8834567 0
-230.65099 -164.48448 5.9781833 0
-211.88658 -159.98758 5.9819021 0
-179.01521 -158.96498 5.9775238 0
-224.41173 -157.23779 5.9710712 0
-183.64362 -157.29626 5.9745016 0
-230.00319 -157.10684 5.9468222 0
-211.07686 -156.9585 5.9554877 0
-211.84961 -155.9959 5.9843931 0
-177.66093 -155.72482 5.9621229 0
-183.8804 -150.91428 5.9797373 0
-183.8454 -150.84732 5.981679 0
-185.68433 -150.62819 5.9226794 0
-185.1469 -150.52327 5.9697514 0
-185.00659 -150.57082 5.9984961 0
-177.94527 -150.05168 5.9362831 0
-230.12993 -164.15405 6.0963278 0
-229.99506 -164.07924 6.0540085 0
-196.00632 -163.17467 6.0045209 0
-213.32733 -158.2672 6.051847 0
-183.82173 -157.2789 6.0253992 0
-216.67113 -156.00473 6.043664 0
-216.73537 -155.95505 6.0263925 0
-186.40474 -150.43848 6.0949697 0
-230.05254 -160.32329 6.1814866 0
-178.97586 -159.02263 6.1500545 0
-183.80081 -157.33327 6.1358728 0
-216.42743 -156.0218 6.1773486 0
-166.06596 -154.79977 6.197464 0
-163.10632 -154.14946 6.1615505 0
-164.86792 -152.91225 6.1330862 0
-183.98878 -151.78549 6.1506653 0
-183.14427 -151.52522 6.1444292 0
-182.99712 -151.52553 6.1395211 0
-184.04477 -151.16298 6.1604781 0
-183.95282 -150.815 6.1363926 0
-185.15959 -150.47203 6.1278839 0
-186.03506 -170.56227 6.2715902 0
-180.87985 -153.99493 6.287868 0
-219.93539 -153.84995 6.2910113 0
-182.9928 -151.48073 6.2929988 0
-184.00519 -150.72823 6.2330413 0
-183.85696 -150.74747 6.2269478 0
-185.22842 -150.54321 6.2204585 0
-214.73773 -150.26114 6.2688766 0
-185.31161 -150.20964 6.2923737 0
-185.27362 -150.17485 6.2916689 0
-178.13792 -150.19553 6.2713323 0
-183.05844 -157.34065 6.3198075 0
-176.54436 -156.82683 6.379559 0
-176.78079 -156.54851 6.3870039 0
-226.4361 -156.00197 6.3053303 0
-177.6167 -155.83586 6.3831644 0
-177.68842 -155.76418 6.3510323 0
-181.0007 -154.07211 6.3061442 0
-183.05219 -151.48013 6.3254318 0
-183.86557 -150.72906 6.3508177 0
-185.15266 -150.60626 6.3740077 0
-183.86737 -150.66592 6.3915563 0
-185.25716 -150.55452 6.3533626 0
-185.06084 -150.35881 6.3351364 0
-184.42073 -157.65202 6.4501796 0
-183.84552 -157.34424 6.4563003 0
-162.79111 -156.12637 6.4296618 0
-166.02417 -154.74117 6.449863 0
-179.04532 -153.63356 6.4654655 0
-178.95145 -153.69104 6.4926147 0
-187.32065 -153.57007 6.4505792 0
-165.01744 -152.72337 6.4985452 0
-183.87454 -150.66537 6.4591684 0
-185.13943 -150.55891 6.4017758 0
-192.39972 -164.86682 6.5502977 0
-195.99838 -163.08656 6.5303669 0
-227.59599 -157.39816 6.59831 0
-226.70158 -156.89192 6.5627608 0
-177.76675 -155.98233 6.578558 0
-177.65759 -155.90067 6.5340304 0
-164.95004 -152.72217 6.5267878 0
-164.76135 -152.6423 6.5875273 0
-182.92628 -151.50243 6.586277 0
-185.17848 -150.3669 6.5738559 0
-178.57619 -150.23256 6.5728636 0
-178.45041 -150.18857 6.5715613 0
-185.24471 -158.25529 6.6846895 0
-227.10516 -157.06421 6.6050472 0
-214.64667 -156.10916 6.6098585 0
-220.11629 -153.67711 6.6543636 0
-187.47917 -153.64958 6.6165895 0
-220.05487 -153.56868 6.6576133 0
-184.1405 -151.96794 6.6548824 0
-183.90324 -150.55034 6.6486659 0
-178.42851 -150.20958 6.6265469 0
-196.25685 -163.03059 6.7754397 0
-230.8723 -156.90182 6.7445211 0
-225.69388 -156.14017 6.7423897 0
-225.67049 -156.06697 6.7064424 0
-181.78363 -154.02982 6.7750406 0
-185.27339 -150.46786 6.7166424 0
-178.51003 -150.28781 6.7126484 0
-188.82298 -171.34886 6.8379841 0
-227.31815 -162.47542 6.8540797 0
-184.06172 -157.5575 6.894434 0
-224.4236 -157.05527 6.8439589 0
-225.7719 -156.07945 6.8945837 0
-185.30899 -150.4953 6.8135314 0
-178.66231 -150.24493 6.8821077 0
-225.87143 -155.99297 6.9276199 0
-220.70177 -155.37689 6.9715281 0
-173.82811 -152.7 6.9898171 0
-185.32642 -150.40257 6.974668 0
-231.01468 -156.7995 7.0433092 0
-220.79587 -155.4845 7.0299287 0
-179.067 -153.88397 7.0625696 0
-178.43803 -153.59009 7.0370936 0
-173.7986 -152.70387 7.0060334 0
-184.19162 -150.97653 7.0236397 0
-185.47603 -150.44476 7.0692773 0
-185.35051 -150.41354 7.0247335 0
-198.16174 -164.70293 7.1634116 0
-249.10448 -160.37361 7.1583838 0
-226.01176 -155.86032 7.1559324 0
-227.6284 -155.14047 7.1163106 0
-179.26952 -154.03581 7.1519108 0
-179.04466 -153.82867 7.119205 0
-173.79678 -152.74911 7.1153789 0
-184.39558 -152.14384 7.1898971 0
-182.81767 -151.577 7.1641946 0
-182.65625 -151.58208 7.1369963 0
-182.79428 -151.49229 7.1989956 0
-185.48412 -150.33234 7.1688275 0
-178.8712 -150.2234 7.1074128 0
-214.01915 -166.64186 7.2694259 0
-177.74271 -156.26167 7.295444 0
-177.71968 -156.13493 7.2626615 0
-220.34929 -153.41315 7.2217889 0
-220.20738 -153.35654 7.2540507 0
-173.95685 -152.86981 7.2824159 0
-182.58954 -151.5468 7.2079053 0
-186.67955 -151.22694 7.251605 0
-186.31584 -151.05115 7.2751079 0
-183.36908 -150.10056 7.229043 0
-228.02524 -155.0264 7.324821 0
-184.12392 -152.27748 7.3747587 0
-164.94283 -152.13893 7.3278456 0
-182.94276 -151.60902 7.342783 0
-182.70192 -151.57843 7.3934565 0
-187.53613 -151.41505 7.3705006 0
-186.76663 -151.2963 7.3380895 0
-185.56442 -150.34933 7.3267946 0
-179.0076 -150.39281 7.3554935 0
-179.04077 -150.28403 7.3304462 0
-216.47391 -158.30249 7.4985499 0
-216.40083 -158.27397 7.4916201 0
-222.4707 -157.88499 7.4805799 0
-228.06001 -154.9677 7.4268303 0
-179.198 -153.95505 7.4155774 0
-164.93716 -152.13586 7.4322219 0
-182.54764 -151.56866 7.425931 0
-179.24365 -150.33202 7.4472275 0
-179.13011 -150.37686 7.4558091 0
-248.85242 -160.29802 7.5590019 0
-165.07083 -152.14236 7.5899153 0
-184.38354 -150.94296 7.5692549 0
-185.62582 -150.32777 7.5805721 0
-188.75652 -171.70119 7.6974354 0
-166.28288 -154.5184 7.6541452 0
-179.45016 -154.25764 7.6020045 0
-179.18254 -154.10606 7.6097908 0
-178.95148 -153.9299 7.6360669 0
-163.37512 -153.02222 7.6690569 0
-221.46178 -156.97197 7.7024598 0
-228.34506 -154.85164 7.7218823 0
-228.4617 -154.79243 7.7788281 0
-179.21906 -154.30057 7.7782259 0
-179.23953 -153.93329 7.779469 0
-164.99608 -152.08336 7.7375102 0
-185.66252 -150.35403 7.7695565 0
-184.51074 -152.31616 7.8794212 0
-182.25865 -151.57176 7.8178658 0
-224.67252 -156.63116 7.9830399 0
-226.30193 -155.19939 7.9199228 0
-226.19705 -155.12033 7.9373512 0
-219.04251 -155.17249 7.9612432 0
-166.14818 -154.39005 7.9268861 0
-184.35489 -150.89275 7.9757485 0
-182.94467 -157.71979 8.0916233 0
-173.84897 -153.09833 8.0074234 0
-182.25146 -151.56636 8.0407572 0
-179.38429 -150.59943 8.0582285 0
-182.18831 -151.56279 8.1382313 0
-185.77167 -150.28064 8.114295 0
-229.03912 -154.25349 8.2389469 0
-178.99715 -154.09198 8.2534609 0
-222.75444 -153.881 8.2448273 0
-173.81421 -153.2057 8.2486506 0
-225.70816 -162.83643 8.3060503 0
-228.9435 -154.38914 8.3409681 0
-173.22188 -153.21797 8.3351383 0
-221.21054 -152.87437 8.3404226 0
-162.3333 -156.61937 8.4459801 0
-226.54092 -154.58632 8.4749756 0
-178.62738 -154.08176 8.4500093 0
-178.02087 -157.4239 8.5964537 0
-229.38028 -154.19617 8.5593309 0
-229.50322 -154.14532 8.6960382 0
-179.30199 -154.07317 8.6441574 0
-185.99869 -150.12292 8.7948484 0
-228.80077 -163.42307 8.8387556 0
-223.53102 -159.87997 8.8732967 0
-224.67992 -156.04393 8.8436003 0
-170.09758 -150.36511 8.8783827 0
-183.97511 -171.74176 8.9643126 0
-187.69475 -171.12956 8.9907217 0
-220.66722 -156.49864 9.0593424 0
-226.54128 -153.54242 9.0832958 0
-187.7397 -171.58833 9.1039715 0
-225.3987 -156.95477 9.1159782 0
-180.76552 -154.67105 9.1709242 0
-226.62474 -153.49399 9.1430168 0
-170.17726 -150.91628 9.1747665 0
-249.74689 -159.22714 9.2483501 0
-224.74168 -155.81923 9.2584915 0
-220.65688 -151.63438 9.2198296 0
-224.73181 -155.71367 9.3803511 0
-179.40141 -154.17961 9.3407612 0
-185.0137 -158.0817 9.4034719 0
-226.93456 -154.01309 9.4713135 0
-179.52942 -154.11455 9.553134 0
-186.41577 -171.32166 9.6600571 0
-184.46489 -152.70454 9.6012325 0
-221.34573 -150.43527 9.6199713 0
-221.19382 -150.4568 9.6194277 0
-226.69843 -152.36325 9.7991076 0
-174.95448 -150.34195 9.7116079 0
-187.92221 -171.60722 9.8440876 0
-188.15608 -171.95151 9.9965611 0
-227.18839 -153.90944 9.9035759 0
-184.79292 -171.77344 10.056572 0
-187.38322 -171.62132 10.027513 0
-220.1861 -155.84702 10.151974 0
-224.86691 -155.30161 10.160133 0
-223.68913 -160.10136 10.251697 0
-198.6915 -174.40112 11.042154 0
-224.16988 -153.39789 11.07258 0
-220.44823 -150.95605 12.45633 0
