# .PCD v0.7 - Point Cloud Data file format
VERSION 0.7
FIELDS x y z intensity
SIZE 4 4 4 4
TYPE F F F F
COUNT 1 1 1 1
WIDTH 531
HEIGHT 1
VIEWPOINT 0 0 0 1 0 0 0
POINTS 531
DATA ascii
-349.77664 -350.8999 -14.359836 0
-349.51736 -352.08722 -14.245351 0
-348.61575 -350.17636 -14.231271 0
-347.78256 -350.72583 -14.19956 0
-348.05661 -350.34787 -14.168129 0
-349.8143 -377.59201 -13.922997 0
-349.6319 -377.38708 -13.859768 0
-349.40491 -377.20398 -13.873614 0
-349.33273 -377.2012 -13.895437 0
-348.72229 -353.11258 -13.822571 0
-347.71793 -352.40399 -13.831501 0
-347.90945 -352.28238 -13.836473 0
-347.16022 -351.23734 -13.811817 0
-346.73187 -351.1391 -13.808039 0
-349.31784 -378.6297 -13.74016 0
-349.95547 -378.36899 -13.784731 0
-348.60086 -377.97876 -13.730323 0
-347.49838 -376.9968 -13.715119 0
-347.37512 -376.88629 -13.713423 0
-343.3432 -351.5621 -13.74393 0
-345.311 -350.26288 -13.788413 0
-342.05096 -350.09885 -13.731571 0
-341.92233 -350.01218 -13.726925 0
-345.83667 -375.63635 -13.691714 0
-345.17654 -375.03922 -13.682649 0
-344.24774 -374.44949 -13.668868 0
-342.72522 -373.31931 -13.646947 0
-342.61923 -373.20358 -13.645573 0
-342.41656 -373.07947 -13.642547 0
-342.31116 -372.92737 -13.641332 0
-340.35657 -371.32663 -13.613803 0
-348.99313 -353.29153 -13.633647 0
-348.30438 -352.42023 -13.619407 0
-346.74377 -350.81677 -13.656725 0
-348.79901 -379.69861 -13.509235 0
-349.28519 -355.34918 -13.526833 0
-349.52325 -355.19885 -13.574381 0
-348.97189 -354.15906 -13.558858 0
-348.67444 -353.22552 -13.591979 0
-347.07959 -351.34433 -13.591688 0
-349.35355 -354.48938 -13.410328 0
-348.7442 -354.03049 -13.439428 0
-346.98898 -352.74637 -13.477526 0
-347.86777 -352.09027 -13.497519 0
-341.03229 -351.12238 -13.45775 0
-341.80533 -350.05396 -13.470502 0
-349.27994 -355.74252 -13.312998 0
-349.20474 -355.27805 -13.398789 0
-348.49258 -353.44452 -13.342895 0
-344.41599 -351.52817 -13.310072 0
-342.67148 -350.53394 -13.267725 0
-342.46347 -350.18414 -13.204677 0
-349.4382 -356.34045 -13.160913 0
-349.00641 -355.77896 -13.124475 0
-349.06116 -354.20306 -13.124448 0
-348.88525 -355.39551 -13.067645 0
-349.13394 -355.16232 -13.074468 0
-348.57828 -355.08548 -13.085831 0
-348.72864 -354.89664 -13.04628 0
-349.11353 -354.43738 -13.062981 0
-348.04712 -353.76471 -13.000251 0
-347.78546 -353.39941 -13.039401 0
-347.34201 -353.29996 -13.089132 0
-347.66827 -352.22961 -13.039849 0
-347.28397 -351.99194 -13.059137 0
-347.15427 -351.65118 -13.030157 0
-347.27795 -351.4812 -13.028455 0
-347.32532 -351.23975 -13.04067 0
-347.3591 -381.35175 -12.974707 0
-346.13126 -380.93942 -12.944208 0
-347.69269 -351.98154 -12.967701 0
-347.14362 -351.26096 -12.937573 0
-345.01657 -380.59158 -12.867645 0
-348.09698 -355.12598 -12.832666 0
-348.08463 -352.91776 -12.856517 0
-345.97293 -351.20465 -12.834908 0
-346.01395 -350.98581 -12.830542 0
-343.01096 -350.57001 -12.889067 0
-343.53397 -380.17102 -12.767206 0
-334.6452 -371.70886 -12.713642 0
-347.76712 -354.61237 -12.768909 0
-348.9733 -354.06039 -12.72627 0
-347.74265 -353.90335 -12.793088 0
-348.95566 -352.79178 -12.757513 0
-345.86469 -351.04309 -12.748879 0
-343.49048 -350.51071 -12.70286 0
-347.8049 -355.56372 -12.677691 0
-348.06689 -352.98679 -12.686341 0
-348.11093 -351.75726 -12.687589 0
-347.93057 -351.6825 -12.614547 0
-343.01141 -351.15964 -12.626057 0
-347.47351 -354.19638 -12.541777 0
-347.67697 -353.13025 -12.551641 0
-348.25348 -352.76062 -12.576494 0
-344.87582 -352.33347 -12.573386 0
-348.30151 -351.83398 -12.521647 0
-346.5994 -351.72803 -12.510125 0
-346.7337 -387.44403 -12.442077 0
-347.91098 -356.09393 -12.414721 0
-347.45584 -355.54993 -12.418939 0
-347.07166 -353.35214 -12.479362 0
-347.38361 -352.78577 -12.451344 0
-348.09055 -352.03793 -12.474018 0
-346.49988 -351.96036 -12.427298 0
-346.48123 -351.81424 -12.433253 0
-348.34253 -351.73694 -12.43622 0
-346.40112 -351.71121 -12.435662 0
-343.69174 -351.52762 -12.42389 0
-342.81085 -350.84473 -12.491772 0
-342.9118 -350.70654 -12.424403 0
-338.84448 -378.00552 -12.366653 0
-344.28513 -352.07349 -12.375542 0
-348.2955 -351.89636 -12.340629 0
-344.44891 -351.4393 -12.308281 0
-347.60101 -388.48886 -12.226373 0
-346.90366 -388.08194 -12.223347 0
-338.96082 -380.78757 -12.2168 0
-338.71841 -377.62317 -12.296335 0
-348.48099 -351.52631 -12.290654 0
-348.69931 -390.46033 -12.171015 0
-338.71631 -377.47318 -12.15657 0
-338.70889 -377.19623 -12.162488 0
-338.67285 -376.92874 -12.164234 0
-338.5798 -376.66434 -12.162695 0
-346.50427 -355.73755 -12.197127 0
-341.88062 -350.89108 -12.119542 0
-334.25293 -376.535 -12.069553 0
-349.42407 -354.94171 -12.061563 0
-347.03564 -351.2774 -12.012933 0
-342.44287 -350.96234 -12.092044 0
-348.27811 -354.35797 -11.925054 0
-347.25723 -352.91776 -11.998287 0
-346.40707 -351.50168 -11.983743 0
-341.58716 -350.15546 -11.923326 0
-347.03494 -355.60095 -11.817638 0
-348.40909 -353.07343 -11.806645 0
-346.97437 -350.90527 -11.846864 0
-347.22937 -351.42862 -11.774145 0
-345.6478 -383.24487 -11.699355 0
-349.2699 -353.7312 -11.620331 0
-347.44366 -351.85361 -11.68117 0
-347.14795 -351.8078 -11.622111 0
-347.35785 -351.47119 -11.618952 0
-343.90753 -382.45844 -11.534947 0
-344.18915 -352.01978 -11.544478 0
-347.58731 -351.46881 -11.582949 0
-347.52957 -351.3172 -11.514765 0
-346.27191 -354.76337 -11.422344 0
-346.40036 -352.71362 -11.485396 0
-346.59811 -352.61487 -11.484726 0
-347.59705 -352.45712 -11.42982 0
-347.16147 -351.63403 -11.487022 0
-347.08411 -351.52823 -11.49418 0
-343.84766 -351.43893 -11.41136 0
-343.76807 -351.28601 -11.495962 0
-347.66016 -351.16034 -11.483081 0
-347.87573 -353.33481 -11.397256 0
-347.73477 -353.27048 -11.392405 0
-346.3317 -352.79492 -11.382391 0
-346.18274 -352.63126 -11.364131 0
-343.44632 -351.54929 -11.353403 0
-346.77454 -351.23035 -11.313999 0
-342.67252 -350.79959 -11.379519 0
-349.8208 -388.13141 -11.226794 0
-347.38971 -352.53827 -11.255182 0
-348.3988 -355.9711 -11.179291 0
-348.11322 -354.20636 -11.139653 0
-348.21298 -352.11224 -11.167192 0
-344.56271 -383.35437 -11.014092 0
-348.27917 -355.23227 -11.060744 0
-348.64743 -354.27286 -11.003826 0
-348.04419 -352.48471 -11.000585 0
-347.86664 -352.45502 -11.035591 0
-347.64951 -352.45239 -11.06299 0
-347.97321 -352.30258 -11.04118 0
-347.83701 -352.01773 -11.037218 0
-349.9895 -388.26846 -10.927367 0
-345.20529 -384.21451 -10.945714 0
-348.36188 -355.77808 -10.99526 0
-348.1673 -355.05896 -10.916793 0
-349.04028 -354.43121 -10.979968 0
-348.67166 -354.25101 -10.967177 0
-348.64908 -354.14832 -10.959442 0
-348.7764 -353.987 -10.927932 0
-347.91678 -353.9379 -10.991494 0
-346.84363 -353.69498 -10.994309 0
-348.27127 -353.08658 -10.941796 0
-348.41321 -352.86932 -10.951317 0
-348.21848 -352.71793 -10.938907 0
-343.79547 -351.88702 -10.938252 0
-342.63019 -351.00922 -10.941168 0
-349.25327 -388.18115 -10.859735 0
-337.93655 -377.19525 -10.893119 0
-347.65366 -356.7215 -10.803067 0
-348.13171 -355.14774 -10.874856 0
-348.29257 -352.80502 -10.890782 0
-348.24051 -352.33459 -10.887782 0
-348.27585 -352.27206 -10.839327 0
-348.09799 -352.01611 -10.897612 0
-348.24301 -351.9855 -10.891178 0
-343.61041 -351.47314 -10.88058 0
-343.51544 -351.39584 -10.808215 0
-344.18787 -353.20291 -10.707821 0
-342.34106 -350.44626 -10.740602 0
-345.77115 -383.3544 -10.657461 0
-342.69403 -383.50296 -10.508288 0
-347.70016 -353.29184 -10.578925 0
-343.97476 -352.41086 -10.50097 0
-341.80148 -352.08881 -10.594252 0
-341.84622 -351.9024 -10.59891 0
-342.18533 -350.4628 -10.539495 0
-345.45343 -384.92068 -10.494541 0
-348.58682 -356.42029 -10.46452 0
-347.65021 -352.67877 -10.430808 0
-347.49612 -352.66486 -10.466906 0
-347.49014 -352.57819 -10.4829 0
-345.18332 -384.29391 -10.345634 0
-348.47107 -355.84717 -10.357118 0
-348.21585 -355.65723 -10.35101 0
-347.9147 -354.01941 -10.396154 0
-348.2337 -353.60162 -10.32666 0
-347.69617 -352.32874 -10.316968 0
-347.70013 -352.07202 -10.324375 0
-343.67923 -351.85245 -10.359535 0
-345.03107 -383.01898 -10.273639 0
-347.15323 -353.86591 -10.290449 0
-347.26273 -353.66141 -10.29355 0
-346.71906 -353.41129 -10.24074 0
-346.87112 -353.2049 -10.249638 0
-346.78668 -352.95126 -10.236361 0
-347.62122 -352.36826 -10.297678 0
-347.74887 -352.10425 -10.265098 0
-347.67715 -352.07608 -10.289081 0
-348.6131 -353.91537 -10.124187 0
-348.67139 -353.88602 -10.154006 0
-348.54385 -353.30951 -10.125242 0
-343.29822 -351.76416 -10.185532 0
-341.36981 -350.4292 -10.189403 0
-348.71838 -353.87628 -10.036773 0
-347.84137 -351.61203 -10.03904 0
-347.85349 -386.80743 -9.9638233 0
-346.5578 -353.74979 -9.9612961 0
-346.87601 -388.1539 -9.8727388 0
-347.48685 -353.96497 -9.8660612 0
-349.3064 -353.79691 -9.8096886 0
-347.57785 -353.66684 -9.8504543 0
-344.9455 -384.83258 -9.74298 0
-348.63467 -356.35535 -9.74156 0
-348.40585 -355.71686 -9.7152605 0
-348.78146 -390.55673 -9.6411095 0
-348.29901 -355.57156 -9.6270475 0
-348.16742 -355.49405 -9.6213169 0
-347.27161 -355.1521 -9.6417999 0
-347.28391 -353.9245 -9.6462479 0
-347.54749 -353.36093 -9.6848698 0
-347.8934 -353.21317 -9.6602859 0
-343.07785 -351.83789 -9.6124325 0
-341.06564 -351.21646 -9.6844549 0
-347.75583 -356.71756 -9.5793772 0
-348.41391 -353.17188 -9.5337267 0
-348.43222 -353.01926 -9.5386009 0
-347.91891 -352.94415 -9.5348787 0
-347.52158 -352.58618 -9.5631571 0
-346.25601 -351.89331 -9.5402479 0
-343.56955 -351.72989 -9.5086508 0
-345.22833 -384.19965 -9.4053402 0
-348.33487 -355.4888 -9.4332781 0
-347.82507 -353.01266 -9.4905987 0
-342.54047 -351.35678 -9.4146929 0
-348.54474 -354.6568 -9.3533449 0
-347.88568 -352.41812 -9.3793039 0
-340.54062 -350.53076 -9.3467779 0
-346.06702 -352.55609 -9.2294111 0
-347.71237 -352.49866 -9.2796516 0
-347.78244 -352.32343 -9.2604504 0
-349.34814 -356.46906 -9.1454468 0
-347.53513 -354.19101 -9.1613836 0
-347.4201 -353.96051 -9.1399946 0
-343.82693 -352.31119 -9.1932259 0
-343.62048 -351.99069 -9.1769791 0
-343.51474 -351.35959 -9.1490583 0
-347.93823 -356.20724 -9.0447826 0
-349.52078 -356.12106 -9.0536165 0
-348.38589 -356.43753 -8.9593191 0
-347.69489 -355.86243 -8.942131 0
-347.49139 -354.52927 -8.9677382 0
-347.5777 -354.41537 -8.9655809 0
-347.45361 -354.01242 -8.9736948 0
-347.64447 -353.94891 -8.9076567 0
-347.74506 -352.96524 -8.9188833 0
-347.52628 -352.99664 -8.9862347 0
-344.03967 -352.13806 -8.9504528 0
-343.71896 -351.77786 -8.9460354 0
-347.70312 -356.10657 -8.8882055 0
-347.7785 -354.84845 -8.8415842 0
-347.75272 -354.6268 -8.895627 0
-347.60461 -354.59293 -8.8803596 0
-347.56329 -354.34689 -8.8747997 0
-347.27179 -354.16263 -8.8404064 0
-347.75647 -353.24933 -8.8644056 0
-345.49423 -355.52045 -8.7424841 0
-346.59244 -355.03696 -8.7720776 0
-346.82343 -352.82233 -8.7876043 0
-346.38437 -352.78543 -8.7859192 0
-346.26868 -352.61362 -8.7901154 0
-346.1218 -352.15448 -8.7107582 0
-346.06265 -352.19415 -8.7789516 0
-347.71399 -355.63419 -8.6780376 0
-340.55389 -350.73697 -8.6556482 0
-348.32495 -354.98877 -8.4680586 0
-340.14508 -352.3526 -8.4192696 0
-349.30112 -356.52921 -8.3788929 0
-348.21716 -356.40411 -8.3948841 0
-347.8389 -354.07367 -8.3416595 0
-347.7952 -354.02356 -8.3125162 0
-347.47351 -353.87512 -8.3284273 0
-346.20462 -352.88617 -8.3669329 0
-342.42941 -352.13788 -8.319623 0
-340.95535 -350.04556 -8.35462 0
-349.5141 -356.83496 -8.2586184 0
-349.35571 -356.42313 -8.2277756 0
-349.21497 -356.44653 -8.2735319 0
-347.79932 -353.99319 -8.2406778 0
-346.96066 -353.71603 -8.2854519 0
-346.18063 -353.22415 -8.2341423 0
-343.01434 -352.29205 -8.2651634 0
-342.86676 -352.05975 -8.2279882 0
-348.86926 -390.30167 -8.1986341 0
-348.36734 -356.89615 -8.1761141 0
-349.28564 -356.52185 -8.1806288 0
-347.95871 -353.94226 -8.1859303 0
-347.39066 -353.87915 -8.1839094 0
-346.8125 -353.60785 -8.1700468 0
-347.10025 -353.48959 -8.1615667 0
-346.72302 -353.23471 -8.1798944 0
-347.00586 -352.84418 -8.1415043 0
-345.86594 -352.69525 -8.1110811 0
-346.61899 -355.56046 -8.0206661 0
-345.79977 -352.34906 -8.070673 0
-342.62347 -352.34879 -8.0555286 0
-340.14078 -351.59253 -8.0716248 0
-348.09756 -353.83945 -7.9534135 0
-347.63196 -353.75174 -7.926055 0
-348.16077 -353.54825 -7.9920897 0
-346.53445 -353.4621 -7.9414377 0
-347.00583 -352.9845 -7.9633632 0
-345.72552 -352.57996 -7.9961748 0
-345.7088 -352.40848 -7.9506979 0
-348.40741 -357.89893 -7.8364143 0
-346.63458 -354.746 -7.8330107 0
-346.87415 -353.20648 -7.81038 0
-346.78372 -353.02362 -7.8954372 0
-347.05649 -352.78851 -7.8156652 0
-346.81137 -352.33261 -7.8453441 0
-342.7132 -351.65881 -7.8056903 0
-342.64429 -351.60986 -7.8434343 0
-347.48431 -356.84259 -7.7621727 0
-342.77307 -354.06961 -7.7542882 0
-346.6991 -353.96991 -7.7986178 0
-347.67844 -353.5311 -7.7814045 0
-346.68457 -352.86526 -7.7645817 0
-343.25198 -352.82626 -7.7087636 0
-343.02319 -351.90747 -7.7418361 0
-342.70197 -351.89706 -7.7981777 0
-342.70636 -351.79498 -7.7899389 0
-347.46451 -356.96594 -7.6155677 0
-346.55704 -354.79565 -7.6457739 0
-346.97461 -354.28668 -7.698122 0
-343.19492 -353.5997 -7.6137738 0
-347.13687 -353.2117 -7.6344719 0
-343.3053 -352.96652 -7.6957426 0
-346.58667 -352.72659 -7.639987 0
-342.65268 -352.5358 -7.6671162 0
-346.931 -352.34763 -7.6768875 0
-342.19922 -352.2973 -7.6152964 0
-342.66071 -351.54849 -7.6136899 0
-346.55499 -354.04413 -7.5494499 0
-347.08102 -353.5257 -7.5024395 0
-340.06216 -351.224 -7.5424109 0
-346.89627 -354.64001 -7.4128327 0
-346.91217 -354.54544 -7.415628 0
-346.76526 -354.31467 -7.4077077 0
-346.89795 -353.83469 -7.4471259 0
-347.16281 -353.70499 -7.4723272 0
-347.26688 -353.43204 -7.4789338 0
-340.91925 -350.29114 -7.4503551 0
-347.3461 -354.89957 -7.3457952 0
-347.24991 -354.7803 -7.3541656 0
-343.0069 -354.51706 -7.3218579 0
-347.22028 -353.67993 -7.3371925 0
-343.15408 -353.65189 -7.3512263 0
-346.28418 -352.90918 -7.3386736 0
-346.26883 -352.79196 -7.3443675 0
-343.34808 -352.38104 -7.3212743 0
-339.24738 -351.76398 -7.3347454 0
-342.54633 -351.22485 -7.3238673 0
-340.20016 -351.18994 -7.3359704 0
-340.66354 -350.05603 -7.3588209 0
-348.98593 -390.27963 -7.229229 0
-346.96405 -354.32614 -7.2966986 0
-347.57642 -353.08871 -7.2982101 0
-346.92303 -352.92456 -7.2492995 0
-346.439 -352.62656 -7.2453175 0
-339.76532 -351.10281 -7.2890301 0
-346.52655 -354.37015 -7.1220236 0
-346.63391 -353.51743 -7.1002469 0
-347.384 -353.10117 -7.1783295 0
-346.75549 -352.95737 -7.1817408 0
-346.35745 -352.81607 -7.1773133 0
-342.65613 -351.80212 -7.1311841 0
-347.05582 -354.28949 -7.0670195 0
-347.36072 -354.06659 -7.046361 0
-347.00919 -353.83936 -7.0681982 0
-343.52933 -352.46249 -7.0175147 0
-340.53339 -350.07025 -7.0387983 0
-346.60794 -354.0054 -6.9019437 0
-343.48364 -352.60013 -6.9245625 0
-343.58105 -352.52002 -6.9047499 0
-342.27618 -352.44324 -6.9196196 0
-347.07727 -388.87253 -6.8650036 0
-348.60251 -357.54739 -6.8297038 0
-348.05103 -357.04666 -6.8370991 0
-348.49731 -356.34024 -6.8007255 0
-346.72852 -354.97583 -6.8375621 0
-346.83463 -354.37228 -6.8944912 0
-346.75348 -354.04968 -6.8590136 0
-346.52225 -353.89658 -6.8408303 0
-346.65872 -353.51932 -6.8565001 0
-346.94199 -353.29181 -6.8365798 0
-342.27368 -352.44812 -6.8319464 0
-342.52771 -352.24231 -6.8652282 0
-339.1828 -351.24612 -6.855597 0
-346.37881 -353.69196 -6.7002406 0
-342.966 -353.43198 -6.7880626 0
-347.07504 -353.22662 -6.7006078 0
-342.5639 -352.47766 -6.7397695 0
-339.95181 -350.46719 -6.7714167 0
-340.75024 -350.02991 -6.745234 0
-348.10876 -357.66202 -6.6548905 0
-347.12326 -354.37195 -6.6804819 0
-346.95749 -354.35077 -6.6530252 0
-347.08313 -353.33139 -6.6472178 0
-339.66827 -350.71582 -6.4564838 0
-346.99463 -353.58908 -6.3014169 0
-343.31204 -353.33905 -6.346621 0
-339.73694 -350.42899 -6.3769865 0
-346.14862 -353.76031 -6.2153296 0
-347.64224 -388.97217 -6.1606693 0
-348.48663 -357.97473 -6.1213717 0
-346.70938 -354.62686 -6.1593528 0
-346.0495 -353.59848 -6.1818714 0
-346.08539 -353.31677 -6.1664581 0
-342.85764 -353.29089 -6.1224704 0
-339.67099 -350.43994 -6.1253805 0
-348.21121 -357.32959 -6.0769458 0
-346.44189 -354.39001 -6.0198803 0
-346.61343 -354.14136 -6.0576272 0
-346.90082 -353.68228 -6.0163345 0
-346.11578 -353.69424 -6.0016356 0
-343.18271 -353.13626 -5.9544001 0
-343.57291 -353.6973 -5.8484735 0
-346.93405 -353.41705 -5.885272 0
-343.36365 -353.23132 -5.8095841 0
-342.94513 -353.06744 -5.8056993 0
-339.44583 -350.72256 -5.8160911 0
-339.25687 -350.87692 -5.7173119 0
-339.31119 -350.44522 -5.7546773 0
-339.86978 -350.25125 -5.7461948 0
-339.59842 -350.12927 -5.7709622 0
-348.46231 -387.75748 -5.6042476 0
-346.87152 -353.96085 -5.6854353 0
-339.68475 -351.22128 -5.6609297 0
-347.9537 -357.00497 -5.5957694 0
-346.59549 -354.05795 -5.5120592 0
-346.29636 -354.16739 -5.4887891 0
-346.45154 -353.91751 -5.4076791 0
-346.10608 -353.29694 -5.4184484 0
-342.96533 -353.07535 -5.4906821 0
-339.64426 -350.27304 -5.4590492 0
-346.24945 -354.03943 -5.3977318 0
-346.27554 -353.81522 -5.3401279 0
-342.45126 -353.63034 -5.3661356 0
-339.44666 -350.17792 -5.3802543 0
-346.63708 -354.03406 -5.2900305 0
-339.38809 -350.51102 -5.2021189 0
-339.29355 -350.11951 -5.212173 0
-346.50098 -353.84955 -5.1939335 0
-346.62875 -353.75568 -5.1568112 0
-348.3941 -358.00284 -5.0493722 0
-348.15433 -357.4621 -5.0423851 0
-346.27148 -354.08817 -5.0822902 0
-346.14166 -354.06641 -5.0903277 0
-348.09036 -357.47131 -4.906219 0
-346.24567 -353.66849 -4.911016 0
-348.05328 -388.78357 -4.8606901 0
-342.53177 -353.02588 -4.8168736 0
-342.30621 -353.41626 -4.7346869 0
-342.40747 -353.3432 -4.7545724 0
-345.41534 -394.80109 -4.6575561 0
-342.36313 -353.68564 -4.5399451 0
-344.42856 -393.1076 -4.4873815 0
-342.34189 -353.49301 -4.3342633 0
-342.47638 -353.88559 -4.2789431 0
-348.43866 -386.95078 -4.0099335 0
-348.05078 -386.60324 -4.0588498 0
-347.74442 -385.36404 -4.0787725 0
-342.27414 -353.24973 -4.0765467 0
-347.88257 -385.64041 -3.8917043 0
-348.73257 -386.05582 -3.5677147 0
-349.52655 -398.48633 -3.4013689 0
-344.65826 -391.2626 -3.3069315 0
-348.6438 -382.24841 -3.1603792 0
-348.69437 -385.95633 -3.0967598 0
-347.67807 -384.13391 -3.059715 0
-348.80325 -382.76657 -2.9416857 0
-348.30301 -383.43945 -2.8460143 0
-348.93961 -383.16614 -2.894783 0
-341.63162 -386.86697 -2.7305267 0
-348.62592 -385.68427 -2.5457234 0
-348.85718 -385.49783 -2.5992448 0
-348.61404 -386.51541 -2.434248 0
-348.73816 -383.89478 -1.6094207 0
-349.01382 -383.32535 -1.5453249 0
-348.99493 -384.37311 -1.3797637 0
-347.71091 -392.61053 -0.25941613 0
-349.44348 -384.98822 -0.23413637 0
-349.47668 -384.82602 -0.25038207 0
-347.34369 -390.694 0.0084522786 0
-348.91077 -389.55881 0.97292435 0
-344.6933 -388.09741 1.1416483 0
-347.5303 -390.4809 4.5850291 0
