# .PCD v0.7 - Point Cloud Data file format
VERSION 0.7
FIELDS x y z intensity
SIZE 4 4 4 4
TYPE F F F F
COUNT 1 1 1 1
WIDTH 1616
HEIGHT 1
VIEWPOINT 0 0 0 1 0 0 0
POINTS 1616
DATA ascii
-348.36682 -303.81711 -14.634131 0
-348.47922 -303.58508 -14.639617 0
-346.98804 -302.84732 -14.61488 0
-346.46777 -347.52304 -14.563847 0
-344.94394 -346.7832 -14.535606 0
-349.1543 -305.26456 -14.509963 0
-349.42786 -305.09073 -14.513381 0
-349.33292 -304.9527 -14.513149 0
-348.70609 -304.25259 -14.538938 0
-347.55878 -303.8475 -14.501741 0
-347.18631 -303.06049 -14.585827 0
-335.82706 -278.66599 -14.505175 0
-336.44354 -277.48499 -14.550587 0
-331.13223 -265.30307 -14.519479 0
-333.97745 -259.16022 -14.539518 0
-349.71475 -349.5303 -14.434947 0
-348.50409 -348.79852 -14.406473 0
-347.10538 -348.24753 -14.400721 0
-345.7529 -347.48492 -14.410162 0
-349.89383 -305.98947 -14.460664 0
-349.68655 -305.21643 -14.485793 0
-349.26544 -304.94836 -14.468661 0
-342.98941 -300.96045 -14.445794 0
-340.38849 -299.62668 -14.441636 0
-337.87494 -298.64185 -14.410388 0
-334.23285 -281.6481 -14.438307 0
-334.5744 -281.10635 -14.462691 0
-335.18567 -279.84534 -14.459368 0
-335.70389 -279.03442 -14.427513 0
-349.86612 -262.05142 -14.45944 0
-332.47766 -262.00568 -14.482664 0
-334.4299 -257.68945 -14.492905 0
-349.64346 -349.20987 -14.375732 0
-348.5127 -348.78317 -14.370365 0
-347.7915 -348.36697 -14.366548 0
-347.04825 -347.96625 -14.363186 0
-345.30499 -347.21991 -14.332901 0
-344.06558 -326.42993 -14.350739 0
-345.94495 -302.75385 -14.33686 0
-345.5531 -302.69687 -14.33079 0
-344.5816 -302.07581 -14.317202 0
-341.85303 -300.40414 -14.3866 0
-339.49289 -299.91101 -14.310499 0
-336.00781 -278.37091 -14.379745 0
-336.18188 -277.66397 -14.334458 0
-332.04147 -262.61786 -14.384474 0
-332.34442 -261.49478 -14.317443 0
-332.77512 -260.11758 -14.301947 0
-347.89572 -349.76285 -14.208687 0
-347.02893 -349.67636 -14.237525 0
-347.38824 -349.5798 -14.208779 0
-346.74481 -349.51709 -14.229773 0
-346.74957 -349.36749 -14.236886 0
-347.13409 -349.2388 -14.22555 0
-348.68256 -349.15521 -14.274828 0
-346.07996 -348.97162 -14.233197 0
-346.2341 -348.65659 -14.299889 0
-345.51797 -348.51147 -14.244772 0
-347.57452 -348.30081 -14.25486 0
-345.18182 -348.38071 -14.22862 0
-346.2948 -347.90979 -14.289324 0
-345.09531 -346.97952 -14.213111 0
-342.9502 -346.50116 -14.276209 0
-341.25696 -345.20203 -14.297864 0
-337.52005 -338.77884 -14.205928 0
-343.17731 -325.97668 -14.275379 0
-340.45432 -324.77936 -14.261508 0
-339.8613 -324.5043 -14.23734 0
-339.15445 -300.9794 -14.219996 0
-339.26495 -299.68646 -14.250926 0
-336.93997 -297.96429 -14.206238 0
-336.70499 -297.81259 -14.203075 0
-336.46082 -297.70264 -14.200102 0
-333.34622 -295.14838 -14.261837 0
-336.03903 -276.8465 -14.280344 0
-347.81107 -349.98141 -14.18676 0
-347.36926 -349.44193 -14.198117 0
-346.05817 -348.66656 -14.157187 0
-343.68039 -346.30908 -14.190693 0
-342.76129 -345.71756 -14.172673 0
-337.11588 -337.51767 -14.14419 0
-336.57925 -337.26044 -14.103727 0
-334.91617 -335.82132 -14.149773 0
-341.79269 -329.86371 -14.126354 0
-342.73212 -328.58319 -14.182367 0
-343.50177 -327.39557 -14.109298 0
-340.57254 -321.07596 -14.116289 0
-341.0842 -319.92767 -14.17943 0
-349.57547 -307.07361 -14.124147 0
-333.76166 -305.79788 -14.109867 0
-336.18848 -297.56253 -14.192392 0
-347.15793 -256.12747 -14.159385 0
-343.50775 -347.14755 -14.082003 0
-342.35992 -346.42151 -14.084895 0
-337.83548 -343.56201 -14.035104 0
-336.13123 -341.51273 -14.028625 0
-336.01443 -341.20471 -14.012399 0
-336.63904 -339.84515 -14.013839 0
-337.0625 -338.88718 -14.016717 0
-334.60092 -335.87399 -14.070848 0
-333.80054 -334.91107 -14.025764 0
-342.57935 -327.90482 -14.087621 0
-340.15503 -320.67377 -14.073706 0
-337.21844 -316.88339 -14.060774 0
-349.38574 -306.82355 -14.049554 0
-342.92938 -303.26355 -14.096853 0
-326.61389 -274.59714 -14.050796 0
-349.50357 -262.10834 -14.081283 0
-349.95544 -259.36453 -14.075202 0
-348.86246 -255.88087 -14.023269 0
-345.97134 -255.69014 -14.016687 0
-342.87216 -347.84009 -13.999927 0
-339.70383 -345.37674 -13.979331 0
-336.80353 -340.19144 -13.997219 0
-337.21536 -339.11011 -13.964803 0
-337.3046 -337.92685 -13.926679 0
-334.97223 -336.29016 -13.964671 0
-334.86496 -336.14072 -13.972747 0
-334.6778 -335.66376 -13.992715 0
-334.29596 -335.12119 -13.972508 0
-332.92905 -333.11835 -13.945974 0
-331.63498 -331.03668 -13.916264 0
-341.14429 -329.49435 -13.976768 0
-341.06741 -328.5419 -13.963175 0
-349.59363 -307.26526 -13.909299 0
-324.78705 -280.33441 -13.946513 0
-326.43036 -274.03488 -13.919955 0
-326.52243 -273.89282 -13.918739 0
-326.56137 -273.72241 -13.918081 0
-326.58798 -273.56186 -13.917553 0
-326.59509 -273.39465 -13.917233 0
-326.68417 -273.23877 -13.916074 0
-326.72189 -273.07947 -13.915447 0
-326.83047 -272.93024 -13.914093 0
-327.15268 -271.81693 -13.909312 0
-328.09149 -269.46725 -13.914854 0
-348.99265 -256.1846 -13.943914 0
-342.80344 -251.87228 -13.944896 0
-334.75516 -336.90121 -13.871713 0
-334.80026 -336.24634 -13.837321 0
-334.30234 -335.39185 -13.835159 0
-332.62979 -332.97617 -13.892805 0
-330.16449 -328.66437 -13.880307 0
-340.85809 -326.97964 -13.878576 0
-337.25659 -320.15265 -13.843482 0
-325.94336 -316.87527 -13.882092 0
-322.74432 -290.04813 -13.81973 0
-322.96133 -287.72897 -13.80741 0
-328.366 -268.18613 -13.893929 0
-328.4325 -268.0097 -13.893205 0
-328.39499 -267.83759 -13.888519 0
-329.71765 -263.63318 -13.873478 0
-330.65393 -260.50598 -13.851583 0
-348.72656 -256.24893 -13.873471 0
-349.36816 -256.05804 -13.802202 0
-346.8125 -256.03064 -13.809368 0
-348.65341 -255.3197 -13.87074 0
-344.45828 -252.56224 -13.820621 0
-344.85181 -349.99231 -13.777575 0
-340.65665 -349.4111 -13.71035 0
-339.8746 -348.31448 -13.701913 0
-332.6152 -333.15671 -13.758391 0
-342.52805 -326.74219 -13.763975 0
-342.64758 -326.54855 -13.776854 0
-323.9277 -310.23529 -13.702395 0
-323.98016 -309.12997 -13.755395 0
-323.7951 -308.215 -13.739876 0
-323.37344 -308.01657 -13.795855 0
-349.46524 -307.17844 -13.77971 0
-349.48843 -307.07239 -13.768756 0
-323.10004 -285.9111 -13.790629 0
-323.4306 -283.23166 -13.766102 0
-323.86386 -281.29587 -13.747412 0
-324.28922 -278.28186 -13.70677 0
-327.16345 -269.09274 -13.719696 0
-348.63922 -255.34749 -13.784516 0
-345.45569 -255.03232 -13.755991 0
-345.12979 -254.44965 -13.741117 0
-345.48602 -254.09372 -13.719705 0
-345.43695 -253.59084 -13.777236 0
-345.46179 -253.16835 -13.716795 0
-344.82797 -252.71448 -13.773313 0
-340.67017 -348.85394 -13.679569 0
-339.40863 -347.42462 -13.600548 0
-335.82159 -344.93506 -13.64734 0
-335.78345 -344.64008 -13.647285 0
-336.89453 -344.26617 -13.604948 0
-334.92822 -343.29395 -13.639179 0
-334.36981 -341.08356 -13.634714 0
-334.42795 -340.91849 -13.639443 0
-331.02878 -331.02167 -13.681206 0
-336.95154 -320.09665 -13.637648 0
-323.57263 -311.78885 -13.610495 0
-349.45056 -307.24237 -13.663808 0
-322.71057 -305.42673 -13.674286 0
-325.24911 -273.68359 -13.637484 0
-328.24594 -265.65195 -13.685127 0
-348.79803 -257.65402 -13.610892 0
-349.5416 -256.82278 -13.652143 0
-348.97546 -256.13675 -13.682579 0
-345.09937 -254.66969 -13.605221 0
-344.31668 -253.36609 -13.620976 0
-344.15717 -253.13605 -13.686231 0
-344.49469 -252.58257 -13.692329 0
-339.09607 -346.9628 -13.557272 0
-339.08197 -346.72757 -13.59496 0
-336.1362 -345.63196 -13.538804 0
-336.03836 -345.05029 -13.536814 0
-335.63916 -344.59235 -13.525825 0
-335.73831 -344.16055 -13.577731 0
-334.93259 -343.15494 -13.570425 0
-335.18756 -342.40247 -13.558937 0
-334.81183 -340.98526 -13.537938 0
-334.59378 -339.41632 -13.513361 0
-333.04672 -336.15982 -13.589291 0
-330.86172 -332.89224 -13.592984 0
-329.93799 -331.37744 -13.5755 0
-328.67224 -327.25943 -13.592621 0
-327.74942 -325.43829 -13.538022 0
-326.44196 -323.64673 -13.509995 0
-326.30765 -323.48148 -13.505414 0
-326.272 -323.31497 -13.505508 0
-324.15616 -313.08276 -13.519804 0
-323.59943 -312.20801 -13.561037 0
-322.55283 -307.59604 -13.57023 0
-322.04907 -300.68597 -13.564084 0
-325.67624 -271.56235 -13.598497 0
-326.13641 -269.80338 -13.563508 0
-326.46155 -268.03247 -13.526071 0
-326.73441 -267.14975 -13.503681 0
-349.89908 -256.42871 -13.55528 0
-345.39737 -255.72995 -13.582452 0
-342.97412 -251.80608 -13.581312 0
-341.60004 -348.96487 -13.459892 0
-339.23883 -348.35464 -13.404374 0
-336.58356 -346.58044 -13.446029 0
-334.23666 -342.31058 -13.490387 0
-334.03397 -341.39288 -13.482622 0
-333.6593 -336.88745 -13.455447 0
-327.10995 -324.23236 -13.487628 0
-326.94653 -324.04025 -13.486388 0
-326.93021 -323.86508 -13.489573 0
-326.87741 -323.65674 -13.48849 0
-326.62714 -323.08017 -13.409349 0
-326.27795 -322.15237 -13.434981 0
-324.40549 -318.79938 -13.458534 0
-324.36313 -318.63107 -13.458559 0
-322.77628 -313.36551 -13.404992 0
-343.81943 -259.39642 -13.489764 0
-349.68423 -258.48907 -13.458002 0
-349.68735 -256.26657 -13.433704 0
-347.07343 -256.25638 -13.46424 0
-347.17383 -256.18677 -13.467857 0
-344.00259 -253.30836 -13.426223 0
-344.42377 -252.01283 -13.470595 0
-335.52673 -346.10303 -13.300867 0
-332.31647 -334.80145 -13.399088 0
-330.85587 -332.57834 -13.333466 0
-330.12265 -332.49918 -13.319434 0
-326.15274 -322.75821 -13.355951 0
-348.71317 -257.61496 -13.34299 0
-347.6113 -256.75653 -13.336883 0
-345.97968 -253.71219 -13.377934 0
-344.3476 -253.75696 -13.349523 0
-345.94177 -253.642 -13.393529 0
-334.21039 -344.59976 -13.283533 0
-333.28076 -343.26602 -13.202448 0
-331.80176 -337.87256 -13.236821 0
-328.61435 -330.53937 -13.247982 0
-328.68338 -329.70718 -13.24429 0
-325.99268 -325.04193 -13.223636 0
-325.48477 -322.806 -13.288484 0
-324.01486 -316.94852 -13.252764 0
-322.0784 -308.43896 -13.296026 0
-349.9465 -260.01959 -13.248612 0
-349.44446 -260.00671 -13.219834 0
-345.45148 -255.30008 -13.239165 0
-343.72644 -252.82774 -13.297256 0
-341.26212 -251.37836 -13.274277 0
-341.9238 -349.60431 -13.194865 0
-340.44125 -348.30734 -13.134624 0
-338.95529 -346.9516 -13.132723 0
-339.00998 -346.81314 -13.124567 0
-338.98849 -346.82883 -13.140477 0
-332.95084 -341.75558 -13.160679 0
-326.84448 -328.00623 -13.181502 0
-326.43976 -327.93661 -13.129374 0
-325.98419 -325.93918 -13.190563 0
-349.5267 -307.09845 -13.16649 0
-349.49222 -307.00668 -13.151057 0
-338.04504 -301.53238 -13.141657 0
-348.76889 -261.84085 -13.155997 0
-349.25079 -259.66302 -13.179774 0
-345.39148 -254.26549 -13.189368 0
-344.50339 -254.24585 -13.143867 0
-344.02408 -252.55762 -13.111053 0
-331.26505 -251.32213 -13.173266 0
-327.18692 -330.44897 -13.050694 0
-326.26093 -327.47995 -13.075106 0
-339.68811 -326.59726 -13.015408 0
-325.2691 -324.41266 -13.08468 0
-324.94647 -323.41275 -13.05761 0
-321.78647 -315.08997 -13.000953 0
-322.31564 -312.75122 -13.093011 0
-321.49692 -312.34778 -13.087325 0
-322.22522 -310.78696 -13.097758 0
-349.55957 -255.94693 -13.062249 0
-343.97394 -252.51529 -13.082729 0
-343.3931 -252.31975 -13.047771 0
-343.04251 -251.59654 -13.016296 0
-342.85098 -251.36594 -13.002711 0
-332.89679 -345.4166 -12.999861 0
-332.58786 -344.42331 -12.993248 0
-332.35938 -343.69696 -12.954861 0
-331.74176 -342.4006 -12.965034 0
-325.20599 -325.81503 -12.98175 0
-321.59454 -309.89014 -12.984385 0
-321.52802 -309.73029 -12.979892 0
-321.073 -308.58289 -12.926726 0
-348.65088 -307.6344 -12.979666 0
-348.6044 -306.7298 -12.975022 0
-348.4841 -306.5051 -12.969833 0
-343.08401 -251.36732 -12.991444 0
-342.59082 -251.16911 -12.982093 0
-342.09586 -349.71527 -12.85862 0
-341.96646 -349.57306 -12.858629 0
-330.11447 -339.42224 -12.888046 0
-332.09717 -338.17142 -12.846138 0
-328.01358 -334.91623 -12.883513 0
-327.67734 -331.57855 -12.887741 0
-349.12131 -308.50677 -12.858911 0
-349.1459 -308.39371 -12.860273 0
-349.10574 -308.1524 -12.864179 0
-348.48569 -307.88251 -12.837038 0
-348.98627 -307.6077 -12.833982 0
-349.20581 -307.51355 -12.823794 0
-348.00174 -307.1203 -12.835609 0
-348.26022 -306.85941 -12.867687 0
-347.7998 -306.64749 -12.843665 0
-348.93271 -306.27826 -12.886119 0
-349.38721 -255.79498 -12.893063 0
-345.56921 -254.27881 -12.831715 0
-342.36462 -349.8335 -12.759244 0
-341.84811 -349.70999 -12.740332 0
-338.97171 -347.08279 -12.728376 0
-327.45587 -333.83356 -12.794374 0
-327.37662 -333.64124 -12.790098 0
-327.086 -331.23434 -12.761469 0
-324.94666 -327.28 -12.731088 0
-324.00226 -323.68326 -12.757255 0
-336.75293 -319.96262 -12.735527 0
-349.36084 -306.72943 -12.732085 0
-333.83838 -281.19516 -12.723153 0
-345.16684 -255.03838 -12.771663 0
-338.38687 -251.60362 -12.794232 0
-324.68207 -327.81873 -12.664749 0
-339.69757 -326.39041 -12.691131 0
-323.70016 -324.88565 -12.653841 0
-349.21426 -308.67743 -12.618786 0
-349.15625 -307.51144 -12.668818 0
-348.98868 -306.61432 -12.669831 0
-348.59885 -305.8241 -12.619061 0
-348.66711 -305.58768 -12.602012 0
-349.74304 -305.17786 -12.622356 0
-334.29156 -280.4548 -12.623604 0
-336.54602 -273.80173 -12.607703 0
-344.73688 -260.07947 -12.679516 0
-339.70828 -348.28107 -12.518219 0
-339.72717 -347.99985 -12.531945 0
-323.66782 -325.77228 -12.582157 0
-348.53723 -309.01788 -12.513227 0
-349.16315 -308.72464 -12.551011 0
-348.59186 -308.66904 -12.549443 0
-349.18521 -308.49136 -12.517854 0
-349.21017 -308.39047 -12.546103 0
-349.31009 -307.76321 -12.577078 0
-348.43817 -305.74487 -12.559399 0
-349.78644 -305.41623 -12.504207 0
-319.09064 -300.85992 -12.586451 0
-329.86713 -292.10629 -12.548211 0
-331.36462 -291.4213 -12.560062 0
-334.33029 -280.30417 -12.552075 0
-340.13147 -348.80566 -12.499374 0
-323.55344 -326.83594 -12.498873 0
-337.99408 -326.74475 -12.418511 0
-336.80029 -319.93799 -12.4296 0
-348.84384 -308.78424 -12.450191 0
-348.84076 -308.66171 -12.430079 0
-349.18155 -308.2692 -12.494006 0
-349.31848 -308.16547 -12.475106 0
-349.30664 -307.76825 -12.457201 0
-349.62888 -306.0564 -12.468966 0
-338.03488 -301.14429 -12.417238 0
-333.07156 -293.87625 -12.476915 0
-332.24121 -282.02655 -12.425456 0
-336.24826 -274.83038 -12.448255 0
-345.35071 -255.60909 -12.486848 0
-344.40814 -252.2171 -12.436985 0
-339.41565 -347.88651 -12.361316 0
-339.32425 -345.10773 -12.301313 0
-333.88507 -339.14224 -12.38026 0
-331.836 -337.22342 -12.339132 0
-348.8381 -308.94583 -12.3612 0
-349.77817 -305.21051 -12.388062 0
-332.50452 -303.72989 -12.366014 0
-345.16119 -254.2345 -12.321054 0
-337.47205 -344.63678 -12.203633 0
-338.82117 -344.40909 -12.201287 0
-325.08167 -333.00278 -12.204262 0
-326.50729 -331.46713 -12.230852 0
-322.19077 -327.7345 -12.276836 0
-337.84793 -319.11108 -12.256471 0
-349.9852 -304.93863 -12.294816 0
-333.05264 -293.67151 -12.219106 0
-334.01495 -281.49026 -12.250361 0
-345.58786 -252.75706 -12.204298 0
-341.32584 -348.95081 -12.160537 0
-341.06537 -348.43604 -12.139186 0
-331.50485 -338.82825 -12.174945 0
-331.74808 -336.95822 -12.129109 0
-331.5426 -336.57919 -12.11123 0
-339.88196 -328.01068 -12.110915 0
-339.23782 -327.9725 -12.151347 0
-340.29831 -326.42975 -12.164812 0
-338.90747 -326.47842 -12.119762 0
-338.36819 -325.61981 -12.1265 0
-336.55991 -322.35571 -12.129655 0
-337.14597 -321.96295 -12.15536 0
-336.87604 -321.39746 -12.163318 0
-349.98892 -308.85638 -12.100011 0
-348.83926 -308.78073 -12.120382 0
-349.4725 -307.19781 -12.16447 0
-349.99164 -306.49002 -12.152118 0
-333.43689 -305.76035 -12.154241 0
-333.45886 -305.66013 -12.170119 0
-333.47375 -305.5882 -12.145739 0
-349.65167 -305.14081 -12.105921 0
-333.48779 -305.04898 -12.134798 0
-339.57217 -301.11829 -12.110538 0
-333.00543 -293.24115 -12.140068 0
-333.06943 -293.07233 -12.127727 0
-333.03329 -290.88446 -12.120924 0
-334.20352 -281.77628 -12.138189 0
-334.58975 -281.31219 -12.125439 0
-337.10785 -272.76773 -12.157979 0
-344.37158 -255.15771 -12.101203 0
-341.19986 -345.86621 -12.088912 0
-331.22647 -340.19046 -12.005847 0
-338.4072 -328.41919 -12.079123 0
-339.94867 -327.96793 -12.016295 0
-341.01642 -327.39645 -12.002535 0
-338.19861 -327.05029 -12.004152 0
-338.71078 -326.24301 -12.041064 0
-338.08066 -320.00525 -12.062973 0
-337.87204 -319.47986 -12.065658 0
-349.38016 -307.28995 -12.07473 0
-349.6731 -305.00439 -12.008174 0
-339.43958 -301.19272 -12.09935 0
-339.58975 -299.83014 -12.081671 0
-339.68008 -299.34363 -12.00574 0
-337.34479 -298.61197 -12.001452 0
-332.80963 -292.63583 -12.085081 0
-332.42358 -292.45139 -12.05539 0
-332.03467 -292.28162 -12.026815 0
-334.50076 -280.93048 -12.099145 0
-337.58856 -273.81329 -12.02091 0
-344.68222 -253.25055 -12.086192 0
-344.16718 -252.63869 -12.047038 0
-343.50937 -251.90741 -12.072664 0
-341.52237 -349.55231 -11.980081 0
-341.81937 -349.44717 -11.922068 0
-340.99164 -346.85193 -11.95666 0
-339.70511 -345.42664 -11.958549 0
-340.95111 -345.31921 -11.923485 0
-337.18726 -345.37018 -11.995168 0
-335.7532 -338.9639 -11.97666 0
-335.62119 -338.6824 -11.934747 0
-335.48383 -338.63629 -11.905582 0
-335.66299 -338.51859 -11.95161 0
-337.02084 -322.05438 -11.964276 0
-337.08496 -321.93405 -11.981813 0
-336.98807 -321.58081 -11.935088 0
-349.56696 -309.63782 -11.95788 0
-349.66013 -309.42419 -11.94022 0
-349.99548 -307.57541 -11.965303 0
-349.75516 -305.10016 -11.91464 0
-349.74881 -305.04483 -11.944449 0
-349.64828 -304.90363 -11.95667 0
-349.40347 -304.96692 -11.928996 0
-349.42957 -304.80667 -11.934203 0
-348.59744 -304.86313 -11.900871 0
-339.73233 -301.38205 -11.903818 0
-340.41599 -347.40042 -11.804663 0
-342.2486 -346.92593 -11.840363 0
-341.85464 -346.96149 -11.821519 0
-331.11664 -336.43756 -11.880848 0
-330.82361 -335.54565 -11.893449 0
-340.47784 -328.58893 -11.825333 0
-340.41391 -328.44693 -11.816441 0
-341.43661 -326.871 -11.862854 0
-339.84009 -324.8822 -11.828245 0
-337.87448 -321.29123 -11.886983 0
-337.57364 -320.97852 -11.875036 0
-337.53915 -320.72247 -11.872951 0
-337.94781 -319.65918 -11.865959 0
-348.58112 -306.70337 -11.878751 0
-349.89017 -305.59631 -11.843164 0
-335.03525 -303.73972 -11.807022 0
-334.54218 -303.37378 -11.87249 0
-337.784 -302.16919 -11.803786 0
-339.97778 -302.08212 -11.803288 0
-339.78394 -299.15793 -11.810252 0
-332.61795 -289.99719 -11.866491 0
-336.72025 -274.535 -11.864944 0
-338.90604 -346.92133 -11.701728 0
-342.08722 -346.0787 -11.730634 0
-341.4566 -345.28745 -11.761748 0
-339.43881 -345.11276 -11.708831 0
-336.00436 -339.03033 -11.740992 0
-330.59686 -335.91409 -11.740829 0
-326.82965 -333.828 -11.784483 0
-337.37619 -329.10748 -11.766987 0
-340.58511 -328.92505 -11.768477 0
-340.55304 -328.78296 -11.758214 0
-337.55737 -328.76904 -11.791708 0
-341.9169 -327.39523 -11.728501 0
-337.9075 -321.75766 -11.775465 0
-336.5246 -318.02786 -11.73522 0
-336.92816 -317.94788 -11.760737 0
-337.03073 -317.11133 -11.739795 0
-349.89835 -307.40881 -11.775831 0
-339.88666 -301.80609 -11.781706 0
-339.80902 -301.55447 -11.784014 0
-339.57159 -299.80606 -11.791988 0
-339.43192 -299.8634 -11.728698 0
-333.7518 -291.60797 -11.706256 0
-332.5477 -290.39954 -11.740367 0
-336.8584 -272.66592 -11.727652 0
-342.72314 -251.62663 -11.791517 0
-342.42728 -347.11401 -11.668869 0
-339.88477 -327.69839 -11.636379 0
-341.09506 -326.24405 -11.677036 0
-340.11044 -323.86334 -11.635445 0
-340.27179 -323.47467 -11.626658 0
-337.3696 -320.65131 -11.668638 0
-337.0983 -320.43381 -11.651878 0
-349.7645 -305.50745 -11.642276 0
-349.77399 -305.10153 -11.695972 0
-336.88754 -302.9248 -11.641708 0
-339.55777 -302.39313 -11.625277 0
-339.66116 -301.34464 -11.600888 0
-338.70074 -301.37802 -11.600842 0
-339.9483 -300.54956 -11.609592 0
-338.07367 -300.50107 -11.653938 0
-339.86523 -300.49115 -11.601361 0
-339.64279 -299.7702 -11.642803 0
-340.21423 -298.99356 -11.60274 0
-333.20233 -293.89447 -11.689402 0
-332.48224 -291.29001 -11.663232 0
-332.88141 -283.31519 -11.627973 0
-334.28851 -282.4617 -11.692327 0
-334.49744 -281.87726 -11.674606 0
-336.54019 -274.64627 -11.602314 0
-337.43832 -273.67905 -11.607635 0
-340.38538 -348.19809 -11.535338 0
-337.94409 -347.37006 -11.590442 0
-335.63586 -336.14505 -11.522229 0
-340.84106 -328.25159 -11.544174 0
-340.40851 -328.20697 -11.53508 0
-341.15881 -328.0365 -11.502151 0
-340.63174 -328.05283 -11.539584 0
-340.41803 -328.04059 -11.526538 0
-340.7691 -326.2001 -11.543417 0
-341.28693 -326.112 -11.556941 0
-349.96774 -308.80911 -11.520947 0
-349.99182 -308.7041 -11.52298 0
-349.94025 -307.93704 -11.500017 0
-338.89688 -302.40915 -11.575597 0
-339.64078 -299.68863 -11.590548 0
-339.22906 -298.81299 -11.569121 0
-339.27405 -298.72662 -11.536848 0
-339.12259 -298.49237 -11.559207 0
-339.07547 -298.29526 -11.532434 0
-331.73398 -294.30914 -11.506976 0
-341.52042 -349.58173 -11.47664 0
-342.38687 -346.74655 -11.456689 0
-341.43079 -346.74332 -11.487317 0
-341.52335 -346.32141 -11.432591 0
-341.76166 -345.97336 -11.410429 0
-341.76215 -345.83688 -11.404051 0
-341.00354 -345.18912 -11.441646 0
-337.47412 -328.75964 -11.465552 0
-340.83795 -328.5123 -11.460605 0
-336.88593 -328.19528 -11.429165 0
-341.30869 -325.88486 -11.408288 0
-338.70236 -318.97867 -11.416782 0
-338.29865 -318.54941 -11.435794 0
-349.6998 -309.62714 -11.463671 0
-349.8689 -307.30368 -11.452014 0
-349.4317 -307.39584 -11.495725 0
-349.54071 -306.767 -11.422567 0
-348.9249 -306.50647 -11.4719 0
-349.82043 -305.43451 -11.46189 0
-349.74307 -305.35742 -11.44813 0
-349.40973 -305.23822 -11.446594 0
-349.47403 -305.06879 -11.421043 0
-349.56314 -304.97058 -11.472429 0
-348.93384 -304.8389 -11.443995 0
-348.89734 -304.78342 -11.445086 0
-348.7959 -304.61438 -11.45008 0
-340.04034 -302.47968 -11.406168 0
-340.09818 -301.45938 -11.438671 0
-339.51016 -301.37637 -11.408549 0
-340.08313 -299.77826 -11.498517 0
-340.12 -299.41727 -11.420034 0
-334.3978 -282.36874 -11.493505 0
-334.1225 -281.84509 -11.443148 0
-340.32657 -348.29791 -11.327534 0
-340.17868 -347.86627 -11.312721 0
-340.05811 -347.51746 -11.335281 0
-341.24963 -347.19968 -11.325196 0
-342.51141 -346.91199 -11.395948 0
-342.25955 -346.51816 -11.386701 0
-341.17233 -345.39975 -11.390247 0
-341.61719 -344.90036 -11.394042 0
-339.56256 -324.328 -11.354347 0
-339.67627 -324.12384 -11.309539 0
-340.39139 -323.88837 -11.363661 0
-340.3696 -323.67944 -11.354592 0
-340.27533 -323.35001 -11.356573 0
-349.83975 -309.36102 -11.387082 0
-348.09357 -307.84573 -11.342121 0
-349.55948 -305.27832 -11.399918 0
-342.4791 -303.30606 -11.317038 0
-340.35611 -299.38907 -11.300535 0
-340.02109 -299.23795 -11.36859 0
-338.94827 -298.84286 -11.338602 0
-331.08621 -290.23221 -11.301543 0
-334.12506 -282.98593 -11.377378 0
-334.60565 -282.41788 -11.319267 0
-348.99576 -255.44365 -11.320301 0
-345.45331 -253.56331 -11.368369 0
-344.95105 -253.04875 -11.370234 0
-343.44138 -252.66531 -11.324438 0
-343.25476 -251.99602 -11.348393 0
-341.41324 -349.3699 -11.291715 0
-341.1478 -349.11179 -11.286492 0
-341.23218 -348.78986 -11.263673 0
-339.69897 -348.07001 -11.290221 0
-340.04004 -347.72467 -11.245376 0
-340.05261 -347.44836 -11.29138 0
-341.46793 -345.12671 -11.280955 0
-341.59454 -344.94974 -11.267642 0
-341.71191 -344.78809 -11.256379 0
-341.67953 -344.73605 -11.221596 0
-341.64966 -344.66956 -11.286431 0
-341.56113 -344.67105 -11.233211 0
-338.29944 -343.87326 -11.20664 0
-334.22238 -339.09442 -11.274952 0
-339.5412 -324.61093 -11.23318 0
-336.71011 -321.4151 -11.237048 0
-338.73526 -320.26047 -11.2708 0
-337.95193 -317.62994 -11.220069 0
-334.95074 -317.53683 -11.266479 0
-346.96222 -307.03763 -11.223003 0
-348.68985 -305.09961 -11.272128 0
-339.93353 -302.67294 -11.238451 0
-339.69998 -301.73199 -11.295594 0
-340.38501 -299.36115 -11.235106 0
-331.2222 -290.09991 -11.294626 0
-331.16245 -289.95789 -11.232701 0
-330.6973 -289.78809 -11.297852 0
-334.71909 -281.32733 -11.230861 0
-334.67242 -281.1604 -11.226022 0
-334.65656 -280.98575 -11.225587 0
-334.54044 -280.82166 -11.217086 0
-334.4346 -280.62723 -11.208364 0
-334.64139 -280.49432 -11.21369 0
-334.60165 -280.32895 -11.208724 0
-334.67587 -280.21323 -11.286524 0
-335.08682 -280.10062 -11.228039 0
-334.65039 -280.19022 -11.212087 0
-349.9812 -263.40402 -11.276977 0
-339.90833 -347.32925 -11.131727 0
-341.55179 -346.84787 -11.15185 0
-341.80258 -345.49673 -11.151423 0
-341.87424 -345.36813 -11.143494 0
-341.91541 -345.26935 -11.134054 0
-341.28336 -345.01685 -11.187586 0
-340.72806 -344.51822 -11.14683 0
-340.83502 -344.34784 -11.129179 0
-339.7352 -344.22253 -11.124475 0
-340.93787 -344.19681 -11.119252 0
-330.97476 -339.763 -11.177224 0
-339.81473 -324.61774 -11.15791 0
-338.15527 -321.64505 -11.155713 0
-337.65686 -321.61548 -11.182343 0
-348.5405 -308.00732 -11.185012 0
-347.84625 -305.49008 -11.122235 0
-347.98856 -305.31961 -11.179668 0
-334.69943 -304.694 -11.134094 0
-348.81631 -304.44839 -11.173388 0
-338.91397 -303.71246 -11.175056 0
-339.98969 -302.36334 -11.10374 0
-339.19507 -298.2338 -11.157185 0
-333.38968 -294.34238 -11.160614 0
-333.65378 -293.90659 -11.11401 0
-333.43243 -291.92426 -11.110913 0
-334.47742 -291.5849 -11.180219 0
-334.31244 -291.39938 -11.167613 0
-334.0527 -291.22153 -11.152099 0
-334.49887 -279.64343 -11.192769 0
-333.61115 -279.65903 -11.150381 0
-341.54858 -349.08899 -11.011779 0
-341.77032 -347.27185 -11.003822 0
-341.37085 -346.59576 -11.088366 0
-341.11981 -344.83655 -11.034096 0
-338.55615 -343.87521 -11.01745 0
-339.04922 -343.40192 -11.026626 0
-340.81516 -329.18442 -11.064692 0
-340.83127 -328.9978 -11.051922 0
-340.98276 -328.79294 -11.06031 0
-340.94623 -328.6026 -11.020212 0
-340.90836 -328.57971 -11.057085 0
-341.14532 -328.22818 -11.061202 0
-341.69284 -327.23218 -11.040333 0
-341.47925 -326.45862 -11.000959 0
-339.36789 -325.30084 -11.080868 0
-337.78342 -321.81915 -11.03435 0
-336.80875 -321.88928 -11.047379 0
-335.47406 -320.97971 -11.000358 0
-338.22122 -320.87805 -11.033014 0
-338.9762 -320.01813 -11.052645 0
-338.48999 -317.67056 -11.000897 0
-337.29904 -317.42932 -11.057736 0
-337.31812 -317.28671 -11.051654 0
-337.12466 -317.18982 -11.026226 0
-348.23026 -305.42325 -11.016196 0
-338.31326 -298.36664 -11.027138 0
-338.29871 -298.24066 -11.020207 0
-332.01483 -294.20514 -11.095092 0
-334.43539 -280.96896 -11.049432 0
-334.77945 -280.62451 -11.004281 0
-341.57205 -348.66702 -10.922462 0
-341.68176 -347.3815 -10.967857 0
-340.67059 -344.93701 -10.968691 0
-339.80704 -343.94635 -10.908959 0
-336.98688 -339.65344 -10.991135 0
-341.16708 -328.26694 -10.961358 0
-341.35025 -327.16055 -10.985206 0
-341.49301 -325.45755 -10.965082 0
-338.17792 -320.99274 -10.962493 0
-338.22836 -320.84024 -10.948875 0
-338.12704 -318.38391 -10.91488 0
-336.164 -317.0434 -10.941148 0
-347.87311 -305.48895 -10.957941 0
-348.00601 -305.16202 -10.987804 0
-333.0589 -294.03598 -10.972706 0
-333.56155 -292.1427 -10.972222 0
-333.5733 -292.01849 -10.986579 0
-333.90662 -291.01144 -10.993026 0
-332.86151 -282.78012 -10.950835 0
-334.66306 -281.96237 -10.934256 0
-334.67807 -281.76129 -10.961161 0
-336.75671 -274.73169 -10.996962 0
-336.97778 -274.56683 -10.902456 0
-343.68198 -251.74232 -10.930877 0
-342.46497 -347.69965 -10.836838 0
-342.41531 -347.58185 -10.834838 0
-342.21613 -346.50485 -10.853686 0
-340.24557 -343.85629 -10.894721 0
-338.26178 -343.40756 -10.820834 0
-336.49924 -337.42966 -10.846913 0
-340.76138 -329.14563 -10.869467 0
-340.83652 -328.97498 -10.880618 0
-341.69839 -327.66019 -10.883133 0
-338.36874 -317.68582 -10.86271 0
-338.45142 -317.59167 -10.821225 0
-335.04086 -317.24475 -10.861459 0
-349.02133 -306.03799 -10.883219 0
-348.75729 -306.0899 -10.871339 0
-349.1449 -305.84131 -10.824187 0
-340.30145 -303.05826 -10.814606 0
-340.36176 -300.3812 -10.848424 0
-340.12149 -299.7749 -10.856897 0
-333.97821 -282.39978 -10.811538 0
-333.83737 -282.03735 -10.87056 0
-334.74057 -281.85126 -10.801614 0
-334.95853 -281.55255 -10.867649 0
-335.07547 -279.86737 -10.864464 0
-336.75696 -274.8157 -10.895032 0
-336.53113 -274.8165 -10.894818 0
-336.99396 -273.46939 -10.873628 0
-337.02557 -273.31247 -10.880026 0
-336.99442 -273.34515 -10.876231 0
-342.00452 -347.76776 -10.73331 0
-342.32721 -347.45078 -10.701782 0
-341.84109 -346.95813 -10.723825 0
-340.64603 -345.74423 -10.736388 0
-330.19836 -340.92358 -10.791987 0
-337.43832 -328.88116 -10.700926 0
-341.52615 -328.06152 -10.70109 0
-341.71832 -327.05927 -10.752044 0
-341.89163 -326.85355 -10.770387 0
-341.35391 -325.21344 -10.749729 0
-341.01923 -325.26962 -10.708946 0
-341.47488 -324.86655 -10.747497 0
-338.19315 -320.92599 -10.761958 0
-347.83334 -308.63681 -10.745734 0
-349.40887 -305.29697 -10.722413 0
-340.4935 -300.28589 -10.789311 0
-340.1962 -299.88159 -10.794723 0
-339.91132 -298.91946 -10.774874 0
-337.84384 -298.79758 -10.790147 0
-331.28851 -294.40527 -10.76017 0
-333.62308 -293.9368 -10.785434 0
-333.35193 -293.46631 -10.76935 0
-333.95551 -290.97144 -10.740243 0
-335.02307 -281.52805 -10.739168 0
-337.17685 -274.09781 -10.792888 0
-340.79001 -251.88972 -10.78289 0
-341.41107 -346.61487 -10.695743 0
-340.41107 -345.00308 -10.667732 0
-340.39758 -343.98581 -10.687099 0
-340.29712 -343.85858 -10.682315 0
-340.18994 -343.68149 -10.607553 0
-340.08636 -343.565 -10.686389 0
-336.6011 -338.75479 -10.694772 0
-330.68613 -336.62231 -10.694993 0
-340.58719 -328.23645 -10.608164 0
-341.55307 -327.98117 -10.647482 0
-341.61118 -327.82037 -10.65 0
-340.75217 -324.51093 -10.626649 0
-338.77158 -303.85876 -10.692944 0
-340.47525 -300.07544 -10.614079 0
-340.54861 -299.95926 -10.616761 0
-338.52969 -298.53186 -10.626946 0
-338.80325 -297.96667 -10.697698 0
-333.36417 -290.91248 -10.636485 0
-335.10907 -282.05402 -10.661232 0
-344.79669 -253.97818 -10.666362 0
-342.03662 -347.16946 -10.520983 0
-342.13556 -346.26163 -10.517954 0
-341.46597 -345.6601 -10.528494 0
-340.7619 -345.39484 -10.55955 0
-341.50238 -327.79303 -10.557711 0
-341.16327 -326.71558 -10.504343 0
-341.40173 -325.62091 -10.570368 0
-341.40524 -325.20377 -10.529022 0
-340.89587 -324.63248 -10.53642 0
-341.3895 -324.07385 -10.514893 0
-340.19376 -301.30972 -10.517152 0
-340.34158 -301.09723 -10.503412 0
-340.323 -299.45358 -10.509614 0
-333.58365 -293.87906 -10.530354 0
-333.83511 -292.42426 -10.554927 0
-333.27924 -291.08569 -10.523202 0
-332.74466 -282.79309 -10.506671 0
-333.44571 -282.41061 -10.513591 0
-335.21802 -281.96884 -10.568302 0
-335.13571 -281.68265 -10.557203 0
-335.88293 -274.29431 -10.523671 0
-341.72559 -347.06308 -10.45525 0
-341.0864 -346.17062 -10.409082 0
-341.4989 -345.61157 -10.469469 0
-341.32867 -345.69675 -10.42354 0
-341.3667 -345.03409 -10.444886 0
-341.23779 -345.05817 -10.449359 0
-331.45297 -338.1994 -10.440327 0
-337.82529 -317.92401 -10.4263 0
-337.18567 -317.71069 -10.425751 0
-337.15759 -317.58694 -10.41633 0
-337.04956 -317.46771 -10.400528 0
-349.96222 -309.31775 -10.456673 0
-349.92416 -305.15213 -10.469353 0
-340.38342 -301.81097 -10.415718 0
-339.96478 -301.5376 -10.481752 0
-340.08023 -300.79947 -10.470991 0
-339.32812 -300.00168 -10.402691 0
-332.21524 -282.1019 -10.47481 0
-334.59119 -280.1846 -10.40855 0
-343.75015 -255.78638 -10.458184 0
-341.09564 -349.88049 -10.351595 0
-341.20615 -349.6499 -10.344785 0
-340.92044 -349.56863 -10.352569 0
-341.31171 -348.89426 -10.337097 0
-341.99768 -346.99161 -10.307812 0
-341.46811 -346.58704 -10.370817 0
-341.90326 -346.47745 -10.386641 0
-342.31235 -346.11929 -10.39922 0
-341.24832 -344.94183 -10.347181 0
-340.4155 -344.24744 -10.386583 0
-334.21466 -340.52194 -10.339959 0
-331.7598 -337.23386 -10.388781 0
-340.06647 -329.05508 -10.325241 0
-337.75797 -321.95709 -10.347657 0
-335.17569 -317.16104 -10.314889 0
-348.59406 -304.59561 -10.373634 0
-338.69107 -303.36868 -10.334932 0
-339.67514 -302.70459 -10.387584 0
-340.47266 -301.01434 -10.397013 0
-340.11053 -300.52512 -10.354322 0
-333.61929 -291.31952 -10.314725 0
-343.62796 -251.46272 -10.373073 0
-341.18683 -348.44199 -10.291487 0
-341.87924 -346.43158 -10.269608 0
-342.12918 -346.22849 -10.29282 0
-341.07806 -345.51437 -10.217251 0
-341.17926 -345.12247 -10.289434 0
-340.54095 -344.26419 -10.297109 0
-340.71594 -343.97073 -10.266129 0
-340.8222 -343.78894 -10.279243 0
-340.59235 -343.78854 -10.256106 0
-340.4183 -343.70282 -10.256539 0
-340.396 -343.65198 -10.259321 0
-340.32883 -343.57251 -10.254041 0
-340.95245 -328.6763 -10.242481 0
-341.58585 -327.68079 -10.210987 0
-341.17493 -324.45078 -10.224924 0
-341.54861 -324.2829 -10.281798 0
-338.05243 -321.23001 -10.273852 0
-335.14545 -304.05063 -10.240654 0
-338.09988 -303.41318 -10.212243 0
-340.01364 -302.31754 -10.284764 0
-340.43835 -301.91241 -10.295502 0
-339.71811 -301.31686 -10.25383 0
-339.91418 -301.2366 -10.220882 0
-338.45972 -298.31644 -10.284945 0
-333.45157 -292.17273 -10.233476 0
-333.50269 -290.41327 -10.244761 0
-333.00302 -290.21039 -10.200847 0
-332.21008 -282.12695 -10.212991 0
-333.7916 -281.96213 -10.285024 0
-332.83942 -281.7283 -10.209922 0
-345.35046 -254.88193 -10.252895 0
-340.15955 -347.8262 -10.112638 0
-342.49646 -346.77289 -10.108862 0
-339.27734 -345.82263 -10.108558 0
-338.55814 -343.21884 -10.143696 0
-341.19006 -326.8436 -10.133748 0
-341.0961 -324.60123 -10.19625 0
-338.17233 -320.99564 -10.125073 0
-348.97339 -309.04758 -10.120477 0
-340.11441 -301.37155 -10.111853 0
-339.83392 -301.38614 -10.197964 0
-340.17712 -300.58554 -10.169767 0
-340.18466 -300.33939 -10.188259 0
-338.68378 -298.50323 -10.169793 0
-333.55157 -293.59326 -10.18236 0
-341.18283 -252.3289 -10.181582 0
-339.36829 -347.00345 -10.089405 0
-339.44318 -343.46222 -10.059571 0
-341.31015 -327.10516 -10.009371 0
-337.957 -318.74463 -10.076503 0
-337.60291 -317.91492 -10.04307 0
-337.42661 -317.8251 -10.028535 0
-337.89496 -317.6705 -10.074083 0
-334.26013 -305.28424 -10.045583 0
-339.99927 -301.95877 -10.079338 0
-339.83725 -301.26794 -10.087893 0
-340.35101 -300.61044 -10.009286 0
-340.36649 -300.15842 -10.073276 0
-339.73373 -300.17514 -10.066195 0
-339.55875 -299.14438 -10.084802 0
-338.60474 -298.53308 -10.080953 0
-348.02084 -255.85484 -10.051029 0
-342.47256 -347.33087 -9.9337807 0
-342.37311 -346.96973 -9.9767857 0
-333.71045 -340.46188 -9.9437351 0
-341.4465 -327.54218 -9.9872313 0
-341.35425 -327.40048 -9.9794273 0
-341.50043 -327.09277 -9.9023924 0
-341.35742 -324.97406 -9.9377155 0
-338.48779 -320.71005 -9.9094486 0
-337.59155 -318.78986 -9.9109554 0
-336.97229 -317.83139 -9.9991264 0
-349.31683 -305.77264 -9.957675 0
-349.26654 -305.19733 -9.9306822 0
-339.88782 -301.57632 -9.9712725 0
-339.8114 -301.25482 -9.9334898 0
-340.6362 -301.11795 -9.9594946 0
-340.29318 -300.72678 -9.9092951 0
-332.92892 -290.63446 -9.9763136 0
-331.88098 -290.06363 -9.9345312 0
-342.29471 -347.14114 -9.8697634 0
-341.54953 -346.13284 -9.8971958 0
-338.95377 -329.38651 -9.8192959 0
-338.27859 -328.61652 -9.8665905 0
-341.73126 -327.14456 -9.8696251 0
-340.83463 -324.48907 -9.8668919 0
-336.97556 -317.84204 -9.8172665 0
-347.88931 -306.27066 -9.8425064 0
-347.92148 -306.1452 -9.846859 0
-337.15579 -302.58279 -9.8645163 0
-339.98676 -301.62515 -9.8805485 0
-340.24487 -299.95642 -9.8329611 0
-338.63211 -298.16397 -9.8532944 0
-333.05814 -294.03027 -9.8501949 0
-340.37061 -349.19821 -9.7601099 0
-341.00278 -349.01456 -9.7514601 0
-341.4238 -347.75018 -9.7178783 0
-340.04581 -329.14783 -9.7015724 0
-337.66617 -318.10544 -9.7465734 0
-339.30786 -302.34009 -9.7028179 0
-339.81421 -301.66937 -9.7047472 0
-340.3093 -300.08405 -9.7831974 0
-339.21155 -299.36664 -9.7007475 0
-341.56693 -345.75793 -9.6304474 0
-340.37601 -328.83075 -9.6270142 0
-341.18661 -327.51337 -9.6873827 0
-341.24466 -327.21146 -9.6157112 0
-340.69089 -325.4144 -9.6414824 0
-341.05676 -324.00217 -9.6902304 0
-341.13492 -323.88684 -9.6541309 0
-334.58548 -305.2775 -9.6412096 0
-349.17642 -305.1344 -9.6276236 0
-349.60016 -305.06757 -9.6862421 0
-338.00919 -303.29196 -9.615263 0
-339.71722 -301.41235 -9.6739807 0
-339.85391 -301.19327 -9.6159725 0
-340.50723 -299.84814 -9.636714 0
-338.98923 -298.73077 -9.6581764 0
-331.78784 -339.8714 -9.5948677 0
-341.09891 -327.9938 -9.551755 0
-341.44736 -326.33231 -9.528182 0
-336.08231 -321.94116 -9.5197525 0
-339.177 -320.72604 -9.5941572 0
-339.241 -320.13974 -9.5637121 0
-337.29065 -317.69455 -9.5913963 0
-332.87958 -305.71021 -9.5702686 0
-349.3642 -305.13843 -9.5996351 0
-337.9848 -303.72144 -9.5614014 0
-340.1738 -301.32944 -9.5089989 0
-338.22995 -299.06503 -9.5857344 0
-332.13068 -294.40649 -9.5559206 0
-333.5675 -293.15344 -9.5409794 0
-333.88535 -281.97012 -9.5411768 0
-333.75519 -281.75107 -9.5455132 0
-349.42542 -259.7316 -9.5177507 0
-344.13818 -259.16876 -9.5556116 0
-343.32874 -255.62883 -9.5634251 0
-340.78012 -348.34872 -9.4814386 0
-340.9122 -345.06238 -9.4651461 0
-339.32889 -328.24521 -9.4122972 0
-341.56381 -327.1814 -9.4488115 0
-340.73096 -325.68829 -9.4174633 0
-341.26474 -324.76349 -9.4644518 0
-341.11337 -323.7287 -9.457613 0
-337.05728 -321.75574 -9.4564266 0
-337.41763 -318.05118 -9.4422865 0
-349.43222 -309.1571 -9.4966135 0
-349.63367 -305.35571 -9.4561014 0
-338.56528 -303.0528 -9.4232006 0
-338.69757 -302.73535 -9.4527388 0
-333.02869 -292.58023 -9.4024954 0
-333.57599 -291.62274 -9.4269133 0
-333.67218 -290.96881 -9.4364834 0
-342.3598 -346.13876 -9.3043652 0
-338.86108 -344.4621 -9.3456249 0
-340.30655 -329.20148 -9.3340359 0
-339.21262 -328.37158 -9.3556328 0
-341.36725 -324.5087 -9.3162327 0
-337.34213 -322.4856 -9.320961 0
-337.01962 -321.62369 -9.3187351 0
-335.27661 -317.76343 -9.3258677 0
-349.87506 -309.54645 -9.3371487 0
-349.33902 -305.97568 -9.3217688 0
-349.27707 -304.97116 -9.3162317 0
-338.23846 -303.66617 -9.3663836 0
-332.20505 -294.73993 -9.3799162 0
-332.23273 -294.17813 -9.3064518 0
-333.76071 -291.72958 -9.322134 0
-333.6843 -291.29205 -9.3142691 0
-333.25055 -290.51376 -9.3865633 0
-323.27991 -286.89282 -9.3623533 0
-334.02359 -281.56024 -9.3195715 0
-343.95892 -253.30092 -9.3834486 0
-342.00476 -345.42337 -9.258009 0
-318.18301 -308.63116 -9.2717524 0
-349.75229 -305.32315 -9.2106237 0
-333.73834 -291.19095 -9.2657833 0
-333.39767 -291.05182 -9.2138939 0
-336.37994 -274.03091 -9.2970362 0
-340.88187 -348.09546 -9.1785707 0
-342.11328 -346.32404 -9.1543312 0
-342.43915 -346.22943 -9.1994801 0
-341.91153 -345.89377 -9.1556101 0
-341.81119 -345.23495 -9.1668425 0
-340.8179 -345.16119 -9.1218796 0
-339.32693 -320.49942 -9.1080446 0
-338.69876 -319.99179 -9.1214676 0
-338.59445 -319.36221 -9.1795664 0
-338.25742 -319.23514 -9.1148624 0
-337.89401 -318.13785 -9.1809225 0
-349.72034 -309.64212 -9.1161213 0
-349.94775 -308.7478 -9.1575365 0
-349.89786 -307.28534 -9.1647615 0
-348.99545 -305.47815 -9.1323547 0
-331.51221 -295.18481 -9.1067095 0
-331.62668 -294.80634 -9.1284275 0
-344.82706 -255.9926 -9.1458406 0
-344.70587 -255.75389 -9.1235065 0
-341.90656 -348.57315 -9.0530977 0
-339.92343 -344.59506 -9.0990868 0
-336.48825 -338.64954 -9.0548401 0
-335.05368 -336.67517 -9.0727682 0
-340.27936 -328.87518 -9.0677624 0
-340.49203 -328.70337 -9.0887194 0
-340.92526 -326.95557 -9.0820351 0
-341.13147 -325.2901 -9.0865669 0
-338.25552 -319.84665 -9.0914955 0
-338.55862 -319.44916 -9.0811787 0
-349.75793 -308.6214 -9.027359 0
-348.78363 -305.72159 -9.0506697 0
-339.18073 -299.66931 -9.02946 0
-331.5712 -295.01364 -9.0090103 0
-344.4957 -254.62042 -9.0639486 0
-341.93134 -347.43484 -8.9064245 0
-342.56274 -346.94733 -8.9498997 0
-342.10867 -345.64453 -8.978775 0
-339.18091 -344.29688 -8.9799356 0
-340.41757 -328.60745 -8.9450989 0
-340.41574 -327.69958 -8.9994154 0
-338.45883 -318.40158 -8.9150486 0
-335.05798 -317.38434 -8.9323826 0
-349.90186 -308.61362 -8.9885082 0
-349.5217 -308.24527 -8.9293118 0
-349.68979 -307.60458 -8.9140539 0
-349.62167 -306.42392 -8.9680281 0
-338.20547 -303.65738 -8.9552908 0
-339.39899 -302.89682 -8.9361095 0
-338.40384 -302.83194 -8.9148436 0
-339.20493 -302.12595 -8.9384203 0
-338.62485 -301.76492 -8.9360104 0
-339.88525 -301.57684 -8.9658575 0
-331.54611 -294.14001 -8.935318 0
-333.38303 -290.45825 -8.9316959 0
-333.26578 -282.37775 -8.9055424 0
-349.59445 -257.18036 -8.9755125 0
-344.76764 -255.74348 -8.9752779 0
-340.70026 -348.70108 -8.8632212 0
-342.19073 -346.36679 -8.8208609 0
-340.32333 -328.38589 -8.8843212 0
-336.26187 -321.79941 -8.8674936 0
-338.59949 -318.66315 -8.8702154 0
-338.48453 -318.44211 -8.8110352 0
-338.64212 -317.81549 -8.8065548 0
-349.43362 -308.87448 -8.8224049 0
-349.31155 -305.69696 -8.8811817 0
-338.25955 -303.55383 -8.8665228 0
-338.45929 -303.30829 -8.874589 0
-338.46838 -303.0419 -8.8578157 0
-338.38132 -302.74966 -8.837965 0
-339.33929 -302.38766 -8.8293552 0
-338.66788 -301.40366 -8.8288193 0
-339.06696 -301.16974 -8.860321 0
-338.78296 -301.09863 -8.816844 0
-339.35052 -299.81094 -8.8178396 0
-333.60934 -291.08188 -8.854887 0
-333.41656 -290.92526 -8.8250036 0
-333.39621 -290.77087 -8.807663 0
-340.74545 -348.92291 -8.7958508 0
-342.49997 -346.5524 -8.7544374 0
-336.14819 -339.78668 -8.7746363 0
-336.95535 -321.10178 -8.7257481 0
-338.65033 -317.70996 -8.7669058 0
-349.92325 -307.73801 -8.7064981 0
-349.8407 -307.55539 -8.7707281 0
-349.85864 -307.31052 -8.7653008 0
-348.2222 -305.98907 -8.7590132 0
-349.64334 -305.86691 -8.7335997 0
-349.24405 -305.52756 -8.759594 0
-338.28134 -303.33206 -8.7550306 0
-338.65149 -303.04385 -8.7501593 0
-339.40591 -302.58017 -8.7523632 0
-339.4147 -302.35611 -8.772646 0
-339.0209 -301.66962 -8.7030964 0
-339.05231 -301.54343 -8.7024355 0
-339.4599 -300.47067 -8.7315435 0
-339.25046 -300.15842 -8.7636757 0
-333.57379 -291.4418 -8.7911634 0
-333.42484 -290.62564 -8.7967215 0
-333.51431 -290.50708 -8.7937174 0
-340.42801 -328.91693 -8.6264429 0
-340.33362 -328.892 -8.6829119 0
-340.93771 -327.46738 -8.6564016 0
-349.90692 -308.37146 -8.6597214 0
-349.85895 -308.34351 -8.6376934 0
-349.49377 -308.22357 -8.6095057 0
-349.92087 -307.73981 -8.6660099 0
-349.96185 -307.34549 -8.6538067 0
-348.89075 -305.9725 -8.6954041 0
-349.96085 -305.89209 -8.6596155 0
-349.24741 -305.61008 -8.6824989 0
-349.11542 -305.57458 -8.6335201 0
-348.98657 -305.29575 -8.6237497 0
-336.62811 -302.91742 -8.6664581 0
-338.98361 -301.71097 -8.6329346 0
-339.04691 -300.90439 -8.6646833 0
-332.91165 -292.15408 -8.6731329 0
-333.4679 -291.25995 -8.6177673 0
-331.48215 -290.29321 -8.6650391 0
-341.05225 -348.9115 -8.5126553 0
-341.09039 -348.86942 -8.5663671 0
-342.20868 -347.37662 -8.5305004 0
-342.56128 -346.09506 -8.5127993 0
-340.65161 -328.08371 -8.5993938 0
-340.64395 -327.97012 -8.5855322 0
-340.58804 -327.9173 -8.548151 0
-340.46689 -327.98029 -8.5791349 0
-340.64056 -327.04218 -8.5033121 0
-340.9787 -325.72626 -8.5599489 0
-340.784 -325.57996 -8.5341101 0
-340.37823 -324.47162 -8.527236 0
-337.55771 -320.93808 -8.5093908 0
-349.74863 -308.77927 -8.5660791 0
-349.30093 -308.63025 -8.5333176 0
-349.34494 -307.90738 -8.5904198 0
-332.66678 -306.38483 -8.5986347 0
-349.0769 -305.38269 -8.550292 0
-349.18738 -305.28342 -8.5656128 0
-349.32825 -305.1929 -8.5817423 0
-339.04929 -301.81519 -8.5324707 0
-338.95636 -301.79843 -8.5137281 0
-339.03641 -301.68045 -8.5297947 0
-322.94363 -286.95071 -8.5130882 0
-340.13107 -349.16321 -8.4283476 0
-341.38855 -348.6727 -8.4141264 0
-342.28268 -346.73486 -8.417285 0
-342.33716 -346.67441 -8.4338675 0
-340.38556 -329.38873 -8.4601917 0
-341.14749 -325.6254 -8.4386234 0
-336.96655 -321.6319 -8.4920568 0
-349.62311 -308.78696 -8.4668102 0
-331.66229 -305.77197 -8.4466352 0
-349.36313 -305.51077 -8.4495249 0
-338.6821 -300.8298 -8.4776297 0
-331.30399 -294.51331 -8.4017448 0
-332.20343 -294.40753 -8.4729681 0
-332.20938 -294.22968 -8.4698305 0
-321.0253 -279.53043 -8.4803076 0
-349.95615 -258.66306 -8.4090042 0
-341.35016 -348.77551 -8.3771009 0
-340.48688 -344.32602 -8.3243256 0
-335.1561 -340.56473 -8.397934 0
-331.97195 -337.84808 -8.3899117 0
-339.83054 -329.36725 -8.3193665 0
-339.8721 -328.03754 -8.3285151 0
-340.56268 -327.20584 -8.3419905 0
-340.76489 -327.07199 -8.3559399 0
-340.46381 -326.36835 -8.3795376 0
-340.80411 -325.87885 -8.3935547 0
-336.91171 -321.42838 -8.3321505 0
-349.22455 -308.53067 -8.3625202 0
-349.91983 -307.97852 -8.3088493 0
-339.13602 -302.3158 -8.3774471 0
-337.92969 -299.72812 -8.3306274 0
-349.77133 -257.66013 -8.3688021 0
-349.97003 -257.43289 -8.3867054 0
-349.49472 -257.45074 -8.3614359 0
-340.10999 -252.65891 -8.3444853 0
-342.34503 -347.33551 -8.2228394 0
-342.41504 -347.01208 -8.2269392 0
-342.379 -347.03732 -8.2042437 0
-340.37976 -345.02603 -8.2895231 0
-340.70178 -344.32144 -8.2320671 0
-339.87881 -344.04242 -8.2382278 0
-338.53595 -324.56744 -8.2639551 0
-349.24799 -308.24893 -8.2531824 0
-349.17099 -307.95627 -8.211875 0
-349.96872 -307.73398 -8.2806377 0
-349.52594 -306.61554 -8.2871351 0
-349.58438 -306.36707 -8.2518606 0
-349.75574 -306.03555 -8.2693701 0
-338.04092 -302.23627 -8.2028008 0
-339.61542 -301.66937 -8.2614899 0
-336.8746 -300.44897 -8.290863 0
-332.36975 -294.41196 -8.2451239 0
-331.58994 -292.04483 -8.2312756 0
-349.45425 -258.13287 -8.2946205 0
-345.44855 -256.48914 -8.2402334 0
-343.74323 -255.02107 -8.2033148 0
-338.34943 -324.84164 -8.1576366 0
-337.3483 -321.43283 -8.1105003 0
-337.52075 -321.23846 -8.1540976 0
-337.91394 -319.32861 -8.1480865 0
-348.90707 -308.04187 -8.1769524 0
-349.93689 -307.905 -8.1617107 0
-349.55701 -306.0209 -8.1032047 0
-348.44376 -305.72672 -8.1740856 0
-338.255 -302.58154 -8.1358509 0
-337.58374 -302.29367 -8.1562023 0
-338.03238 -302.10168 -8.1975641 0
-330.85239 -294.55869 -8.105957 0
-331.17752 -291.8259 -8.1764269 0
-349.90872 -258.0918 -8.1113119 0
-348.27396 -256.79108 -8.1847553 0
-348.08322 -256.68515 -8.1600103 0
-340.90344 -348.095 -8.0382881 0
-340.9111 -347.90149 -8.0866346 0
-342.16022 -347.09079 -8.0932875 0
-342.31039 -346.60547 -8.0510635 0
-342.14328 -346.53152 -8.0398264 0
-339.86093 -329.2666 -8.0775404 0
-339.86066 -327.69037 -8.0810776 0
-340.17575 -327.43634 -8.0386152 0
-340.63577 -325.82513 -8.0941391 0
-338.35812 -324.95056 -8.0598831 0
-349.42834 -307.00323 -8.0051346 0
-349.66382 -306.44901 -8.0255995 0
-348.47165 -306.21494 -8.0469236 0
-341.29013 -349.61102 -7.9668446 0
-341.96091 -345.42682 -7.9762807 0
-340.47873 -345.17377 -7.9943604 0
-341.00793 -344.33759 -7.9973898 0
-340.9281 -344.21445 -7.9355407 0
-340.97577 -344.06104 -7.9246626 0
-337.10257 -320.21759 -7.9048862 0
-337.14398 -320.03592 -7.9176579 0
-348.99829 -308.46332 -7.9531336 0
-349.42465 -307.11835 -7.9973278 0
-349.2926 -306.89456 -7.9944386 0
-349.76282 -306.4093 -7.9608445 0
-348.51749 -305.94995 -7.9407954 0
-345.77417 -256.43796 -7.9000816 0
-342.31891 -345.90762 -7.8264084 0
-340.37589 -344.15497 -7.8193426 0
-337.45404 -320.69901 -7.8309965 0
-337.26071 -320.34644 -7.8729315 0
-349.01578 -308.05209 -7.8479443 0
-348.61438 -308.06476 -7.8095002 0
-349.9411 -307.58374 -7.8553734 0
-349.22598 -307.05725 -7.8863807 0
-349.79044 -306.19876 -7.8006573 0
-349.65387 -306.05008 -7.8884768 0
-349.77173 -305.90054 -7.8768077 0
-339.27658 -301.25723 -7.8257861 0
-332.48672 -291.66251 -7.8659344 0
-331.95163 -291.4379 -7.811039 0
-345.26044 -256.74011 -7.8520122 0
-343.62927 -253.96767 -7.828423 0
-339.66898 -253.38953 -7.8208971 0
-339.57394 -253.27348 -7.8096762 0
-342.75488 -252.83865 -7.8337307 0
-342.79419 -347.18958 -7.7718244 0
-337.56192 -320.52573 -7.7779584 0
-348.94949 -308.34946 -7.7470131 0
-348.56158 -308.19006 -7.7695551 0
-348.84409 -308.0358 -7.7522531 0
-348.93463 -307.40192 -7.7847672 0
-348.67136 -307.29779 -7.7966104 0
-349.06961 -306.66321 -7.7777901 0
-349.75391 -306.0636 -7.7897754 0
-348.45456 -305.91629 -7.7402973 0
-332.95956 -304.17197 -7.7932768 0
-337.74152 -299.80569 -7.7155375 0
-332.63336 -293.01837 -7.7469702 0
-330.8938 -291.60971 -7.7044988 0
-332.65878 -291.16858 -7.7321281 0
-343.40012 -254.8112 -7.7365322 0
-341.19312 -348.37811 -7.6935625 0
-340.34665 -345.1221 -7.601481 0
-339.4873 -329.10809 -7.6450434 0
-339.05679 -328.22864 -7.6309261 0
-340.39975 -327.50513 -7.6690392 0
-339.74707 -324.69455 -7.6807165 0
-337.36966 -321.46078 -7.640739 0
-348.53574 -308.23975 -7.6340289 0
-349.40662 -307.48013 -7.6003122 0
-349.05209 -306.93356 -7.6371956 0
-333.33389 -303.40726 -7.6849971 0
-333.80249 -303.36575 -7.6299806 0
-337.80426 -299.72482 -7.6737485 0
-331.93304 -293.30362 -7.695787 0
-332.35693 -292.4296 -7.679935 0
-332.60254 -291.20926 -7.6081257 0
-345.52814 -258.32974 -7.6350183 0
-349.25623 -257.76996 -7.6982589 0
-345.01834 -257.12512 -7.6617393 0
-341.34674 -349.05743 -7.5479455 0
-341.94229 -345.68533 -7.5026383 0
-342.06555 -345.59235 -7.5290771 0
-340.61075 -344.48755 -7.504426 0
-328.13037 -331.58698 -7.5588002 0
-339.54462 -328.91064 -7.5510278 0
-339.32556 -328.09772 -7.5479283 0
-337.26044 -320.84134 -7.553946 0
-337.62378 -320.5661 -7.5721855 0
-337.74161 -320.10416 -7.5974584 0
-337.29999 -319.83109 -7.5102191 0
-339.62936 -300.30194 -7.508121 0
-332.29971 -294.4613 -7.5846577 0
-332.39111 -292.99652 -7.5596666 0
-348.29315 -257.25323 -7.5093255 0
-343.19305 -254.90114 -7.5756683 0
-343.79697 -254.08986 -7.5777249 0
-341.15192 -347.99368 -7.4803939 0
-340.84409 -347.97849 -7.4324703 0
-341.76352 -346.84207 -7.4958076 0
-339.79514 -327.35126 -7.4296775 0
-338.62277 -327.05975 -7.4854035 0
-338.63666 -326.99268 -7.4991722 0
-338.10013 -324.86713 -7.4921794 0
-337.31409 -320.79965 -7.4648166 0
-337.02734 -320.20087 -7.423831 0
-336.96689 -320.27258 -7.4870806 0
-338.04541 -319.1701 -7.4995837 0
-349.09372 -306.92358 -7.4687381 0
-337.99802 -303.31042 -7.4036317 0
-339.19666 -301.33191 -7.4410501 0
-339.64301 -300.51688 -7.4461918 0
-339.81955 -300.43134 -7.463623 0
-339.92746 -300.27072 -7.4463692 0
-332.3873 -292.9559 -7.4812799 0
-332.58923 -292.3002 -7.4187512 0
-332.61255 -292.21301 -7.4453602 0
-349.71088 -258.82849 -7.4095755 0
-349.67609 -258.74872 -7.4150844 0
-349.43127 -258.43802 -7.4012175 0
-349.42416 -258.31842 -7.406178 0
-349.32181 -257.3725 -7.4728775 0
-349.56195 -257.14731 -7.4617739 0
-343.60623 -254.82323 -7.4765987 0
-338.16199 -252.8772 -7.4774475 0
-338.51544 -349.2374 -7.3902173 0
-340.34256 -348.95627 -7.3957601 0
-342.06668 -346.16867 -7.3489995 0
-339.87164 -327.47116 -7.3642797 0
-338.04959 -319.59399 -7.3598027 0
-338.12054 -318.86356 -7.3457894 0
-349.38736 -307.29318 -7.3072939 0
-349.29938 -307.1095 -7.3458962 0
-349.01099 -306.86749 -7.3849092 0
-338.07071 -303.27408 -7.3513117 0
-337.99963 -303.13705 -7.3418622 0
-339.95328 -301.4827 -7.3832288 0
-339.25949 -301.18015 -7.3632245 0
-339.51929 -300.68591 -7.3611608 0
-331.32468 -294.00476 -7.3801379 0
-348.88611 -258.11172 -7.3994684 0
-349.02634 -257.97009 -7.3732224 0
-349.5451 -257.15182 -7.363637 0
-346.15112 -257.07697 -7.3248205 0
-346.04398 -256.97394 -7.3926058 0
-343.41476 -255.5517 -7.3758659 0
-342.98108 -255.06448 -7.3269072 0
-343.086 -254.2323 -7.3217692 0
-341.08459 -348.7388 -7.287209 0
-341.57196 -348.25009 -7.2117367 0
-342.33136 -346.15231 -7.2339101 0
-341.97562 -346.17584 -7.2057014 0
-341.76718 -345.73428 -7.2908897 0
-337.78708 -320.09717 -7.2930036 0
-338.14249 -319.24542 -7.2202296 0
-349.1011 -307.04156 -7.2170029 0
-349.09579 -307.00113 -7.2690072 0
-337.36829 -302.09985 -7.2064195 0
-338.77301 -301.75247 -7.2328887 0
-339.33496 -301.30969 -7.2975211 0
-339.26093 -301.16162 -7.2882156 0
-339.09787 -301.03622 -7.266376 0
-339.6127 -300.59512 -7.2737093 0
-339.85812 -300.45938 -7.2964716 0
-339.26205 -300.49512 -7.2795124 0
-339.22449 -300.3526 -7.2042336 0
-340.07062 -300.05612 -7.2927518 0
-331.40018 -290.80096 -7.2854996 0
-340.65982 -349.46738 -7.1405029 0
-341.09302 -348.46384 -7.1311226 0
-342.22229 -346.07742 -7.1733689 0
-341.69492 -346.02359 -7.1991491 0
-341.30722 -346.07651 -7.1308904 0
-348.96616 -306.67453 -7.1971831 0
-332.79459 -304.66202 -7.1953459 0
-338.03159 -302.8689 -7.1803255 0
-338.04041 -302.72369 -7.1831999 0
-339.2153 -300.80927 -7.1033263 0
-338.87891 -300.76172 -7.1865478 0
-332.35025 -292.97418 -7.1457853 0
-331.4306 -290.76917 -7.1954021 0
-349.64343 -258.38025 -7.1172523 0
-344.78732 -257.00629 -7.1546097 0
-344.67526 -256.76154 -7.1436553 0
-340.62891 -349.84189 -7.0641599 0
-342.16669 -346.50662 -7.088563 0
-342.30319 -346.14417 -7.0911932 0
-341.52374 -344.88614 -7.0736103 0
-340.84851 -344.59525 -7.0507169 0
-339.00003 -327.60086 -7.0848522 0
-316.27948 -311.24472 -7.0779581 0
-315.74991 -310.33618 -7.092185 0
-337.31116 -302.45288 -7.0895615 0
-338.91669 -302.08395 -7.0636477 0
-338.97083 -301.57449 -7.0213337 0
-339.39651 -300.53101 -7.0797153 0
-348.74606 -258.85321 -7.0992069 0
-343.59213 -254.3566 -7.0513802 0
-343.40619 -254.34027 -7.0827823 0
-340.76279 -349.7157 -6.9495306 0
-341.396 -347.71738 -6.970099 0
-342.15585 -345.8645 -6.9442725 0
-327.73145 -336.65552 -6.9156389 0
-339.57986 -327.60654 -6.9409227 0
-338.048 -319.13458 -6.9230175 0
-339.10281 -300.9686 -6.913734 0
-339.18155 -300.57999 -6.9466252 0
-338.71094 -300.48721 -6.9642735 0
-338.73267 -298.94629 -6.9548731 0
-349.13278 -258.02567 -6.978828 0
-349.02475 -257.58755 -6.9686646 0
-342.9025 -254.21408 -6.9609528 0
-342.8074 -253.79773 -6.9558887 0
-340.68069 -349.88953 -6.8661008 0
-340.83313 -347.99408 -6.8016129 0
-338.92255 -343.84402 -6.8653121 0
-338.09149 -301.68753 -6.8096404 0
-348.68832 -258.77661 -6.8422256 0
-348.8454 -258.38928 -6.8326888 0
-340.26297 -349.19675 -6.7209558 0
-341.32996 -347.30048 -6.795033 0
-339.65759 -327.64227 -6.7531962 0
-339.18692 -300.7709 -6.7128849 0
-331.63919 -293.12552 -6.765316 0
-320.1832 -280.29834 -6.7748442 0
-348.98877 -257.03592 -6.7616429 0
-338.71033 -254.65578 -6.7194786 0
-339.0174 -253.77608 -6.7834635 0
-342.0058 -347.99344 -6.6516423 0
-333.03247 -303.12665 -6.6539731 0
-343.21967 -254.19389 -6.6311731 0
-338.74246 -349.73151 -6.5029616 0
-342.04965 -347.35016 -6.5109911 0
-341.6799 -347.26782 -6.5239811 0
-349.34589 -257.39886 -6.5931125 0
-339.11353 -254.04364 -6.5989738 0
-341.02481 -347.88498 -6.4483681 0
-340.47433 -347.71167 -6.4405823 0
-341.09024 -346.01285 -6.4375534 0
-341.55606 -345.64334 -6.4231048 0
-339.19208 -326.86411 -6.4694629 0
-338.53619 -300.23514 -6.4353757 0
-320.48563 -278.99112 -6.4609823 0
-340.02414 -349.78299 -6.3838534 0
-339.83112 -348.52136 -6.3990932 0
-341.37613 -346.57422 -6.3699269 0
-341.36481 -345.40616 -6.3686395 0
-320.12149 -279.98941 -6.3440399 0
-348.72934 -258.05634 -6.3637214 0
-341.80011 -347.27408 -6.2707324 0
-341.48807 -346.47324 -6.2339754 0
-339.79031 -344.14511 -6.2827892 0
-340.07648 -344.09042 -6.2238393 0
-318.90756 -282.12106 -6.2636647 0
-348.74124 -258.0993 -6.2337499 0
-340.21201 -348.60828 -6.1442423 0
-341.73984 -347.02271 -6.1780763 0
-340.78589 -345.36215 -6.1403847 0
-341.11801 -344.99307 -6.1828084 0
-338.66925 -301.19434 -6.1960011 0
-339.40399 -349.729 -6.0196123 0
-341.66653 -347.77234 -6.0524559 0
-341.6207 -347.50912 -6.05651 0
-341.62045 -347.31 -6.0017772 0
-341.33847 -347.07922 -6.030684 0
-340.84698 -346.09906 -6.040987 0
-341.06497 -344.99954 -6.052804 0
-340.56155 -348.30368 -5.9394035 0
-341.63239 -347.59128 -5.9444785 0
-341.36688 -347.04449 -5.993145 0
-341.04794 -346.32739 -5.9835973 0
-341.08139 -346.12613 -5.9410977 0
-340.61398 -345.74152 -5.9003468 0
-341.2717 -345.37369 -5.9687085 0
-341.2157 -345.11725 -5.9415646 0
-339.91687 -349.83798 -5.8255701 0
-338.41904 -348.5354 -5.8412066 0
-340.59756 -348.22751 -5.8579521 0
-341.09335 -347.33008 -5.8229518 0
-340.95871 -346.1778 -5.8667245 0
-339.46725 -344.13733 -5.8099298 0
-340.2468 -347.79922 -5.7256355 0
-339.9906 -344.77106 -5.7591887 0
-341.55649 -347.47052 -5.64219 0
-339.69443 -344.04941 -5.6961675 0
-341.28876 -347.71609 -5.5886655 0
-339.67346 -345.17984 -5.5150566 0
-339.90063 -344.93817 -5.5295348 0
-339.72223 -349.79761 -5.4168487 0
-340.58328 -347.52127 -5.4003096 0
-341.01367 -347.21048 -5.4149051 0
-340.98315 -347.12061 -5.4549289 0
-340.79529 -346.86414 -5.4340997 0
-340.21793 -346.71637 -5.4552364 0
-348.59937 -258.2352 -5.4448042 0
-339.05069 -349.37515 -5.3370194 0
-340.46161 -347.62494 -5.3979959 0
-341.10806 -347.02914 -5.3633647 0
-341.09808 -347.00739 -5.3552055 0
-339.81766 -349.68521 -5.2289338 0
-339.03995 -348.01718 -5.2785554 0
-341.07825 -346.62109 -5.2491641 0
-340.87042 -345.65701 -5.2873735 0
-348.72549 -258.02112 -5.2628746 0
-339.68539 -344.63113 -5.1248555 0
-340.5321 -347.73813 -5.0324984 0
-341.14032 -346.86844 -5.0434766 0
-341.16156 -346.79819 -5.0475731 0
-340.92459 -347.19077 -4.9586291 0
-340.69595 -347.69342 -4.8982015 0
-339.76968 -346.70346 -4.8443542 0
-340.52847 -347.3038 -4.7012086 0
-329.60092 -338.56628 -4.3396611 0
-338.34436 -345.86584 -4.237257 0
-319.27557 -316.21582 -4.0386701 0
-326.49152 -331.46674 -3.658042 0
-325.84561 -335.42462 -2.2301233 0
