# .PCD v0.7 - Point Cloud Data file format
VERSION 0.7
FIELDS x y z intensity
SIZE 4 4 4 4
TYPE F F F F
COUNT 1 1 1 1
WIDTH 1830
HEIGHT 1
VIEWPOINT 0 0 0 1 0 0 0
POINTS 1830
DATA ascii
-347.40909 50.064838 -4.2221375 0
-348.71909 50.272362 -4.2388625 0
-344.30728 50.167789 -4.1994209 0
-344.68414 50.373024 -4.171124 0
-344.03094 50.580078 -4.1015768 0
-347.4375 50.645596 -4.1518912 0
-347.33749 50.721001 -4.1522737 0
-344.16827 51.036419 -4.1723952 0
-349.29544 51.246029 -4.1054063 0
-349.51114 51.488918 -4.1192789 0
-349.63428 51.55706 -4.1061397 0
-348.09146 51.519432 -4.1899257 0
-347.56619 51.538223 -4.1891627 0
-348.03107 51.664371 -4.1877227 0
-347.94586 51.739086 -4.1840186 0
-347.86075 51.758873 -4.1830597 0
-344.21783 50.049442 -4.0867491 0
-338.6167 50.057793 -4.0171075 0
-344.2514 50.173309 -4.0853362 0
-343.81345 50.185646 -4.0957651 0
-342.9317 50.108028 -4.0714984 0
-342.00745 50.196579 -4.0742559 0
-344.31372 50.25975 -4.0840364 0
-344.08524 50.245304 -4.0880027 0
-343.99796 50.203857 -4.0879712 0
-342.4458 50.239731 -4.0074353 0
-344.36957 50.3606 -4.0776577 0
-343.69788 50.391159 -4.0420432 0
-342.54538 50.347256 -4.0055966 0
-343.88513 50.429886 -4.0459027 0
-343.7673 50.466381 -4.0442567 0
-343.44736 50.463093 -4.0334091 0
-343.00641 50.471016 -4.0205121 0
-342.90723 50.458767 -4.0185604 0
-342.59225 50.455887 -4.0078201 0
-349.37796 50.542305 -4.0906982 0
-343.48996 50.56139 -4.0354233 0
-343.1532 50.581932 -4.0245738 0
-343.07083 50.54586 -4.0226264 0
-342.75275 50.51767 -4.0114999 0
-342.64746 50.520012 -4.009624 0
-341.19681 50.524979 -4.0282855 0
-344.32474 50.672764 -4.0701547 0
-343.85724 50.668381 -4.0433846 0
-343.22983 50.627605 -4.0265393 0
-341.11099 50.664787 -4.0419192 0
-344.32333 50.898705 -4.0630932 0
-341.69919 50.857079 -4.0389767 0
-349.97385 50.985947 -4.0930758 0
-343.98322 50.988194 -4.0496316 0
-343.84335 50.952984 -4.0416875 0
-343.22061 50.990349 -4.0320516 0
-338.34216 50.915184 -4.0268888 0
-344.32523 51.08271 -4.0489016 0
-344.03128 51.08194 -4.0466595 0
-349.18234 51.196739 -4.0724206 0
-344.18301 51.193233 -4.0507679 0
-344.08386 51.180977 -4.04884 0
-343.17642 51.166626 -4.0856037 0
-342.7276 51.104603 -4.0601759 0
-344.52509 51.320221 -4.0526075 0
-344.43018 51.31097 -4.0484538 0
-344.34976 51.308182 -4.0491276 0
-344.20157 51.344894 -4.0529957 0
-341.44119 51.397476 -4.0158334 0
-345.63004 51.495594 -4.0777755 0
-345.5527 51.45488 -4.0778584 0
-344.88058 51.429558 -4.0712066 0
-344.76321 51.461117 -4.0645008 0
-344.65289 51.463142 -4.0540118 0
-344.56335 51.453072 -4.0534744 0
-344.4776 51.400135 -4.0586219 0
-344.21103 51.485897 -4.0499158 0
-347.30243 51.588406 -4.0686979 0
-344.84726 51.562477 -4.0428171 0
-344.72229 51.52523 -4.0441542 0
-344.30905 51.513119 -4.0520158 0
-347.72849 51.653503 -4.0515757 0
-346.94055 51.686317 -4.0864224 0
-345.12094 51.679462 -4.0395765 0
-344.97626 51.610153 -4.0413561 0
-345.36163 51.798252 -4.0365944 0
-345.24008 51.751301 -4.0379801 0
-345.02319 51.700127 -4.0401635 0
-345.43774 51.845825 -4.0355625 0
-345.55215 51.914692 -4.0340385 0
-346.00598 52.07169 -4.0290713 0
-342.5434 52.048748 -4.0589213 0
-349.9187 52.103077 -4.0641103 0
-346.78922 52.183876 -4.0863557 0
-341.82751 52.197636 -4.0486054 0
-346.03622 52.230331 -4.0224004 0
-340.68262 52.211166 -4.027823 0
-342.96936 52.304573 -4.0650029 0
-348.22513 52.498215 -4.0279813 0
-343.03149 52.490776 -4.093297 0
-340.93896 52.554596 -4.0271206 0
-346.69424 52.644459 -4.0226603 0
-343.3215 52.666893 -4.0627975 0
-346.42139 52.884109 -4.0508108 0
-346.26678 53.283081 -4.035531 0
-343.2908 53.590786 -4.0508647 0
-342.17111 50.40015 -3.9944811 0
-343.23276 51.300064 -3.9370604 0
-343.53784 51.781551 -3.997319 0
-341.20929 51.708916 -3.9878335 0
-340.73877 52.084217 -3.9503744 0
-340.93604 52.26516 -3.9583015 0
-340.54178 52.347977 -3.9530787 0
-340.75632 52.483543 -3.9385936 0
-338.93777 52.45443 -3.991329 0
-343.22214 53.03764 -3.9368834 0
-338.75046 53.06216 -3.9123867 0
-346.47067 53.387894 -3.9616902 0
-339.54749 53.681702 -3.9055393 0
-346.11099 53.773743 -3.955965 0
-346.2901 53.986534 -3.9435303 0
-345.83414 54.713619 -3.9002795 0
-349.71777 55.074852 -3.9237471 0
-329.73813 51.623409 -3.8289187 0
-328.07428 51.954376 -3.8082182 0
-331.37854 52.713097 -3.8662713 0
-331.44739 52.803867 -3.8665173 0
-331.67938 53.036507 -3.8682945 0
-331.5242 53.054649 -3.8648632 0
-331.39459 53.028111 -3.8625488 0
-331.76849 53.102535 -3.8692765 0
-342.08478 53.29528 -3.8808079 0
-341.74075 53.317314 -3.8950162 0
-341.89859 53.519691 -3.8556464 0
-329.92664 53.595036 -3.8332283 0
-341.53784 53.689919 -3.8496075 0
-329.3732 53.759804 -3.8732269 0
-347.48642 54.135399 -3.8970826 0
-345.78772 54.359489 -3.891391 0
-340.91925 54.351269 -3.8735189 0
-340.02005 54.35548 -3.8674557 0
-339.89563 54.39724 -3.8484223 0
-327.94595 54.475895 -3.801851 0
-340.2016 54.950626 -3.8156924 0
-337.14365 55.143509 -3.8494234 0
-330.63 55.133255 -3.8001633 0
-339.47958 55.279728 -3.8075402 0
-337.51172 55.312386 -3.8466277 0
-331.14072 55.301327 -3.8469377 0
-335.75427 55.607048 -3.8370852 0
-332.81577 56.599678 -3.8402712 0
-344.37128 57.65831 -3.8126469 0
-344.28085 57.797745 -3.8095863 0
-327.02963 51.552292 -3.7920926 0
-326.95581 51.707935 -3.7299273 0
-341.42068 52.855286 -3.7829199 0
-325.44769 52.821953 -3.7335832 0
-328.01581 53.297997 -3.723886 0
-328.59967 53.396725 -3.7175858 0
-342.56659 54.5891 -3.7883177 0
-331.52924 54.540405 -3.7593408 0
-330.81091 54.637989 -3.7797894 0
-326.43253 54.643715 -3.7294078 0
-333.44476 54.858929 -3.7545271 0
-339.30997 55.485676 -3.7836344 0
-339.29059 55.481247 -3.7789471 0
-327.68817 55.536133 -3.7054667 0
-339.15732 55.607639 -3.7689579 0
-334.80048 55.676228 -3.7276287 0
-330.63245 55.693184 -3.721251 0
-330.00784 55.621296 -3.7078426 0
-333.66772 55.700142 -3.7202187 0
-330.51328 55.761284 -3.7851694 0
-329.87061 55.738194 -3.7999897 0
-337.9541 55.832962 -3.7988703 0
-340.94797 55.965202 -3.7330737 0
-345.20245 56.198135 -3.735446 0
-329.80536 56.378536 -3.7189534 0
-327.97583 56.578636 -3.7307405 0
-329.74692 56.629917 -3.7388253 0
-338.66006 56.700035 -3.7152758 0
-335.242 56.930271 -3.7504597 0
-334.76984 56.993088 -3.7128825 0
-331.13528 56.927773 -3.7097685 0
-330.54163 56.946854 -3.7881424 0
-331.14276 57.191227 -3.7992265 0
-344.89713 57.296028 -3.7186465 0
-333.94879 57.280426 -3.7292502 0
-333.32135 57.401756 -3.7212727 0
-349.77618 59.341045 -3.7895939 0
-349.43329 59.811657 -3.7439017 0
-348.17215 60.066063 -3.7343321 0
-344.32828 60.108604 -3.7217658 0
-346.3288 61.153202 -3.7291536 0
-346.33377 62.336761 -3.7097127 0
-324.64499 50.103508 -3.6997554 0
-325.29053 52.8465 -3.6169238 0
-323.32245 53.052399 -3.6122465 0
-324.1669 53.857231 -3.6375792 0
-325.52579 53.9459 -3.6086249 0
-326.20645 54.169868 -3.6233006 0
-329.26508 54.697971 -3.630466 0
-327.90289 54.9342 -3.6580076 0
-324.69925 54.921646 -3.6526425 0
-329.62387 55.023468 -3.6662009 0
-337.96756 55.280361 -3.6643913 0
-337.85663 55.285538 -3.6671941 0
-328.61737 55.274216 -3.6734934 0
-337.14267 55.562435 -3.6641505 0
-335.74973 55.601551 -3.6850007 0
-325.07605 55.640987 -3.6609194 0
-331.79794 56.052231 -3.6102147 0
-340.17172 56.204502 -3.6996531 0
-329.86157 56.36396 -3.6734898 0
-332.97891 56.546032 -3.6656847 0
-329.57251 56.729656 -3.6987393 0
-331.89273 56.81802 -3.6295221 0
-338.44833 56.965538 -3.6932507 0
-338.2739 57.122269 -3.6720436 0
-335.46548 57.210518 -3.6468232 0
-338.02393 57.549011 -3.6408708 0
-331.10794 57.558773 -3.6943891 0
-337.77356 57.896389 -3.6169183 0
-331.9664 57.829052 -3.6480227 0
-343.85446 58.75032 -3.689579 0
-344.19565 58.818577 -3.6204703 0
-349.89273 59.702637 -3.6095161 0
-323.9577 51.581177 -3.5551414 0
-328.29449 55.396915 -3.5677819 0
-330.49478 56.641735 -3.5821242 0
-340.59491 56.730129 -3.5856206 0
-338.11713 56.894413 -3.5303359 0
-339.58994 57.204258 -3.5727031 0
-338.5394 57.435947 -3.5629051 0
-337.48956 57.699909 -3.555747 0
-336.77524 57.841099 -3.5651283 0
-336.42114 57.855968 -3.5566468 0
-335.34692 57.958015 -3.5565445 0
-330.25128 57.971611 -3.5566726 0
-337.54764 58.220406 -3.5901601 0
-337.37137 58.397636 -3.5694616 0
-339.59744 58.510033 -3.5001898 0
-340.11346 58.613373 -3.5813024 0
-333.91769 58.625469 -3.559124 0
-338.90771 58.744808 -3.5676126 0
-334.10126 58.788933 -3.5470269 0
-334.19662 58.855896 -3.5415037 0
-334.04544 58.895542 -3.5193329 0
-330.33466 58.835487 -3.5018227 0
-340.77979 58.91544 -3.5454419 0
-338.24548 58.982697 -3.5493734 0
-332.7637 58.988335 -3.5763907 0
-339.40445 59.211853 -3.555805 0
-346.13864 59.349606 -3.5362978 0
-336.88577 59.361858 -3.5177691 0
-345.30511 59.810478 -3.518117 0
-345.33722 60.055218 -3.5349541 0
-336.90665 60.385006 -3.5854285 0
-349.46271 60.876919 -3.5168998 0
-348.3797 60.878674 -3.5638244 0
-348.16681 60.829372 -3.5085287 0
-319.26053 50.439102 -3.4057407 0
-322.14835 50.638763 -3.4311013 0
-322.17639 50.774601 -3.4449968 0
-322.10037 50.827431 -3.4028716 0
-322.20239 50.911682 -3.4393232 0
-320.2525 51.709396 -3.4482317 0
-326.29691 57.164955 -3.4431906 0
-339.93451 58.502277 -3.4919832 0
-330.47168 59.304096 -3.4671865 0
-336.75006 59.420849 -3.4979603 0
-336.61212 59.484383 -3.4830749 0
-330.64664 59.755898 -3.4345586 0
-336.34485 59.85231 -3.4527037 0
-335.15778 60.04195 -3.4642551 0
-334.70245 60.0994 -3.4746511 0
-336.10623 60.18251 -3.4245908 0
-335.01978 60.147243 -3.4636838 0
-334.80814 60.162094 -3.4690273 0
-347.24088 60.201649 -3.4659524 0
-334.89502 60.208405 -3.4646118 0
-346.45319 60.308968 -3.4830775 0
-345.90747 60.33498 -3.402935 0
-335.27469 60.333088 -3.4657526 0
-345.19583 60.528572 -3.4209392 0
-344.09421 60.61581 -3.4261549 0
-346.33664 60.708199 -3.4186332 0
-346.05875 60.805798 -3.4254544 0
-347.42239 61.061356 -3.4686136 0
-349.10944 61.366974 -3.4983635 0
-324.33353 61.322353 -3.4191496 0
-346.61157 61.536682 -3.4567258 0
-348.88312 62.220406 -3.4723172 0
-346.42487 62.373268 -3.4226718 0
-330.45377 63.499485 -3.4050486 0
-320.52042 51.464111 -3.3420699 0
-320.96005 53.89035 -3.3014352 0
-322.19263 53.945396 -3.3145168 0
-336.34216 58.535744 -3.3885639 0
-328.46545 58.76556 -3.3046279 0
-334.12732 58.831913 -3.3206306 0
-329.39346 58.833942 -3.3901215 0
-337.31662 59.767246 -3.3995321 0
-334.93692 60.242775 -3.3230457 0
-336.19943 60.311546 -3.3805075 0
-345.28543 60.504543 -3.3719716 0
-329.5108 60.572315 -3.3665674 0
-345.45459 60.668686 -3.3753099 0
-336.56168 60.793915 -3.3930016 0
-343.93924 61.240177 -3.3012247 0
-344.16412 61.304661 -3.3103797 0
-337.57648 61.382645 -3.3396742 0
-349.22845 61.448322 -3.3290069 0
-330.1637 61.492527 -3.3436074 0
-342.56598 62.084728 -3.3649158 0
-348.15256 62.688484 -3.3403981 0
-347.95792 63.332603 -3.3135319 0
-347.82828 63.555542 -3.303561 0
-342.70538 63.865501 -3.3635418 0
-342.78317 65.484627 -3.3079953 0
-319.03784 52.139797 -3.2462223 0
-322.54889 56.816246 -3.2073271 0
-333.88538 58.773102 -3.2136836 0
-334.11569 58.850338 -3.2715747 0
-336.01004 59.810795 -3.2200367 0
-335.83545 59.9459 -3.2108784 0
-335.54868 60.046246 -3.205812 0
-335.63025 60.121792 -3.2007184 0
-337.47043 60.670208 -3.2666388 0
-328.48465 61.867203 -3.2934873 0
-334.95972 62.177387 -3.2967663 0
-331.03552 62.241737 -3.2589755 0
-326.86362 62.719303 -3.2345109 0
-325.88156 62.945538 -3.2011478 0
-347.00467 63.781933 -3.2927186 0
-322.91797 63.955769 -3.2033114 0
-349.16446 65.120255 -3.22421 0
-335.33591 60.295982 -3.1895204 0
-326.37064 61.970951 -3.1720273 0
-335.42667 62.186623 -3.1508741 0
-335.13992 62.377762 -3.1376901 0
-334.91586 62.464169 -3.1251819 0
-334.63004 62.665371 -3.1072106 0
-325.28891 62.639412 -3.1977928 0
-343.86276 64.055984 -3.1547115 0
-343.69821 64.095444 -3.1500878 0
-343.98886 64.10318 -3.1534522 0
-344.03714 64.228264 -3.146539 0
-344.13904 64.318344 -3.1448586 0
-331.42566 64.351494 -3.1074822 0
-320.46091 53.436241 -3.0794785 0
-322.47882 57.734798 -3.0448995 0
-322.51895 59.448647 -3.0819268 0
-323.96469 61.503914 -3.0381393 0
-327.98157 61.67609 -3.0799546 0
-324.02365 61.675209 -3.035682 0
-328.0889 61.761616 -3.0782773 0
-327.97562 61.74411 -3.0781555 0
-325.60718 61.900856 -3.0638168 0
-324.25717 62.068958 -3.0294285 0
-330.7692 62.378178 -3.01759 0
-333.04819 62.585976 -3.0576482 0
-334.38458 62.803436 -3.0947611 0
-334.02539 63.100113 -3.0755081 0
-332.12076 63.434746 -3.0604694 0
-331.09735 64.660927 -3.0955291 0
-347.98752 67.324554 -3.0685041 0
-322.20377 57.709583 -2.9128208 0
-323.65244 63.200336 -2.9505844 0
-346.74789 70.113808 -2.9118953 0
-334.03824 58.737896 -2.8681612 0
-322.85007 61.205044 -2.8751581 0
-324.07004 62.881054 -2.8495672 0
-326.84628 64.223289 -2.8628547 0
-335.09042 68.072693 -2.8605521 0
-334.95782 68.070808 -2.837887 0
-334.27234 68.458527 -2.8392799 0
-334.37021 68.536812 -2.8435853 0
-326.55396 70.4095 -2.8548279 0
-340.57138 72.260666 -2.8157871 0
-305.69431 51.793835 -2.7253366 0
-337.43607 67.519638 -2.7869527 0
-334.90536 68.119255 -2.7638085 0
-334.26379 68.239944 -2.7144225 0
-333.23874 68.567497 -2.7625096 0
-333.50168 68.606659 -2.7848225 0
-333.36823 68.638092 -2.782326 0
-337.05051 68.729958 -2.7506392 0
-333.25757 68.74144 -2.7380021 0
-337.14111 68.865089 -2.736737 0
-322.02289 50.915283 -2.6278212 0
-313.55646 52.633938 -2.6984181 0
-314.14478 52.799057 -2.662447 0
-314.07013 52.72398 -2.6704664 0
-305.46918 54.28688 -2.6030843 0
-322.43619 57.816738 -2.661962 0
-335.09903 68.085609 -2.664607 0
-334.30194 68.199158 -2.637722 0
-337.10693 69.546089 -2.6948814 0
-346.9892 72.284142 -2.6186249 0
-346.86026 72.264915 -2.6229753 0
-305.77832 51.082424 -2.5028143 0
-305.55475 51.062435 -2.5771909 0
-305.57523 52.332851 -2.5915833 0
-333.91248 58.649498 -2.5397248 0
-334.03656 58.755634 -2.5644028 0
-305.66968 50.296635 -2.4528718 0
-305.6322 50.940224 -2.4433932 0
-305.74362 52.003555 -2.480243 0
-314.09653 52.840729 -2.4589791 0
-305.77762 53.385517 -2.4887064 0
-305.74985 54.111717 -2.4365652 0
-305.67157 54.445538 -2.417536 0
-322.26459 57.694702 -2.4031377 0
-328.01804 61.73019 -2.4764841 0
-334.56604 68.275581 -2.4509368 0
-333.13528 68.297432 -2.4956424 0
-334.52847 68.36319 -2.4731088 0
-305.94632 51.051208 -2.37745 0
-305.69009 51.06818 -2.3271649 0
-305.90134 51.711838 -2.3657465 0
-305.73099 55.073048 -2.3603215 0
-305.65094 56.180279 -2.3744683 0
-305.58792 57.972607 -2.3236041 0
-334.00958 58.750286 -2.3926327 0
-311.90421 65.80867 -2.3681557 0
-336.88672 68.036896 -2.3883786 0
-336.00467 68.133102 -2.3906827 0
-336.02527 68.63472 -2.3673303 0
-335.88217 68.667831 -2.3665771 0
-336.10559 68.891396 -2.31144 0
-305.77344 51.178112 -2.2172291 0
-314.01151 52.841049 -2.2342105 0
-305.69516 56.808495 -2.2287683 0
-332.77808 57.889679 -2.2221773 0
-333.85785 58.517681 -2.2031577 0
-334.10831 58.782467 -2.2113185 0
-305.41452 64.566017 -2.2186365 0
-321.22116 71.553497 -2.2862079 0
-336.48062 72.410828 -2.272563 0
-307.59393 50.055847 -2.1552329 0
-307.43958 52.153473 -2.1487477 0
-313.94559 52.71711 -2.1356437 0
-305.63248 54.403263 -2.137934 0
-305.60968 55.171455 -2.168401 0
-322.34122 57.660397 -2.1477997 0
-322.21683 57.735466 -2.1374626 0
-322.19629 57.756447 -2.1566968 0
-305.66321 58.422993 -2.1092007 0
-327.89377 61.6469 -2.1010377 0
-321.25888 71.600189 -2.1606722 0
-336.31494 72.729904 -2.1047525 0
-336.40283 73.146606 -2.1256206 0
-305.76202 50.204506 -2.081485 0
-323.56287 50.687687 -2.0555897 0
-305.73849 50.770119 -2.0112491 0
-305.73315 51.143074 -2.0113487 0
-305.82022 51.311329 -2.0808535 0
-305.69485 51.32819 -2.0132725 0
-307.55246 52.17955 -2.0341651 0
-305.81506 52.15707 -2.0213141 0
-305.68729 52.392822 -2.0577669 0
-305.66309 52.496784 -2.0179214 0
-305.67816 52.855286 -2.0177743 0
-307.56973 53.042305 -2.0464368 0
-307.4993 53.106514 -2.0860958 0
-307.56299 53.386227 -2.0151088 0
-305.61908 54.89006 -2.0263612 0
-305.69104 55.382511 -2.0679591 0
-305.66254 55.991295 -2.0167899 0
-305.55786 56.575916 -2.0308952 0
-334.12378 58.729816 -2.0396309 0
-305.47931 58.963352 -2.0327561 0
-327.98688 61.745338 -2.0103931 0
-305.30664 64.986115 -2.0274827 0
-347.35342 72.275261 -2.0268474 0
-336.38287 72.382225 -2.0606058 0
-334.63937 78.804436 -2.096437 0
-324.64716 50.465149 -1.9132853 0
-307.55603 50.452011 -1.9299903 0
-323.4939 50.716663 -1.974112 0
-307.50015 50.712463 -1.953063 0
-322.12204 50.881252 -1.9225979 0
-305.71997 50.804443 -1.9934667 0
-307.60489 50.947155 -1.9402895 0
-307.56061 51.117897 -1.9101856 0
-307.58353 51.615772 -1.9915137 0
-307.60739 52.459991 -1.945137 0
-314.01978 52.885445 -1.9294506 0
-307.59772 52.819244 -1.919531 0
-307.53427 54.483582 -1.9274182 0
-332.85413 57.989799 -1.9911849 0
-328.99911 58.951191 -1.9889754 0
-305.60281 60.128319 -1.9798856 0
-316.58368 64.877129 -1.9779768 0
-305.68683 68.417778 -1.947443 0
-347.12869 72.281425 -1.9454161 0
-347.01465 72.263771 -1.9321979 0
-335.92673 82.905281 -1.9059573 0
-307.73199 51.004833 -1.8532453 0
-307.59598 51.376041 -1.8923103 0
-307.51547 51.636326 -1.8872201 0
-307.69629 51.913403 -1.8252729 0
-313.84335 52.654114 -1.8552494 0
-307.55646 52.931408 -1.8066989 0
-307.51959 53.045395 -1.8464688 0
-307.60367 53.176529 -1.8991445 0
-307.51102 53.735809 -1.8665509 0
-307.55457 54.530785 -1.8204021 0
-307.55228 54.854797 -1.8458565 0
-307.49396 55.829479 -1.8835355 0
-305.62009 55.903908 -1.8980801 0
-305.63632 56.095367 -1.8896502 0
-333.98468 57.034164 -1.8588884 0
-307.46716 57.655567 -1.8248913 0
-322.41687 57.813232 -1.8580856 0
-311.85626 65.752991 -1.8296975 0
-307.61267 50.808445 -1.7294222 0
-307.54642 51.572189 -1.7308947 0
-307.71179 53.132298 -1.7942128 0
-307.50317 53.929394 -1.7272416 0
-307.52939 55.894302 -1.7364519 0
-333.99896 57.003357 -1.7908684 0
-322.47159 57.824852 -1.7600397 0
-334.18134 58.57341 -1.7554666 0
-328.49969 58.707596 -1.7453635 0
-335.42719 59.493168 -1.7034602 0
-329.43402 59.557838 -1.7379445 0
-329.23636 59.631969 -1.7553349 0
-322.00781 50.813759 -1.6286532 0
-307.46814 52.131325 -1.6608527 0
-307.5715 52.22937 -1.6959107 0
-307.51285 52.482979 -1.654242 0
-307.49725 52.861259 -1.6086168 0
-307.54974 53.437576 -1.6491619 0
-307.54395 56.418449 -1.6906072 0
-334.01312 56.734615 -1.6589857 0
-335.35696 57.281609 -1.6534685 0
-307.51462 57.255161 -1.6320858 0
-334.14615 58.44265 -1.6225562 0
-307.43564 59.366264 -1.6669065 0
-307.29776 61.618839 -1.6247418 0
-327.98889 61.710442 -1.6282315 0
-316.4313 64.74514 -1.6385047 0
-307.12073 69.426201 -1.6583638 0
-346.9024 72.322357 -1.6914859 0
-307.55029 50.587959 -1.5097013 0
-307.50967 51.536098 -1.5445318 0
-313.87723 52.702702 -1.5170395 0
-334.03574 56.66357 -1.5617316 0
-335.51459 57.326077 -1.5523072 0
-332.7933 58.094688 -1.5182899 0
-335.6636 58.199917 -1.5881348 0
-335.11169 58.103504 -1.5346336 0
-335.89246 58.565239 -1.5565885 0
-307.39975 58.651165 -1.5338277 0
-307.41864 59.036739 -1.5404235 0
-307.41388 59.67664 -1.5028739 0
-326.67093 59.809216 -1.5928248 0
-307.30804 62.458626 -1.5852152 0
-330.86911 63.841652 -1.5586058 0
-316.35815 64.681664 -1.5987526 0
-307.24417 64.634758 -1.5299859 0
-347.04349 72.295685 -1.5801181 0
-307.57465 50.581249 -1.454657 0
-307.40393 55.597237 -1.4816235 0
-307.46796 56.750767 -1.4134061 0
-334.34631 57.04026 -1.4900762 0
-333.39551 57.050182 -1.4117087 0
-332.62656 57.746014 -1.4439725 0
-333.66171 57.813286 -1.44364 0
-332.16531 58.057198 -1.4774748 0
-332.60565 58.15332 -1.4720002 0
-307.36353 59.659962 -1.441725 0
-307.4447 59.851513 -1.4416299 0
-330.68936 63.586109 -1.4153787 0
-329.26398 63.691502 -1.4061024 0
-307.21939 64.325256 -1.4991504 0
-306.98804 64.643593 -1.4891249 0
-321.2038 71.482506 -1.4827864 0
-325.0004 51.055538 -1.3750979 0
-307.3497 52.57336 -1.3155849 0
-307.27661 54.582592 -1.3464413 0
-333.84637 56.19709 -1.3296551 0
-334.1962 56.6549 -1.3076972 0
-334.50558 56.986542 -1.3534305 0
-333.4494 56.9189 -1.341583 0
-307.17789 57.064842 -1.3807036 0
-333.08133 57.367733 -1.3474058 0
-322.22641 57.581444 -1.3191463 0
-333.51852 57.696381 -1.3854382 0
-322.23709 57.663319 -1.3180084 0
-333.28067 57.765118 -1.3539337 0
-332.20035 57.713436 -1.3794041 0
-333.74051 57.900269 -1.3337721 0
-332.08786 57.99511 -1.3684505 0
-307.17175 58.041157 -1.3972989 0
-336.11969 58.296497 -1.3533084 0
-329.25394 58.984261 -1.3122933 0
-329.00214 59.084129 -1.3347666 0
-326.87396 59.365849 -1.3497708 0
-327.48703 59.625286 -1.3180842 0
-307.36884 61.708088 -1.3053197 0
-307.31757 62.85762 -1.34166 0
-314.10062 52.894981 -1.2885357 0
-313.99258 52.844696 -1.2845156 0
-307.43564 53.612095 -1.2273228 0
-333.22653 57.010296 -1.2894047 0
-332.70749 57.070702 -1.2900912 0
-332.62347 57.940517 -1.2252461 0
-307.37219 58.027149 -1.2592577 0
-307.39423 58.134624 -1.2848279 0
-307.37119 58.218018 -1.2534591 0
-335.86475 58.43568 -1.2460039 0
-331.67358 58.405209 -1.2154223 0
-307.38058 58.423485 -1.2530268 0
-307.36624 58.627991 -1.226467 0
-335.46448 58.704205 -1.2298855 0
-307.37946 58.825195 -1.2413107 0
-336.37604 58.931881 -1.2106359 0
-336.16425 58.952705 -1.2925473 0
-332.3349 58.943436 -1.2753962 0
-328.84808 59.153069 -1.2398348 0
-330.74652 61.762577 -1.2367793 0
-326.36316 63.701977 -1.2493279 0
-307.255 64.129532 -1.2222396 0
-307.4339 54.134491 -1.1786354 0
-324.93579 54.523407 -1.1239259 0
-323.29745 55.179878 -1.1723073 0
-334.22986 56.459995 -1.1872085 0
-334.25186 56.968575 -1.1415437 0
-335.57358 57.030651 -1.1823597 0
-335.6293 57.280426 -1.1958666 0
-322.50104 57.402351 -1.1555966 0
-332.2092 57.587242 -1.1573739 0
-332.39136 57.714916 -1.1152927 0
-322.55746 57.863289 -1.1177552 0
-336.47244 59.029568 -1.1265606 0
-335.04593 59.064743 -1.1840676 0
-329.61621 59.151627 -1.165998 0
-335.97974 59.307068 -1.1503227 0
-329.21765 60.145576 -1.1026347 0
-327.05408 60.257744 -1.1106561 0
-307.31479 60.765717 -1.1998214 0
-307.33121 60.826023 -1.1887895 0
-307.22739 61.670731 -1.1132998 0
-307.2485 62.128777 -1.1655338 0
-307.28278 62.323132 -1.1613042 0
-325.26065 62.485718 -1.1560224 0
-347.13571 72.318672 -1.120255 0
-346.83981 89.417374 -1.1413084 0
-322.06293 50.751938 -1.0437006 0
-316.74091 51.32198 -1.0408168 0
-324.25446 51.844486 -1.0721347 0
-307.54648 52.2402 -1.0121043 0
-323.42273 55.259884 -1.049049 0
-335.74649 57.096138 -1.0906998 0
-332.2084 57.548084 -1.0862037 0
-307.3559 58.242378 -1.0968221 0
-328.01379 58.84914 -1.0058517 0
-307.33194 58.881794 -1.0358614 0
-336.62888 59.01754 -1.099313 0
-329.75516 59.59161 -1.0536981 0
-329.71515 59.610756 -1.026145 0
-330.27155 59.928295 -1.0952985 0
-329.2847 60.083317 -1.0331101 0
-307.27219 60.702003 -1.0741348 0
-325.56213 61.005211 -1.0728438 0
-325.7164 61.123234 -1.0393802 0
-307.27722 61.569206 -1.0032986 0
-307.3288 62.48299 -1.0720699 0
-307.23312 64.620377 -1.0707494 0
-307.25333 65.8647 -1.0560257 0
-307.08514 68.644768 -1.0067215 0
-346.99518 72.2519 -1.0006276 0
-314.06848 52.762924 -0.90725482 0
-314.02615 52.862881 -0.97095698 0
-324.53842 54.375191 -0.97743499 0
-307.2308 55.369423 -0.91592956 0
-334.07233 56.981678 -0.94675422 0
-324.85153 56.928001 -0.94842154 0
-307.43106 56.910576 -0.96076065 0
-335.46017 57.4165 -0.91828793 0
-324.84247 57.707516 -0.92191148 0
-336.25406 58.668793 -0.98231566 0
-335.63773 58.705482 -0.95221668 0
-334.22223 58.819157 -0.91194516 0
-328.43814 59.284225 -0.99743593 0
-329.84381 59.551952 -0.93301642 0
-307.35794 59.595501 -0.95370013 0
-307.3461 59.799801 -0.95624536 0
-330.16193 60.087742 -0.9872514 0
-326.96817 60.654091 -0.9000864 0
-326.49106 60.607914 -0.95419651 0
-325.06671 60.737907 -0.97521073 0
-326.11475 60.880238 -0.94059682 0
-307.04553 68.448189 -0.95943272 0
-305.92374 68.441284 -0.93707913 0
-307.10876 73.226051 -0.94873065 0
-307.569 50.615623 -0.86089444 0
-307.53146 51.447964 -0.87134695 0
-307.50131 51.818958 -0.82417285 0
-307.51648 52.710972 -0.82347953 0
-314.02774 52.932507 -0.80308336 0
-307.43707 54.006733 -0.82158792 0
-307.45895 54.357979 -0.82537657 0
-307.46106 54.703754 -0.82700181 0
-307.29837 56.483498 -0.87558067 0
-324.67676 56.628719 -0.81344539 0
-325.15485 56.852497 -0.83031857 0
-325.24081 57.108925 -0.81250089 0
-334.44601 57.265255 -0.82236624 0
-332.44888 57.650841 -0.82703561 0
-336.40344 59.04752 -0.87058586 0
-328.54034 59.031197 -0.80542243 0
-329.24292 59.224361 -0.8666811 0
-329.79019 59.506596 -0.80429143 0
-307.29651 59.764706 -0.83110744 0
-325.49658 59.965599 -0.84065706 0
-307.10004 60.679989 -0.86658943 0
-327.97089 61.656219 -0.88093024 0
-306.5387 68.468887 -0.81800038 0
-305.97794 68.475868 -0.84060174 0
-307.56927 50.61483 -0.77384126 0
-307.60669 50.74448 -0.76576507 0
-307.43063 51.394215 -0.76678312 0
-307.49594 51.610798 -0.7071355 0
-307.64447 51.73315 -0.73033118 0
-307.49362 51.988071 -0.70250028 0
-307.54367 52.271633 -0.77538371 0
-307.55243 53.256493 -0.76297945 0
-307.57413 53.304066 -0.77522254 0
-307.53482 54.250744 -0.79084808 0
-307.56317 55.870003 -0.7643671 0
-324.87695 57.258629 -0.73389649 0
-335.72641 57.588066 -0.7108593 0
-307.49304 57.593971 -0.7914992 0
-335.17807 57.938072 -0.79517072 0
-335.85638 58.99017 -0.71715713 0
-327.81332 58.921215 -0.72328407 0
-307.34534 59.826485 -0.70071554 0
-332.70453 59.957645 -0.77796417 0
-327.10931 60.723572 -0.70654261 0
-346.78046 72.30645 -0.70917517 0
-344.16022 75.053093 -0.70545185 0
-346.72906 89.425751 -0.7415446 0
-307.44412 51.404209 -0.66573077 0
-317.25229 52.014034 -0.68572509 0
-307.59421 52.446617 -0.69331878 0
-307.49289 52.549194 -0.6928544 0
-307.56509 52.669888 -0.60188562 0
-307.45297 53.556561 -0.68126255 0
-307.53754 54.394291 -0.64646196 0
-307.43921 54.324127 -0.66740984 0
-323.93414 55.328766 -0.63224703 0
-307.54828 55.872555 -0.63727361 0
-324.82205 56.038506 -0.66700381 0
-335.03925 56.508438 -0.60638148 0
-307.39639 56.633041 -0.63589102 0
-335.53137 56.718437 -0.65266907 0
-335.33975 56.881927 -0.62657309 0
-335.44052 56.935863 -0.61875081 0
-334.81714 57.0924 -0.62450427 0
-324.9325 57.183594 -0.62825137 0
-334.91394 57.223663 -0.61279058 0
-333.28323 57.207012 -0.64065105 0
-333.55399 57.57222 -0.60185969 0
-307.30032 58.192421 -0.60240448 0
-336.06958 58.27523 -0.65530562 0
-336.1106 58.493801 -0.64551568 0
-335.87878 58.473763 -0.63032335 0
-336.19696 58.542801 -0.66749448 0
-336.05252 58.931988 -0.60972059 0
-336.11484 59.0695 -0.60148937 0
-335.84692 59.01244 -0.61478513 0
-307.45908 59.284462 -0.6886456 0
-307.28894 59.271835 -0.68571281 0
-324.93256 59.972622 -0.62321049 0
-307.33502 61.714218 -0.62318921 0
-327.96036 61.815777 -0.66615105 0
-307.2196 62.5401 -0.68084228 0
-307.25052 65.861511 -0.64188337 0
-307.11719 68.495186 -0.63813251 0
-346.93472 72.233421 -0.66945904 0
-346.83255 72.231903 -0.69888383 0
-343.84729 75.057594 -0.67312688 0
-319.97208 50.171528 -0.57221192 0
-307.65082 51.62426 -0.57545328 0
-307.45169 52.049553 -0.52179474 0
-307.66345 52.123211 -0.56780291 0
-307.58264 52.115326 -0.52990252 0
-307.62057 53.053062 -0.55259103 0
-307.52573 54.121696 -0.51679271 0
-307.53122 55.913143 -0.52397072 0
-334.57675 56.953541 -0.50177342 0
-335.30545 58.448318 -0.58982843 0
-335.62418 58.504963 -0.54690683 0
-328.81186 59.106606 -0.55655342 0
-307.34106 59.468853 -0.58724314 0
-335.5777 60.695625 -0.55061734 0
-324.23581 61.66077 -0.52135712 0
-307.24826 63.523033 -0.54378861 0
-316.34564 64.465309 -0.57126391 0
-324.14621 50.757034 -0.47926173 0
-307.54001 51.914719 -0.42838818 0
-307.53992 52.43737 -0.42655492 0
-307.44397 52.943077 -0.44941449 0
-324.33945 53.352474 -0.4647868 0
-307.42038 53.328522 -0.41785485 0
-317.76053 53.425362 -0.49192557 0
-324.69888 53.853291 -0.41930708 0
-307.33524 55.580521 -0.42414489 0
-324.64261 56.072266 -0.48736697 0
-335.2688 56.543125 -0.46853754 0
-334.5206 56.857143 -0.40544769 0
-307.53925 56.876572 -0.49897167 0
-335.73206 56.908661 -0.44123966 0
-335.05786 56.987129 -0.45339596 0
-307.54834 57.854351 -0.4824813 0
-307.53036 57.984375 -0.42382121 0
-335.52826 58.404839 -0.41905504 0
-336.45667 58.510536 -0.40049866 0
-336.38632 58.541378 -0.4737514 0
-333.95016 60.23418 -0.43612286 0
-349.75568 60.443928 -0.45184615 0
-307.45239 61.021828 -0.42651585 0
-307.02518 65.749741 -0.45131737 0
-306.15308 68.362846 -0.42577282 0
-307.11627 68.449936 -0.41861671 0
-306.5184 68.411346 -0.42347923 0
-317.67709 51.348118 -0.34733206 0
-307.43448 52.446865 -0.3362709 0
-314.01367 52.787441 -0.39501625 0
-307.54611 53.237259 -0.3007693 0
-307.39645 54.436962 -0.32911596 0
-307.242 56.423164 -0.31881204 0
-335.56516 56.628498 -0.38736552 0
-334.95386 56.670185 -0.33542827 0
-334.05969 56.785629 -0.30261466 0
-335.05591 56.854305 -0.38328373 0
-334.58395 56.873665 -0.34572336 0
-307.40399 56.861126 -0.37580836 0
-334.0015 57.083168 -0.31081104 0
-307.4227 57.004555 -0.3420727 0
-333.62436 57.658001 -0.3998861 0
-335.9295 58.081326 -0.30310762 0
-335.45267 58.253864 -0.35808715 0
-335.59598 58.469559 -0.30065051 0
-335.53522 58.511078 -0.35389337 0
-336.34344 58.683659 -0.3416644 0
-336.46347 58.710342 -0.35118416 0
-332.92694 59.080776 -0.37332445 0
-336.31537 59.139221 -0.31809178 0
-330.02109 60.454136 -0.31470397 0
-332.77106 60.702431 -0.3802343 0
-307.16748 62.779091 -0.34126836 0
-307.35562 64.08654 -0.39702371 0
-307.12741 65.763695 -0.36321718 0
-306.11472 68.405296 -0.32749844 0
-343.87347 75.549072 -0.31370774 0
-343.91379 75.625732 -0.33716419 0
-317.42316 50.413967 -0.26180717 0
-313.78702 52.252705 -0.2536231 0
-307.48627 53.264503 -0.22892199 0
-307.39221 53.715324 -0.27833733 0
-307.51486 54.101479 -0.28133163 0
-334.14673 56.779263 -0.26674765 0
-333.73987 56.794292 -0.22662044 0
-307.37503 56.858025 -0.28123504 0
-334.12527 56.98447 -0.25707513 0
-333.87534 56.925873 -0.23771353 0
-334.46976 57.068829 -0.20359553 0
-333.83112 57.15514 -0.27206814 0
-333.51074 57.180531 -0.22982568 0
-333.27942 57.698219 -0.25642955 0
-334.54578 57.777142 -0.25152093 0
-333.55667 57.842426 -0.20355593 0
-307.4144 58.172112 -0.27485728 0
-307.4364 58.532265 -0.20780487 0
-307.37454 59.035381 -0.22934228 0
-335.00949 59.575058 -0.26795274 0
-325.59024 60.012547 -0.25634316 0
-330.64236 60.497303 -0.26672623 0
-330.64368 60.878403 -0.22480272 0
-330.94672 62.154705 -0.23299482 0
-346.94482 72.172928 -0.22876427 0
-317.35223 51.525764 -0.13776053 0
-307.46701 53.99688 -0.12511979 0
-322.50113 54.601261 -0.16331899 0
-307.50497 55.766422 -0.11661081 0
-333.5332 56.696514 -0.16326739 0
-334.65247 56.854187 -0.15658553 0
-307.31723 56.800812 -0.13258679 0
-335.00153 56.927296 -0.15049475 0
-334.21539 57.035286 -0.15413313 0
-333.95334 57.036011 -0.17956835 0
-332.53409 57.232937 -0.14683799 0
-307.29712 57.208344 -0.10035072 0
-332.83102 57.307224 -0.13688946 0
-307.38217 58.034443 -0.18236819 0
-307.40442 59.873001 -0.17549866 0
-307.1235 64.638168 -0.15344784 0
-344.42169 77.647354 -0.18495321 0
-319.76404 50.077805 -0.024160892 0
-324.0686 50.220619 -0.018385228 0
-320.12738 50.2271 -0.0059215315 0
-313.8241 52.021641 -0.0038964504 0
-324.52856 54.261818 -0.011159552 0
-333.76895 56.697399 -0.088767894 0
-307.43649 56.9184 -0.026784707 0
-334.98029 57.034161 -0.042044677 0
-307.33536 57.092369 -0.0095153451 0
-317.58899 57.634308 -0.0094784917 0
-307.28516 57.639313 -0.062283047 0
-307.27847 58.234486 -0.014154399 0
-307.40576 59.893543 -0.065706111 0
-349.77765 59.92355 -0.018678661 0
-349.74686 60.115978 -0.018624797 0
-330.25204 60.105778 -0.09872251 0
-330.07089 60.193592 -0.079828493 0
-325.84192 60.108677 -0.0059343469 0
-329.76782 60.546993 -0.028496146 0
-347.09204 72.218819 -0.018817924 0
-320.29263 50.206074 0.027848551 0
-320.16245 50.343815 0.042444784 0
-321.63028 50.592617 0.013379346 0
-321.73691 50.620911 0.03663158 0
-307.73471 50.735142 0.085402697 0
-310.63336 53.621647 0.026859015 0
-335.36884 56.774067 0.028336408 0
-333.43576 56.743698 0.051724974 0
-334.8071 57.217575 0.090409115 0
-326.12085 57.435215 0.052660868 0
-332.4921 58.746651 0.071261004 0
-334.63721 58.823177 0.039512698 0
-307.23291 58.885193 0.045202311 0
-307.3378 59.095474 0.061551899 0
-349.76291 59.502369 0.060408983 0
-327.74643 59.569126 0.034425449 0
-307.23618 59.515003 0.094510421 0
-329.31696 59.837578 0.05187951 0
-334.03082 59.957176 0.055217806 0
-334.22772 60.122147 0.099430561 0
-330.34378 60.249233 0.064704895 0
-329.86749 61.434555 0.022960173 0
-329.75613 61.910191 0.066272892 0
-329.85583 62.00116 0.062350027 0
-347.0802 72.222076 0.083433166 0
-342.8577 75.566513 0.080350228 0
-323.56763 51.320896 0.17806664 0
-317.0361 51.373009 0.14922906 0
-317.03873 51.557793 0.18729343 0
-325.67526 54.739895 0.13446936 0
-325.82095 54.99931 0.11293762 0
-325.96991 55.078964 0.19583507 0
-325.81781 55.094589 0.11414891 0
-334.95096 56.549004 0.13631447 0
-326.17828 57.439926 0.19047129 0
-349.76669 59.303902 0.12468873 0
-335.55051 59.399677 0.16660401 0
-327.19751 59.469841 0.11913323 0
-328.862 59.568798 0.19868487 0
-327.2695 59.515953 0.12733598 0
-327.16495 59.723965 0.16956587 0
-323.62433 73.317131 0.14545706 0
-325.49713 55.042088 0.23823556 0
-324.60745 55.509007 0.25346437 0
-335.48383 56.708553 0.22994104 0
-335.08884 57.317448 0.25273174 0
-333.38092 57.533356 0.23505516 0
-326.47318 57.634659 0.28557426 0
-332.58267 58.901505 0.25283134 0
-335.52771 59.221039 0.23777987 0
-349.87723 59.395695 0.23623466 0
-325.63052 59.378075 0.27740651 0
-328.94562 59.421787 0.24175857 0
-326.12433 59.558235 0.26571274 0
-329.28128 60.09737 0.21654606 0
-328.32364 60.002937 0.27038011 0
-329.46277 60.124969 0.27459776 0
-329.32919 60.236485 0.21826755 0
-333.59476 60.850288 0.20758027 0
-307.15369 61.741318 0.28654614 0
-343.46393 75.353493 0.25016627 0
-316.94339 50.033989 0.35018191 0
-317.23996 50.241196 0.34749013 0
-307.59119 52.488861 0.37184063 0
-314.09299 52.813545 0.35204318 0
-317.65326 52.995262 0.3608681 0
-334.65472 57.260593 0.33536327 0
-334.87241 57.371967 0.39822146 0
-334.40616 57.96162 0.39332432 0
-328.18018 59.063232 0.35422245 0
-349.94061 59.31522 0.32107195 0
-329.0589 59.529366 0.34111288 0
-328.64075 60.394215 0.34507132 0
-327.82898 64.180641 0.37022755 0
-317.19565 50.029705 0.48501709 0
-307.57648 52.988789 0.42794374 0
-317.73813 53.404297 0.4091745 0
-307.43951 53.758629 0.44036752 0
-307.45865 54.26321 0.47865963 0
-334.44492 56.811111 0.43931559 0
-333.24594 56.948254 0.46588638 0
-335.38135 57.390736 0.45303231 0
-333.4426 58.293854 0.49755338 0
-335.50064 59.098591 0.47816378 0
-335.18793 59.318127 0.43790764 0
-326.89609 59.395782 0.44726723 0
-335.13605 59.633904 0.40922049 0
-349.34647 60.296303 0.4190371 0
-327.4646 60.465401 0.40474153 0
-307.15445 60.659286 0.44947076 0
-307.18304 63.961769 0.42772532 0
-307.28036 64.518692 0.43148401 0
-306.99316 68.386658 0.45438582 0
-340.60568 71.541512 0.48537624 0
-346.97247 72.152649 0.44410631 0
-313.8587 52.605347 0.55289263 0
-307.52762 54.35014 0.52305597 0
-335.31583 57.129864 0.59385324 0
-335.37476 57.252808 0.5289619 0
-325.98007 57.432274 0.537256 0
-307.20178 57.755833 0.50388551 0
-325.96658 59.550873 0.53422058 0
-328.89255 59.69492 0.55835575 0
-324.70139 59.616791 0.57923299 0
-325.29999 59.923038 0.50989491 0
-330.4819 60.624619 0.51749998 0
-307.24237 65.839134 0.57626921 0
-323.68948 50.112663 0.63805753 0
-323.547 52.124729 0.67810625 0
-314.02042 52.791477 0.67992878 0
-325.34802 55.475861 0.69790107 0
-307.47076 56.808037 0.67017949 0
-333.52466 57.450283 0.6446588 0
-326.32086 57.975361 0.68225616 0
-325.73877 58.377827 0.65603924 0
-326.35812 58.695259 0.68207586 0
-335.19879 59.096474 0.66085988 0
-335.26962 59.292004 0.67860478 0
-335.23544 59.325226 0.67590171 0
-328.3562 59.464436 0.60702294 0
-334.99655 60.096424 0.64512622 0
-349.80612 60.18399 0.69513571 0
-307.55038 60.935982 0.62749773 0
-348.64792 61.3097 0.69712192 0
-326.26602 63.270184 0.68429512 0
-324.11014 50.134808 0.76304609 0
-324.47617 51.270977 0.783517 0
-334.33017 56.993137 0.73182499 0
-333.35776 57.32975 0.78514624 0
-333.83365 57.44669 0.77485514 0
-334.01419 57.548985 0.75678468 0
-333.87973 57.628567 0.7106728 0
-335.14874 59.095169 0.74279004 0
-326.66031 59.822575 0.78312469 0
-335.0455 60.409943 0.79232347 0
-329.97101 60.463837 0.77972168 0
-349.00339 60.955326 0.78197628 0
-348.8884 60.940086 0.7811805 0
-327.74698 61.126324 0.79164666 0
-348.81326 61.268661 0.77605247 0
-346.8768 72.184044 0.75972676 0
-343.47397 76.005981 0.78307539 0
-318.52429 50.127632 0.84030294 0
-318.61325 50.235317 0.8994444 0
-324.46918 51.225124 0.88897067 0
-307.55692 53.361832 0.86877108 0
-334.78506 56.84621 0.83097565 0
-334.09561 57.766846 0.88392937 0
-333.87106 58.097919 0.85610741 0
-334.74841 58.131557 0.87936312 0
-326.0755 60.247849 0.82233185 0
-307.04645 68.653938 0.85520512 0
-347.04248 72.148537 0.88018239 0
-320.48715 50.029232 0.95265239 0
-317.80405 50.17968 0.91838723 0
-318.6019 50.302296 0.93220192 0
-317.31064 50.572872 0.9394328 0
-324.43808 52.027603 0.91841865 0
-334.54489 56.678196 0.94014168 0
-334.88843 56.998714 0.93101972 0
-334.86484 57.060413 0.96090645 0
-333.22675 57.295425 0.91768485 0
-326.35837 57.307053 0.93476039 0
-333.5589 57.633858 0.9658891 0
-307.37527 57.787907 0.9401778 0
-334.83844 57.907104 0.94070536 0
-334.82404 58.084087 0.94640869 0
-335.61951 58.684605 0.96198666 0
-334.77744 59.467159 0.98573351 0
-349.03406 61.06266 0.95541811 0
-331.10687 61.48761 0.93235832 0
-346.94131 72.205009 0.92964637 0
-317.95096 50.172096 1.056519 0
-323.50769 50.338421 1.0414838 0
-321.73343 50.386913 1.0633081 0
-323.77417 50.414284 1.0042658 0
-324.34598 51.128456 1.0148813 0
-325.00473 53.899132 1.0320433 0
-324.66034 54.088955 1.0433688 0
-334.75638 57.848618 1.0964063 0
-335.00754 58.025284 1.0183734 0
-334.68204 58.038406 1.0229757 0
-334.11624 58.132023 1.0625738 0
-335.03543 58.200394 1.0300655 0
-335.08887 58.675491 1.0298103 0
-333.04681 58.624744 1.059252 0
-334.99289 58.905766 1.0165128 0
-346.66949 64.257729 1.0957763 0
-323.74661 50.135223 1.1624945 0
-317.18329 50.199333 1.178589 0
-323.77338 50.259815 1.1717315 0
-316.71707 50.530823 1.1415157 0
-324.02643 50.783886 1.1585442 0
-318.67413 50.74506 1.1765704 0
-324.55405 50.847481 1.1347027 0
-318.59891 50.801117 1.1724918 0
-323.99713 53.87809 1.1808796 0
-325.0657 54.319263 1.1489607 0
-322.91653 54.559559 1.1664422 0
-318.98633 55.123177 1.1104789 0
-334.33603 58.456249 1.1825749 0
-335.08289 58.608234 1.1482606 0
-334.11081 58.691383 1.1268909 0
-327.34012 61.511002 1.1727115 0
-346.93192 64.307915 1.1327372 0
-349.75946 64.616272 1.1736553 0
-319.03934 50.250198 1.2134023 0
-317.10822 50.347683 1.2058614 0
-319.28195 50.409485 1.2466505 0
-318.87708 50.756786 1.2993615 0
-318.24496 50.998405 1.2110431 0
-324.18835 51.068501 1.2995964 0
-323.19318 51.484829 1.2701602 0
-325.35339 55.111706 1.2241206 0
-334.2157 57.529194 1.2942851 0
-334.24097 57.750912 1.2791786 0
-335.3378 58.251644 1.2581338 0
-335.05963 58.212372 1.2942679 0
-332.74075 58.459587 1.2422557 0
-335.15903 59.263809 1.2335321 0
-334.54404 59.241077 1.2467415 0
-327.71417 60.074715 1.2928995 0
-328.98065 60.40955 1.2840512 0
-346.7803 72.15303 1.2135699 0
-322.42371 50.369522 1.3090321 0
-318.06436 51.027107 1.3655425 0
-322.98444 52.499485 1.3836249 0
-324.06335 53.701839 1.3611597 0
-323.90219 53.861618 1.3623945 0
-325.35962 54.881752 1.3012576 0
-325.70789 57.397301 1.3341013 0
-334.40216 57.630001 1.3349024 0
-333.55902 57.891682 1.3370284 0
-334.97925 57.99424 1.3358024 0
-334.45822 57.912472 1.3351583 0
-334.85281 58.498318 1.3000941 0
-328.48544 59.763355 1.3907208 0
-328.34293 60.158867 1.3391626 0
-328.49295 60.270718 1.3997301 0
-328.26398 60.347054 1.3333571 0
-328.77414 60.824577 1.3837798 0
-324.27884 50.197296 1.455229 0
-321.25778 50.214554 1.4545457 0
-318.28735 52.112751 1.4127353 0
-322.90216 52.550056 1.4190251 0
-323.57648 53.064617 1.4357741 0
-325.20755 54.668583 1.4756919 0
-334.4957 57.685314 1.4507012 0
-335.01276 58.120781 1.4837247 0
-333.18109 58.488174 1.4846274 0
-333.08896 58.412777 1.4115417 0
-333.66812 59.071423 1.4625196 0
-329.94022 59.952503 1.4914985 0
-328.60474 60.488892 1.4612494 0
-328.87134 60.675987 1.4489198 0
-328.77316 61.5233 1.4437631 0
-329.47403 62.049149 1.4115754 0
-346.92783 63.084698 1.4316481 0
-346.84128 63.046505 1.4866688 0
-346.63791 72.240143 1.4870334 0
-323.53632 50.108341 1.5565109 0
-323.1105 51.113106 1.5060039 0
-323.60049 51.269104 1.5319259 0
-324.20389 53.707455 1.5152197 0
-324.02887 53.883278 1.5559906 0
-323.68356 53.894249 1.5252143 0
-323.96973 54.118805 1.5703862 0
-322.75012 54.123062 1.5924394 0
-324.20203 54.32716 1.5852022 0
-324.53061 54.40062 1.5425603 0
-326.00787 55.943123 1.5002954 0
-325.89807 56.319313 1.5071621 0
-334.75488 57.78767 1.5156699 0
-334.82175 57.921722 1.5177804 0
-324.71161 58.939213 1.5635451 0
-334.94601 59.131603 1.5564535 0
-334.27084 59.110573 1.5401226 0
-349.62155 60.526173 1.5957025 0
-326.99167 62.05246 1.5274335 0
-329.49362 62.465271 1.5079134 0
-346.672 62.91296 1.5844859 0
-346.5773 72.210213 1.5290495 0
-320.98056 50.048416 1.6174064 0
-320.81808 50.155579 1.6775521 0
-317.88257 50.254078 1.6896046 0
-323.08295 50.553875 1.6520913 0
-324.69537 54.095055 1.6199586 0
-323.51895 54.194637 1.641181 0
-323.59915 54.216713 1.6281277 0
-324.35464 54.413185 1.6535697 0
-325.11694 54.511559 1.6141658 0
-322.3728 55.065247 1.6942872 0
-325.65356 56.026413 1.6410882 0
-326.44852 56.378983 1.6410712 0
-326.62363 56.495399 1.6306794 0
-333.68799 58.066723 1.6686749 0
-332.755 58.330891 1.6446629 0
-334.85114 59.030704 1.6173414 0
-328.7782 59.802608 1.6450109 0
-325.15955 60.458988 1.6662863 0
-349.22049 60.505054 1.6109215 0
-329.57834 60.968269 1.6234788 0
-329.72162 61.139606 1.6893401 0
-348.26581 62.545391 1.6434608 0
-329.00693 63.998837 1.6063774 0
-346.58441 72.208443 1.6366086 0
-323.04688 50.055279 1.7659434 0
-322.90781 50.02261 1.7929708 0
-317.64886 50.460556 1.7936876 0
-323.09714 50.585342 1.72268 0
-318.58005 50.783669 1.7227728 0
-323.80527 50.812847 1.7941251 0
-323.86475 50.943039 1.7834971 0
-323.92334 54.056099 1.7327929 0
-323.85571 54.057182 1.7086241 0
-324.0014 54.133553 1.744031 0
-323.79269 54.164364 1.7448306 0
-321.85477 54.289703 1.7353845 0
-321.60782 54.298275 1.7559515 0
-324.48465 54.360348 1.7741112 0
-322.41992 54.60799 1.7164038 0
-325.69965 56.275681 1.7107677 0
-333.63449 58.137878 1.7776372 0
-333.47986 58.261528 1.7960466 0
-333.6908 58.983574 1.7515699 0
-333.36734 58.955475 1.7848139 0
-326.25626 59.083244 1.7810643 0
-334.41486 59.194134 1.7988304 0
-334.55316 59.37059 1.718766 0
-349.30594 59.451778 1.7079356 0
-349.50311 59.653049 1.7760521 0
-328.63248 59.715637 1.7722216 0
-348.86304 60.019714 1.7876821 0
-328.40036 60.112282 1.7018285 0
-329.6629 60.21685 1.7878373 0
-329.07727 60.340721 1.741784 0
-329.59708 60.563572 1.7667775 0
-328.63403 60.710846 1.7729716 0
-327.06305 60.802204 1.764879 0
-329.80975 60.949532 1.7447696 0
-329.82669 61.299145 1.701769 0
-346.84357 72.210365 1.7891042 0
-318.61481 50.252346 1.8081188 0
-322.53293 50.532341 1.8583813 0
-323.22739 50.623737 1.8913684 0
-323.30859 52.073345 1.8773936 0
-323.45886 54.284294 1.8505627 0
-322.69778 54.252686 1.865931 0
-333.11249 58.626148 1.8504891 0
-334.20361 58.731392 1.8764406 0
-333.00525 58.747643 1.8908064 0
-349.78961 59.522701 1.8363643 0
-349.13086 59.587814 1.8178481 0
-349.74048 59.621662 1.8880007 0
-349.24069 59.630722 1.8695709 0
-349.05063 59.703671 1.8292474 0
-330.00998 60.33725 1.8112094 0
-330.22345 60.401352 1.8819433 0
-328.66367 60.99155 1.8967966 0
-347.70297 62.644897 1.8335471 0
-317.58621 50.170544 1.9448838 0
-323.98712 50.485542 1.950745 0
-323.10373 50.414185 1.970226 0
-324.03891 50.986824 1.9658492 0
-324.02939 51.049168 1.9063888 0
-324.53387 55.520245 1.9399838 0
-326.03925 55.788525 1.978085 0
-326.01028 56.754265 1.9571829 0
-325.34412 58.086014 1.9217691 0
-334.3031 58.810444 1.9624785 0
-334.26144 58.883732 1.9177222 0
-326.01898 59.225956 1.9416747 0
-325.81607 59.40173 1.9452155 0
-327.14938 60.861637 1.9815975 0
-318.78369 50.555351 2.0578952 0
-323.07938 51.084793 2.0248725 0
-326.68863 55.985344 2.004246 0
-326.6586 56.311813 2.0998557 0
-325.08292 57.831638 2.0992494 0
-334.16504 58.640789 2.0748401 0
-349.54868 59.591591 2.0816724 0
-349.68564 60.306561 2.0469229 0
-329.42868 60.494373 2.0235679 0
-327.09708 60.694588 2.0717604 0
-329.14249 60.958336 2.093061 0
-328.79181 60.975368 2.0605898 0
-327.16742 60.970928 2.0408902 0
-347.55676 62.863914 2.0086248 0
-317.75021 50.006351 2.1491816 0
-322.71872 50.312759 2.1556573 0
-318.79581 50.672813 2.1601217 0
-318.51553 51.044846 2.1468289 0
-325.80487 58.27092 2.1470439 0
-334.36371 58.784859 2.1064563 0
-326.46704 58.984985 2.1350977 0
-328.97287 60.339378 2.1202056 0
-328.85114 61.427048 2.1574643 0
-347.93347 62.676716 2.1750269 0
-347.62271 62.6502 2.1766531 0
-346.89871 63.713089 2.1000347 0
-322.01819 50.681038 2.2986665 0
-323.79752 54.698044 2.2734444 0
-324.40579 55.566635 2.2343392 0
-326.76117 56.37188 2.2294092 0
-325.4874 58.653214 2.2312441 0
-334.19357 59.135349 2.2089927 0
-322.7348 61.843742 2.247268 0
-321.68872 50.470997 2.349422 0
-321.95752 50.586071 2.3650534 0
-317.32019 50.633018 2.382709 0
-322.1293 50.72467 2.3573809 0
-323.62833 50.816212 2.304908 0
-323.1911 50.923656 2.3398085 0
-322.13828 51.033066 2.3554595 0
-319.20081 51.042374 2.3694391 0
-317.71533 51.00206 2.3796654 0
-317.98218 51.153065 2.385834 0
-317.77173 51.156796 2.3770418 0
-325.78586 54.425686 2.3537693 0
-325.50342 54.724312 2.3732221 0
-321.01501 54.952389 2.3904099 0
-334.74731 58.863174 2.3649108 0
-334.93134 59.102921 2.364954 0
-334.76605 59.142975 2.3567479 0
-328.19812 61.100685 2.3331831 0
-327.81281 61.575047 2.3963149 0
-327.70218 61.508003 2.3794663 0
-348.23666 62.134617 2.3309987 0
-346.52637 64.294067 2.3749204 0
-322.06979 50.798443 2.4285488 0
-322.78268 50.859211 2.4130781 0
-318.21933 51.151749 2.4039409 0
-318.25488 51.212086 2.4101539 0
-325.556 54.542942 2.4168279 0
-325.41196 54.575241 2.4251978 0
-334.6723 58.974285 2.4027777 0
-328.53806 60.56432 2.468276 0
-328.41678 60.575439 2.4702971 0
-328.29056 60.586201 2.4721651 0
-346.81113 63.839695 2.4360271 0
-322.80325 50.755642 2.5938613 0
-323.44611 50.925415 2.5149839 0
-323.28748 50.918713 2.506026 0
-322.51096 54.410526 2.5577571 0
-324.49509 55.540714 2.5958917 0
-346.60663 63.689411 2.5949039 0
-346.03802 63.921494 2.5072789 0
-346.49716 72.066139 2.5483398 0
-307.44901 53.892582 2.6486545 0
-307.44336 54.459137 2.6831055 0
-325.50098 54.671818 2.6703112 0
-325.96588 58.208054 2.6293426 0
-325.73901 58.218529 2.6967595 0
-348.7392 63.910919 2.61099 0
-323.05881 50.918476 2.777724 0
-322.9957 51.220821 2.7337432 0
-317.97501 51.602818 2.7165413 0
-319.32919 51.772106 2.7650917 0
-319.42184 51.895741 2.7455261 0
-317.55066 52.860744 2.7249496 0
-324.81754 54.457371 2.7620032 0
-322.5965 54.425484 2.7950943 0
-324.57529 54.618336 2.7163618 0
-326.21121 54.72485 2.7537491 0
-325.57553 54.709816 2.7905502 0
-326.31107 56.03265 2.7580788 0
-325.90182 56.139565 2.7534397 0
-325.918 56.695263 2.7194891 0
-325.88052 56.65575 2.7507241 0
-326.11755 58.288822 2.7226624 0
-325.57153 58.2705 2.7199843 0
-325.88617 58.460819 2.7687185 0
-346.68176 63.725246 2.7826378 0
-348.22961 64.508446 2.7885702 0
-322.6907 50.831547 2.8150017 0
-322.9931 51.187405 2.8054256 0
-323.27914 51.409492 2.8313622 0
-324.13483 54.111923 2.8772824 0
-324.65002 54.458134 2.8562491 0
-325.59991 54.686539 2.8496995 0
-324.80783 54.634865 2.8603091 0
-324.55087 54.780952 2.8186712 0
-325.94299 54.883396 2.8788509 0
-324.81595 54.809669 2.8774281 0
-325.98151 55.432076 2.864239 0
-325.73587 55.485458 2.8982649 0
-325.95126 55.630024 2.8819749 0
-326.30542 56.080425 2.8400135 0
-326.01364 56.53624 2.8198323 0
-323.15765 58.007973 2.8407454 0
-347.94882 64.574554 2.8085542 0
-347.99564 64.625572 2.8524957 0
-320.13553 68.72023 2.818454 0
-316.59021 50.103649 2.999311 0
-317.92523 50.281776 2.9429767 0
-318.05557 51.034889 2.9444447 0
-317.40439 52.284649 2.9723294 0
-307.3508 53.87619 2.9727824 0
-322.63217 54.27787 2.9086008 0
-324.35043 54.345123 2.9651577 0
-325.80713 54.534927 2.9370692 0
-325.24258 54.587467 2.9242489 0
-324.93384 54.55711 2.9341621 0
-324.64267 54.657333 2.9513395 0
-325.87695 55.272453 2.9968884 0
-318.53174 50.851311 3.0334959 0
-318.19214 50.95549 3.0733318 0
-324.34341 54.339825 3.0050554 0
-325.76862 54.979679 3.0115707 0
-325.99777 57.931126 3.0810442 0
-320.79352 68.838539 3.039609 0
-318.06046 50.110153 3.1029873 0
-318.185 50.984127 3.1138692 0
-323.81757 53.940948 3.1521099 0
-307.4722 53.9804 3.1739266 0
-324.47861 54.171974 3.1945379 0
-321.06931 54.146545 3.1918304 0
-307.49847 54.230831 3.1097245 0
-321.70187 54.302429 3.163631 0
-325.85992 54.533234 3.177304 0
-325.10495 55.269775 3.1573455 0
-325.41 55.477459 3.1658535 0
-318.26102 51.261276 3.2823777 0
-318.8569 52.702717 3.2138815 0
-323.8501 54.016357 3.2888796 0
-323.75128 54.143902 3.2930818 0
-321.77097 54.166355 3.2328403 0
-325.01331 55.378258 3.2489343 0
-307.0658 55.329216 3.2501705 0
-307.4581 55.541882 3.2012889 0
-325.56686 56.523788 3.2696121 0
-307.33939 56.976639 3.2984838 0
-325.89352 57.791866 3.2624593 0
-325.8924 57.992455 3.281527 0
-318.47455 51.448246 3.322269 0
-323.80978 53.875263 3.3063757 0
-323.91342 53.983501 3.361129 0
-324.60089 54.163372 3.3048754 0
-322.09116 54.297112 3.3065543 0
-321.76447 54.691067 3.3505509 0
-320.60312 54.924141 3.3250782 0
-325.276 55.150925 3.3383517 0
-325.27164 56.595062 3.3092117 0
-325.5387 57.786705 3.3052299 0
-325.62799 57.888294 3.3015325 0
-316.44824 50.174908 3.449549 0
-318.70374 51.360413 3.467093 0
-320.69495 54.019516 3.4819987 0
-321.33032 54.21537 3.4155695 0
-325.073 54.963818 3.4310977 0
-320.98456 54.923656 3.4824731 0
-325.16827 55.009197 3.4139764 0
-325.35599 56.462292 3.4058797 0
-325.44308 56.577785 3.4488411 0
-325.77255 56.799973 3.4580081 0
-316.49417 50.341476 3.5559642 0
-317.83972 50.666676 3.5008247 0
-319.03372 52.670883 3.5538182 0
-323.52032 53.914925 3.5660205 0
-321.74567 54.276936 3.5852997 0
-325.12811 54.795959 3.5539269 0
-325.06674 54.87722 3.577997 0
-321.77823 55.194401 3.5826104 0
-348.04056 65.44825 3.5629077 0
-319.08096 52.216599 3.6760743 0
-318.93085 53.210659 3.6490877 0
-320.81412 53.845051 3.6712439 0
-321.02179 54.273239 3.6492169 0
-325.09778 54.573593 3.6266222 0
-325.03992 54.696877 3.6120434 0
-321.68335 55.068069 3.672492 0
-323.89914 55.53344 3.6978676 0
-325.16455 56.11795 3.6337428 0
-307.41989 57.396523 3.6818786 0
-346.31235 65.371452 3.6851656 0
-341.56238 67.232964 3.6319101 0
-317.17654 51.133194 3.7183592 0
-318.15833 51.688198 3.7035813 0
-317.53372 51.889191 3.739357 0
-318.8736 52.19173 3.7475274 0
-321.43665 54.276897 3.7811871 0
-325.19904 54.681561 3.7202535 0
-319.16696 55.729668 3.7628725 0
-325.23474 55.956913 3.7345307 0
-324.32913 59.453053 3.706099 0
-324.64606 60.484787 3.7605083 0
-324.76926 60.544472 3.7280488 0
-325.1929 60.682823 3.7945316 0
-310.80865 51.211609 3.805084 0
-321.00885 53.996563 3.8180363 0
-324.02112 54.137741 3.8333378 0
-324.39093 54.319847 3.852881 0
-323.70898 54.459221 3.827934 0
-321.51248 54.434303 3.8409257 0
-321.4118 54.722469 3.8043799 0
-325.6618 56.484577 3.8401325 0
-325.63226 57.914974 3.8782232 0
-324.75696 60.852802 3.8819189 0
-348.93167 61.374466 3.8326418 0
-348.39963 61.897522 3.8363931 0
-347.48892 64.87487 3.8060892 0
-346.86398 64.855614 3.8022258 0
-323.32596 54.171989 3.988193 0
-321.24658 54.234402 3.9223402 0
-324.53015 54.376411 3.9370952 0
-321.47629 54.518665 3.932611 0
-325.30573 55.002712 3.9763522 0
-324.91547 55.165104 3.9979124 0
-321.78329 55.211197 3.9221954 0
-321.6452 55.356804 3.9423065 0
-318.76764 55.436253 3.9222476 0
-322.1853 55.752651 3.9253492 0
-348.85626 63.805004 3.9744856 0
-349.89386 64.114815 3.9582064 0
-323.63358 54.613205 4.0068874 0
-323.91428 55.447216 4.031096 0
-321.68036 55.864044 4.0030198 0
-321.63416 56.024387 4.025331 0
-325.62497 56.672276 4.0056772 0
-321.55283 70.730377 4.0964198 0
-318.53531 50.074917 4.1257195 0
-320.7016 54.676949 4.12991 0
-325.19016 54.83252 4.1948009 0
-325.08414 54.853966 4.1008534 0
-320.59903 55.090504 4.1902285 0
-322.03116 55.114887 4.1077571 0
-324.72342 55.219658 4.1026645 0
-324.71677 55.329586 4.1984043 0
-321.89743 55.321003 4.154418 0
-319.42035 55.561802 4.1378345 0
-321.97253 55.81535 4.1593118 0
-321.26709 56.005283 4.1509695 0
-325.7355 56.499554 4.1638541 0
-318.2204 50.111523 4.2153797 0
-318.54144 51.688324 4.2365098 0
-307.54071 52.047947 4.2117634 0
-316.772 53.827835 4.2805662 0
-324.13364 54.169289 4.2514138 0
-324.28641 54.272663 4.2201529 0
-321.1608 54.554279 4.2929978 0
-320.88724 54.71611 4.2196951 0
-319.82999 54.75367 4.2119393 0
-320.00845 54.828308 4.2449355 0
-320.34863 55.333778 4.2581167 0
-320.74036 55.513447 4.2841105 0
-325.5513 56.62743 4.2559881 0
-318.15833 50.058254 4.3305898 0
-318.65363 51.548004 4.3297381 0
-323.06085 53.940857 4.3398662 0
-320.74686 54.35537 4.397202 0
-321.32623 54.678242 4.3052983 0
-323.09595 54.781796 4.3792439 0
-321.47809 54.865959 4.3769879 0
-321.70047 55.041672 4.375103 0
-319.19885 55.878799 4.3920012 0
-324.67114 60.021507 4.3750315 0
-349.30307 61.471027 4.3656321 0
-348.0108 61.678177 4.3801866 0
-348.79379 61.809525 4.3858585 0
-347.48248 63.458382 4.3265076 0
-322.67563 71.263618 4.3709769 0
-346.57727 72.042542 4.3492312 0
-318.59753 52.049671 4.4388528 0
-324.34988 54.482327 4.4478698 0
-324.96594 54.741753 4.4561896 0
-323.18237 54.835381 4.4533348 0
-321.88028 55.145618 4.4091487 0
-318.80325 56.256905 4.4603863 0
-325.67844 56.392422 4.4122734 0
-325.60184 58.027863 4.4370971 0
-325.40103 58.079624 4.4035416 0
-348.383 61.34388 4.451458 0
-347.95441 61.798237 4.4972868 0
-347.63443 61.810879 4.4437456 0
-348.12399 62.1567 4.4290047 0
-346.53265 71.98484 4.4911079 0
-317.97513 50.960667 4.5341082 0
-318.39105 51.509796 4.5256815 0
-318.20114 51.649513 4.5029793 0
-324.16364 54.395306 4.5571394 0
-320.21582 55.170132 4.5656981 0
-318.45093 56.304581 4.5404682 0
-325.86148 57.96973 4.5167446 0
-315.29279 52.851791 4.6428437 0
-319.57303 54.872433 4.6667509 0
-324.07776 55.053017 4.6263857 0
-325.32785 55.407253 4.6309342 0
-325.37927 56.228996 4.6600828 0
-325.4371 56.738789 4.6073794 0
-319.47983 57.154221 4.6163406 0
-349.99619 59.293739 4.6876521 0
-324.29562 59.559345 4.6432891 0
-318.52002 51.012299 4.7231512 0
-319.43427 52.017929 4.7182822 0
-322.32162 54.613556 4.784646 0
-321.6803 54.609562 4.7007852 0
-325.0094 54.939144 4.755836 0
-324.34854 55.219166 4.7301683 0
-324.41434 55.462631 4.7132444 0
-321.99576 56.090969 4.7925229 0
-325.98273 57.711773 4.7615013 0
-318.36099 50.623203 4.8487048 0
-307.52255 51.548275 4.8319182 0
-322.23007 54.566364 4.8622341 0
-319.44595 54.828743 4.8697557 0
-324.54776 55.49445 4.8192048 0
-325.45874 56.200794 4.8165541 0
-325.6532 56.404579 4.8709979 0
-318.2457 58.014378 4.8011556 0
-318.76529 50.772385 4.9825072 0
-322.90585 54.507748 4.9577231 0
-323.31165 54.626953 4.9157424 0
-323.75287 54.752232 4.955574 0
-325.27951 54.946033 4.9032116 0
-325.216 55.09074 4.906003 0
-325.29648 55.162086 4.972259 0
-325.50876 55.229687 4.9164991 0
-325.48645 55.2864 4.9488759 0
-323.83466 55.361568 4.9945917 0
-324.03909 55.45163 4.9990358 0
-325.48196 55.932674 4.9961977 0
-325.33069 56.94236 4.9078646 0
-325.58194 59.300285 4.9103866 0
-323.97324 60.651398 4.9169135 0
-348.26562 62.898354 4.9110365 0
-318.16489 50.04604 5.0935469 0
-323.87631 54.563396 5.0937867 0
-322.37573 54.511673 5.0340314 0
-324.91663 54.684849 5.0252886 0
-325.383 54.827492 5.0765071 0
-323.84964 54.81921 5.0850725 0
-322.54834 55.129807 5.0645947 0
-321.26175 55.113201 5.0785427 0
-324.05453 55.385155 5.0299826 0
-324.0983 55.520058 5.054101 0
-324.42929 55.650707 5.0985303 0
-325.4429 58.447453 5.0281835 0
-316.33423 75.327919 5.0175972 0
-307.60422 51.814526 5.1354661 0
-323.04697 54.393902 5.1857333 0
-323.20529 54.613762 5.191546 0
-323.10455 54.654942 5.1927662 0
-325.02975 55.037342 5.1421757 0
-321.40121 55.070118 5.1261826 0
-321.31479 55.094074 5.1928844 0
-321.2355 55.029263 5.1280165 0
-321.18588 55.148392 5.1835823 0
-320.72382 55.343697 5.1044183 0
-325.60574 56.962875 5.1062899 0
-348.78696 61.853123 5.161088 0
-322.54483 54.731487 5.2240005 0
-321.10986 54.90353 5.2339373 0
-321.29257 55.069595 5.2429681 0
-321.20087 55.156506 5.2077894 0
-321.03723 55.157787 5.2833924 0
-320.28848 55.323357 5.2490883 0
-322.69339 55.52153 5.2437797 0
-324.4325 55.723274 5.2745962 0
-349.01385 60.557682 5.2414942 0
-349.64038 60.903851 5.2576461 0
-348.57806 61.67107 5.2494855 0
-318.12119 50.039944 5.3098779 0
-322.75684 54.738808 5.3579412 0
-320.42712 55.68491 5.3115697 0
-325.0817 56.230049 5.3995986 0
-348.63403 60.54908 5.3209658 0
-349.78027 60.69648 5.3934112 0
-349.14594 60.657627 5.3314748 0
-318.20789 50.884853 5.4133234 0
-312.62796 51.587662 5.4627132 0
-324.07224 54.422466 5.4588714 0
-322.81976 54.620892 5.4546928 0
-320.20374 54.917812 5.4013429 0
-325.45288 55.261036 5.428226 0
-324.40686 55.465069 5.4865208 0
-324.91193 56.145988 5.4780622 0
-324.66586 56.134838 5.484211 0
-325.26645 58.628479 5.4419484 0
-325.15182 59.367764 5.4761891 0
-322.71552 54.382698 5.5376344 0
-321.54895 55.195412 5.5002699 0
-321.35168 55.144653 5.5290675 0
-320.49094 55.230755 5.5191965 0
-320.81967 55.396965 5.569582 0
-324.32043 55.418446 5.5972977 0
-324.99045 58.306255 5.5772991 0
-325.36383 58.966213 5.5168161 0
-318.70224 50.736355 5.6917448 0
-320.40854 55.391075 5.6632261 0
-324.57932 55.776558 5.6310272 0
-324.72467 56.243504 5.6668081 0
-325.23401 56.908463 5.6103587 0
-325.24072 57.126534 5.6978054 0
-318.271 57.175301 5.6765347 0
-325.2951 57.383766 5.604001 0
-319.35648 57.301552 5.6802912 0
-319.23828 57.368004 5.6964126 0
-348.92032 60.882957 5.6009374 0
-349.45255 61.065575 5.6862993 0
-348.68539 61.134552 5.641295 0
-346.65067 71.845543 5.6054626 0
-323.8891 54.883232 5.7031517 0
-324.39243 55.453465 5.7829065 0
-325.18967 56.998028 5.7163548 0
-325.38028 57.114296 5.7598915 0
-346.84262 71.71524 5.7493348 0
-316.93188 75.411705 5.7359967 0
-318.86606 51.491146 5.8291578 0
-320.96814 55.351662 5.8985734 0
-324.82657 56.321857 5.8327889 0
-316.29318 63.162064 5.8173223 0
-324.63336 55.963264 5.9456081 0
-324.76831 56.001205 5.9971223 0
-324.96075 56.488754 5.9622474 0
-325.29114 57.065914 5.9479361 0
-325.05417 58.535362 5.9906206 0
-325.00989 59.153503 5.9182658 0
-346.68253 72.014099 5.9696331 0
-324.96417 56.662247 6.093328 0
-340.40338 66.853546 6.0630727 0
-323.48624 54.952511 6.1259618 0
-321.02347 55.349712 6.1095538 0
-323.28104 55.493347 6.1375284 0
-323.3735 55.571602 6.1281338 0
-324.4859 55.727669 6.1655116 0
-323.64578 55.700569 6.1757464 0
-324.33664 56.454437 6.1839228 0
-324.82108 57.181313 6.1944613 0
-318.48578 57.912571 6.1116619 0
-325.26373 58.473728 6.1959009 0
-324.85748 58.4146 6.181107 0
-325.08035 59.03159 6.1331563 0
-349.70877 62.173946 6.1589165 0
-323.41132 55.055424 6.2506704 0
-324.79779 56.57193 6.2899885 0
-349.29111 60.184643 6.2935739 0
-349.62436 60.493816 6.2771792 0
-321.76971 55.277802 6.3551445 0
-323.36279 55.493649 6.3070197 0
-322.84531 55.445896 6.3800125 0
-322.72028 55.43808 6.3838077 0
-320.48492 55.540085 6.3079195 0
-324.58328 56.628288 6.371552 0
-325.04892 57.46217 6.3617401 0
-324.96014 57.585217 6.3956566 0
-324.69745 58.574154 6.388422 0
-349.33759 59.834373 6.3105555 0
-349.90576 60.018894 6.3487945 0
-349.12115 60.438099 6.3663225 0
-349.08954 60.429504 6.3176742 0
-322.37839 55.273441 6.4209409 0
-321.38937 55.217045 6.4264894 0
-321.71011 55.390461 6.4331193 0
-321.64764 55.301956 6.4355865 0
-321.18842 55.432873 6.4255619 0
-322.75964 55.531288 6.422534 0
-322.01886 55.510666 6.4264598 0
-323.1474 56.005016 6.4847708 0
-325.0347 57.432453 6.403439 0
-325.07892 57.581028 6.4157901 0
-324.84515 57.613949 6.4837155 0
-349.34027 60.094624 6.4148893 0
-349.60715 60.310158 6.4585595 0
-323.22702 55.96727 6.5057979 0
-323.20856 56.098896 6.5019197 0
-323.55975 56.179176 6.5020299 0
-323.70261 56.226345 6.5440378 0
-323.67899 56.225498 6.572793 0
-323.27341 56.23328 6.5311408 0
-323.27283 56.310036 6.5340385 0
-324.43564 56.58939 6.5137115 0
-324.21417 56.580368 6.5903211 0
-319.20148 50.071804 6.6953778 0
-321.89444 55.834393 6.6926875 0
-323.20074 56.119572 6.6464357 0
-320.97852 56.281921 6.6504407 0
-323.34338 56.949162 6.6922345 0
-323.40704 57.084267 6.6445546 0
-323.38855 57.066269 6.6421714 0
-324.63464 57.817772 6.6150312 0
-323.32816 55.754585 6.7993655 0
-321.95026 55.88586 6.7363768 0
-323.94788 57.054371 6.7094584 0
-324.33423 57.496849 6.7586598 0
-324.3291 57.559959 6.7343278 0
-324.20349 57.545002 6.7502351 0
-324.3324 57.699291 6.7458153 0
-324.50851 58.517731 6.7387953 0
-321.71158 55.650501 6.877037 0
-324.4332 57.528973 6.8819232 0
-321.48599 55.756237 7.0533543 0
-349.79843 61.743111 7.0815229 0
-349.15244 62.562878 7.0549917 0
-322.0838 55.943577 7.2107325 0
-322.37366 56.56144 7.255065 0
-347.90048 64.449142 7.2831287 0
-322.93585 56.560623 7.3473401 0
-322.70581 57.668812 7.3770657 0
-321.19562 55.302132 7.4171228 0
-321.67831 55.94006 7.4734054 0
-322.13583 56.022598 7.4221907 0
-322.25674 56.672207 7.4450698 0
-346.32993 71.937225 7.8864202 0
-346.28296 71.977531 7.8645582 0
-348.3913 64.419373 7.9794922 0
-322.42252 57.874237 8.205018 0
-347.79202 62.423634 8.2552471 0
-348.23929 62.500595 8.5354977 0
-348.31894 62.641815 8.5546656 0
-348.41992 62.267914 9.2163515 0
-348.12259 63.896915 9.6670513 0
