# .PCD v0.7 - Point Cloud Data file format
VERSION 0.7
FIELDS x y z intensity
SIZE 4 4 4 4
TYPE F F F F
COUNT 1 1 1 1
WIDTH 456
HEIGHT 1
VIEWPOINT 0 0 0 1 0 0 0
POINTS 456
DATA ascii
-467.81204 50.261158 -5.0387878 0
-465.40692 50.313004 -4.8435507 0
-472.5112 50.516407 -4.7209797 0
-469.19492 50.779743 -4.7769103 0
-455.1792 50.720634 -4.7037239 0
-473.83148 50.979427 -4.7127047 0
-473.86206 51.117168 -4.7477207 0
-473.44632 50.066616 -4.6967707 0
-468.5668 50.070065 -4.6709752 0
-455.33063 50.675003 -4.6443744 0
-451.03876 50.988247 -4.6855793 0
-452.0267 51.303013 -4.6623144 0
-451.53571 51.334011 -4.6213517 0
-451.4212 51.555813 -4.6009393 0
-451.4848 51.646423 -4.6180058 0
-451.0975 51.669888 -4.6532912 0
-473.24506 51.901447 -4.6920414 0
-475.09647 52.186161 -4.6134353 0
-450.88947 52.719124 -4.6173692 0
-450.09097 52.972485 -4.629344 0
-465.46872 50.401707 -4.5809803 0
-451.31711 51.749603 -4.5912395 0
-467.21838 53.148094 -4.5884099 0
-464.02426 53.763615 -4.5095286 0
-477.14651 51.083931 -4.4312944 0
-453.67941 52.235912 -4.4483995 0
-451.02982 52.563381 -4.4862914 0
-451.19165 52.627419 -4.484427 0
-453.87497 52.93597 -4.4127865 0
-451.10623 53.059875 -4.441205 0
-469.32376 53.215946 -4.4938068 0
-474.47617 50.156212 -4.3017349 0
-469.73343 52.698158 -4.3894362 0
-473.83884 53.140293 -4.3571959 0
-452.10779 53.647701 -4.3429337 0
-458.71115 54.546776 -4.3398647 0
-450.34286 50.323933 -4.2799149 0
-451.73364 51.32563 -4.2113934 0
-476.10117 52.390759 -4.2814894 0
-453.20114 54.399158 -4.2059417 0
-458.78848 54.448631 -4.2775917 0
-454.96164 55.04356 -4.2329631 0
-452.98138 55.3993 -4.2328253 0
-464.38217 55.425125 -4.2905626 0
-467.07098 55.511375 -4.2012982 0
-464.14813 55.926666 -4.243125 0
-473.68298 53.465717 -4.1972704 0
-475.66782 54.338409 -4.1565452 0
-453.6926 54.499146 -4.1859508 0
-451.95212 54.489445 -4.128099 0
-452.16058 54.547142 -4.1617169 0
-453.80566 54.855659 -4.1334763 0
-451.4429 54.816082 -4.1465435 0
-450.60245 54.844669 -4.1858902 0
-451.38773 54.953922 -4.1332917 0
-455.3028 55.17255 -4.1030889 0
-451.07019 55.443737 -4.1093621 0
-464.71255 56.205482 -4.1902494 0
-451.64975 51.409927 -4.0703959 0
-473.82791 53.304695 -4.0525751 0
-451.52307 54.784985 -4.0277209 0
-466.25635 54.95311 -4.0489359 0
-451.56354 55.030392 -4.0279703 0
-452.63318 55.56945 -4.0179515 0
-452.08878 56.14138 -4.0189443 0
-452.16742 56.376526 -4.0236392 0
-463.12393 56.71336 -4.0571213 0
-465.68243 57.072548 -4.064867 0
-457.95947 50.199287 -3.958426 0
-461.29916 53.280891 -3.9176283 0
-467.84698 54.638187 -3.9348919 0
-467.70682 54.680176 -3.9379158 0
-466.28241 54.972771 -3.927664 0
-453.5209 56.205364 -3.9623649 0
-466.38614 54.969875 -3.8572521 0
-455.0563 56.604389 -3.8674846 0
-472.35239 57.006767 -3.8838558 0
-453.2847 57.097458 -3.8176713 0
-452.91348 57.164158 -3.8129783 0
-461.62613 58.536011 -3.834296 0
-461.98642 58.672291 -3.8312705 0
-477.63007 54.576508 -3.732785 0
-477.43835 54.554794 -3.724122 0
-466.73093 54.995304 -3.7829185 0
-452.61401 54.000839 -3.6558986 0
-476.16257 57.896809 -3.6857843 0
-473.35718 57.822453 -3.6297667 0
-484.61398 54.394974 -3.5397947 0
-484.46329 54.660004 -3.5420551 0
-477.41263 54.633995 -3.5484929 0
-466.69589 55.787525 -3.528604 0
-466.70926 55.833103 -3.5869298 0
-467.03387 56.519028 -3.5669503 0
-466.96121 56.549118 -3.5108879 0
-456.76965 57.441483 -3.5764675 0
-476.53345 57.949688 -3.531564 0
-452.62811 58.19117 -3.5240717 0
-467.61435 61.133583 -3.5249398 0
-451.70792 51.324867 -3.4411933 0
-453.27866 51.587982 -3.4103718 0
-461.51306 53.092186 -3.4764948 0
-454.38519 55.084305 -3.4396622 0
-467.02084 56.463749 -3.4821334 0
-457.06738 57.384735 -3.4726195 0
-456.9581 57.4963 -3.4860718 0
-476.35233 59.007088 -3.4132929 0
-450.65671 59.11441 -3.4260268 0
-453.754 59.671364 -3.4231427 0
-465.69891 60.538948 -3.4943016 0
-468.50247 60.719543 -3.4274373 0
-470.46121 62.367134 -3.4059391 0
-453.40012 51.541508 -3.3641882 0
-453.31711 51.598598 -3.3673477 0
-461.40195 53.071175 -3.3821151 0
-461.40085 53.170231 -3.3749299 0
-454.45389 55.082413 -3.3122787 0
-460.93427 57.172855 -3.3377874 0
-456.92633 57.535522 -3.3456106 0
-461.31027 60.632599 -3.3600061 0
-455.08099 60.853455 -3.3070402 0
-467.48444 61.01535 -3.3740244 0
-454.22165 55.195641 -3.2383201 0
-466.63828 55.792763 -3.2656431 0
-457.13092 57.337078 -3.2277355 0
-457.6817 57.580811 -3.2376211 0
-457.00217 57.579445 -3.2182529 0
-456.80142 58.376114 -3.2586343 0
-454.45554 60.986515 -3.2895629 0
-470.604 61.746483 -3.28297 0
-473.93951 53.105713 -3.1781106 0
-461.34216 53.156925 -3.1562014 0
-473.82578 53.305214 -3.1270678 0
-477.5741 56.494362 -3.1964321 0
-457.55316 57.475136 -3.1618545 0
-457.12427 57.448208 -3.1499276 0
-476.52097 57.990852 -3.1454713 0
-454.46982 61.012482 -3.1463594 0
-470.67807 61.526802 -3.198561 0
-470.18607 61.98904 -3.1762924 0
-470.0206 62.077812 -3.1920924 0
-465.25006 62.548698 -3.1913989 0
-457.02145 57.452747 -3.0592299 0
-457.08261 57.513954 -3.0214779 0
-450.58344 59.11747 -3.0293105 0
-455.92343 61.242573 -3.0991673 0
-458.01941 62.218895 -3.0017993 0
-469.32419 62.647182 -3.0656152 0
-464.54163 62.89896 -3.0889218 0
-451.39026 62.962048 -3.0292969 0
-464.08389 63.250862 -3.0052128 0
-452.78171 54.048286 -2.9739559 0
-473.21698 61.052776 -2.9235773 0
-464.92822 62.586708 -2.9862764 0
-464.45728 62.901062 -2.9461443 0
-453.35669 51.48431 -2.855226 0
-479.87073 56.906292 -2.8719804 0
-457.20886 57.429485 -2.8480875 0
-457.12476 57.50174 -2.8564026 0
-457.0307 57.562523 -2.8654008 0
-456.80252 58.426979 -2.8559439 0
-454.46469 60.071583 -2.8052375 0
-455.87918 62.19949 -2.8397694 0
-463.14725 63.708225 -2.8917539 0
-456.51898 52.953339 -2.7963676 0
-473.17325 61.061787 -2.7079158 0
-457.52002 57.416439 -2.6825812 0
-456.91275 57.68359 -2.6276999 0
-454.28729 55.053791 -2.5906994 0
-477.50095 56.390274 -2.5676851 0
-460.82422 57.109264 -2.5643458 0
-457.0632 57.651943 -2.5420783 0
-476.38342 58.05336 -2.5760176 0
-481.95215 59.120678 -2.5945485 0
-481.92621 59.281445 -2.5904713 0
-480.04916 61.52887 -2.5613508 0
-480.60794 63.189697 -2.5596368 0
-460.71295 57.222954 -2.4516704 0
-476.49286 57.960033 -2.4365587 0
-472.00562 63.11219 -2.4022171 0
-456.09338 64.779144 -2.4601634 0
-459.46295 65.354034 -2.4943995 0
-459.33182 65.35466 -2.4986937 0
-451.56351 51.338638 -2.3568344 0
-482.2757 59.265812 -2.3216882 0
-460.86636 64.31768 -2.3562136 0
-451.60434 51.351589 -2.2008536 0
-473.73578 53.10091 -2.2973177 0
-456.88535 57.75531 -2.259057 0
-456.64618 57.907055 -2.2523439 0
-482.41635 58.730606 -2.2104764 0
-482.08136 59.127071 -2.2043808 0
-451.48517 66.334862 -2.2224698 0
-457.29556 50.006973 -2.1473987 0
-456.59854 52.79266 -2.111815 0
-457.09766 57.551922 -2.1336694 0
-456.92755 57.542755 -2.1230643 0
-457.04633 57.652248 -2.1441896 0
-456.94534 57.690182 -2.191977 0
-482.27417 58.874859 -2.1771355 0
-451.50467 54.792095 -2.0786898 0
-456.59808 55.758877 -2.0902534 0
-457.14041 57.590157 -2.057056 0
-450.49017 59.104248 -2.0569274 0
-484.29999 61.261414 -2.0170329 0
-457.36795 57.560711 -1.9179138 0
-476.29242 58.098686 -1.9526755 0
-456.97534 58.162323 -1.9987924 0
-482.21088 59.039516 -1.9713579 0
-488.32727 62.603306 -1.9629663 0
-451.50549 65.973549 -1.9244963 0
-457.26047 50.068871 -1.8940966 0
-452.57407 63.398163 -1.8718215 0
-483.70135 63.757034 -1.8510306 0
-454.56961 66.734283 -1.8460364 0
-493.86346 55.083569 -1.7835957 0
-482.50208 65.933678 -1.7849066 0
-453.19894 51.527679 -1.6681617 0
-457.36453 57.418079 -1.6284853 0
-456.90189 57.831238 -1.642208 0
-471.89581 63.152237 -1.6664686 0
-458.1814 65.091438 -1.6195525 0
-471.74167 56.591454 -1.5094841 0
-457.09204 57.573296 -1.5982804 0
-462.46094 67.691666 -1.5964507 0
-473.67661 53.183983 -1.4425325 0
-457.29456 57.409492 -1.447412 0
-457.00757 57.701927 -1.4965715 0
-456.89511 57.83968 -1.4673349 0
-457.55319 58.066986 -1.4919952 0
-482.2626 58.864864 -1.4621685 0
-450.53091 59.062984 -1.4377607 0
-453.21045 51.479797 -1.3178101 0
-453.11707 51.518719 -1.386058 0
-457.25671 57.481613 -1.3006968 0
-457.17874 57.560165 -1.3502311 0
-457.08997 57.630375 -1.3518381 0
-482.25272 58.843258 -1.3330168 0
-462.64563 59.926697 -1.3345644 0
-490.87573 63.792313 -1.346071 0
-453.38303 51.462009 -1.2309043 0
-456.55063 52.841248 -1.2430371 0
-477.17731 56.344284 -1.2037575 0
-460.89746 57.067463 -1.2199658 0
-457.08121 57.611988 -1.2828554 0
-471.07037 69.594604 -1.2258722 0
-454.3504 55.134068 -1.1875387 0
-456.9856 57.695118 -1.1891018 0
-456.47675 73.176285 -1.1078206 0
-468.46948 50.000851 -1.022017 0
-473.70795 53.080944 -1.0681462 0
-479.96362 56.8125 -1.0741495 0
-457.36319 57.504395 -1.0966021 0
-457.04672 57.65126 -1.0830941 0
-476.18607 58.12701 -1.0035642 0
-456.62335 55.658539 -0.92058861 0
-457.18057 57.500496 -0.91061121 0
-456.88617 57.954124 -0.92169613 0
-454.37115 60.038818 -0.96703064 0
-473.76419 52.934727 -0.84533662 0
-457.61325 57.622429 -0.81888586 0
-461.00635 73.998085 -0.86589551 0
-457.10461 57.609863 -0.75221157 0
-482.13434 59.245037 -0.69149411 0
-457.42322 57.515423 -0.54774356 0
-450.59976 59.117176 -0.52495497 0
-474.54639 76.63179 -0.54747295 0
-473.69418 52.809055 -0.4223879 0
-473.6423 52.996037 -0.41623423 0
-457.26102 57.647415 -0.48583102 0
-456.94708 57.856392 -0.40910897 0
-471.81897 63.214752 -0.40400198 0
-453.25671 51.51379 -0.34401628 0
-473.63519 53.051975 -0.3947899 0
-456.94141 57.899597 -0.34235108 0
-456.91803 58.042221 -0.33512086 0
-461.43613 53.066193 -0.26168415 0
-479.95901 56.579536 -0.29263538 0
-476.29126 57.90807 -0.23859151 0
-458.19955 65.010925 -0.29201823 0
-459.36209 66.41552 -0.23276615 0
-457.23233 57.462269 -0.16753481 0
-456.98843 57.761566 -0.14557679 0
-549.03339 52.218693 -0.099704728 0
-473.55298 53.054821 -0.03514893 0
-457.08273 57.644245 -0.070499159 0
-473.62314 52.909817 0.052300312 0
-457.15082 57.545464 0.063673817 0
-457.0152 57.55444 0.05825771 0
-451.64578 51.10519 0.14860544 0
-457.56152 57.489895 0.18471782 0
-457.21594 57.442993 0.12660915 0
-457.03986 57.665451 0.19728693 0
-549.12506 52.231903 0.22826302 0
-460.59354 69.860283 0.22877131 0
-457.37573 57.470097 0.37195167 0
-476.25809 57.861099 0.36524633 0
-482.022 58.953369 0.30293137 0
-470.94138 69.570221 0.32234859 0
-473.56305 52.936981 0.47639596 0
-457.12091 57.579086 0.42160189 0
-527.20337 52.330719 0.59288871 0
-456.98553 58.112415 0.50522351 0
-450.68271 59.061752 0.58609623 0
-457.66208 77.282379 0.51246929 0
-457.33279 57.526142 0.65576339 0
-457.48016 57.420395 0.7645629 0
-457.25818 57.458893 0.79621804 0
-460.90283 74.061844 0.76745981 0
-457.62643 57.394493 0.82230079 0
-458.02673 64.77832 0.83152944 0
-451.90671 73.640755 0.82377791 0
-536.96063 50.371387 0.90595466 0
-473.55545 52.799576 0.93929636 0
-473.57666 52.832249 0.91957849 0
-473.42792 52.983326 1.0403919 0
-450.79807 59.045395 1.0792669 0
-459.31531 66.54641 1.0466908 0
-459.24036 66.663841 1.0542389 0
-459.35406 66.574936 1.1285481 0
-457.06677 57.687531 1.2992219 0
-456.57373 57.921104 1.2651269 0
-473.55115 52.605194 1.3702387 0
-457.6438 57.442322 1.355672 0
-457.48563 57.161743 1.4032615 0
-457.49957 57.411987 1.4663484 0
-455.0766 66.851418 1.4770334 0
-457.29233 57.356384 1.5675138 0
-457.22037 57.454773 1.5774404 0
-458.91272 50.130852 1.6779507 0
-457.57947 57.400299 1.6496574 0
-457.14984 57.583366 1.6604745 0
-457.11319 57.677467 1.6743084 0
-455.50073 57.867409 1.7083846 0
-451.45404 50.891045 1.834119 0
-527.12128 52.1646 1.8540608 0
-457.34253 57.378265 1.8217046 0
-457.2691 57.426487 1.8024817 0
-454.54276 54.585789 2.0765228 0
-457.50226 57.392254 2.0159302 0
-451.84668 72.654251 2.0387812 0
-462.32056 60.805492 2.1464245 0
-453.15332 50.545029 2.245894 0
-454.0708 50.260609 2.4313285 0
-454.4274 66.717247 2.4299936 0
-452.95633 50.5168 2.5456119 0
-471.76111 63.240891 2.5522909 0
-454.73825 50.150314 2.6609681 0
-460.69003 57.19635 2.6670573 0
-457.94736 64.51609 2.6828625 0
-473.33353 52.547977 2.7844722 0
-457.40781 57.304024 2.7102017 0
-457.30231 57.338913 2.7679694 0
-457.28625 57.637642 2.7689931 0
-457.17139 57.709373 2.7259164 0
-457.25858 57.382862 2.8203177 0
-457.21088 57.552074 2.8320432 0
-457.02628 58.869221 2.8384025 0
-457.7713 57.238529 2.9974971 0
-450.32272 53.151264 3.0637991 0
-457.2811 57.433926 3.0072284 0
-476.31216 57.589127 3.0223861 0
-459.42987 66.515694 3.0217626 0
-457.1087 57.674801 3.1642935 0
-457.52197 57.076981 3.2218738 0
-453.90594 50.276791 3.3709798 0
-453.67047 50.542393 3.495496 0
-451.04037 52.042675 3.43292 0
-456.38437 50.105717 3.648102 0
-460.18005 54.670849 3.6314335 0
-456.33185 50.432018 3.7393298 0
-473.32904 52.375549 3.7656381 0
-477.48718 53.535698 3.7968714 0
-453.50327 58.217724 3.7829857 0
-549.03595 51.864365 3.8828371 0
-451.60062 62.396248 3.829205 0
-455.17456 50.973022 3.9898822 0
-457.50742 50.433666 4.0288062 0
-457.53027 56.927425 4.0599651 0
-451.29831 51.232433 4.2008071 0
-451.05658 59.945747 4.2803025 0
-473.13525 52.350437 4.3567896 0
-473.22516 52.279839 4.5491629 0
-480.7518 61.173107 4.6202283 0
-452.65219 50.532444 4.87956 0
-452.16406 50.082298 5.0315051 0
-451.49371 50.839935 5.0209899 0
-450.28244 51.965759 5.0766368 0
-450.75333 55.46854 5.3952446 0
-457.43875 57.537327 5.3100281 0
-450.93826 52.948841 5.4829798 0
-454.33337 50.636139 5.5096874 0
-473.08759 52.310646 5.6138854 0
-450.46796 52.73938 5.7986364 0
-451.1741 51.665302 5.8388362 0
-451.10468 52.247032 5.8316426 0
-450.60809 52.895435 5.854136 0
-456.83194 50.151566 5.9498658 0
-450.26974 53.326946 5.9333749 0
-451.22449 52.249763 6.0111852 0
-451.23322 52.390301 6.009532 0
-461.28754 54.256195 6.0571036 0
-459.18219 54.40905 6.0956302 0
-454.42764 58.43161 6.0098491 0
-459.23917 54.644585 6.1579137 0
-461.83725 56.820866 6.1860056 0
-451.02219 58.794743 6.183228 0
-456.10043 51.542313 6.21662 0
-456.17514 51.057602 6.3916841 0
-462.53568 55.947556 6.3691998 0
-452.12149 73.783478 6.3989935 0
-465.77777 56.203053 6.5457311 0
-457.92639 63.501133 6.5046906 0
-451.16623 54.565964 6.6674109 0
-462.53915 51.798592 6.9392419 0
-462.46408 51.881992 6.9510417 0
-456.94003 55.926804 6.9416432 0
-462.56146 52.155544 7.0253677 0
-454.23376 52.5401 7.0923133 0
-458.00339 57.250076 7.0524549 0
-472.99789 52.159386 7.1549921 0
-450.56354 53.859467 7.1527801 0
-451.42831 50.432098 7.2250638 0
-450.58707 54.003761 7.2302141 0
-452.08954 50.490921 7.360301 0
-457.39719 55.358326 7.4916368 0
-457.49936 55.307224 7.5059009 0
-457.34998 55.378658 7.5047593 0
-450.0116 54.132828 7.6865473 0
-457.4039 55.108212 7.8817677 0
-457.25867 55.286407 7.9101739 0
-457.23114 55.215385 8.0241823 0
-457.46753 54.667164 8.5762005 0
-457.22318 54.521999 9.0524044 0
-453.34821 58.150707 9.0788746 0
-452.2348 52.628979 9.3506737 0
-457.21014 54.46373 9.4347105 0
-457.00873 54.526993 9.6174612 0
-456.81274 54.121181 10.081738 0
-453.69977 66.630592 10.068601 0
-457.62366 57.311691 10.131384 0
-456.74789 53.889595 10.447073 0
-457.54892 57.180897 10.46371 0
-457.55234 57.296921 10.40029 0
-453.28134 64.912331 10.439643 0
-452.88754 64.926872 10.417477 0
-459.09143 55.426544 10.606449 0
-457.50479 57.31776 10.799072 0
-456.32733 53.409607 10.994928 0
-457.42337 57.433182 11.052637 0
-456.28995 53.131245 11.124504 0
-457.28976 57.282818 11.17654 0
-459.00906 54.952541 11.268501 0
-455.68509 52.329582 11.755963 0
-454.00006 64.487236 11.751924 0
-451.99985 64.596687 12.042085 0
-480.80814 57.755169 15.709556 0
