# .PCD v0.7 - Point Cloud Data file format
VERSION 0.7
FIELDS x y z intensity
SIZE 4 4 4 4
TYPE F F F F
COUNT 1 1 1 1
WIDTH 158
HEIGHT 1
VIEWPOINT 0 0 0 1 0 0 0
POINTS 158
DATA ascii
-555.39325 52.620983 0.24067374 0
-560.06146 50.490749 0.63319278 0
-560.90967 52.08469 0.83225906 0
-551.94409 57.86874 0.83473212 0
-555.48578 52.163544 1.7343839 0
-555.71448 52.011314 2.0450218 0
-605.40137 50.741871 2.4366348 0
-596.61096 52.195995 2.4795601 0
-618.20941 50.381996 2.6419501 0
-616.9295 50.549984 2.6619773 0
-621.55286 50.020473 2.7296345 0
-625.35681 50.385799 2.7059894 0
-617.9422 50.635338 2.7407088 0
-632.3092 50.008945 2.8873394 0
-627.4472 50.189594 2.8897924 0
-625.45135 50.189865 2.8544586 0
-626.87518 51.103371 2.8845923 0
-632.64972 50.09243 2.9403503 0
-629.63367 50.240902 2.9736021 0
-629.33691 50.367271 2.9882848 0
-629.02173 50.391029 2.9916239 0
-625.73016 50.344952 2.9154418 0
-622.73914 50.502712 2.9936066 0
-605.12286 50.546829 2.9383876 0
-605.02478 50.581566 2.9509008 0
-620.28033 50.801117 2.9129188 0
-622.41833 50.946392 2.9570091 0
-618.11243 50.94289 2.9188743 0
-623.41479 51.311569 2.9643476 0
-555.65173 51.810268 2.9260993 0
-636.94012 50.060688 3.0525644 0
-628.04163 50.412991 3.0016012 0
-627.60431 50.578342 3.0205443 0
-621.93646 50.581436 3.0161262 0
-623.90009 50.670853 3.0647745 0
-625.18555 50.709633 3.0533125 0
-624.98322 50.851025 3.0382483 0
-622.97638 50.860046 3.0912454 0
-622.65436 50.854153 3.0490568 0
-621.9469 50.854469 3.0504966 0
-620.71521 50.859043 3.0614913 0
-620.02063 50.934212 3.0267053 0
-619.56293 51.073967 3.0477118 0
-638.51819 50.123459 3.1463819 0
-621.73499 51.00724 3.1199622 0
-630.55469 51.170162 3.1622233 0
-630.04901 51.361671 3.1795986 0
-635.04645 50.27483 3.2173719 0
-605.13715 50.549202 3.2205715 0
-628.14337 51.768078 3.2271571 0
-619.46362 51.74313 3.2200065 0
-627.96851 51.900848 3.2397182 0
-623.38916 51.990986 3.2773972 0
-636.92456 50.274807 3.3804493 0
-640.94727 50.58968 3.3209827 0
-633.63306 51.548229 3.3493814 0
-625.46765 51.574947 3.3125899 0
-624.19446 51.909035 3.3792548 0
-623.5531 51.996628 3.3135006 0
-631.48077 52.013618 3.3425968 0
-625.66492 52.045605 3.397738 0
-596.93738 52.197662 3.398628 0
-627.21863 52.494774 3.3003969 0
-643.67267 50.153378 3.432049 0
-642.15619 50.298847 3.4870393 0
-634.60248 50.956516 3.4306653 0
-635.62823 51.101803 3.4327862 0
-634.35834 51.188339 3.4190006 0
-637.77832 51.249237 3.4671412 0
-637.61127 51.281776 3.4602563 0
-633.70648 51.224686 3.4142833 0
-631.93811 51.570087 3.4773071 0
-631.75757 51.671684 3.4229162 0
-610.90979 51.720833 3.4095874 0
-627.63788 52.002998 3.407495 0
-646.22931 50.020077 3.5501466 0
-645.03198 50.216019 3.5508764 0
-647.26337 50.33606 3.5800276 0
-638.36548 51.348927 3.5826838 0
-631.91229 52.115437 3.5533442 0
-629.59955 52.195335 3.5679734 0
-629.21161 52.532444 3.5464208 0
-624.22498 52.956299 3.5538504 0
-648.95715 50.182362 3.6507375 0
-648.80414 50.150848 3.6591043 0
-646.03131 50.337524 3.6403036 0
-644.74994 50.448265 3.6549001 0
-643.48871 50.669777 3.6434679 0
-644.37036 50.864891 3.6355622 0
-642.56116 50.893623 3.6382763 0
-645.31476 51.035793 3.6738443 0
-642.36127 51.191044 3.6334996 0
-631.58099 52.387135 3.6278467 0
-626.37439 53.062874 3.6685112 0
-624.08929 53.247124 3.6352415 0
-645.9939 50.314404 3.745749 0
-647.7652 50.798969 3.7057819 0
-646.68103 50.767498 3.7580292 0
-647.69183 50.837223 3.777302 0
-646.97955 51.036575 3.7224278 0
-641.14288 51.911175 3.7852716 0
-635.69702 52.638195 3.7890239 0
-623.01947 53.234863 3.7105505 0
-622.84943 53.250957 3.7091858 0
-623.65649 53.441833 3.7484846 0
-649.22577 50.581081 3.8193426 0
-604.96643 50.504173 3.8354723 0
-638.6546 52.139038 3.8957729 0
-636.82159 52.128975 3.8181994 0
-635.79388 52.138908 3.8899505 0
-636.52008 52.745228 3.8478854 0
-627.85217 53.491398 3.8723354 0
-649.13544 51.579823 3.9796898 0
-636.45044 52.124191 3.9276226 0
-643.24377 52.425716 3.9888391 0
-642.23199 52.750172 3.9544282 0
-631.17004 53.459869 3.9809079 0
-605.27698 50.424461 4.0892448 0
-605.38922 50.50457 4.0217857 0
-649.95062 51.027802 4.0851984 0
-649.78833 51.072098 4.0931983 0
-644.79175 52.09988 4.0548673 0
-642.31921 52.374321 4.0830522 0
-633.48395 53.406181 4.055068 0
-633.12006 53.78558 4.0332198 0
-649.68219 51.244694 4.1070089 0
-643.89581 52.446133 4.1616688 0
-638.08649 52.868797 4.18643 0
-645.81653 53.053844 4.1990881 0
-633.37341 53.965885 4.1535497 0
-646.51172 53.210011 4.2563796 0
-646.34521 53.271149 4.2479944 0
-634.47815 53.845638 4.2109232 0
-644.8562 52.527737 4.3446393 0
-640.7124 52.996712 4.311142 0
-641.26526 53.216633 4.3793998 0
-641.24194 53.531414 4.3897862 0
-648.90173 52.83358 4.4340796 0
-648.43866 53.367584 4.4967284 0
-648.23468 53.348518 4.477282 0
-648.07922 53.351688 4.4662166 0
-634.43774 54.509804 4.4133105 0
-647.9895 52.859955 4.513473 0
-645.68329 53.227512 4.5241981 0
-640.18683 54.127617 4.5070877 0
-640.43518 54.253757 4.6418757 0
-638.44165 54.675343 4.6669936 0
-623.14618 57.36208 4.7974558 0
-640.4986 55.359577 4.9474292 0
-638.1311 55.460648 4.922184 0
-638.39148 55.751644 5.0131841 0
-623.03021 57.442463 5.0296879 0
-645.72443 54.5093 5.1055541 0
-647.28174 54.6213 5.1800051 0
-640.93939 55.817444 5.1339421 0
-643.51233 55.796612 5.2478886 0
-611.05902 51.595886 5.3811827 0
-649.99438 56.024059 5.4170794 0
