# .PCD v0.7 - Point Cloud Data file format
VERSION 0.7
FIELDS x y z intensity
SIZE 4 4 4 4
TYPE F F F F
COUNT 1 1 1 1
WIDTH 62
HEIGHT 1
VIEWPOINT 0 0 0 1 0 0 0
POINTS 62
DATA ascii
-650.98138 50.261772 3.7324793 0
-651.04285 50.547291 3.8575566 0
-650.92554 50.785248 3.8913472 0
-661.58813 50.010681 4.0302253 0
-657.5426 50.07225 4.0185862 0
-657.35382 50.015781 4.0094304 0
-659.42883 50.177357 4.0955591 0
-662.52734 50.237137 4.0602384 0
-657.11487 50.357357 4.0836163 0
-657.91974 50.694912 4.0349789 0
-650.36932 51.18681 4.0863857 0
-650.15546 51.103939 4.0833988 0
-650.07294 51.3801 4.0738521 0
-661.61646 50.025322 4.1706409 0
-658.98444 50.513813 4.1672869 0
-650.22748 51.361454 4.1180987 0
-652.17841 51.867943 4.1308732 0
-652.01593 51.884747 4.1222262 0
-664.12421 50.653316 4.2683463 0
-664.47418 50.775562 4.3159704 0
-660.2663 50.952522 4.3437634 0
-661.53235 51.173599 4.3782363 0
-654.62274 51.97435 4.3116474 0
-655.68243 52.044376 4.3934002 0
-654.47455 52.043064 4.303813 0
-650.88165 52.498318 4.3337631 0
-659.92273 50.963905 4.4278679 0
-651.70917 52.408352 4.4831176 0
-668.46387 50.071156 4.5609026 0
-662.17023 50.857189 4.5668335 0
-652.18787 53.00169 4.5815415 0
-658.34283 52.591282 4.6824903 0
-651.43225 53.588985 4.6108589 0
-672.13367 50.152107 4.7551417 0
-676.60852 50.845169 4.7724724 0
-653.19159 53.4217 4.7808275 0
-651.1983 53.784809 4.7673016 0
-650.46704 53.702534 4.7004495 0
-668.71606 50.863132 4.8004031 0
-650.90393 53.207733 4.8120098 0
-650.71338 53.22517 4.8049498 0
-650.67212 53.577793 4.9720259 0
-654.46405 53.986046 5.0185413 0
-652.4729 53.985596 5.0065064 0
-651.20282 54.002365 5.0345559 0
-652.17987 53.787052 5.1033497 0
-657.23407 54.02887 5.1152263 0
-651.40747 54.279305 5.1960506 0
-658.15247 54.413391 5.1457267 0
-678.89062 51.408058 5.2549586 0
-662.22589 53.089767 5.2746439 0
-660.39386 53.067093 5.2766094 0
-660.12177 53.134338 5.2093329 0
-659.96948 53.224957 5.2141924 0
-656.25079 54.023933 5.2001123 0
-656.45343 54.248867 5.2482328 0
-659.92004 53.611893 5.3478923 0
-651.97418 54.34985 5.3043647 0
-651.07336 54.651688 5.3367743 0
-650.87476 54.633907 5.3280945 0
-650.73724 54.713329 5.3324151 0
-652.80707 56.785252 5.7723484 0
