# .PCD v0.7 - Point Cloud Data file format
VERSION 0.7
FIELDS x y z intensity
SIZE 4 4 4 4
TYPE F F F F
COUNT 1 1 1 1
WIDTH 38
HEIGHT 1
VIEWPOINT 0 0 0 1 0 0 0
POINTS 38
DATA ascii
50.752102 48.807243 5.1274638 0
50.238369 46.603172 5.2909184 0
50.471725 47.543907 5.2800846 0
51.31818 48.802933 5.2642393 0
53.150265 49.622002 5.981257 0
50.310356 43.030926 6.0412087 0
50.662395 43.973984 6.0262804 0
51.131016 44.984833 6.0069814 0
52.329815 47.190239 6.0695014 0
50.966328 44.873047 6.1480088 0
56.627094 8.371088 6.2619038 0
52.39991 45.816628 6.2205024 0
52.543728 16.527309 6.5165529 0
51.312126 13.842767 6.660253 0
51.481522 14.491148 6.6203542 0
52.506096 42.371006 6.7871661 0
53.10725 43.551811 6.766788 0
56.866081 4.9730849 6.8695822 0
54.967148 7.0410976 6.8556085 0
50.521152 38.390938 6.8529706 0
51.16291 39.848389 6.831387 0
51.982559 41.046947 6.8436251 0
52.255753 41.954227 6.8311648 0
51.878712 37.687069 7.0571742 0
50.137173 31.721836 7.3462501 0
50.20594 33.319836 7.3320312 0
54.453194 40.863251 7.3154192 0
50.990536 32.584286 7.7027879 0
58.750622 33.974491 7.7867846 0
51.809189 29.999872 7.8142805 0
53.977386 11.263123 9.123229 0
57.691856 42.919357 11.83648 0
58.372765 43.102039 11.915974 0
62.813354 49.675808 13.392229 0
57.11903 -4.9292445 14.767843 0
58.415752 -6.6586442 14.966552 0
58.217968 -8.2647228 15.566422 0
61.072601 -9.6127338 47.400661 0
