# .PCD v0.7 - Point Cloud Data file format
VERSION 0.7
FIELDS x y z intensity
SIZE 4 4 4 4
TYPE F F F F
COUNT 1 1 1 1
WIDTH 12
HEIGHT 1
VIEWPOINT 0 0 0 1 0 0 0
POINTS 12
DATA ascii
50.348194 58.517265 4.4694438 0
51.590714 53.306061 4.7920685 0
53.90654 56.340561 4.8328962 0
52.78701 53.945984 4.9302897 0
52.954384 54.397312 4.912858 0
52.085026 50.441608 5.2449307 0
54.835239 51.741627 5.8979678 0
54.42963 52.497032 5.8720803 0
53.874546 50.22488 5.924325 0
53.733368 50.748119 5.9394326 0
54.67461 50.662819 6.1250348 0
55.020885 50.64003 6.1301756 0
